<?xml version="1.0" standalone="no"?><!DOCTYPE svg PUBLIC "-//W3C//DTD SVG 1.1//EN" "http://www.w3.org/Graphics/SVG/1.1/DTD/svg11.dtd"><svg t="1679403598865" class="icon" viewBox="0 0 1024 1024" version="1.1" xmlns="http://www.w3.org/2000/svg" p-id="3142" xmlns:xlink="http://www.w3.org/1999/xlink" width="200" height="200"><path d="M789.344 874.656H362.688c-36.256 0-64-27.744-64-64V469.312c0-36.256 27.744-64 64-64h426.656c36.256 0 64 27.744 64 64v341.344c0 36.256-27.744 64-64 64zM384 789.344h384v-298.656H384v298.656z" p-id="3143"></path><path d="M213.344 490.656H128v-128C128 268.8 204.8 192 298.656 192h234.656v85.344H298.656a85.6 85.6 0 0 0-85.344 85.344v128z" p-id="3144"></path><path d="M501.344 354.144V115.2L684.8 234.656z" p-id="3145"></path></svg>