<?xml version="1.0" standalone="no"?><!DOCTYPE svg PUBLIC "-//W3C//DTD SVG 1.1//EN" "http://www.w3.org/Graphics/SVG/1.1/DTD/svg11.dtd"><svg t="1678083146693" class="icon" viewBox="0 0 1024 1024" version="1.1" xmlns="http://www.w3.org/2000/svg" p-id="11590" xmlns:xlink="http://www.w3.org/1999/xlink" width="200" height="200"><path d="M284.434286 971.52c-88.283429 0-132.864-44.580571-132.864-134.144V187.227429c0-89.142857 44.580571-134.564571 132.864-134.564572h197.12v314.569143c0 54.857143 25.728 81.005714 80.585143 81.005714h310.290285v389.138286c0 89.142857-44.141714 134.144-132.864 134.144h-455.131428z m279.003428-581.997714c-15.433143 0-23.588571-7.716571-23.588571-23.149715V57.380571c18.011429 2.998857 36.022857 15.433143 55.716571 36.004572l236.580572 240.420571c20.132571 20.992 32.566857 38.144 35.565714 55.716572h-304.274286z m-260.571428 212.717714c-15.780571 0-28.580571 12.8-28.580572 28.580571v200.045715C274.285714 846.628571 287.085714 859.428571 302.866286 859.428571h28.580571c15.780571 0 28.562286-12.8 28.562286-28.580571v-200.045714c0-15.762286-12.8-28.562286-28.562286-28.562286h-28.580571z m128.585143-85.723429c-15.780571 0-28.562286 12.8-28.562286 28.562286v285.769143c0 15.780571 12.8 28.580571 28.562286 28.580571h28.580571c15.780571 0 28.580571-12.8 28.580571-28.580571V545.097143c0-15.780571-12.8-28.562286-28.580571-28.562286h-28.580571z m128.603428 171.446858c-15.780571 0-28.580571 12.8-28.580571 28.580571v114.304c0 15.780571 12.8 28.580571 28.580571 28.580571h28.580572c15.780571 0 28.562286-12.8 28.562285-28.580571v-114.285714c0-15.798857-12.8-28.598857-28.562285-28.598857h-28.580572z" p-id="11591"></path></svg>