<?xml version="1.0" standalone="no"?><!DOCTYPE svg PUBLIC "-//W3C//DTD SVG 1.1//EN" "http://www.w3.org/Graphics/SVG/1.1/DTD/svg11.dtd"><svg t="1678083187407" class="icon" viewBox="0 0 1024 1024" version="1.1" xmlns="http://www.w3.org/2000/svg" p-id="11729" xmlns:xlink="http://www.w3.org/1999/xlink" width="200" height="200"><path d="M284.434286 971.428571h455.131428c88.722286 0 132.864-45.001143 132.864-134.144V448.146286H562.139429c-54.857143 0-80.566857-26.148571-80.566858-81.005715V52.571429H284.434286c-88.283429 0-132.864 45.421714-132.864 134.582857v650.130285c0 89.563429 44.580571 134.144 132.864 134.144z m279.003428-581.997714h304.274286c-2.998857-17.572571-15.433143-34.724571-35.565714-55.716571L595.565714 93.275429c-19.712-20.553143-37.705143-32.987429-55.716571-35.986286V366.262857c0 15.433143 8.155429 23.149714 23.588571 23.149714z m-216.429714 244.297143c-17.572571 0-30.006857-12.434286-30.006857-29.147429 0-16.731429 12.434286-29.147429 29.988571-29.147428h330.422857c17.152 0 30.445714 12.434286 30.445715 29.129143 0 16.731429-13.293714 29.147429-30.427429 29.147428z m0 163.273143c-17.572571 0-30.006857-12.434286-30.006857-29.147429s12.434286-29.147429 29.988571-29.147428h330.422857c17.152 0 30.445714 12.434286 30.445715 29.147428s-13.293714 29.147429-30.427429 29.147429z" p-id="11730"></path></svg>