<?xml version="1.0" standalone="no"?><!DOCTYPE svg PUBLIC "-//W3C//DTD SVG 1.1//EN" "http://www.w3.org/Graphics/SVG/1.1/DTD/svg11.dtd"><svg t="1678083072149" class="icon" viewBox="0 0 1024 1024" version="1.1" xmlns="http://www.w3.org/2000/svg" p-id="11451" xmlns:xlink="http://www.w3.org/1999/xlink" width="200" height="200"><path d="M803.419429 946.578286c33.444571-7.716571 67.291429-29.586286 67.291428-70.729143 0-16.713143-4.717714-28.269714-10.276571-38.144-3.437714-5.558857-2.998857-9.856 2.139428-11.995429 26.989714-11.995429 49.28-35.986286 49.28-70.710857 0-19.291429-5.138286-36.864-14.994285-49.28-4.717714-6.436571-3.858286-11.574857 3.84-16.274286 20.150857-11.154286 33.024-36.022857 33.024-64.310857 0-19.712-6.436571-41.563429-18.450286-52.278857-6.4-5.997714-5.12-10.276571 2.157714-16.274286 14.134857-10.715429 21.851429-31.286857 21.851429-55.716571 0-42.002286-32.566857-75.867429-75.428572-75.867429h-152.996571c-38.582857 0-64.731429-20.132571-64.731429-51.858285 0-59.136 73.307429-165.430857 73.307429-242.139429 0-39.862857-26.148571-63.853714-60.013714-63.853714-30.848 0-46.701714 21.430857-63.414858 53.997714-63.872 125.988571-150.436571 227.565714-216.009142 314.569143-55.716571 74.569143-83.145143 137.142857-84.425143 240-2.139429 158.153143 125.988571 278.564571 327.424 280.283429l59.574857 0.438857c56.137143 0.420571 97.28-3.858286 120.868571-9.874286zM84.717714 678.710857c0 128.566857 79.725714 236.141714 187.282286 236.141714h76.708571c-77.568-56.557714-113.133714-142.281143-111.433142-240.420571 1.28-108.854857 43.721143-186.441143 81.444571-233.581714h-63.012571c-96.420571 0-170.989714 104.594286-170.989715 237.860571z" p-id="11452"></path></svg>