<?xml version="1.0" standalone="no"?><!DOCTYPE svg PUBLIC "-//W3C//DTD SVG 1.1//EN" "http://www.w3.org/Graphics/SVG/1.1/DTD/svg11.dtd"><svg t="1679401502036" class="icon" viewBox="0 0 1024 1024" version="1.1" xmlns="http://www.w3.org/2000/svg" p-id="3294" xmlns:xlink="http://www.w3.org/1999/xlink" width="200" height="200"><path d="M755.2 694.4c48-64 76.8-140.8 76.8-224 0-201.6-163.2-361.6-361.6-361.6S105.6 265.6 105.6 467.2c0 201.6 163.2 361.6 361.6 361.6 80 0 160-25.6 224-76.8l163.2 163.2 60.8-60.8-160-160z m-89.6-28.8c-54.4 51.2-121.6 80-195.2 80-153.6 0-278.4-124.8-278.4-278.4S316.8 192 470.4 192c153.6 0 278.4 124.8 278.4 278.4-3.2 73.6-28.8 140.8-83.2 195.2z" p-id="3295"></path><path d="M512 320h-86.4v105.6H320V512h105.6v105.6H512V512h105.6v-86.4H512z" p-id="3296"></path></svg>