<?xml version="1.0" standalone="no"?><!DOCTYPE svg PUBLIC "-//W3C//DTD SVG 1.1//EN" "http://www.w3.org/Graphics/SVG/1.1/DTD/svg11.dtd"><svg t="1679401505268" class="icon" viewBox="0 0 1024 1024" version="1.1" xmlns="http://www.w3.org/2000/svg" p-id="3447" xmlns:xlink="http://www.w3.org/1999/xlink" width="200" height="200"><path d="M855.456 915.2l-162.144-162.144c-64 51.2-142.944 76.8-224 76.8-200.544 0-362.656-162.144-362.656-362.656S268.8 106.656 469.312 106.656 831.968 268.8 831.968 469.312c0 83.2-27.744 160-76.8 224l162.144 162.144-61.856 59.744zM469.344 192C315.744 192 192 315.744 192 469.344s123.744 277.344 277.344 277.344c74.656 0 142.944-29.856 196.256-81.056 53.344-53.344 81.056-121.6 81.056-196.256a276.8 276.8 0 0 0-277.344-277.344z m149.312 320H320v-85.344h298.656V512z" p-id="3448"></path></svg>