<?xml version="1.0" encoding="UTF-8"?>
<svg width="24px" height="24px" viewBox="0 0 24 24" version="1.1" xmlns="http://www.w3.org/2000/svg" xmlns:xlink="http://www.w3.org/1999/xlink">
    <title>checkbox_filled copy 5</title>
    <g id="5.5-GoCart" stroke="none" stroke-width="1" fill="none" fill-rule="evenodd">
        <g id="02-GoCart---Customer---Read-Only-for-NRO" transform="translate(-325.000000, -470.000000)">
            <g id="checkbox_filled-copy-5" transform="translate(325.000000, 470.000000)">
                <rect id="Rectangle" x="0" y="0" width="24" height="24"></rect>
                <path d="M17.8735763,21 C18.9123007,21 19.6930524,20.7401709 20.2158314,20.2205128 C20.7386105,19.7008547 21,18.9316239 21,17.9128205 L21,6.08717949 C21,5.06837607 20.7386105,4.2991453 20.2158314,3.77948718 C19.6930524,3.25982906 18.9123007,3 17.8735763,3 L6.12642369,3 C5.09453303,3 4.31548975,3.25811966 3.78929385,3.77435897 C3.26309795,4.29059829 3,5.06153846 3,6.08717949 L3,17.9128205 C3,18.9384615 3.26309795,19.7094017 3.78929385,20.225641 C4.31548975,20.7418803 5.09453303,21 6.12642369,21 L17.8735763,21 Z M10.9441913,16.7538462 C10.7665148,16.7538462 10.6042141,16.7145299 10.4572893,16.6358974 C10.3103645,16.557265 10.1719818,16.4324786 10.0421412,16.2615385 L7.64350797,13.3282051 C7.5546697,13.225641 7.48974943,13.1179487 7.44874715,13.0051282 C7.40774487,12.8923077 7.38724374,12.7777778 7.38724374,12.6615385 C7.38724374,12.4290598 7.46924829,12.2290598 7.6332574,12.0615385 C7.79726651,11.8940171 7.99544419,11.8102564 8.22779043,11.8102564 C8.37129841,11.8102564 8.50455581,11.8393162 8.62756264,11.8974359 C8.75056948,11.9555556 8.87015945,12.0632479 8.98633257,12.2205128 L10.9031891,14.6717949 L14.9726651,8.14871795 C15.1708428,7.83418803 15.4202733,7.67692308 15.7209567,7.67692308 C15.9464692,7.67692308 16.1497722,7.74871795 16.3308656,7.89230769 C16.511959,8.03589744 16.6025057,8.22735043 16.6025057,8.46666667 C16.6025057,8.58290598 16.5768793,8.6974359 16.5256264,8.81025641 C16.4743736,8.92307692 16.4145786,9.03076923 16.3462415,9.13333333 L11.8052392,16.2615385 C11.6958998,16.425641 11.5694761,16.5487179 11.4259681,16.6307692 C11.2824601,16.7128205 11.1218679,16.7538462 10.9441913,16.7538462 Z" id="􀃳" fill="#000000" fill-rule="nonzero"></path>
            </g>
        </g>
    </g>
</svg>