<?xml version="1.0" encoding="UTF-8"?>
<svg width="40px" height="40px" viewBox="0 0 40 40" version="1.1" xmlns="http://www.w3.org/2000/svg" xmlns:xlink="http://www.w3.org/1999/xlink">
    <title>delivery visit</title>
    <g id="delivery-visit" stroke="none" stroke-width="1" fill="none" fill-rule="evenodd">
        <g id="task-copy-6" fill="#4656DF">
            <rect id="Rectangle" x="0" y="0" width="40" height="40" rx="10"></rect>
        </g>
        <g id="local_shipping-24px-copy" transform="translate(8.000000, 8.000000)">
            <path d="M9.2,0 L23.4,0 L23.4,0 L23.4,20.8 L2.6,20.8 L2.6,6.6 C2.6,2.95492065 5.55492065,-2.18588206e-16 9.2,0 Z" id="Path"></path>
            <g id="van" transform="translate(0.000000, 4.333333)" fill="#FFFFFF" fill-rule="nonzero">
                <path d="M21.2333076,10.4 C19.5607068,10.4 18.2,11.760816 18.2,13.4334878 C18.2,15.1058507 19.5607583,16.4666667 21.2333076,16.4666667 C22.9061659,16.4666667 24.2666667,15.1058507 24.2666667,13.4334878 C24.2666667,11.760816 22.9059084,10.4 21.2333076,10.4 Z M21.2333076,14.7653634 C20.4985002,14.7653634 19.9009221,14.16776 19.9009221,13.4331788 C19.9009221,12.6983403 20.4985002,12.1007368 21.2333076,12.1007368 C21.968115,12.1007368 22.5656931,12.6986492 22.5656931,13.4331788 C22.5657446,14.1677085 21.968115,14.7653634 21.2333076,14.7653634 Z" id="Shape"></path>
                <path d="M17.3305784,0 L0.869421555,0 C0.389228807,0 0,0.379072613 0,0.846786902 L0,13.8865977 C0,14.3542607 0.389228807,14.7333333 0.869421555,14.7333333 L3.59365471,14.7333333 L3.59365471,13.0398621 L1.73884311,13.0398621 L1.73884311,1.69352254 L16.4611569,1.69352254 L16.4611569,13.8865977 L18.2,13.8865977 L18.2,0.846786902 C18.2,0.379072613 17.8108238,0 17.3305784,0 Z" id="Path"></path>
                <rect id="Rectangle" x="7.8" y="13" width="11.2666667" height="1.73333333"></rect>
                <path d="M5.63333333,10.4 C3.9607467,10.4 2.6,11.760816 2.6,13.4334878 C2.6,15.1058507 3.9607467,16.4666667 5.63333333,16.4666667 C7.30591997,16.4666667 8.66666667,15.1058507 8.66666667,13.4334878 C8.66666667,11.760816 7.30591997,10.4 5.63333333,10.4 Z M5.63333333,14.7653634 C4.89853217,14.7653634 4.30095912,14.16776 4.30095912,13.4331788 C4.30095912,12.6983403 4.89853217,12.1007368 5.63333333,12.1007368 C6.36813449,12.1007368 6.96570754,12.6986492 6.96570754,13.4331788 C6.96570754,14.1677085 6.36782554,14.7653634 5.63333333,14.7653634 Z" id="Shape"></path>
                <path d="M25.1386108,6.93333333 L16.4666667,6.93333333 L16.4666667,8.64761449 L24.2771172,8.64761449 L24.2771172,13.0190522 L23.0423811,13.0190522 L23.0423811,14.7333333 L25.1385586,14.7333333 C25.6143438,14.7333333 26,14.3499139 26,13.8761928 L26,7.79047391 C26,7.3170641 25.614396,6.93333333 25.1386108,6.93333333 Z" id="Path"></path>
                <path d="M22.8186037,3.03806129 C22.660193,2.76800457 22.3571321,2.6 22.0282428,2.6 L16.4666667,2.6 L16.4666667,4.29141327 L21.4949103,4.29141327 L23.5526662,7.8 L25.1333333,6.98470931 L22.8186037,3.03806129 Z" id="Path"></path>
            </g>
        </g>
    </g>
</svg>