<?xml version="1.0" encoding="UTF-8"?>
<svg width="183.990482px" height="246.289246px" viewBox="0 0 183.990482 246.289246" version="1.1" xmlns="http://www.w3.org/2000/svg" xmlns:xlink="http://www.w3.org/1999/xlink">
    <title>Group 12</title>
    <g id="Symbols" stroke="none" stroke-width="1" fill="none" fill-rule="evenodd">
        <g id="Group-12">
            <g id="Asset-168" fill-rule="nonzero">
                <rect id="Rectangle" fill="#28BEF0" transform="translate(142.994746, 164.093784) rotate(-62.340000) translate(-142.994746, -164.093784) " x="140.894746" y="158.688784" width="4.2" height="10.81"></rect>
                <rect id="Rectangle" fill="#28BEF0" transform="translate(158.642522, 172.290112) rotate(-62.340000) translate(-158.642522, -172.290112) " x="156.542522" y="167.610112" width="4.2" height="9.36"></rect>
                <path d="M132.48,156.23 L130.53,160 L123.92,156.52 C120.823752,154.906788 117.005936,156.100414 115.38,159.19 L108.24,172.82 L105.18,178.66 L102.12,184.51 L91.19,205.32 C89.5686686,208.40749 90.7545702,212.224751 93.84,213.85 L102.12,218.19 L102.12,222.93 L91.9,217.56 C89.4268601,216.269751 87.5687759,214.048431 86.7357843,211.386235 C85.9027926,208.724038 86.1633654,205.839798 87.46,203.37 L102.12,175.37 L105.18,169.52 L108.24,163.68 L111.67,157.14 C114.36867,152.002993 120.714596,150.017376 125.86,152.7 L132.48,156.23 Z" id="Path" fill="#28BEF0"></path>
                <path d="M182.81,194.48 L158.6,240.66 C155.885778,245.790474 149.542316,247.772526 144.39,245.1 L108.24,226.1 L108.24,221.4 L146.34,241.4 C149.431197,243.007991 153.240718,241.820029 154.87,238.74 L179.08,192.55 C180.69305,189.462265 179.503305,185.651502 176.42,184.03 L168.52,179.89 L170.47,176.16 L178.37,180.3 C183.487568,183.009802 185.468239,189.33546 182.81,194.48 L182.81,194.48 Z" id="Path" fill="#28BEF0"></path>
                <rect id="Rectangle" fill="#DEDEDE" transform="translate(134.878494, 159.845127) rotate(27.660000) translate(-134.878494, -159.845127) " x="132.343494" y="153.010127" width="5.07" height="13.67" rx="1.39"></rect>
                <rect id="Rectangle" fill="#DEDEDE" transform="translate(151.158152, 168.367865) rotate(27.660000) translate(-151.158152, -168.367865) " x="148.623152" y="161.532865" width="5.07" height="13.67" rx="1.39"></rect>
                <rect id="Rectangle" fill="#DEDEDE" transform="translate(166.146265, 176.228322) rotate(27.660000) translate(-166.146265, -176.228322) " x="163.611265" y="169.393322" width="5.07" height="13.67" rx="1.39"></rect>
                <path d="M125.56,185.28002 C124.888152,185.281482 124.225942,185.120218 123.63,184.81 L114.84,180.2 C112.803423,179.127897 112.016666,176.611169 113.08,174.57 L116.46,168.13 C117.531854,166.092576 120.052009,165.309224 122.09,166.38 L130.88,170.99 C131.857742,171.502771 132.591549,172.383178 132.919789,173.437299 C133.24803,174.49142 133.143779,175.632787 132.63,176.61 L129.26,183.05 C128.536153,184.422446 127.111632,185.281008 125.56,185.28002 L125.56,185.28002 Z M124.32,183.5 C125.638199,184.176073 127.254998,183.668318 127.95,182.36 L131.32,175.93 C131.653792,175.299215 131.722211,174.561349 131.510093,173.879943 C131.297976,173.198538 130.822841,172.629877 130.19,172.3 L121.4,167.69 C120.084939,167.006562 118.464795,167.510904 117.77,168.82 L114.4,175.26 C114.066208,175.890785 113.997789,176.628651 114.209907,177.310057 C114.422024,177.991462 114.897159,178.560123 115.53,178.89 L124.32,183.5 Z" id="Shape" fill="#0189B4"></path>
                <path d="M144.78,195.360014 C144.106972,195.361232 143.444041,195.196358 142.85,194.88 L134.06,190.28 C133.077871,189.768987 132.339952,188.887563 132.00962,187.830874 C131.679287,186.774185 131.783793,185.629409 132.3,184.65 L135.68,178.21 C136.755881,176.177963 139.268311,175.392549 141.31,176.45 L150.1,181.06 C152.132851,182.135654 152.914854,184.651471 151.85,186.69 L148.48,193.13 C147.756153,194.502446 146.331632,195.361008 144.78,195.360014 Z M139.38,177.46 C138.380793,177.460718 137.464315,178.015225 137,178.9 L133.63,185.34 C133.296637,185.969291 133.228479,186.705679 133.440677,187.385465 C133.652876,188.065252 134.127845,188.6321 134.76,188.96 L143.55,193.57 C144.18142,193.901598 144.918392,193.969903 145.6,193.76 C146.277719,193.541185 146.844122,193.067988 147.18,192.44 L150.55,186 C151.239339,184.68547 150.733653,183.061009 149.42,182.37 L140.63,177.77 C140.244724,177.566601 139.81567,177.460195 139.38,177.46 Z" id="Shape" fill="#0189B4"></path>
                <path d="M163.85,205.360018 C163.176972,205.361232 162.514041,205.196358 161.92,204.88 L153.13,200.28 C151.097149,199.204346 150.315146,196.688529 151.38,194.65 L154.75,188.21 C155.822103,186.173423 158.338831,185.386666 160.38,186.45 L169.17,191.06 C171.206577,192.132103 171.993334,194.648831 170.93,196.69 L167.55,203.13 C166.827849,204.504048 165.402256,205.363257 163.85,205.360018 Z M162.61,203.57 C163.92453,204.259339 165.548991,203.753653 166.24,202.44 L169.61,196 C169.943792,195.369215 170.012211,194.631349 169.800093,193.949943 C169.587976,193.268538 169.112841,192.699877 168.48,192.37 L159.69,187.76 C158.371801,187.083927 156.755002,187.591682 156.06,188.9 L152.69,195.33 C152.000661,196.64453 152.506347,198.268991 153.82,198.96 L162.61,203.57 Z" id="Shape" fill="#0189B4"></path>
                <path d="M117.49,200.680047 C116.818058,200.68228 116.155659,200.52097 115.56,200.21 L106.77,195.6 C105.808186,195.076793 105.09006,194.197088 104.77,193.15 C104.427398,192.110861 104.510089,190.978352 105,190 L108.38,183.56 C109.451899,181.529249 111.961245,180.743404 114,181.8 L122.8,186.41 C124.837424,187.481854 125.620776,190.002009 124.55,192.04 L121.18,198.48 C120.449782,199.837662 119.031575,200.683205 117.49,200.680047 L117.49,200.680047 Z M119.38,198.68 L123.74,190.36 C123.940647,189.979492 123.981718,189.534804 123.854157,189.123983 C123.726596,188.713162 123.440878,188.369943 123.06,188.17 L112.38,182.57 C111.584382,182.159567 110.606649,182.46762 110.19,183.26 L105.83,191.58 C105.629353,191.960508 105.588282,192.405196 105.715843,192.816017 C105.843404,193.226838 106.129122,193.570057 106.51,193.77 L117.19,199.37 C117.980355,199.78351 118.956292,199.484935 119.38,198.7 L119.38,198.68 Z" id="Shape" fill="#0189B4"></path>
                <path d="M136.71,210.760014 C136.036972,210.761232 135.374041,210.596358 134.78,210.28 L126,205.67 C125.017871,205.158987 124.279952,204.277563 123.94962,203.220874 C123.619287,202.164185 123.723793,201.019409 124.24,200.04 L127.61,193.61 C128.682293,191.567578 131.206426,190.779906 133.25,191.85 L142.03,196.46 C143.012129,196.971013 143.750048,197.852437 144.08038,198.909126 C144.410713,199.965815 144.306207,201.110591 143.79,202.09 L140.42,208.52 C139.700563,209.897922 138.274431,210.76131 136.72,210.760014 L136.71,210.760014 Z M131.3,192.859996 C131.028843,192.859996 130.759195,192.900348 130.5,192.98 C129.815276,193.185965 129.24448,193.662833 128.92,194.3 L125.54,200.73 C125.212791,201.363086 125.148123,202.09958 125.36,202.78 C125.565965,203.464724 126.042833,204.03552 126.68,204.359996 L135.47,208.97 C136.784766,209.65107 138.402742,209.141542 139.09,207.83 L142.47,201.4 C143.153438,200.084939 142.649096,198.464795 141.34,197.77 L132.55,193.16 C132.163019,192.96229 131.734561,192.859461 131.3,192.859996 L131.3,192.859996 Z" id="Shape" fill="#0189B4"></path>
                <path d="M155.78,220.760002 C155.107271,220.758795 154.444919,220.594065 153.85,220.28 L145.06,215.67 C143.022576,214.598146 142.239224,212.077991 143.31,210.04 L146.68,203.61 C147.191013,202.627871 148.072437,201.889952 149.129126,201.55962 C150.185815,201.229287 151.330591,201.333793 152.31,201.85 L161.1,206.46 C162.068951,206.974554 162.789847,207.857651 163.1,208.91 C163.435529,209.964809 163.33469,211.110053 162.82,212.09 L159.44,218.52 C158.720563,219.897922 157.294431,220.76131 155.74,220.760002 L155.78,220.760002 Z M150.38,202.849976 C150.10474,202.849157 149.831172,202.893063 149.57,202.98 C148.891427,203.191663 148.323695,203.662377 147.99,204.29 L144.62,210.73 C143.930661,212.04453 144.436347,213.668991 145.75,214.36 L154.54,218.97 C155.857698,219.651914 157.478749,219.142824 158.17,217.83 L161.54,211.4 C162.229339,210.08547 161.723653,208.461009 160.41,207.77 L151.62,203.16 C151.237296,202.959277 150.812138,202.852987 150.38,202.849976 Z" id="Shape" fill="#0189B4"></path>
                <path d="M116.44,204.88 C116.123834,203.830837 115.404627,202.949807 114.44,202.43 L108.28,199.2 L105.65,197.82 C105.51267,197.74112 105.368806,197.674206 105.22,197.62 C104.238222,197.225103 103.141778,197.225103 102.16,197.62 C101.233365,197.972662 100.470727,198.656898 100.02,199.54 L96.6,206 C96.0907036,206.981524 95.9900571,208.124581 96.32,209.18 C96.6301525,210.232349 97.3510486,211.115446 98.32,211.63 L102.08,213.63 L102.08,211.96 L99.01,210.35 C98.3785124,210.023293 97.9034117,209.458211 97.69,208.78 C97.4679459,208.098668 97.5404437,207.355565 97.89,206.73 L101.25,200.29 C101.443343,199.914643 101.728959,199.594615 102.08,199.36 C102.305816,199.184488 102.5641,199.055346 102.84,198.98 C103.095479,198.897936 103.361696,198.854128 103.63,198.85 C104.062896,198.846826 104.489527,198.953484 104.87,199.16 L105.14,199.29 L108.2,200.9 L113.67,203.76 C114.982824,204.451251 115.491914,206.072302 114.81,207.39 L111.43,213.83 C111.096588,214.461788 110.523906,214.933621 109.84,215.14 C109.308124,215.319842 108.731876,215.319842 108.2,215.14 L108.2,216.58 C108.204853,216.609804 108.204853,216.640196 108.2,216.67 L108.2,216.67 C108.480101,216.725165 108.764557,216.755284 109.05,216.76 C109.470928,216.764705 109.889792,216.700524 110.29,216.57 C111.349131,216.243969 112.232267,215.505019 112.74,214.52 L116.12,208.1 C116.653542,207.11282 116.768816,205.95288 116.44,204.88 L116.44,204.88 Z" id="Path" fill="#0189B4"></path>
                <path d="M128.3,226.790002 C127.628294,226.790299 126.96636,226.629103 126.37,226.32 L117.58,221.71 C115.543423,220.637897 114.756666,218.121169 115.82,216.08 L119.2,209.65 C119.705005,208.662801 120.589204,207.922961 121.65,207.6 C122.706132,207.267539 123.851428,207.371985 124.83,207.89 L133.62,212.5 C135.657424,213.571854 136.440776,216.092009 135.37,218.13 L132,224.56 C131.276153,225.932446 129.851632,226.791008 128.3,226.790002 L128.3,226.790002 Z M127.06,225 C128.377698,225.681914 129.998749,225.172824 130.69,223.86 L134.06,217.43 C134.749339,216.11547 134.243653,214.491009 132.93,213.8 L124.14,209.19 C122.824939,208.506562 121.204795,209.010904 120.51,210.32 L117.14,216.76 C116.450661,218.07453 116.956347,219.698991 118.27,220.39 L127.06,225 Z" id="Shape" fill="#0189B4"></path>
                <path d="M147.38,236.8 C146.703937,236.8 146.038056,236.635263 145.44,236.32 L136.66,231.71 C135.67983,231.197004 134.943681,230.315539 134.613593,229.259632 C134.283505,228.203724 134.386533,227.059924 134.9,226.08 L138.27,219.65 C138.781013,218.667871 139.662437,217.929952 140.719126,217.59962 C141.775815,217.269287 142.920591,217.373793 143.9,217.89 L152.69,222.5 C153.671441,223.009036 154.409194,223.888648 154.739607,224.943717 C155.07002,225.998787 154.965777,227.142085 154.45,228.12 L151.07,234.56 C150.561369,235.5443 149.678582,236.282958 148.62,236.61 C148.217742,236.7317 147.800242,236.795671 147.38,236.8 Z M142,218.88992 C141.727951,218.888431 141.457555,218.932371 141.2,219.02 C140.518202,219.225688 139.948421,219.698102 139.62,220.33 L136.24,226.77 C135.550661,228.08453 136.056347,229.708991 137.37,230.4 L146.16,235 C146.790785,235.333792 147.528651,235.402211 148.210057,235.190093 C148.891462,234.977976 149.460123,234.502841 149.79,233.87 L153.17,227.44 C153.502603,226.80849 153.567463,226.069808 153.35,225.39 C153.144035,224.705276 152.667167,224.13448 152.03,223.81 L143.24,219.2 C142.857296,218.999277 142.432138,218.892987 142,218.88992 Z" id="Shape" fill="#0189B4"></path>
                <path d="M10.92,81.69 C10.9142563,81.7297938 10.9142563,81.7702062 10.92,81.81 C10.91,81.71 10.91,81.68 10.92,81.69 Z" id="Path" fill="#FFFFFF"></path>
                <path d="M101,237.23 C100.972463,237.286094 100.935223,237.336876 100.89,237.38 C100.89,237.38 100.89,237.38 100.89,237.32 C100.89,237.26 101,237.22 101,237.23 Z" id="Path" fill="#FFFFFF"></path>
                <path d="M101.75,235.78 C101.7276,235.858085 101.700893,235.934869 101.67,236.01 C101.664116,235.950144 101.664116,235.889856 101.67,235.83 C101.67,235.83 101.67,235.83 101.67,235.83 L101.67,235.83 L101.75,235.78 Z" id="Path" fill="#FFFFFF"></path>
                <polygon id="Path" fill="#FFFFFF" points="104.83 219.58 104.81 219.61 104.76 219.58"></polygon>
                <path d="M105.18,81.38 L105.18,199.26 L104.91,199.13 C104.529527,198.923484 104.102896,198.816826 103.67,198.82 C103.401696,198.824128 103.135479,198.867936 102.88,198.95 C102.6041,199.025346 102.345816,199.154488 102.12,199.33 L102.12,213.6 L102.28,213.7 C102.175132,213.98852 102.121,214.293015 102.12,214.6 L102.12,233.51 L102.12,233.51 C102.12,233.81 102.12,234.08 102.12,234.36 L102.12,234.36 C102.02,234.83 101.89,235.24 101.77,235.7 L101.77,235.7 L101.77,235.7 C101.77,235.7 101.77,235.7 101.77,235.7 C101.64,235.98 101.49,236.24 101.33,236.54 C101.17,236.84 101.13,236.84 101.05,236.99 L100.96,237.14 L100.88,237.2 C100.58,237.53 100.27,237.85 99.94,238.2 L99.94,238.2 C99.9168915,238.204581 99.8931085,238.204581 99.87,238.2 C99.6770051,238.343553 99.4767394,238.477064 99.27,238.6 C99.1204201,238.710149 98.9595083,238.804014 98.79,238.88 L98.46,239.05 C98.4131023,239.07702 98.3625951,239.097223 98.31,239.11 L98.31,239.11 C97.9189488,239.250277 97.5177909,239.360595 97.11,239.44 L96.87,239.44 C96.6648976,239.472342 96.4576346,239.489057 96.25,239.49 L17,239.49 C16.8005025,239.51005 16.5994975,239.51005 16.4,239.49 L16.25,239.49 L15.86,239.49 C15.59,239.42 15.33,239.36 15.06,239.27 L14.58,239.11 L14.66,239.11 L14.55,239.11 L14.28,238.96 C13.93,238.76 13.57,238.54 13.28,238.31 C13.16,238.18 12.68,237.78 12.58,237.67 L12.19,237.24 C12.1961554,237.223902 12.1961554,237.206098 12.19,237.19 L12.14,237.19 C12.14,237.19 12.14,237.19 12.19,237.19 C12.1194405,237.075867 12.0426579,236.965701 11.96,236.86 C11.7374427,236.516476 11.543458,236.155263 11.38,235.78 C11.38,235.78 11.38,235.78 11.38,235.72 L11.38,235.72 L11.38,235.72 L11.38,235.72 C11.3,235.45 11.22,235.21 11.15,234.94 C11.08,234.67 11.07,234.58 11.03,234.41 C11.036747,234.366929 11.036747,234.323071 11.03,234.28 C11.03,234.74 10.9,233.8 11.03,234.28 L11.03,234.15 C11.03,233.95 11.03,233.75 11.03,233.57 C11.03,232.71 11.03,231.83 11.03,230.95 L11.03,82.24 C11.03,82.24 11.08,81.76 11.08,81.69 C11.0909971,81.5858317 11.1076887,81.4823435 11.13,81.38 C11.2,81.11 11.27,80.85 11.35,80.58 C11.35,80.52 11.43,80.34 11.48,80.22 L11.48,80.22 L11.48,80.22 L11.48,80.15 C11.65,79.8 11.83,79.47 12.03,79.15 C12.0888518,79.0450051 12.1557169,78.9447074 12.23,78.85 C12.23,78.85 12.23,78.85 12.23,78.85 C12.23,78.85 12.28,78.77 12.29,78.77 C12.2741281,78.8119342 12.2540242,78.8521419 12.23,78.89 C12.3227785,78.7814738 12.4095739,78.6679722 12.49,78.55 C12.77,78.26 13.05,77.99 13.34,77.73 C13.34,77.73 13.34,77.73 13.34,77.73 C13.34,77.73 13.42,77.66 13.45,77.65 C13.7467756,77.4506066 14.0538695,77.2670179 14.37,77.1 C14.4540158,77.06453 14.5343923,77.0209928 14.61,76.97 C14.61,76.97 14.61,76.97 14.61,76.97 L14.61,76.97 L14.66,76.97 L14.77,76.92 L14.69,76.97 L15.05,76.84 C15.4265136,76.7230925 15.8107991,76.632869 16.2,76.57 C16.4697151,76.5875425 16.7402849,76.5875425 17.01,76.57 C18.66,76.57 20.32,76.57 22.01,76.57 L28.43,76.57 C28.43,75.57 28.48,74.48 28.48,73.4399782 L28.48,73.4399782 L97,73.4399782 C101.427733,73.4328258 105.055357,76.9540162 105.18,81.38 Z" id="Path" fill="#FFFFFF"></path>
                <path d="M10.89,234.3 L10.89,234.3 C10.87,234.78 10.76,233.84 10.89,234.3 Z" id="Path" fill="#DEDEDE"></path>
                <path d="M10.92,81.69 C10.9142563,81.7297938 10.9142563,81.7702062 10.92,81.81 C10.91,81.71 10.91,81.68 10.92,81.69 Z" id="Path" fill="#DEDEDE"></path>
                <path d="M12.13,237.3 L12.13,237.3 L12.08,237.3 C12.08,237.3 12.1,237.28 12.13,237.3 Z" id="Path" fill="#DEDEDE"></path>
                <path d="M12.18,78.68 C12.1641281,78.7219342 12.1440242,78.7621419 12.12,78.8 L12.12,78.8 C12.12,78.8 12.12,78.8 12.12,78.8 C12.12,78.8 12.17,78.68 12.18,78.68 Z" id="Path" fill="#DEDEDE"></path>
                <path d="M14.78,76.74 L14.7,76.79 C14.6739963,76.7984091 14.6460037,76.7984091 14.62,76.79 L14.67,76.79 L14.78,76.74 Z" id="Path" fill="#DEDEDE"></path>
                <polygon id="Path" fill="#DEDEDE" points="14.68 239.29 14.57 239.29 14.57 239.29"></polygon>
                <path d="M101,237.23 C100.972463,237.286094 100.935223,237.336876 100.89,237.38 C100.89,237.38 100.89,237.38 100.89,237.32 C100.89,237.26 101,237.22 101,237.23 Z" id="Path" fill="#DEDEDE"></path>
                <path d="M101.75,235.78 C101.7276,235.858085 101.700893,235.934869 101.67,236.01 C101.664116,235.950144 101.664116,235.889856 101.67,235.83 C101.67,235.83 101.67,235.83 101.67,235.83 L101.67,235.83 L101.75,235.78 Z" id="Path" fill="#DEDEDE"></path>
                <path d="M102.28,213.7 C102.175132,213.98852 102.121,214.293015 102.12,214.6 L102.12,213.6 L102.28,213.7 Z" id="Path" fill="#DEDEDE"></path>
                <path d="M108.24,84.79 L108.24,200.87 L105.18,199.26 L104.91,199.13 C104.529527,198.923484 104.102896,198.816826 103.67,198.82 C103.401696,198.824128 103.135479,198.867936 102.88,198.95 C102.6041,199.025346 102.345816,199.154488 102.12,199.33 L102.12,85.4 C102.12,84.4 102.12,83.4 102.12,82.49 C102.12,82.39 102.07,81.76 102.12,81.69 L102.12,81.69 C102.110612,81.5783327 102.09052,81.4678252 102.06,81.36 C101.982545,81.0006709 101.882344,80.6466247 101.76,80.3 C101.764234,80.2836022 101.764234,80.2663978 101.76,80.25 C101.76,80.25 101.76,80.25 101.76,80.16 C101.76,80.07 101.68,79.96 101.64,79.91 C101.539733,79.714529 101.429591,79.5242833 101.31,79.34 L100.95,78.77 L100.95,78.77 C100.95,78.77 100.95,78.77 100.95,78.77 L100.87,78.69 C100.52,78.32 100.19,77.97 99.87,77.69 L99.87,77.69 C99.8220409,77.6717061 99.7779435,77.6445692 99.74,77.61 L99.08,77.18 L98.6,76.93 L98.53,76.93 L98.53,76.93 C98.4655517,76.9179019 98.4020551,76.9011923 98.34,76.88 L97.02,76.53 C96.9769293,76.536747 96.9330707,76.536747 96.89,76.53 L96.79,76.53 L96.09,76.53 L28.41,76.53 C28.41,75.53 28.46,74.44 28.46,73.4 L28.46,73.4 C28.4947815,71.8298195 29.7054468,70.5372943 31.27,70.4 L92.56,70.4 C94.88,70.4 97.33,70.24 99.56,70.98 C103.856305,72.3187445 107.087822,75.8833686 108,80.29 C108.210086,81.7802271 108.290388,83.285881 108.24,84.79 Z" id="Path" fill="#DEDEDE"></path>
                <path d="M105.18,199.26 L104.91,199.13 C104.529527,198.923484 104.102896,198.816826 103.67,198.82 C103.401696,198.824128 103.135479,198.867936 102.88,198.95 C102.6041,199.025346 102.345816,199.154488 102.12,199.33 L102.12,213.6 L102.28,213.7 C102.175132,213.98852 102.121,214.293015 102.12,214.6 L102.12,233.51 L102.12,233.51 C102.12,233.81 102.12,234.08 102.12,234.36 L102.12,234.36 C102.02,234.83 101.89,235.24 101.77,235.7 L101.77,235.7 L101.77,235.7 C101.7476,235.778085 101.720893,235.854869 101.69,235.93 C101.684116,235.870144 101.684116,235.809856 101.69,235.75 C101.56,236.03 101.41,236.29 101.25,236.59 C101.09,236.89 101.05,236.89 100.97,237.04 L100.88,237.19 C100.88,237.12 100.97,237.09 100.98,237.1 C100.952463,237.156094 100.915223,237.206876 100.87,237.25 C100.87,237.25 100.87,237.25 100.87,237.19 L100.79,237.25 C100.49,237.58 100.18,237.9 99.85,238.25 L99.85,238.25 C99.8268915,238.254581 99.8031085,238.254581 99.78,238.25 C99.5870051,238.393553 99.3867394,238.527064 99.18,238.65 C99.0304201,238.760149 98.8695083,238.854014 98.7,238.93 L98.37,239.1 C98.3231023,239.12702 98.2725951,239.147223 98.22,239.16 L98.22,239.16 C97.8289488,239.300277 97.4277909,239.410595 97.02,239.49 L96.78,239.49 C96.5748976,239.522342 96.3676346,239.539057 96.16,239.54 L17,239.54 C16.8005025,239.56005 16.5994975,239.56005 16.4,239.54 L16.25,239.54 L15.86,239.54 C15.59,239.47 15.33,239.41 15.06,239.32 L14.58,239.16 L14.66,239.16 L14.55,239.16 L14.28,239.01 C13.93,238.81 13.57,238.59 13.28,238.36 C13.16,238.23 12.68,237.83 12.58,237.72 L12.19,237.29 C12.1961554,237.273902 12.1961554,237.256098 12.19,237.24 L12.14,237.24 C12.14,237.24 12.14,237.24 12.19,237.24 C12.1194405,237.125867 12.0426579,237.015701 11.96,236.91 C11.7374427,236.566476 11.543458,236.205263 11.38,235.83 C11.38,235.83 11.38,235.83 11.38,235.77 L11.38,235.77 L11.38,235.77 L11.38,235.77 C11.3,235.5 11.22,235.26 11.15,234.99 C11.08,234.72 11.07,234.63 11.03,234.46 C11.036747,234.416929 11.036747,234.373071 11.03,234.33 C11.03,234.79 10.9,233.85 11.03,234.33 L11.03,234.2 C11.03,234 11.03,233.8 11.03,233.62 C11.03,232.76 11.03,231.88 11.03,231 L11.03,82.24 C11.03,82.24 11.08,81.76 11.08,81.69 C11.0909971,81.5858317 11.1076887,81.4823435 11.13,81.38 C11.2,81.11 11.27,80.85 11.35,80.58 C11.35,80.52 11.43,80.34 11.48,80.22 L11.48,80.22 L11.48,80.22 L11.48,80.15 C11.65,79.8 11.83,79.47 12.03,79.15 C12.0888518,79.0450051 12.1557169,78.9447074 12.23,78.85 C12.23,78.85 12.23,78.85 12.23,78.85 C12.23,78.85 12.28,78.77 12.29,78.77 C12.2741281,78.8119342 12.2540242,78.8521419 12.23,78.89 C12.3227785,78.7814738 12.4095739,78.6679722 12.49,78.55 C12.77,78.26 13.05,77.99 13.34,77.73 C13.34,77.73 13.34,77.73 13.34,77.73 C13.34,77.73 13.42,77.66 13.45,77.65 C13.7467756,77.4506066 14.0538695,77.2670179 14.37,77.1 C14.4540158,77.06453 14.5343923,77.0209928 14.61,76.97 C14.61,76.97 14.61,76.97 14.61,76.97 L14.61,76.97 L14.66,76.97 L14.77,76.92 L14.69,76.97 L15.05,76.84 C15.4265136,76.7230925 15.8107991,76.632869 16.2,76.57 C16.4697151,76.5875425 16.7402849,76.5875425 17.01,76.57 C18.66,76.57 20.32,76.57 22.01,76.57 L28.43,76.57 C28.43,75.57 28.48,74.48 28.48,73.44 L28.48,73.44 C28.5147815,71.8698195 29.7254468,70.5772943 31.29,70.44 C26.54,70.44 21.79,70.44 17.02,70.44 C10.317112,70.5142694 4.88462682,75.8980526 4.75,82.6 L4.75,231.29 C4.70474243,232.410215 4.72477636,233.532115 4.81,234.65 C5.29773027,239.385506 8.44113022,243.429238 12.91,245.07 C14.403437,245.575404 15.9737662,245.815691 17.55,245.78 L96,245.78 C100.029766,245.738265 103.791372,243.75318 106.1,240.45 C108.02,237.76 108.27,234.72 108.27,231.57 L108.27,218 L107.94,217.82 C108.147207,217.439347 108.257132,217.013386 108.26,216.58 C108.264853,216.550196 108.264853,216.519804 108.26,216.49 L108.26,200.87 L105.18,199.26 Z" id="Shape" fill="#DEDEDE"></path>
                <path d="M84.56,76.36 C84.56,75.3 84.5,74.24 84.5,73.23 L84.5,73.23 C84.4722706,72.2195875 83.9583014,71.2847594 83.12,70.72 C82.7946897,70.4578749 82.4101709,70.2793483 82,70.2 C81.8242103,70.1751063 81.6457897,70.1751063 81.47,70.2 L31.52,70.2 C31.4372698,70.1858216 31.3527302,70.1858216 31.27,70.2 C29.7054468,70.3372943 28.4947815,71.6298195 28.46,73.2 L28.46,73.2 C28.46,74.2 28.46,75.29 28.41,76.33 C28.36,77.37 28.41,78.33 28.49,79.33 C28.9652724,84.3254752 32.8903986,88.2965827 37.88,88.83 C38.9150324,88.9563258 39.9573696,89.0131198 41,89 L47.21,89 C56.14,89 65.08,89.12 73.99,89 C78.7052656,88.9774905 82.8364885,85.8372718 84.12,81.3 C84.5059496,79.6834649 84.6541749,78.0192993 84.56,76.36 L84.56,76.36 Z M78.37,78.73 C78.37,78.89 78.37,79.06 78.37,79.24 C78.3748559,79.2630807 78.3748559,79.2869193 78.37,79.31 L78.37,79.31 C78.3723751,79.3366138 78.3723751,79.3633862 78.37,79.39 C78.29,79.64 78.22,79.91 78.14,80.17 L78.14,80.32 C78.14,80.32 78.14,80.32 78.14,80.24 C77.9918831,80.535073 77.8283231,80.8221375 77.65,81.1 L77.65,81.1 L77.65,81.1 C77.63418,81.1295597 77.6139477,81.1565361 77.59,81.18 C77.5444509,81.2404436 77.4943018,81.2972793 77.44,81.35 L76.91,81.85 C76.6628262,81.9938798 76.4256228,82.1542426 76.2,82.33 C76.0971592,82.3703202 75.9969607,82.4170795 75.9,82.47 L75.9,82.47 L75.9,82.47 L75.9,82.47 C75.8144049,82.4890001 75.730724,82.515778 75.65,82.55 C75.3904226,82.6307102 75.1267122,82.6974723 74.86,82.75 C74.66,82.75 74.46,82.75 74.26,82.75 C71.37,82.75 68.47,82.75 65.59,82.75 C56.84,82.75 48.12,82.75 39.37,82.75 L39.09,82.75 C38.8968047,82.7603327 38.7031953,82.7603327 38.51,82.75 C38.4903227,82.7550807 38.4696773,82.7550807 38.45,82.75 L37.98,82.65 L37.45,82.49 L37.45,82.49 C37.45,82.49 37.45,82.49 37.45,82.49 L37.35,82.49 L37.29,82.49 C37.02,82.32 36.74,82.17 36.48,81.99 L36.41,81.99 C36.41,81.99 36.41,81.99 36.41,81.99 L35.76,81.35 C35.58,81.08 35.45,80.82 35.26,80.53 C35.2640408,80.5102041 35.2640408,80.4897959 35.26,80.47 C35.2510707,80.4372647 35.2510707,80.4027353 35.26,80.37 C35.26,80.37 35.26,80.37 35.26,80.37 C35.26,80.37 35.26,80.37 35.26,80.37 C35.2,80.15 35.13,79.92 35.07,79.69 C35.0412059,79.587976 35.0178398,79.4844975 35,79.38 C35,79.38 35,79.38 35,79.38 C35,79.18 35,78.99 35,78.77 L35,76.3 L78.8,76.3 L78.8,76.36 C78.39,77.16 78.39,77.93 78.37,78.73 Z" id="Shape" fill="#DEDEDE"></path>
                <circle id="Oval" fill="#DEDEDE" cx="57.24" cy="224.56" r="9.32"></circle>
                <rect id="Rectangle" fill="#28BEF0" x="30.21" y="108.6" width="10.76" height="10.76" rx="1.08"></rect>
                <rect id="Rectangle" fill="#FFFFFF" x="33.8" y="112.18" width="3.59" height="3.59"></rect>
                <rect id="Rectangle" fill="#28BEF0" x="30.21" y="124.73" width="10.76" height="10.76" rx="1.08"></rect>
                <rect id="Rectangle" fill="#FFFFFF" x="33.8" y="128.32" width="3.59" height="3.59"></rect>
                <rect id="Rectangle" fill="#28BEF0" x="30.21" y="140.87" width="10.76" height="10.76" rx="1.08"></rect>
                <rect id="Rectangle" fill="#FFFFFF" x="33.8" y="144.45" width="3.59" height="3.59"></rect>
                <path d="M42.58,114 C42.58,113.00978 43.3797949,112.205501 44.37,112.2 L82.48,112.2 C83.1532733,112.149712 83.7980729,112.480416 84.1500717,113.056543 C84.5020706,113.63267 84.5020706,114.35733 84.1500717,114.933457 C83.7980729,115.509584 83.1532733,115.840288 82.48,115.79 L44.55,115.79 C44.0765362,115.828695 43.6071085,115.6776 43.2451087,115.369994 C42.883109,115.062388 42.6582294,114.623502 42.62,114.15 C42.62,114.15 42.62,114.05 42.62,114 L42.58,114 Z" id="Path" fill="#28BEF0"></path>
                <path d="M84.28,130.11 C84.2744988,131.100205 83.4702204,131.9 82.48,131.9 L44.55,131.9 C43.5614103,131.9 42.76,131.09859 42.76,130.11 C42.76,129.12141 43.5614103,128.32 44.55,128.32 L82.48,128.32 C83.4702204,128.32 84.2744988,129.119795 84.28,130.11 L84.28,130.11 Z" id="Path" fill="#28BEF0"></path>
                <path d="M84.28,146.24 C84.2745352,147.23184 83.4718401,148.034535 82.48,148.04 L44.55,148.04 C43.6105154,147.969829 42.8840709,147.187102 42.8840709,146.245 C42.8840709,145.302898 43.6105154,144.520171 44.55,144.45 L82.48,144.45 C83.4702204,144.45 84.2744988,145.249795 84.28,146.24 L84.28,146.24 Z" id="Path" fill="#28BEF0"></path>
                <path d="M47.65,29.7600291 C44.3548695,29.7647701 41.1652031,28.5987699 38.65,26.47 C32.7555754,21.4847759 32.0090189,12.6689067 36.9811862,6.76346416 C41.9533536,0.858021604 50.7675491,0.0919571159 56.6839807,5.05104342 C62.6004123,10.0101297 63.3859809,18.8226083 58.44,24.75 L58.44,24.75 C56.0540184,27.6221876 52.6195346,29.4222315 48.9,29.75 C48.48,29.75 48.06,29.7600291 47.65,29.7600291 Z M47.65,6.36 C43.3191219,6.36270271 39.5569324,9.33922188 38.5579661,13.5533148 C37.5589998,17.7674076 39.5847495,22.1159792 43.4535687,24.0624504 C47.3223879,26.0089217 52.0215616,25.0437778 54.81,21.73 L54.81,21.73 C57.1482773,18.9512164 57.6659482,15.0698078 56.1376727,11.7753346 C54.6093973,8.48086151 51.3116788,6.36937652 47.68,6.36 L47.65,6.36 Z" id="Shape" fill="#28BEF0"></path>
                <path d="M122.87,66.9201818 C117.813094,66.9406014 113.409931,63.4711815 112.247033,58.5497598 C111.084135,53.628338 113.468709,48.5550229 118,46.31 C121.939168,44.3556782 126.668083,44.9696916 129.977539,47.8651916 C133.286995,50.7606916 134.523738,55.3661362 133.11,59.53 C131.61434,63.9368084 127.483684,66.9062197 122.83,66.9201818 L122.87,66.9201818 Z M122.87,49.92 C121.923108,49.9224093 120.989306,50.1413227 120.14,50.56 C117.086854,52.071019 115.836023,55.7705082 117.34577,58.8242834 C118.855518,61.8780586 122.554486,63.1304299 125.60889,61.6219538 C128.663293,60.1134777 129.917204,56.4150313 128.41,53.36 C127.375957,51.2310224 125.21681,49.8796142 122.85,49.8799998 L122.87,49.92 Z" id="Shape" fill="#28BEF0"></path>
                <circle id="Oval" fill="#28BEF0" cx="164.32" cy="114.01" r="4.23"></circle>
                <circle id="Oval" fill="#28BEF0" cx="112.6" cy="4.23" r="4.23"></circle>
                <circle id="Oval" fill="#28BEF0" cx="4.23" cy="51.82" r="4.23"></circle>
            </g>
            <g id="Group-11" transform="translate(40.000000, 168.000000)">
                <path d="M36,18 C36,27.9414858 27.9414858,36 18,36 C8.05952115,36 0,27.9414858 0,18 C0,8.05952115 8.05952115,0 18,0 C27.9414858,0 36,8.05952115 36,18 Z" id="Stroke-1" stroke="#28BEF0" stroke-width="3"></path>
                <path d="M18.8985666,17.3893001 L18.8985666,8.36704038 C18.8985666,7.5459889 18.3197303,7 17.4503796,7 C16.5810289,7 16,7.5459889 16,8.36704038 L16,17.935289 C16,18.0717862 16,18.3458147 16.1458054,18.482312 C16.2905144,18.6188092 16.2905144,18.7553064 16.4352235,18.8928377 L23.5358347,25.5905083 C23.8263491,25.8635028 24.2615726,26 24.5509908,26 C24.8404089,26 25.2745361,25.8635028 25.5650506,25.5905083 C26.1449831,25.0434854 26.1449831,24.2234679 25.5650506,23.676445 L18.8985666,17.3893001 Z" id="Fill-3" stroke="#FF4900" stroke-width="0.5" fill="#FE5A17" fill-rule="nonzero"></path>
            </g>
        </g>
    </g>
</svg>