<?xml version="1.0" encoding="UTF-8"?>
<svg width="157px" height="205px" viewBox="0 0 157 205" version="1.1" xmlns="http://www.w3.org/2000/svg" xmlns:xlink="http://www.w3.org/1999/xlink">
    <title>Group 2</title>
    <g id="12.2-Order-Summary-+-Cancel-order" stroke="none" stroke-width="1" fill="none" fill-rule="evenodd">
        <g id="05-PSR-Cancel-Order-Empty-State" transform="translate(-136.000000, -404.000000)">
            <g id="Group-5" transform="translate(22.000000, 404.000000)">
                <g id="Group-2" transform="translate(114.000000, 0.000000)">
                    <g id="Group-3" transform="translate(55.391817, 50.000000)"></g>
                    <path d="M25.5069241,81.6454331 C26.8146088,81.8852019 27.1391612,82.2010158 27.3691055,83.509955 C27.540786,84.4869066 27.6450104,85.4808832 27.6042823,86.4730154 C27.5362606,88.1338047 27.9148344,89.7643747 27.8886722,91.4196309 C27.8851368,91.6460635 28.0074626,91.810071 28.1258288,91.9926642 C28.504544,92.5767638 28.2917112,92.9778445 27.5931103,93.0345946 C27.4758755,93.0442421 27.3568022,93.0524708 27.240133,93.0426814 C26.6546659,92.9938764 26.3912057,93.215769 26.544502,93.8302298 C26.5897554,94.0114043 26.6244027,94.2118737 26.5951293,94.3923388 C26.3937512,95.636583 26.9553188,96.4998926 27.8919248,97.2362242 C30.2046613,99.0543529 32.1200156,101.280231 33.9730048,103.535476 C35.8189232,105.782068 37.4382913,108.214799 38.1790345,111.094863 C38.5800936,112.654211 38.8246039,114.244631 38.4577678,115.860588 C38.4270802,115.995369 38.3706548,116.190021 38.4342925,116.270181 C39.0030724,116.984238 38.772421,117.817328 38.76733,118.595371 C38.7338141,123.794098 38.744986,128.995238 38.5854675,134.190702 C38.4721923,137.878176 38.5208398,141.563097 38.4929806,145.249011 C38.4762934,147.47574 38.1796002,149.629119 37.2494994,151.666587 C36.8118132,152.625662 36.9149064,153.666174 36.8248236,154.666677 C36.7092858,155.948801 36.5087562,157.158996 35.951714,158.350179 C35.4213996,159.484186 35.4665116,160.74886 35.9282387,161.932807 C36.182224,162.584439 36.2536396,163.185706 36.0101193,163.853512 C35.7722556,164.505428 35.4666531,165.133792 35.0592302,165.666675 C34.3821247,166.552685 34.5332997,167.366764 35.1426663,168.120262 C36.1417787,169.356277 36.2356797,170.79106 36.2140428,172.271242 C36.2116387,172.434115 36.2075376,172.623092 36.1289097,172.754469 C35.6644957,173.528823 35.9396935,174.231672 36.2454374,174.974529 C36.6942956,176.064697 37.3098845,177.078111 37.6207195,178.23425 C38.0241827,179.734579 37.9950508,181.24569 37.7276309,182.733676 C37.3316628,184.936712 37.111052,187.185431 36.245296,189.285891 C35.6821728,190.651722 34.9992693,191.928598 33.8803766,192.931938 C32.9745996,193.744315 31.8984148,193.839513 30.7655218,193.729701 C30.4610507,193.700191 30.1588422,193.648691 29.8545124,193.618471 C28.6144252,193.495466 28.6162636,193.498303 28.0134022,194.626777 C27.7684676,195.084892 27.4819564,195.52286 27.2660124,195.993885 C26.4148224,197.851172 24.9623266,198.726115 22.9476975,198.728527 C22.5718106,198.728953 22.1868731,198.732216 21.8225824,198.81124 C21.1511337,198.95652 20.6285972,198.726683 20.1460818,198.289991 C19.1780812,197.413487 18.5755026,196.295086 18.0399558,195.130434 C17.872235,194.765815 17.7179489,194.394528 17.5387733,194.035726 C16.9507607,192.857454 15.5790141,192.641378 14.6916213,193.621309 C13.8859676,194.510865 12.9321088,195.184346 11.8902884,195.748725 C10.4099334,196.550461 8.85349597,196.571175 7.31614984,196.023254 C6.30388569,195.662465 5.62465899,194.807526 5.12474927,193.893283 C3.37598446,190.695704 2.32695184,187.27694 1.67006905,183.676577 C1.0044184,180.028119 1.67162464,176.694481 3.22141548,173.444123 C3.54115972,172.77348 3.41063167,172.122841 3.1235548,171.528668 C2.46978319,170.17518 2.7004346,169.009677 3.57905952,167.829844 C4.25206387,166.926242 4.1674964,165.809401 3.57410992,164.950348 C2.62732192,163.579551 2.74271834,162.222374 3.31743775,160.845761 C3.87052032,159.521073 3.66291991,158.30719 2.89757015,157.218725 C1.72522175,155.551551 1.44535716,153.781093 1.90453873,151.832155 C2.07749194,151.097952 1.78094012,150.389144 1.43545796,149.801497 C0.34682853,147.949035 0.34484869,145.905609 0.324484616,143.885875 C0.26820058,138.307207 0.348384119,132.726835 0.257311457,127.149018 C0.210219537,124.266826 0.23510896,121.38279 0.126076317,118.502727 C0.07884298,117.251814 0.0490039557,116.000902 0.00629596833,114.750131 C-0.0884535401,111.971509 0.897082765,109.511253 2.22965682,107.16918 C4.54748435,103.095238 7.80927153,99.8758094 11.5433921,97.1252779 C12.3057721,96.5635945 12.5485854,95.952255 12.4155118,95.0886615 C12.3795919,94.855419 12.3204795,94.6155082 12.3425406,94.3853869 C12.4095723,93.6877873 12.2258714,93.3218915 11.4255916,93.2279703 C10.6018365,93.1310696 10.3358308,92.4258087 10.7309504,91.7164335 C10.8514378,91.5003578 10.9003682,91.2811608 10.9183282,91.0435201 C11.0977866,88.6899549 11.2909624,86.3375247 11.4548649,83.9829664 C11.5607864,82.4597959 11.7426489,82.1706545 13.2370042,81.7915644 C15.301695,81.2679036 17.4040027,81.0245879 19.4800069,81.1041798 C21.5485159,81.0474298 23.5345788,81.2839355 25.5069241,81.6454331 Z" id="Fill-1" stroke="#28BEF0" stroke-width="2" fill="#FFFFFF"></path>
                    <g id="Group-3" transform="translate(27.548137, 50.000000)">
                        <path d="M28.7410366,77.3394387 C28.0696754,69.4891464 28.4799783,61.6330181 27.9261893,53.7812668 C27.4261476,46.6867268 29.2660324,39.9452603 31.6299532,33.3813032 C33.6157234,27.8658673 37.6131778,23.8935474 42.2052116,20.4863396 C44.5696123,18.7321577 46.65088,16.7080643 47.212827,13.6291273 C47.4940405,12.0889293 47.9456137,10.524415 46.5246698,9.09607222 C45.6363999,8.2026893 46.1018898,1.84250326 46.8586708,0.816353037 C47.3491148,0.151543867 48.0713439,0.0586553874 48.789734,0.0523331349 C52.2262011,0.0212081993 55.6631481,0.0367706671 59.0991353,0 C60.6765222,-0.017211643 61.5052861,0.741458661 61.5532748,2.31180892 C61.6338957,4.95694212 62.4511424,7.45569085 60.8987096,10.237482 C59.7455424,12.3033996 61.1573684,14.9694448 62.6579735,16.9609544 C63.3758836,17.9136692 64.2521564,18.8274778 65.2378432,19.4762382 C73.5398793,24.9401234 77.9481166,32.8667691 79.8110359,42.525712 C80.3821008,45.4850125 80.7309783,48.4263189 80.7516134,51.4352248 C80.9042173,73.7051162 81.01939,95.9754939 81.2977242,118.243926 C81.3682675,123.912555 81.581817,129.565622 80.744895,135.188536 C80.2275773,138.664802 79.20158,141.990307 77.2436432,144.928209 C74.9876968,148.312559 71.9130642,149.917925 67.8013968,149.126185 C66.3919702,148.8553 64.9580694,148.709889 63.5318467,148.537729 C62.3743605,148.398639 61.4376221,148.703566 60.4893664,149.543453 C58.4167367,151.379338 52.5894752,151.547607 50.5360409,149.699078 C49.0531917,148.364596 47.551147,148.267331 45.8830616,148.676332 C36.0996159,151.071493 33.0451384,147.358872 30.5415706,138.884622 C28.633542,132.426198 28.7875856,125.754276 28.7592722,119.122233 C28.6992864,105.194797 28.7410366,91.2668747 28.7410366,77.3394387" id="Fill-1" stroke="#28BEF0" stroke-width="2" fill="#FFFFFF"></path>
                        <path d="M77.3194063,121.838018 C77.3194063,113.882701 77.3257063,105.927034 77.3152064,97.9720646 C77.3124064,95.789237 77.649804,93.7009661 78.7127466,91.7536577 C81.8910744,85.9316211 83.1584155,79.5883018 83.9840598,73.086574 C84.5937555,68.2851209 84.6553551,63.4752938 84.7505544,58.6577905 C84.7565044,58.3727249 84.8359538,57.9404162 84.6865049,57.8238778 C83.0824661,56.571613 83.8314608,54.9379815 83.9312101,53.4222841 C83.9956097,52.4383369 84.1629085,51.461368 84.2542579,50.4784675 C84.4527065,48.3437906 84.8352538,47.8354178 87.0171386,47.720624 C91.0337105,47.50918 95.0614824,47.4425368 99.0770044,47.7213218 C101.795785,47.9097372 101.922134,48.2949421 102.318682,50.9816065 C102.59623,52.8619227 102.204583,54.7565444 102.673229,56.6051091 C102.687229,56.6598892 102.711379,56.7401402 102.685479,56.7732873 C100.131547,60.0391547 101.742586,63.698601 101.926334,67.1162474 C102.306432,74.1877574 103.139076,81.2404259 105.892857,87.8921883 C105.981756,88.1067725 106.024456,88.349968 106.150805,88.5387323 C109.234283,93.1549102 109.291333,98.3248202 109.194734,103.619294 C109.034085,112.450045 109.173034,121.285333 109.137684,130.118876 C109.119134,134.76541 109.025335,139.411944 108.904936,144.057431 C108.877986,145.090924 108.628088,146.124069 108.424389,147.146746 C108.063192,148.96007 106.9208,149.978909 105.093812,150.229083 C97.259117,151.301655 89.4233718,151.343525 81.5809766,150.279327 C79.4449415,149.989376 78.2356999,148.859931 77.8871024,146.734326 C77.3008565,143.160364 77.5553047,139.548022 77.3957058,135.957661 C77.1871073,131.259488 77.3446062,126.545264 77.3446062,121.838018 L77.3194063,121.838018 Z" id="Fill-1" stroke="#FFFFFF" stroke-width="2" fill="#28BEF0"></path>
                        <path d="M0.00788656465,121.311921 C0.00778810782,112.923818 0.0140893448,104.535815 0,96.1478116 C-0.00176220441,95.0554158 0.231580476,94.0466207 0.706930037,93.0750369 C1.4614047,91.5329133 2.30183218,90.0373786 3.08397321,88.510319 C3.21629919,88.2518352 3.33543195,87.98976 3.40376099,87.7031433 C3.47947429,87.385301 3.49128911,87.0752402 3.34508072,86.778747 C3.14767478,86.3783017 3.22013901,85.9585024 3.28029613,85.5539668 C3.31908812,85.2931885 3.57143296,85.1691841 3.81255373,85.0866808 C4.44612342,84.8699974 5.10745792,84.7940784 5.76416496,84.6956131 C7.35562111,84.456982 8.95948283,84.3706877 10.5644276,84.2930728 C14.1965984,84.1173916 17.8314275,84.1712631 21.4636968,84.2269304 C23.443762,84.2572581 25.4261902,84.379367 27.4015296,84.5809864 C28.5278757,84.6960122 29.6511696,84.8161258 30.7632395,85.0313128 C31.7287071,85.2180676 32.0303788,85.645748 31.750663,86.5995742 C31.5660564,87.2294725 31.6738667,87.7625018 31.9540748,88.3192745 C32.4462605,89.2970435 33.0163255,90.2323139 33.4936442,91.2170662 C34.0374213,92.3387921 34.4888458,93.4980285 34.7161826,94.7330842 C34.7592083,94.9671263 34.743849,95.2134391 34.743849,95.4541652 C34.7448336,111.21599 34.7446366,126.977914 34.7445382,142.739738 C34.7445382,143.961825 34.7545808,145.184011 34.741486,146.405898 C34.7327234,147.225445 34.3654794,147.871305 33.7216702,148.35595 C33.2518342,148.709606 32.7387757,148.986147 32.1950971,149.206821 C32.0052723,149.283837 31.8261794,149.387889 31.6414744,149.477875 C31.3034721,149.642482 31.0675695,149.889394 30.9165367,150.249635 C30.5848357,151.04025 29.9462447,151.469527 29.1437231,151.647802 C28.1100249,151.877355 27.0583091,152.002357 26.0102361,152.145116 C24.5963961,152.337857 23.1728088,152.427842 21.7510923,152.535386 C21.4326829,152.559528 21.1115167,152.552046 20.7916305,152.551747 C18.896435,152.550251 17.0010426,152.560626 15.1060441,152.538379 C13.9509486,152.524811 12.7979207,152.436023 11.6446959,152.360204 C10.5489698,152.288076 9.45314536,152.225026 8.36224371,152.095036 C7.22103063,151.95906 6.08798946,151.789664 4.993248,151.410069 C4.63417596,151.285565 4.3585953,151.076264 4.13017546,150.783662 C4.1047736,150.75104 4.07385815,150.720812 4.05633284,150.684199 C3.62873484,149.787138 2.8169583,149.346987 2.00360645,148.908033 C1.57650073,148.677583 1.15037959,148.445137 0.723175413,148.214886 C0.613986792,148.156026 0.51631762,148.083499 0.420617584,148.00359 C0.114515308,147.7476 -0.000383808829,147.437639 0,147.024723 C0.0106433558,138.453756 0.00798502147,129.882789 0.00788656465,121.311921" id="Fill-1" stroke="#FFFFFF" stroke-width="2" fill="#28BEF0"></path>
                        <g id="no-sign" transform="translate(87.451863, 113.000000)">
                            <circle id="Oval" fill="#FFFFFF" cx="21.5" cy="20.5" r="20.5"></circle>
                            <g id="ô€¼" fill="#FE5A17" fill-rule="nonzero">
                                <path d="M33.4832733,35.9042717 L35.8826557,33.4832733 L8.58157488,6.16057643 L6.16057643,8.58157488 L33.4832733,35.9042717 Z M21.010808,42 C23.8785383,42 26.5805455,41.4487905 29.1168296,40.3463716 C31.6531137,39.2439527 33.886773,37.7272259 35.8178075,35.7961915 C37.748842,33.865157 39.261966,31.6351004 40.3571796,29.1060216 C41.4523932,26.5769429 42,23.871333 42,20.989192 C42,18.1214617 41.4487905,15.4194545 40.3463716,12.8831704 C39.2439527,10.3468863 37.7272259,8.10962429 35.7961915,6.17138446 C33.865157,4.23314462 31.6314977,2.72002059 29.0952136,1.63201235 C26.5589295,0.544004117 23.8569223,0 20.989192,0 C18.1214617,0 15.4230571,0.544004117 12.8939784,1.63201235 C10.3648996,2.72002059 8.13124035,4.23314462 6.19300051,6.17138446 C4.25476068,8.10962429 2.73803397,10.3468863 1.64282038,12.8831704 C0.547606794,15.4194545 0,18.1214617 0,20.989192 C0,23.871333 0.55120947,26.5769429 1.65362841,29.1060216 C2.75604735,31.6351004 4.27277406,33.865157 6.20380854,35.7961915 C8.13484303,37.7272259 10.3648996,39.2439527 12.8939784,40.3463716 C15.4230571,41.4487905 18.128667,42 21.010808,42 Z M21.010808,38.1523417 C18.6330417,38.1523417 16.4065878,37.7092126 14.3314462,36.8229542 C12.2563047,35.9366958 10.4333505,34.7081832 8.86258363,33.1374164 C7.29181678,31.5666495 6.06690685,29.7436953 5.18785383,27.6685538 C4.30880082,25.5934122 3.86927432,23.3669583 3.86927432,20.989192 C3.86927432,18.6114256 4.30880082,16.3849717 5.18785383,14.3098302 C6.06690685,12.2346886 7.29181678,10.4117344 8.86258363,8.84096758 C10.4333505,7.27020072 12.252702,6.04529079 14.3206382,5.16623778 C16.3885744,4.28718477 18.6114256,3.84765826 20.989192,3.84765826 C23.3669583,3.84765826 25.5934122,4.28718477 27.6685538,5.16623778 C29.7436953,6.04529079 31.5666495,7.27020072 33.1374164,8.84096758 C34.7081832,10.4117344 35.9366958,12.2346886 36.8229542,14.3098302 C37.7092126,16.3849717 38.1523417,18.6114256 38.1523417,20.989192 C38.1667524,23.3669583 37.7308286,25.5934122 36.8445703,27.6685538 C35.9583119,29.7436953 34.733402,31.5666495 33.1698405,33.1374164 C31.606279,34.7081832 29.7833248,35.9366958 27.7009779,36.8229542 C25.618631,37.7092126 23.3885744,38.1523417 21.010808,38.1523417 Z" id="Shape"></path>
                            </g>
                        </g>
                    </g>
                    <circle id="Oval" stroke="#28BEF0" cx="11" cy="58" r="5.5"></circle>
                    <circle id="Oval-Copy" fill="#28BEF0" cx="52" cy="44" r="5"></circle>
                    <circle id="Oval-Copy-2" fill="#28BEF0" cx="131" cy="29" r="6"></circle>
                    <circle id="Oval-Copy-4" stroke="#28BEF0" cx="136" cy="63" r="4.5"></circle>
                    <circle id="Oval-Copy-5" stroke="#28BEF0" cx="39.5" cy="8.5" r="3"></circle>
                    <circle id="Oval-Copy-3" stroke="#28BEF0" stroke-width="2" cx="94" cy="12" r="11"></circle>
                </g>
            </g>
        </g>
    </g>
</svg>