<?xml version="1.0" encoding="UTF-8"?>
<svg width="200px" height="152.754356px" viewBox="0 0 200 152.754356" version="1.1" xmlns="http://www.w3.org/2000/svg" xmlns:xlink="http://www.w3.org/1999/xlink">
    <title>graphic_element_no-notifications</title>
    <g id="Symbols" stroke="none" stroke-width="1" fill="none" fill-rule="evenodd">
        <g id="graphic_element_no-notifications">
            <path d="M164.309847,107.887495 C162.259587,103.85083 161.664184,99.2291169 162.768701,94.8248553 C164.71196,87.0897847 164.794799,79.0026493 163.67475,71.1105302 L162.451152,62.491846 C162.145684,60.3535701 160.318054,58.7658269 158.159068,58.7658269 L155.332195,58.7658269 C153.575323,58.7658269 152.154983,57.3454871 152.154983,55.5886148 L152.154983,53.0430482 L136.274099,53.0430482 L136.274099,55.5886148 C136.274099,57.3454871 134.853759,58.7658269 133.098613,58.7658269 L130.270014,58.7658269 C128.111028,58.7658269 126.27822,60.3535701 125.97793,62.491846 L124.754332,71.1070786 C123.634283,79.0026493 123.717122,87.0846073 125.658655,94.8248553 C126.764898,99.2239394 126.164317,103.845653 124.120961,107.887495 C123.416831,109.275044 123.018169,110.843803 123.018169,112.500579 L123.018169,139.109084 C123.018169,144.371072 127.286092,148.637269 132.54808,148.637269 L155.886179,148.637269 C161.148167,148.637269 165.41609,144.371072 165.41609,139.109084 L165.41609,112.500579 C165.405735,110.843803 165.012251,109.275044 164.309847,107.887495 Z" id="Stroke-1" stroke="#28BEF0" stroke-width="1.723"></path>
            <path d="M162.337939,146.104646 C158.1425,143.479692 151.586156,141.793578 144.210054,141.793578 C136.835677,141.793578 130.275882,143.484869 126.082169,146.104646 C127.783815,147.673405 130.044623,148.643309 132.541867,148.643309 L155.881692,148.643309 C158.373759,148.643309 160.636293,147.673405 162.337939,146.104646" id="Fill-3" fill="#28BEF0"></path>
            <path d="M136.530037,56.2193975 L151.884549,56.2193975 C151.998452,56.2193975 152.100275,56.1986878 152.209001,56.1831555 C152.174484,55.9915909 152.150323,55.7913972 152.150323,55.5894777 L152.150323,53.0421853 L136.26944,53.0421853 L136.26944,55.5894777 C136.26944,55.7965746 136.245278,55.9915909 136.209036,56.1831555 C136.314311,56.1986878 136.423036,56.2193975 136.530037,56.2193975" id="Fill-5" fill="#28BEF0"></path>
            <path d="M151.885412,54.6301011 L136.530899,54.6301011 C134.774027,54.6301011 133.353687,53.2097613 133.353687,51.4546147 L133.353687,42.9826242 C133.353687,41.2274776 134.774027,39.8071378 136.530899,39.8071378 L151.885412,39.8071378 C153.640558,39.8071378 155.060898,41.2274776 155.060898,42.9826242 L155.060898,51.4546147 C155.060898,53.2097613 153.640558,54.6301011 151.885412,54.6301011" id="Fill-7" fill="#FE5A17"></path>
            <path d="M124.715674,71.3236675 C123.63877,78.9103186 123.918351,86.6177763 125.511271,94.1060564 L162.902623,94.1060564 C164.495544,86.6177763 164.776851,78.9103186 163.699947,71.3236675 L163.251237,68.1619876 L125.162658,68.1619876 L124.715674,71.3236675 Z" id="Fill-9" fill="#28BEF0"></path>
            <path d="M185.988582,25.7531945 L180.700707,22.0651432 C180.441836,21.8666753 180.298594,21.581917 180.239916,21.26782 L180.272707,14.7373632 C180.270981,13.5966043 178.955915,12.9459747 178.044689,13.634572 L172.925943,17.5021073 C172.668797,17.7316398 172.297749,17.7609785 172.01299,17.6194623 L165.758663,15.5881865 C164.647243,15.2499281 163.653177,16.2508967 164.025952,17.3623169 L166.15905,23.4009184 C166.274679,23.7426284 166.188389,24.0584512 165.991647,24.3138708 L162.189692,29.6897621 C161.506272,30.633779 162.224208,31.9143284 163.308016,31.881538 L169.724569,31.7158605 C170.009327,31.7141347 170.352763,31.8849896 170.525344,32.1127963 L174.366992,37.4317359 C175.053864,38.3412367 176.451768,38.1082526 176.788301,36.9951066 L178.619383,30.8564082 C178.703947,30.5423112 178.961093,30.3145045 179.245851,30.1712625 L185.512259,28.1520673 C186.737583,27.8327929 186.932599,26.4366144 185.988582,25.7531945" id="Fill-11" fill="#FE5A17"></path>
            <path d="M27.4974684,91.7299642 L27.4974684,71.9591099 L32.4384562,71.9591099 L32.4384562,89.2586074 L32.4384562,91.7299642 L27.4974684,91.7299642 Z M43.8236103,91.7299642 C43.3334809,91.7299642 42.8588838,91.5867221 42.4515931,91.3157703 L37.3828956,87.9366386 L37.3828956,73.1947883 L46.2794348,66.5228153 C46.9024515,66.0568472 47.2683227,65.3216531 47.2683227,64.5433137 L47.2683227,56.7064205 C47.2683227,56.0471619 47.5254681,55.4241453 48.0949847,54.8598061 C48.5436947,54.4110961 49.0700661,54.1470475 49.5446632,54.1401443 C49.5860826,54.1366926 49.6257762,54.1349668 49.6671956,54.1349668 C49.8138892,54.1349668 49.9623087,54.1539507 50.112454,54.1763862 C50.3851316,54.2195314 50.732019,54.4162735 51.082358,54.7338221 L51.4016324,55.0203062 C51.9141973,55.4862744 52.2110363,56.154162 52.2110363,56.8531141 L52.2110363,67.0163963 C52.2110363,68.3797845 53.3172791,69.4860273 54.6823931,69.4860273 L65.5118371,69.4860273 L66.9563382,72.371578 L64.9078044,86.7182183 C64.8077075,87.4154447 64.4159491,88.0367355 63.8309003,88.4284938 L59.4991227,91.3157703 C59.091832,91.5867221 58.6189607,91.7299642 58.1305571,91.7299642 L43.8236103,91.7299642 Z M49.582631,49.1957049 C49.5360342,49.1957049 49.4894374,49.1957049 49.4445664,49.1957049 C47.6842424,49.230221 45.963612,49.9999313 44.4984012,51.4634163 C43.0970452,52.8630465 42.3256091,54.7251931 42.3256091,56.7064205 L42.3256091,63.3076353 L36.5320723,67.6532194 C36.0971688,67.2683643 35.538007,67.0163963 34.9115388,67.0163963 L25.0243858,67.0163963 C23.6575461,67.0163963 22.5547549,68.1226391 22.5547549,69.4860273 L22.5547549,94.2030468 C22.5547549,95.566435 23.6575461,96.6726778 25.0243858,96.6726778 L34.9115388,96.6726778 C36.2783786,96.6726778 37.3828956,95.566435 37.3828956,94.2030468 L37.3828956,93.8785949 L39.7058329,95.4283703 C40.9294306,96.2429516 42.3497705,96.6726778 43.8201587,96.6726778 L58.1271055,96.6726778 C59.5974937,96.6726778 61.0178335,96.2429516 62.2414313,95.4283703 L66.5714831,92.5410939 C68.323178,91.372722 69.5001789,89.5071237 69.8004695,87.4206221 L71.8490034,73.0670785 C71.9905196,72.06611 71.8265679,71.0616898 71.3778578,70.162544 L69.9350825,67.2769933 C69.0946141,65.5908791 67.4015966,64.5433137 65.5118371,64.5433137 L57.1554757,64.5433137 L57.1554757,56.8531141 C57.1554757,54.7614351 56.2666846,52.7577722 54.7134576,51.3529646 L54.3907316,51.0630289 C53.3034726,50.0775927 52.1126652,49.482189 50.8614546,49.2906243 C50.4438091,49.2250436 50.0071797,49.1957049 49.582631,49.1957049 L49.582631,49.1957049 Z" id="Fill-13" fill="#28BEF0"></path>
            <path d="M47.226213,146.456883 C45.4883245,146.456883 44.0783396,145.045172 44.0783396,143.30901 C44.0783396,141.574573 45.4883245,140.161136 47.226213,140.161136 C48.9641015,140.161136 50.3740865,141.574573 50.3740865,143.30901 C50.3740865,145.045172 48.9641015,146.456883 47.226213,146.456883 M47.226213,133.863664 C42.017725,133.863664 37.7808669,138.102247 37.7808669,143.30901 C37.7808669,148.515772 42.017725,152.754356 47.226213,152.754356 C52.434701,152.754356 56.6715592,148.515772 56.6715592,143.30901 C56.6715592,138.102247 52.434701,133.863664 47.226213,133.863664" id="Fill-15" fill="#DEDEDE"></path>
            <path d="M47.226213,146.456883 C45.4883245,146.456883 44.0783396,145.045172 44.0783396,143.30901 C44.0783396,141.574573 45.4883245,140.161136 47.226213,140.161136 C48.9641015,140.161136 50.3740865,141.574573 50.3740865,143.30901 C50.3740865,145.045172 48.9641015,146.456883 47.226213,146.456883 Z M47.226213,133.863664 C42.017725,133.863664 37.7808669,138.102247 37.7808669,143.30901 C37.7808669,148.515772 42.017725,152.754356 47.226213,152.754356 C52.434701,152.754356 56.6715592,148.515772 56.6715592,143.30901 C56.6715592,138.102247 52.434701,133.863664 47.226213,133.863664 Z" id="Stroke-17" stroke="#FFFFFF"></path>
            <path d="M47.226213,6.29574689 C48.9641015,6.29574689 50.3740865,7.70745768 50.3740865,9.44362034 C50.3740865,11.1780572 48.9641015,12.5914938 47.226213,12.5914938 C45.4883245,12.5914938 44.0783396,11.1780572 44.0783396,9.44362034 C44.0783396,7.70745768 45.4883245,6.29574689 47.226213,6.29574689 M47.226213,18.8889665 C52.434701,18.8889665 56.6715592,14.6521083 56.6715592,9.44362034 C56.6715592,4.23685818 52.434701,1.42108547e-14 47.226213,1.42108547e-14 C42.017725,1.42108547e-14 37.7808669,4.23685818 37.7808669,9.44362034 C37.7808669,14.6521083 42.017725,18.8889665 47.226213,18.8889665" id="Fill-19" fill="#DEDEDE"></path>
            <path d="M47.226213,6.29574689 C48.9641015,6.29574689 50.3740865,7.70745768 50.3740865,9.44362034 C50.3740865,11.1780572 48.9641015,12.5914938 47.226213,12.5914938 C45.4883245,12.5914938 44.0783396,11.1780572 44.0783396,9.44362034 C44.0783396,7.70745768 45.4883245,6.29574689 47.226213,6.29574689 Z M47.226213,18.8889665 C52.434701,18.8889665 56.6715592,14.6521083 56.6715592,9.44362034 C56.6715592,4.23685818 52.434701,1.42108547e-14 47.226213,1.42108547e-14 C42.017725,1.42108547e-14 37.7808669,4.23685818 37.7808669,9.44362034 C37.7808669,14.6521083 42.017725,18.8889665 47.226213,18.8889665 Z" id="Stroke-21" stroke="#FFFFFF"></path>
            <path d="M93.9966402,10.7062213 C93.9966402,13.143062 92.0205902,15.1191119 89.5837496,15.1191119 C87.1486348,15.1191119 85.1743106,13.143062 85.1743106,10.7062213 C85.1743106,8.27110651 87.1486348,6.29505657 89.5837496,6.29505657 C92.0205902,6.29505657 93.9966402,8.27110651 93.9966402,10.7062213" id="Fill-23" fill="#DEDEDE"></path>
            <path d="M93.9966402,10.7062213 C93.9966402,13.143062 92.0205902,15.1191119 89.5837496,15.1191119 C87.1486348,15.1191119 85.1743106,13.143062 85.1743106,10.7062213 C85.1743106,8.27110651 87.1486348,6.29505657 89.5837496,6.29505657 C92.0205902,6.29505657 93.9966402,8.27110651 93.9966402,10.7062213 Z" id="Stroke-25" stroke="#FFFFFF"></path>
            <path d="M8.82371018,10.7062213 C8.82371018,13.143062 6.84766023,15.1191119 4.4108196,15.1191119 C1.97397897,15.1191119 0.00138064625,13.143062 0.00138064625,10.7062213 C0.00138064625,8.27110651 1.97397897,6.29505657 4.4108196,6.29505657 C6.84766023,6.29505657 8.82371018,8.27110651 8.82371018,10.7062213" id="Fill-27" fill="#DEDEDE"></path>
            <path d="M8.82371018,10.7062213 C8.82371018,13.143062 6.84766023,15.1191119 4.4108196,15.1191119 C1.97397897,15.1191119 0.00138064625,13.143062 0.00138064625,10.7062213 C0.00138064625,8.27110651 1.97397897,6.29505657 4.4108196,6.29505657 C6.84766023,6.29505657 8.82371018,8.27110651 8.82371018,10.7062213 Z" id="Stroke-29" stroke="#FFFFFF"></path>
            <path d="M93.9966402,143.308664 C93.9966402,145.745505 92.0205902,147.721555 89.5837496,147.721555 C87.1486348,147.721555 85.1743106,145.745505 85.1743106,143.308664 C85.1743106,140.87355 87.1486348,138.8975 89.5837496,138.8975 C92.0205902,138.8975 93.9966402,140.87355 93.9966402,143.308664" id="Fill-31" fill="#DEDEDE"></path>
            <path d="M93.9966402,143.308664 C93.9966402,145.745505 92.0205902,147.721555 89.5837496,147.721555 C87.1486348,147.721555 85.1743106,145.745505 85.1743106,143.308664 C85.1743106,140.87355 87.1486348,138.8975 89.5837496,138.8975 C92.0205902,138.8975 93.9966402,140.87355 93.9966402,143.308664 Z" id="Stroke-33" stroke="#FFFFFF"></path>
            <path d="M8.82371018,143.308664 C8.82371018,145.745505 6.84766023,147.721555 4.4108196,147.721555 C1.97397897,147.721555 0.00138064625,145.745505 0.00138064625,143.308664 C0.00138064625,140.87355 1.97397897,138.8975 4.4108196,138.8975 C6.84766023,138.8975 8.82371018,140.87355 8.82371018,143.308664" id="Fill-35" fill="#DEDEDE"></path>
            <path d="M8.82371018,143.308664 C8.82371018,145.745505 6.84766023,147.721555 4.4108196,147.721555 C1.97397897,147.721555 0.00138064625,145.745505 0.00138064625,143.308664 C0.00138064625,140.87355 1.97397897,138.8975 4.4108196,138.8975 C6.84766023,138.8975 8.82371018,140.87355 8.82371018,143.308664 Z" id="Stroke-37" stroke="#FFFFFF"></path>
            <path d="M63.6046469,33.7231475 L29.7805396,33.7231475 C13.3335911,33.7231475 0,47.0567387 0,63.5036871 L0,90.4245632 C0,106.873237 13.3335911,120.205103 29.7805396,120.205103 L63.6046469,120.205103 C80.0533211,120.205103 93.3869123,106.873237 93.3869123,90.4245632 L93.3869123,63.5036871 C93.3869123,47.0567387 80.0533211,33.7231475 63.6046469,33.7231475 M63.6046469,37.1471502 C78.1394003,37.1471502 89.9611838,48.9706595 89.9611838,63.5036871 L89.9611838,90.4245632 C89.9611838,104.957591 78.1394003,116.782826 63.6046469,116.782826 L29.7805396,116.782826 C15.247512,116.782826 3.4240027,104.957591 3.4240027,90.4245632 L3.4240027,63.5036871 C3.4240027,48.9706595 15.247512,37.1471502 29.7805396,37.1471502 L63.6046469,37.1471502" id="Fill-39" fill="#28BEF0"></path>
            <path d="M176.943278,46.0162491 L173.096452,43.9038604 L161.215992,49.1951871 L158.805038,36.0600639 L155.451793,34.2203528 C150.089709,31.2778504 148.130917,24.5489258 151.073419,19.1868409 L157.72986,7.05958943 C160.670636,1.69750456 167.403013,-0.261287303 172.761646,2.68121502 L194.25313,14.4771114 C199.615215,17.4178879 201.574007,24.1485384 198.631505,29.5088974 L191.97679,41.6378747 C189.034288,46.996508 182.303637,48.9570257 176.943278,46.0162491 Z" id="Stroke-41" stroke="#28BEF0" stroke-width="1.984" stroke-linecap="round" stroke-linejoin="round"></path>
        </g>
    </g>
</svg>