<?xml version="1.0" encoding="UTF-8"?>
<svg width="174.2402px" height="152px" viewBox="0 0 174.2402 152" version="1.1" xmlns="http://www.w3.org/2000/svg" xmlns:xlink="http://www.w3.org/1999/xlink">
    <title>graphic_element_user search bar to find customers@2x</title>
    <defs>
        <polygon id="path-1" points="0 0 89 0 89 152 0 152"></polygon>
    </defs>
    <g id="Symbols" stroke="none" stroke-width="1" fill="none" fill-rule="evenodd">
        <g id="graphic_element_user-search-bar-to-find-customers">
            <g id="Group-2" transform="translate(24.240200, 0.000000)">
                <g id="Group-47">
                    <path d="M79.343418,147.123786 L10.7390687,147.123786 C6.86214346,147.123786 3.71845967,143.959163 3.71845967,140.053548 L3.71845967,9.71064044 C3.71845967,5.80502561 6.86214346,2.64040265 10.7390687,2.64040265 L79.343418,2.64040265 C83.2217671,2.64040265 86.3654508,5.80502561 86.3654508,9.71064044 L86.3654508,140.053548 C86.3654508,143.959163 83.2217671,147.123786 79.343418,147.123786" id="Fill-1" fill="#FFFFFF"></path>
                    <path d="M88.9984284,127.987563 L88.9984284,125.053694 C88.9984284,123.674905 87.7868003,122.33338 86.3644542,122.403609 C84.9421081,122.473839 83.7319038,123.570277 83.7319038,125.053694 L83.7319038,136.364928" id="Fill-3" fill="#28BEF0"></path>
                    <g id="Group-7">
                        <mask id="mask-2" fill="white">
                            <use xlink:href="#path-1"></use>
                        </mask>
                        <g id="Clip-6"></g>
                        <path d="M83.7314767,125.01471 L83.7314767,141.078611 L83.7314767,141.379594 L83.7314767,141.396793 C83.7314767,141.644746 83.7143914,141.891266 83.6973062,142.139218 C83.6973062,142.033158 83.8026652,141.644746 83.6973062,142.156417 C83.6090325,142.544829 83.5036735,142.916042 83.3983145,143.305886 C83.1875966,144.01248 83.537844,143.039301 83.3627203,143.429146 C83.2402761,143.677099 83.1164081,143.906419 82.9768786,144.154372 C82.8886049,144.294831 82.801755,144.418091 82.7319902,144.542784 C82.3632339,145.143317 83.0651524,144.223168 82.591037,144.736273 C82.3276396,145.018624 82.0642422,145.285209 81.7837595,145.548928 C81.4320884,145.885742 81.6784006,145.637789 81.7837595,145.56756 C81.5901268,145.708019 81.3964941,145.831278 81.2042852,145.955971 C81.063332,146.044833 80.9408878,146.115063 80.7999346,146.185292 C80.6604051,146.255521 80.5194519,146.327184 80.3799225,146.397413 C80.6604051,146.292786 80.6418961,146.274154 80.3614135,146.397413 C80.0268276,146.503474 79.6936654,146.609535 79.343418,146.679764 C79.2024648,146.717029 78.694179,146.751427 79.2209738,146.717029 C79.0102559,146.732795 78.8166232,146.751427 78.6059053,146.751427 L78.4293578,146.751427 L76.955756,146.751427 L57.0486062,146.751427 L28.8380308,146.751427 L11.1434193,146.751427 L10.6337097,146.751427 L10.5625212,146.751427 C10.3176328,146.751427 10.0727444,146.732795 9.82643225,146.717029 C10.4229918,146.751427 9.66697002,146.679764 9.58012007,146.662565 C9.35231689,146.609535 9.12451372,146.556505 8.89528678,146.484842 C8.82552205,146.469076 8.12217976,146.185292 8.65039837,146.416046 C8.50944515,146.344383 8.36849194,146.292786 8.2289625,146.202491 C7.89437658,146.026201 7.56121444,145.815513 7.24513754,145.586192 C7.66657341,145.885742 6.85929592,145.230745 6.73685171,145.090287 C6.57881326,144.931195 6.42077481,144.753472 6.28124537,144.577182 C6.56172802,144.931195 6.24422735,144.506953 6.15737739,144.36506 C5.94665946,144.046878 5.77153577,143.694298 5.61349731,143.340284 C5.80713001,143.78316 5.64766779,143.411947 5.61349731,143.321652 C5.54230882,143.092332 5.4725441,142.881643 5.41986462,142.652323 C5.38569414,142.491799 5.3500999,142.332708 5.31450565,142.190815 C5.1564672,141.467023 5.29742041,142.686721 5.29742041,141.945729 C5.29742041,141.785205 5.2789114,141.608915 5.2789114,141.449824 C5.26182617,140.707398 5.2789114,139.947774 5.2789114,139.18815 L5.2789114,124.290917 L5.2789114,99.7808548 L5.2789114,71.0283633 L5.2789114,43.1773881 L5.2789114,21.3704415 L5.2789114,10.9621571 L5.2789114,10.7142043 L5.2789114,10.4490525 C5.2789114,10.3788231 5.36718513,9.58336756 5.2789114,10.1839006 C5.29742041,10.0262428 5.33301466,9.86571843 5.36718513,9.70662733 C5.41986462,9.47730683 5.4725441,9.24798632 5.54230882,9.01723256 C5.57790307,8.89397279 5.84130049,8.2576084 5.61349731,8.77071302 C5.77153577,8.41669949 5.96374469,8.08131826 6.15737739,7.74593702 C6.14029215,7.76313606 6.57881326,7.14540395 6.34958632,7.44495386 C6.12178314,7.74593702 6.5958985,7.16116974 6.57881326,7.17980203 C6.84221068,6.89745116 7.12269334,6.63229932 7.40459976,6.38434653 C7.03584338,6.68389644 7.33341127,6.43881015 7.42026123,6.38434653 C7.68508242,6.22525543 7.92997083,6.04896529 8.21187726,5.90707323 C8.35283047,5.83684383 8.49235991,5.76661442 8.63331313,5.69495176 C8.08800928,5.94290456 8.80843682,5.64335465 8.87820154,5.62472236 C9.24695792,5.50146259 9.63279955,5.41260089 10.0371502,5.36100378 C9.49184634,5.44843222 10.4059066,5.36100378 10.5625212,5.36100378 C11.9848673,5.34237149 13.4072134,5.36100378 14.8281357,5.36100378 L38.3004051,5.36100378 L65.8446563,5.36100378 L75.1646536,5.36100378 L77.710354,5.36100378 L78.3254226,5.36100378 L78.4478668,5.36100378 L78.4663758,5.36100378 C77.9922605,5.36100378 79.4131828,5.37676956 78.9561526,5.37676956 C79.5712212,5.37676956 78.6585848,5.27070883 79.2024648,5.39540186 C79.5897302,5.48426355 79.9584866,5.59032428 80.3443282,5.69495176 C81.0291615,5.88987419 79.9584866,5.44843222 80.5721314,5.78524671 C80.7130846,5.85404286 80.8540378,5.92570552 80.9750583,5.99593493 C81.168691,6.10199566 81.3623237,6.24388772 81.5559564,6.36714749 C81.6428063,6.42017786 81.9403742,6.66813065 81.5716178,6.36714749 C81.923289,6.66813065 82.2393659,6.9848796 82.5554428,7.33889313 C83.0480671,7.86919679 82.3974043,7.09237358 82.6422927,7.44495386 C82.7490755,7.60404496 82.8544344,7.76313606 82.9597934,7.92222716 C83.0651524,8.08131826 83.1534261,8.2576084 83.2402761,8.43389853 C83.3100408,8.55859156 83.4865882,9.03586486 83.3100408,8.53995927 C83.450994,8.91117183 83.556353,9.2823844 83.6432029,9.670796 C83.6787972,9.83132035 83.7143914,9.9889782 83.7314767,10.1480693 C83.6432029,9.54753623 83.7314767,10.5379142 83.7314767,10.6611739 C83.7499857,11.4924608 83.7314767,12.3409466 83.7314767,13.1894325 L83.7314767,26.4957547 L83.7314767,126.68445 C83.7314767,128.063239 88.9980013,128.1693 88.9980013,126.68445 L88.9980013,12.6576956 C88.9980013,11.3505687 89.0335955,10.0606409 88.8043686,8.75351398 C88.1551295,4.88373048 85.1879932,1.6832762 81.5189383,0.535240426 C79.6068155,-0.11832301 77.4996361,0.0235690518 75.514901,0.0235690518 L53.097645,0.0235690518 L24.8002196,0.0235690518 C20.0434046,0.0235690518 15.302251,-0.0294613147 10.5468598,0.0235690518 C4.69943708,0.0937984561 0.0308958053,4.89949627 0.0123867975,10.7672347 L0.0123867975,13.9490567 L0.0123867975,30.5418284 L0.0123867975,56.2371908 L0.0123867975,85.6074144 L0.0123867975,113.297865 L0.0123867975,133.674425 L0.0123867975,139.451869 C0.0123867975,140.425048 -0.0402926862,141.413992 0.0650662813,142.368539 C0.539181635,146.503474 3.13898535,149.931816 7.03584338,151.380835 C8.31581245,151.858108 9.66697002,152 11.0209751,152 L17.2343067,152 L42.8279932,152 L69.5293726,152 L77.1493887,152 L78.4478668,152 C81.9588832,151.94697 85.1196522,150.249998 87.1385579,147.386358 C88.7887071,145.054455 88.9980013,142.423002 88.9980013,139.699821 L88.9980013,127.987563" id="Fill-5" fill="#28BEF0" mask="url(#mask-2)"></path>
                    </g>
                    <path d="M63.3163258,2.67308082 C63.3163258,4.24679278 63.3504963,5.83627052 63.3163258,7.40998248 C63.3163258,7.60347166 63.2978168,7.81559312 63.2807316,8.01051555 C63.3504963,7.48021189 63.2807316,7.90445482 63.2636463,8.01051555 C63.1924578,8.22263702 63.1397783,8.45195752 63.0700136,8.68127803 C62.9304842,9.15855132 63.0173341,8.78877201 63.0700136,8.68127803 C62.8948899,9.01809252 62.7183425,9.35347375 62.4905393,9.67165595 C62.789531,9.24741302 62.4905393,9.65445691 62.4022656,9.74331861 C62.2100566,9.91960875 62.034933,10.1130979 61.8227912,10.2893881 C62.2271419,9.93680778 61.4725439,10.4843105 61.3315907,10.5903712 C61.2262317,10.6606006 60.7521163,10.8555231 61.2447407,10.6606006 C61.1037875,10.713631 60.964258,10.7666614 60.8047958,10.821125 C60.5769926,10.8899211 60.3491896,10.9443847 60.1213863,10.9974151 C60.2253215,10.9787828 60.6481811,10.9615838 60.1213863,10.9974151 C59.9448388,11.0146142 59.7868004,11.0146142 59.6116767,11.0146142 C57.1186557,11.0504455 54.6256347,11.0146142 52.1511228,11.0146142 C44.6378894,11.0146142 37.124656,11.0318132 29.6099988,11.0146142 L29.3651104,11.0146142 C29.1187982,11.0146142 28.8739098,10.9974151 28.6446829,10.9787828 C29.2597514,11.0676445 28.5051534,10.9271857 28.4168797,10.8899211 C28.1890765,10.8368908 27.9783586,10.7666614 27.7676406,10.6792329 C28.2246708,10.8741553 27.8559144,10.713631 27.7676406,10.6606006 C27.5384137,10.5201418 27.3106105,10.396882 27.0828074,10.2363577 C26.7482214,10.0070372 27.487158,10.6606006 26.9945336,10.1489293 L26.5204183,9.67165595 C26.0306415,9.17718362 26.6798805,9.91960875 26.4335683,9.58279426 C26.2741061,9.35347375 26.1701709,9.12415325 26.0121324,8.89483275 C25.959453,8.80597105 25.7999907,8.43475848 25.9936234,8.89483275 C25.8896882,8.64687995 25.8370088,8.38172812 25.748735,8.11657629 C25.7131408,7.99331651 25.6248671,7.46301285 25.6960555,8.01051555 C25.6604613,7.76399601 25.6604613,7.53324225 25.6604613,7.28672271 L25.6604613,7.00293859 L25.6604613,5.48369025 L25.6604613,2.65588179 C24.7834191,3.53876573 23.9049531,4.42308292 23.0279109,5.30740011 L37.4919886,5.30740011 L60.6481811,5.30740011 L65.931791,5.30740011 C67.3014576,5.30740011 68.6341061,4.08626843 68.5657652,2.65588179 C68.4945767,1.22406189 67.4053928,0.00579671274 65.931791,0.00579671274 L51.4662895,0.00579671274 L28.3115207,0.00579671274 L23.0279109,0.00579671274 C21.6055648,0.00579671274 20.3953605,1.22406189 20.3953605,2.65588179 C20.3953605,4.42308292 20.2714925,6.24331442 20.4295309,7.99331651 C20.8509668,12.3762046 24.1868595,15.7156845 28.5051534,16.2273559 C29.3821956,16.3334166 30.2962559,16.2803862 31.1918071,16.2803862 L36.5280964,16.2803862 C44.1979445,16.2803862 51.8877254,16.386447 59.5589972,16.2803862 C63.5612142,16.2273559 67.2131838,13.5758375 68.2667735,9.61862559 C68.8633331,7.42718152 68.5814266,4.90035622 68.5814266,2.65588179 C68.5814266,1.27709226 67.3712223,-0.0658659447 65.9488762,0.00579671274 C64.5279539,0.0932251549 63.3163258,1.18966381 63.3163258,2.67308082" id="Fill-8" fill="#28BEF0"></path>
                    <path d="M53.1608603,133.630998 C53.1608603,138.085548 49.5715366,141.697346 45.14646,141.697346 C40.7213833,141.697346 37.1334834,138.085548 37.1334834,133.630998 C37.1334834,129.176447 40.7213833,125.563216 45.14646,125.563216 C49.5715366,125.563216 53.1608603,129.176447 53.1608603,133.630998" id="Fill-10" fill="#DEDEDE"></path>
                    <path d="M21.6431523,46.3508973 L12.1651166,46.3508973 C10.690091,46.3508973 9.49554814,45.1469646 9.49554814,43.6635476 L9.49554814,28.509762 C9.49554814,27.0249118 10.690091,25.8224124 12.1651166,25.8224124 L21.6431523,25.8224124 C23.1181779,25.8224124 24.3127208,27.0249118 24.3127208,28.509762 L24.3127208,43.6635476 C24.3127208,45.1469646 23.1181779,46.3508973 21.6431523,46.3508973" id="Fill-31" fill="#DEDEDE"></path>
                    <line x1="28.3449793" y1="28.9377314" x2="71.2403168" y2="28.9377314" id="Stroke-33" stroke="#28BEF0" stroke-width="2.826" stroke-linecap="round" stroke-linejoin="round"></line>
                    <line x1="28.3449793" y1="36.2061881" x2="66.9690073" y2="36.2061881" id="Stroke-35" stroke="#28BEF0" stroke-width="2.826" stroke-linecap="round" stroke-linejoin="round"></line>
                    <line x1="12.5888305" y1="68.0513532" x2="49.7876649" y2="68.0513532" id="Stroke-37" stroke="#DEDEDE" stroke-width="2.826" stroke-linecap="round" stroke-linejoin="round"></line>
                    <line x1="12.5888305" y1="56.6314788" x2="49.7876649" y2="56.6314788" id="Stroke-39" stroke="#DEDEDE" stroke-width="2.826" stroke-linecap="round" stroke-linejoin="round"></line>
                    <line x1="12.5888305" y1="79.1394295" x2="49.7876649" y2="79.1394295" id="Stroke-41" stroke="#DEDEDE" stroke-width="2.826" stroke-linecap="round" stroke-linejoin="round"></line>
                    <line x1="12.5888305" y1="90.2260726" x2="52.6352045" y2="90.2260726" id="Stroke-43" stroke="#DEDEDE" stroke-width="2.826" stroke-linecap="round" stroke-linejoin="round"></line>
                    <line x1="12.5888305" y1="101.314292" x2="55.4827442" y2="101.314292" id="Stroke-45" stroke="#DEDEDE" stroke-width="2.826" stroke-linecap="round" stroke-linejoin="round"></line>
                </g>
                <polygon id="Fill-82" fill="#28BEF0" points="28.4951561 43.6751073 27.4020452 45 27 45 28.2965554 43.4587983 27.0516685 42 27.4650161 42 28.4951561 43.2630901 29.5301399 42 29.941873 42 28.7082885 43.4587983 30 45 29.5914962 45"></polygon>
                <polygon id="Fill-84" fill="#28BEF0" points="31.4943518 43.6751073 30.4034427 45 30 45 31.295858 43.4587983 30.0532544 42 30.464766 42 31.4943518 43.2630901 32.5303927 42 32.9402905 42 31.7089833 43.4587983 33 45 32.591716 45"></polygon>
                <polygon id="Fill-86" fill="#28BEF0" points="35.4951561 43.6751073 34.4020452 45 34 45 35.2965554 43.4587983 34.0516685 42 34.4650161 42 35.4951561 43.2630901 36.5301399 42 36.941873 42 35.7082885 43.4587983 37 45 36.5914962 45"></polygon>
                <polygon id="Fill-88" fill="#28BEF0" points="38.4951561 43.6751073 37.4020452 45 37 45 38.2965554 43.4587983 37.0516685 42 37.4650161 42 38.4951561 43.2630901 39.5301399 42 39.941873 42 38.7082885 43.4587983 40 45 39.5914962 45"></polygon>
                <polygon id="Fill-90" fill="#28BEF0" points="40.4951561 43.6751073 39.4020452 45 39 45 40.2965554 43.4587983 39.0516685 42 39.4650161 42 40.4951561 43.2630901 41.5301399 42 41.941873 42 40.7082885 43.4587983 42 45 41.5931109 45"></polygon>
                <polygon id="Fill-92" fill="#28BEF0" points="43.4951561 43.6751073 42.4020452 45 42 45 43.2965554 43.4587983 42.0516685 42 42.4650161 42 43.4951561 43.2630901 44.5301399 42 44.941873 42 43.7082885 43.4587983 45 45 44.5914962 45"></polygon>
                <polygon id="Fill-94" fill="#28BEF0" points="47.4951561 43.6751073 46.4020452 45 46 45 47.2965554 43.4587983 46.0516685 42 46.4650161 42 47.4951561 43.2630901 48.5301399 42 48.941873 42 47.7099031 43.4587983 49 45 48.5931109 45"></polygon>
                <polygon id="Fill-96" fill="#28BEF0" points="50.4951561 43.6751073 49.4020452 45 49 45 50.2965554 43.4587983 49.0516685 42 49.4650161 42 50.4951561 43.2630901 51.5301399 42 51.941873 42 50.7082885 43.4587983 52 45 51.5931109 45"></polygon>
                <polygon id="Fill-98" fill="#28BEF0" points="55.4951561 43.6751073 54.4020452 45 54 45 55.2965554 43.4587983 54.0516685 42 54.4650161 42 55.4951561 43.2630901 56.5301399 42 56.941873 42 55.7082885 43.4587983 57 45 56.5931109 45"></polygon>
                <polygon id="Fill-100" fill="#28BEF0" points="58.4951561 43.6751073 57.4020452 45 57 45 58.2965554 43.4587983 57.0516685 42 57.4650161 42 58.4951561 43.2630901 59.5301399 42 59.941873 42 58.7082885 43.4587983 60 45 59.5931109 45"></polygon>
                <polygon id="Fill-102" fill="#28BEF0" points="62.4951561 43.6751073 61.4020452 45 61 45 62.2965554 43.4587983 61.0516685 42 61.4650161 42 62.4951561 43.2630901 63.5301399 42 63.941873 42 62.7099031 43.4587983 64 45 63.5931109 45"></polygon>
                <rect id="Rectangle" stroke="#28BEF0" stroke-width="3" fill="#FFFFFF" x="15.5" y="24.5" width="128" height="31" rx="8"></rect>
                <g id="Group-10" transform="translate(27.000000, 38.000000)" fill="#28BEF0">
                    <polygon id="Fill-58" points="1.29882245 2.23347639 0.349251394 4 0 4 1.12630068 1.94506438 0.0448837133 0 0.40395342 0 1.29882245 1.68412017 2.19789934 0 2.55556643 0 1.48396777 1.94506438 2.60606061 4 2.25119875 4"></polygon>
                    <polygon id="Fill-60" points="3.90418439 2.23347639 2.95652599 4 2.60606061 4 3.73175542 1.94506438 2.65232204 0 3.00979673 0 3.90418439 1.68412017 4.8041795 0 5.16025234 0 4.09063198 1.94506438 5.21212121 4 4.85745024 4"></polygon>
                    <polygon id="Fill-62" points="9.11700427 2.23347639 8.16743321 4 7.81818182 4 8.9444825 1.94506438 7.86306553 0 8.22213524 0 9.11700427 1.68412017 10.0160812 0 10.3737482 0 9.30214959 1.94506438 10.4242424 4 10.0693806 4"></polygon>
                    <polygon id="Fill-64" points="11.7230649 2.23347639 10.7734938 4 10.4242424 4 11.5505431 1.94506438 10.4691261 0 10.8281958 0 11.7230649 1.68412017 12.6221418 0 12.9798089 0 11.9082102 1.94506438 13.030303 4 12.6754412 4"></polygon>
                    <polygon id="Fill-66" points="15.6321558 2.23347639 14.6825847 4 14.3333333 4 15.459634 1.94506438 14.378217 0 14.7372868 0 15.6321558 1.68412017 16.5312327 0 16.8888998 0 15.8173011 1.94506438 16.9393939 4 16.5859347 4"></polygon>
                    <polygon id="Fill-68" points="18.2382164 2.23347639 17.2886453 4 16.9393939 4 18.0656946 1.94506438 16.9842777 0 17.3433474 0 18.2382164 1.68412017 19.1372933 0 19.4949604 0 18.4233617 1.94506438 19.5454545 4 19.1905927 4"></polygon>
                    <polygon id="Fill-70" points="23.4503376 2.23347639 22.5007665 4 22.1515152 4 23.2778158 1.94506438 22.1963989 0 22.5554686 0 23.4503376 1.68412017 24.3494145 0 24.7070816 0 23.6368855 1.94506438 24.7575758 4 24.4041165 4"></polygon>
                    <polygon id="Fill-72" points="26.0563982 2.23347639 25.1068272 4 24.7575758 4 25.8838764 1.94506438 24.8024595 0 25.1615292 0 26.0563982 1.68412017 26.9554751 0 27.3131422 0 26.2415435 1.94506438 27.3636364 4 27.0101771 4"></polygon>
                    <polygon id="Fill-74" points="31.2685194 2.23347639 30.3189484 4 29.969697 4 31.0959977 1.94506438 30.0145807 0 30.3736504 0 31.2685194 1.68412017 32.1675963 0 32.5252634 0 31.4536647 1.94506438 32.5757576 4 32.2208957 4"></polygon>
                    <polygon id="Fill-76" points="33.8738814 2.23347639 32.926223 4 32.5757576 4 33.7028543 1.94506438 32.622019 0 32.9808956 0 33.8738814 1.68412017 34.7738765 0 35.1299493 0 34.0603289 1.94506438 35.1818182 4 34.8271472 4"></polygon>
                    <polygon id="Fill-78" points="39.0867012 2.23347639 38.1371302 4 37.7878788 4 38.9141795 1.94506438 37.8327625 0 38.1918322 0 39.0867012 1.68412017 39.9857781 0 40.3434452 0 39.2718466 1.94506438 40.3939394 4 40.0390775 4"></polygon>
                    <polygon id="Fill-80" points="41.6927618 2.23347639 40.7431908 4 40.3939394 4 41.5202401 1.94506438 40.4388231 0 40.7978928 0 41.6927618 1.68412017 42.5918387 0 42.9495058 0 41.8779072 1.94506438 43 4 42.6451381 4"></polygon>
                </g>
                <g id="Group-5" transform="translate(110.000000, 32.000000)">
                    <circle id="Oval" stroke="#FFFFFF" stroke-width="2" fill="#FE5A17" fill-rule="nonzero" cx="20" cy="20" r="20"></circle>
                    <path d="M30.4429513,32.2580645 C29.8459807,32.2580645 29.3296819,32.0261768 28.8940547,31.5624014 L22.7226698,25.4453633 C21.9643558,25.925131 21.1415045,26.3089451 20.2541158,26.5968058 C19.3667272,26.8846664 18.4390026,27.0285967 17.4709423,27.0285967 C15.6961649,27.0285967 14.0706302,26.5928077 12.5943381,25.7212297 C11.118046,24.8496517 9.94023926,23.6862151 9.06091775,22.2309198 C8.18159624,20.7756244 7.74193548,19.1604065 7.74193548,17.3852661 C7.74193548,15.6261179 8.18159624,14.014898 9.06091775,12.5516066 C9.94023926,11.0883151 11.118046,9.92088042 12.5943381,9.04930244 C14.0706302,8.17772447 15.6961649,7.74193548 17.4709423,7.74193548 C19.2457196,7.74193548 20.8672208,8.17372641 22.3354457,9.03730825 C23.8036706,9.9008901 24.9774438,11.0643267 25.8567653,12.5276182 C26.7360868,13.9909097 27.1757475,15.6101256 27.1757475,17.3852661 C27.1757475,18.4087705 27.0184377,19.3842981 26.7038181,20.311849 C26.3891985,21.2393999 25.9576049,22.0869895 25.4090374,22.8546178 L31.6530268,29.0676094 C31.8305045,29.2595164 31.9757136,29.4674158 32.088654,29.6913074 C32.2015943,29.915199 32.2580645,30.1550828 32.2580645,30.4109589 C32.2580645,30.9387034 32.0926875,31.3784904 31.7619336,31.7303201 C31.4311796,32.0821497 30.9915189,32.2580645 30.4429513,32.2580645 Z" id="Path" fill="#FFFFFF" fill-rule="nonzero"></path>
                    <circle id="Oval" fill="#FE5A17" cx="17.4193548" cy="17.4193548" r="5.80645161"></circle>
                </g>
            </g>
            <g id="Group-13-Copy" transform="translate(5.473000, 30.473000) rotate(-270.000000) translate(-5.473000, -30.473000) translate(-21.759800, 25.000000)">
                <path d="M27.365,3.649 C28.372,3.649 29.189,4.468 29.189,5.473 C29.189,6.479 28.372,7.298 27.365,7.298 C26.358,7.298 25.541,6.479 25.541,5.473 C25.541,4.468 26.358,3.649 27.365,3.649 M27.365,10.946 C30.382,10.946 32.838,8.491 32.838,5.473 C32.838,2.456 30.382,0 27.365,0 C24.348,0 21.892,2.456 21.892,5.473 C21.892,8.491 24.348,10.946 27.365,10.946" id="Fill-1" fill="#FFFFFF"></path>
                <path d="M27.365,3.649 C28.372,3.649 29.189,4.468 29.189,5.473 C29.189,6.479 28.372,7.298 27.365,7.298 C26.358,7.298 25.541,6.479 25.541,5.473 C25.541,4.468 26.358,3.649 27.365,3.649 Z M27.365,10.946 C30.382,10.946 32.838,8.491 32.838,5.473 C32.838,2.456 30.382,0 27.365,0 C24.348,0 21.892,2.456 21.892,5.473 C21.892,8.491 24.348,10.946 27.365,10.946 Z" id="Stroke-3" stroke="#DEDEDE"></path>
                <path d="M54.4656,6.2054 C54.4656,7.6174 53.3206,8.7614 51.9096,8.7614 C50.4976,8.7614 49.3526,7.6174 49.3526,6.2054 C49.3526,4.7934 50.4976,3.6494 51.9096,3.6494 C53.3206,3.6494 54.4656,4.7934 54.4656,6.2054" id="Fill-5" fill="#FFFFFF"></path>
                <path d="M54.4656,6.2054 C54.4656,7.6174 53.3206,8.7614 51.9096,8.7614 C50.4976,8.7614 49.3526,7.6174 49.3526,6.2054 C49.3526,4.7934 50.4976,3.6494 51.9096,3.6494 C53.3206,3.6494 54.4656,4.7934 54.4656,6.2054 Z" id="Stroke-7" stroke="#DEDEDE"></path>
                <path d="M2.557,8.7614 C1.145,8.7614 0,7.6174 0,6.2054 C0,4.7934 1.145,3.6494 2.557,3.6494 C3.968,3.6494 5.113,4.7934 5.113,6.2054 C5.113,7.6174 3.968,8.7614 2.557,8.7614 Z" id="Fill-9" fill="#FFFFFF"></path>
                <path d="M5.113,6.2054 C5.113,7.6174 3.968,8.7614 2.557,8.7614 C1.145,8.7614 0,7.6174 0,6.2054 C0,4.7934 1.145,3.6494 2.557,3.6494 C3.968,3.6494 5.113,4.7934 5.113,6.2054 Z" id="Stroke-11" stroke="#DEDEDE"></path>
            </g>
            <g id="Group-13-Copy" transform="translate(144.473000, 118.473000) rotate(-270.000000) translate(-144.473000, -118.473000) translate(117.240200, 113.000000)">
                <path d="M27.365,3.649 C28.372,3.649 29.189,4.468 29.189,5.473 C29.189,6.479 28.372,7.298 27.365,7.298 C26.358,7.298 25.541,6.479 25.541,5.473 C25.541,4.468 26.358,3.649 27.365,3.649 M27.365,10.946 C30.382,10.946 32.838,8.491 32.838,5.473 C32.838,2.456 30.382,0 27.365,0 C24.348,0 21.892,2.456 21.892,5.473 C21.892,8.491 24.348,10.946 27.365,10.946" id="Fill-1" fill="#FFFFFF"></path>
                <path d="M27.365,3.649 C28.372,3.649 29.189,4.468 29.189,5.473 C29.189,6.479 28.372,7.298 27.365,7.298 C26.358,7.298 25.541,6.479 25.541,5.473 C25.541,4.468 26.358,3.649 27.365,3.649 Z M27.365,10.946 C30.382,10.946 32.838,8.491 32.838,5.473 C32.838,2.456 30.382,0 27.365,0 C24.348,0 21.892,2.456 21.892,5.473 C21.892,8.491 24.348,10.946 27.365,10.946 Z" id="Stroke-3" stroke="#DEDEDE"></path>
                <path d="M54.4656,6.2054 C54.4656,7.6174 53.3206,8.7614 51.9096,8.7614 C50.4976,8.7614 49.3526,7.6174 49.3526,6.2054 C49.3526,4.7934 50.4976,3.6494 51.9096,3.6494 C53.3206,3.6494 54.4656,4.7934 54.4656,6.2054" id="Fill-5" fill="#FFFFFF"></path>
                <path d="M54.4656,6.2054 C54.4656,7.6174 53.3206,8.7614 51.9096,8.7614 C50.4976,8.7614 49.3526,7.6174 49.3526,6.2054 C49.3526,4.7934 50.4976,3.6494 51.9096,3.6494 C53.3206,3.6494 54.4656,4.7934 54.4656,6.2054 Z" id="Stroke-7" stroke="#DEDEDE"></path>
                <path d="M2.557,8.7614 C1.145,8.7614 0,7.6174 0,6.2054 C0,4.7934 1.145,3.6494 2.557,3.6494 C3.968,3.6494 5.113,4.7934 5.113,6.2054 C5.113,7.6174 3.968,8.7614 2.557,8.7614 Z" id="Fill-9" fill="#FFFFFF"></path>
                <path d="M5.113,6.2054 C5.113,7.6174 3.968,8.7614 2.557,8.7614 C1.145,8.7614 0,7.6174 0,6.2054 C0,4.7934 1.145,3.6494 2.557,3.6494 C3.968,3.6494 5.113,4.7934 5.113,6.2054 Z" id="Stroke-11" stroke="#DEDEDE"></path>
            </g>
        </g>
    </g>
</svg>