<?xml version="1.0" encoding="UTF-8"?>
<svg width="50px" height="48px" viewBox="0 0 50 48" version="1.1" xmlns="http://www.w3.org/2000/svg" xmlns:xlink="http://www.w3.org/1999/xlink">
    <title>􀒊</title>
    <g id="4.1--1393222---Autosave/Draft-Schedules" stroke="none" stroke-width="1" fill="none" fill-rule="evenodd">
        <g id="15--Muscle-Merch_VD_1393222---Autosave/Draft-Schedules---RNS---Error-Message-1" transform="translate(-189.000000, -363.000000)" fill="#EB445A" fill-rule="nonzero">
            <g id="Group-16" transform="translate(0.000000, 1.000000)">
                <g id="Group-4" transform="translate(64.000000, 318.000000)">
                    <g id="Group-2" transform="translate(29.000000, 44.000000)">
                        <path d="M128.397959,48 C129.452381,48 130.379252,47.8843683 131.178571,47.6531049 C131.977891,47.4218415 132.687925,47.0792291 133.308673,46.6252677 C133.929422,46.1713062 134.528912,45.6188437 135.107143,44.9678801 L143.831633,35.0492505 C144.409864,34.3982869 144.856293,33.7944325 145.170918,33.2376874 C145.485544,32.6809422 145.702381,32.0899358 145.821429,31.4646681 C145.940476,30.8394004 146,30.0728051 146,29.1648822 L146,18.8094218 C146,17.9357602 145.940476,17.1820128 145.821429,16.5481799 C145.702381,15.9143469 145.485544,15.3190578 145.170918,14.7623126 C144.856293,14.2055675 144.409864,13.6017131 143.831633,12.9507495 L135.107143,3.00642398 C134.528912,2.37259101 133.929422,1.83297645 133.308673,1.3875803 C132.687925,0.942184154 131.977891,0.599571734 131.178571,0.359743041 C130.379252,0.119914347 129.452381,0 128.397959,0 L113.602041,0 C112.547619,0 111.625,0.119914347 110.834184,0.359743041 C110.043367,0.599571734 109.333333,0.942184154 108.704082,1.3875803 C108.07483,1.83297645 107.479592,2.37259101 106.918367,3.00642398 L98.1683673,12.9507495 C97.5901361,13.6017131 97.1437075,14.2055675 96.8290816,14.7623126 C96.5144558,15.3190578 96.297619,15.9143469 96.1785714,16.5481799 C96.0595238,17.1820128 96,17.9357602 96,18.8094218 L96,29.1648822 C96,30.0728051 96.0595238,30.8394004 96.1785714,31.4646681 C96.297619,32.0899358 96.5144558,32.6809422 96.8290816,33.2376874 C97.1437075,33.7944325 97.5901361,34.3982869 98.1683673,35.0492505 L106.918367,44.9678801 C107.479592,45.6188437 108.07483,46.1713062 108.704082,46.6252677 C109.333333,47.0792291 110.043367,47.4218415 110.834184,47.6531049 C111.625,47.8843683 112.547619,48 113.602041,48 L128.397959,48 Z M129.112245,34.6124197 C128.431973,34.6124197 127.845238,34.372591 127.352041,33.8929336 L121.05102,27.5203426 L114.72449,33.8929336 C114.248299,34.372591 113.653061,34.6124197 112.938776,34.6124197 C112.27551,34.6124197 111.705782,34.372591 111.229592,33.8929336 C110.753401,33.4132762 110.515306,32.8308351 110.515306,32.1456103 C110.515306,31.4775161 110.753401,30.9036403 111.229592,30.4239829 L117.581633,24.0256959 L111.229592,17.627409 C110.753401,17.1477516 110.515306,16.5824411 110.515306,15.9314775 C110.515306,15.2291221 110.753401,14.6466809 111.229592,14.1841542 C111.705782,13.7216274 112.27551,13.490364 112.938776,13.490364 C113.653061,13.490364 114.231293,13.7301927 114.673469,14.2098501 L121.05102,20.5824411 L127.428571,14.1841542 C127.904762,13.7044968 128.482993,13.4646681 129.163265,13.4646681 C129.843537,13.4646681 130.417517,13.7002141 130.885204,14.1713062 C131.352891,14.6423983 131.586735,15.2205567 131.586735,15.9057816 C131.586735,16.5567452 131.340136,17.130621 130.846939,17.627409 L124.520408,24.0256959 L130.846939,30.4239829 C131.323129,30.9207709 131.561224,31.4946467 131.561224,32.1456103 C131.561224,32.8308351 131.331633,33.4132762 130.872449,33.8929336 C130.413265,34.372591 129.826531,34.6124197 129.112245,34.6124197 Z" id="􀒊"></path>
                    </g>
                </g>
            </g>
        </g>
    </g>
</svg>