<?xml version="1.0" encoding="UTF-8"?>
<svg width="20px" height="20px" viewBox="0 0 20 20" version="1.1" xmlns="http://www.w3.org/2000/svg" xmlns:xlink="http://www.w3.org/1999/xlink">
    <title>Group 5</title>
    <defs>
        <path d="M10,0 C15.5228475,-1.01453063e-15 20,4.4771525 20,10 C20,15.5228475 15.5228475,20 10,20 C4.4771525,20 6.76353751e-16,15.5228475 0,10 C-6.76353751e-16,4.4771525 4.4771525,1.01453063e-15 10,0 Z" id="path-1"></path>
    </defs>
    <g id="5.2--Equipment-request-install---move/repair/pickup/exchange" stroke="none" stroke-width="1" fill="none" fill-rule="evenodd">
        <g id="5.2.2---18---Service-Request---Exchange---Equipment" transform="translate(-57.000000, -281.000000)">
            <g id="Group-2" transform="translate(22.000000, 209.000000)">
                <g id="Group-5" transform="translate(35.000000, 72.000000)">
                    <mask id="mask-2" fill="white">
                        <use xlink:href="#path-1"></use>
                    </mask>
                    <use id="Mask" fill="#004C97" xlink:href="#path-1"></use>
                    <path d="M5.52702703,14.7702703 L4.5,14.7702703 L4.5,11.6891892 L7.58108108,11.6891892 L7.58108108,12.7162162 L6.30756757,12.7162162 C7.13432432,13.9537838 8.54648649,14.7702703 10.1486486,14.7702703 C12.7008108,14.7702703 14.7702703,12.7008108 14.7702703,10.1486486 L15.7972973,10.1486486 C15.7972973,13.2708108 13.2708108,15.7972973 10.1486486,15.7972973 C8.23837838,15.7972973 6.54891892,14.8472973 5.52702703,13.3991892 L5.52702703,14.7702703 Z M4.5,10.1486486 C4.5,7.02648649 7.02648649,4.5 10.1486486,4.5 C12.0589189,4.5 13.7483784,5.45 14.7702703,6.89810811 L14.7702703,5.52702703 L15.7972973,5.52702703 L15.7972973,8.60810811 L12.7162162,8.60810811 L12.7162162,7.58108108 L13.9897297,7.58108108 C13.162973,6.34351351 11.7508108,5.52702703 10.1486486,5.52702703 C7.59648649,5.52702703 5.52702703,7.59648649 5.52702703,10.1486486 L4.5,10.1486486 Z" id="Shape" fill="#FFFFFF" fill-rule="nonzero" mask="url(#mask-2)"></path>
                </g>
            </g>
        </g>
    </g>
</svg>