<?xml version="1.0" encoding="UTF-8"?>
<svg width="40px" height="40px" viewBox="0 0 40 40" version="1.1" xmlns="http://www.w3.org/2000/svg" xmlns:xlink="http://www.w3.org/1999/xlink">
    <title>Expand Map Icon@3x</title>
    <defs>
        <circle id="path-1" cx="16" cy="16" r="16"></circle>
        <filter x="-21.9%" y="-15.6%" width="143.8%" height="143.8%" filterUnits="objectBoundingBox" id="filter-2">
            <feOffset dx="0" dy="2" in="SourceAlpha" result="shadowOffsetOuter1"></feOffset>
            <feGaussianBlur stdDeviation="2" in="shadowOffsetOuter1" result="shadowBlurOuter1"></feGaussianBlur>
            <feComposite in="shadowBlurOuter1" in2="SourceAlpha" operator="out" result="shadowBlurOuter1"></feComposite>
            <feColorMatrix values="0 0 0 0 0   0 0 0 0 0   0 0 0 0 0  0 0 0 0.166111233 0" type="matrix" in="shadowBlurOuter1"></feColorMatrix>
        </filter>
    </defs>
    <g id="Expand-Icon" stroke="none" stroke-width="1" fill="none" fill-rule="evenodd">
        <g id="02---Mapsted-&amp;-Realogram-Spike" transform="translate(-372, -400)">
            <g id="Expand-Map-Icon" transform="translate(376, 402)">
                <g id="Group-3-Copy">
                    <g id="Oval-Copy-8">
                        <use fill="black" fill-opacity="1" filter="url(#filter-2)" xlink:href="#path-1"></use>
                        <circle stroke="#00A2D9" stroke-width="2" stroke-linejoin="square" fill="#FFFFFF" fill-rule="evenodd" cx="16" cy="16" r="15"></circle>
                    </g>
                    <g id="􀌇" transform="translate(8.2824, 11.875)" fill="#FFFFFF" fill-rule="nonzero">
                        <path d="M0.593178448,1.19426594 L15.3989125,1.19426594 C15.7310924,1.19426594 16,0.933267425 16,0.601087494 C16,0.268907563 15.7310924,-1.13242749e-14 15.3989125,-1.13242749e-14 L0.593178448,-1.13242749e-14 C0.260998517,-1.13242749e-14 0,0.268907563 0,0.601087494 C0,0.933267425 0.260998517,1.19426594 0.593178448,1.19426594 Z M0.593178448,4.64260999 L15.3989125,4.64260999 C15.7310924,4.64260999 16,4.38161147 16,4.04943154 C16,3.70934256 15.7310924,3.440435 15.3989125,3.440435 L0.593178448,3.440435 C0.260998517,3.440435 0,3.70934256 0,4.04943154 C0,4.38161147 0.260998517,4.64260999 0.593178448,4.64260999 Z M0.593178448,8.09886307 L15.3989125,8.09886307 C15.7310924,8.09886307 16,7.82995551 16,7.48986653 C16,7.1576866 15.7310924,6.89668809 15.3989125,6.89668809 L0.593178448,6.89668809 C0.260998517,6.89668809 0,7.1576866 0,7.48986653 C0,7.82995551 0.260998517,8.09886307 0.593178448,8.09886307 Z" id="Shape"></path>
                    </g>
                </g>
                <g id="􀅊" transform="translate(10.0409, 10.3089)" fill="#00A2D9" fill-rule="nonzero">
                    <path d="M0.641143799,4.90356445 C0.825286865,4.90356445 0.977371216,4.84356689 1.09739685,4.72357178 C1.21742249,4.60357666 1.2774353,4.45111084 1.2774353,4.26617432 L1.2774353,3.84814453 L1.15594482,2.00839233 L2.52081299,3.44778442 L4.20950317,5.14819336 C4.32791138,5.26977539 4.47637939,5.33056641 4.65490723,5.33056641 C4.85296631,5.33056641 5.015625,5.26983643 5.1428833,5.14837646 C5.2701416,5.0269165 5.33377075,4.8684082 5.33377075,4.67285156 C5.33377075,4.58325195 5.31706238,4.49845886 5.28364563,4.41847229 C5.25022888,4.33848572 5.20346069,4.26846313 5.14334106,4.20840454 L3.44778442,2.51861572 L2.00738525,1.15493774 L3.85830688,1.27642822 L4.30490112,1.27642822 C4.48910522,1.27642822 4.64216614,1.21658325 4.76408386,1.09689331 C4.88600159,0.977203369 4.94696045,0.825286865 4.94696045,0.641143799 C4.94696045,0.455535889 4.88679504,0.302276611 4.76646423,0.181365967 C4.64613342,0.0604553223 4.49227905,0 4.30490112,0 L1.05834961,0 C0.724914551,0 0.465164185,0.0928497314 0.279098511,0.278549194 C0.0930328369,0.464248657 0,0.723815918 0,1.05725098 L0,4.26617432 C0,4.44720459 0.0608062744,4.59869385 0.182418823,4.72064209 C0.304031372,4.84259033 0.456939697,4.90356445 0.641143799,4.90356445 Z M6.97219849,11.2913818 L10.2198486,11.2913818 C10.5557251,11.2913818 10.8166962,11.198349 11.0027618,11.0122833 C11.1888275,10.8262177 11.2818604,10.5664978 11.2818604,10.2331238 L11.2818604,7.02410889 C11.2818604,6.84313965 11.2202454,6.69186401 11.0970154,6.57028198 C10.9737854,6.44869995 10.8200989,6.38790894 10.6359558,6.38790894 C10.4549255,6.38790894 10.3036041,6.44790649 10.1819916,6.56790161 C10.060379,6.68789673 9.99957275,6.83996582 9.99957275,7.02410889 L9.99957275,7.4432373 L10.1259155,9.28189087 L8.75628662,7.84259033 L7.07235718,6.14328003 C6.95394897,6.02163696 6.80389404,5.96081543 6.62219238,5.96081543 C6.42730713,5.96081543 6.26542664,6.0213623 6.1365509,6.14245605 C6.00767517,6.2635498 5.9432373,6.42190552 5.9432373,6.61752319 C5.9432373,6.70706177 5.95996094,6.79182434 5.9934082,6.87181091 C6.02685547,6.95179749 6.07522583,7.02185059 6.13851929,7.08197021 L7.82931519,8.77166748 L9.2744751,10.135437 L7.42355347,10.0139465 L6.97219849,10.0139465 C6.78799438,10.0139465 6.63491821,10.0739594 6.51296997,10.193985 C6.39102173,10.3140106 6.33004761,10.4661255 6.33004761,10.6503296 C6.33004761,10.8352051 6.39102173,10.988266 6.51296997,11.1095123 C6.63491821,11.2307587 6.78799438,11.2913818 6.97219849,11.2913818 Z" id="Shape"></path>
                </g>
            </g>
        </g>
    </g>
</svg>