<?xml version="1.0" encoding="UTF-8"?>
<svg width="52px" height="52px" viewBox="0 0 52 52" version="1.1" xmlns="http://www.w3.org/2000/svg" xmlns:xlink="http://www.w3.org/1999/xlink">
    <title>fab_selling_execution_ON</title>
    <defs>
        <circle id="path-1" cx="22" cy="22" r="22"></circle>
        <filter x="-15.9%" y="-11.4%" width="131.8%" height="131.8%" filterUnits="objectBoundingBox" id="filter-2">
            <feOffset dx="0" dy="2" in="SourceAlpha" result="shadowOffsetOuter1"></feOffset>
            <feGaussianBlur stdDeviation="2" in="shadowOffsetOuter1" result="shadowBlurOuter1"></feGaussianBlur>
            <feColorMatrix values="0 0 0 0 0   0 0 0 0 0   0 0 0 0 0  0 0 0 0.166111233 0" type="matrix" in="shadowBlurOuter1"></feColorMatrix>
        </filter>
    </defs>
    <g id="11.3-Total-SKU-Visibility---List-view" stroke="none" stroke-width="1" fill="none" fill-rule="evenodd">
        <g id="10-FAB-icons-ON-OFF-states" transform="translate(-45.000000, -109.000000)">
            <g id="fab_selling_execution_ON" transform="translate(49.000000, 111.000000)">
                <g id="Oval-Copy-8">
                    <use fill="black" fill-opacity="1" filter="url(#filter-2)" xlink:href="#path-1"></use>
                    <use fill="#FFFFFF" fill-rule="evenodd" xlink:href="#path-1"></use>
                </g>
                <path d="M23.0499326,8.13220639 C23.3600996,8.18921405 23.4370794,8.26430224 23.4916194,8.57551682 C23.53234,8.80779772 23.5570607,9.0441265 23.5474005,9.28001676 C23.5312666,9.67488754 23.6210597,10.0625733 23.6148544,10.4561286 C23.6140158,10.5099654 23.64303,10.54896 23.671105,10.5923735 C23.7609317,10.7312495 23.7104503,10.8266109 23.5447507,10.8401038 C23.516944,10.8423976 23.4887013,10.8443541 23.4610287,10.8420265 C23.3221631,10.8304226 23.2596735,10.88318 23.2960335,11.0292748 C23.3067671,11.072351 23.314985,11.1200148 23.3080417,11.1629223 C23.2602773,11.4587549 23.3934743,11.6640162 23.6156258,11.8390871 C24.1641789,12.271367 24.6184776,12.8005937 25.0579842,13.336803 C25.4958136,13.8709546 25.879908,14.4493631 26.0556033,15.1341296 C26.1507297,15.5048818 26.2087246,15.8830213 26.1217155,16.2672327 C26.1144368,16.2992784 26.1010533,16.3455592 26.1161474,16.3646179 C26.2510551,16.5343928 26.1963474,16.7324691 26.1951399,16.9174573 C26.1871903,18.1535114 26.1898402,19.3901391 26.1520043,20.6254174 C26.1251368,21.5021547 26.1366754,22.3782847 26.1300675,23.254651 C26.1261095,23.7840801 26.0557375,24.2960695 25.8351289,24.7804997 C25.731315,25.0085303 25.7557675,25.2559233 25.734401,25.4938038 C25.7069968,25.7986429 25.6594336,26.0863798 25.5273099,26.3695965 C25.4015258,26.6392191 25.4122258,26.9399092 25.5217419,27.2214056 C25.5819841,27.3763382 25.598923,27.5192959 25.541163,27.678074 C25.4847446,27.8330741 25.4122594,27.9824747 25.3156236,28.1091734 C25.1550224,28.3198318 25.1908793,28.513388 25.3354137,28.6925405 C25.572391,28.9864166 25.5946632,29.3275518 25.5895312,29.6794813 C25.5889609,29.718206 25.5879882,29.7631375 25.5693386,29.7943736 C25.4591853,29.9784848 25.5244588,30.1455948 25.5969776,30.3222173 C25.7034413,30.5814166 25.8494515,30.8223667 25.9231778,31.0972516 C26.0188744,31.4539711 26.0119646,31.8132542 25.9485359,32.167039 C25.854617,32.6908348 25.8022908,33.2254924 25.596944,33.7248997 C25.4633781,34.049641 25.3014016,34.3532321 25.0360139,34.5917872 C24.8211746,34.7849386 24.5659166,34.807573 24.2972082,34.7814641 C24.2249913,34.7744478 24.1533111,34.762203 24.0811278,34.755018 C23.7869941,34.725772 23.7874302,34.7264467 23.6444388,34.9947537 C23.5863433,35.1036754 23.5183863,35.2078072 23.467167,35.3197986 C23.2652751,35.7613886 22.9207607,35.969416 22.4429152,35.9699894 C22.3537594,35.9700906 22.2624568,35.9708665 22.1760515,35.9896554 C22.016792,36.0241973 21.8928527,35.9695509 21.7784059,35.8657228 C21.548808,35.6573244 21.4058836,35.3914123 21.2788584,35.1145035 C21.2390771,35.0278114 21.2024823,34.9395339 21.159984,34.8542248 C21.0205146,34.5740777 20.6951529,34.5227033 20.4846741,34.7556926 C20.2935829,34.9671944 20.0673391,35.1273218 19.820232,35.2615091 C19.4691098,35.4521305 19.0999417,35.4570554 18.7353019,35.3267811 C18.4952051,35.2409998 18.3341008,35.0377287 18.2155283,34.8203575 C17.8007425,34.060098 17.5519247,33.2472498 17.3961201,32.3912242 C17.2382358,31.5237633 17.3964891,30.7311545 17.7640806,29.9583465 C17.8399201,29.7988938 17.8089604,29.6441973 17.7408693,29.5029262 C17.5858026,29.1811197 17.6405103,28.9040085 17.8489095,28.6234904 C18.0085379,28.4086491 17.9884795,28.1431081 17.8477355,27.9388588 C17.6231689,27.6129369 17.6505395,27.2902533 17.7868559,26.9629484 C17.9180404,26.6479895 17.8688001,26.3593756 17.6872685,26.1005811 C17.4092016,25.7041924 17.3428212,25.2832465 17.4517335,24.8198653 C17.4927559,24.6453005 17.4224174,24.4767737 17.3404732,24.3370543 C17.0822635,23.8966111 17.0817939,23.4107642 17.0769638,22.9305506 C17.0636139,21.6041613 17.0826325,20.2773671 17.0610312,18.9511801 C17.0498615,18.2659076 17.055765,17.5801966 17.0299038,16.8954301 C17.0187006,16.598012 17.0116231,16.300594 17.0014933,16.0032096 C16.9790199,15.3425617 17.2127771,14.7576092 17.5288475,14.2007557 C18.0786081,13.2321316 18.8522644,12.4666773 19.7379524,11.8127084 C19.9187797,11.679162 19.9763721,11.5338094 19.9448086,11.3284806 C19.9362888,11.2730247 19.9222681,11.2159833 19.9275007,11.1612694 C19.9433998,10.9954075 19.8998282,10.9084118 19.7100116,10.886081 C19.5146269,10.8630418 19.4515335,10.6953583 19.5452511,10.5266966 C19.5738293,10.4753223 19.585435,10.4232058 19.5896948,10.3667041 C19.6322602,9.80711832 19.6780792,9.24780237 19.7169549,8.68798044 C19.7420781,8.32583003 19.7852137,8.25708352 20.1396566,8.1669507 C20.6293762,8.04244463 21.1280181,7.98459367 21.6204211,8.00351751 C22.1110463,7.99002457 22.5821163,8.04625639 23.0499326,8.13220639 Z" id="Fill-1" fill="currentColor" fill-rule="nonzero"></path>
            </g>
        </g>
    </g>
</svg>