<?xml version="1.0" encoding="UTF-8"?>
<svg width="52px" height="52px" viewBox="0 0 52 52" version="1.1" xmlns="http://www.w3.org/2000/svg" xmlns:xlink="http://www.w3.org/1999/xlink">
    <title>fab_planogram_ON</title>
    <defs>
        <circle id="path-1" cx="22" cy="22" r="22"></circle>
        <filter x="-15.9%" y="-11.4%" width="131.8%" height="131.8%" filterUnits="objectBoundingBox" id="filter-2">
            <feOffset dx="0" dy="2" in="SourceAlpha" result="shadowOffsetOuter1"></feOffset>
            <feGaussianBlur stdDeviation="2" in="shadowOffsetOuter1" result="shadowBlurOuter1"></feGaussianBlur>
            <feColorMatrix values="0 0 0 0 0   0 0 0 0 0   0 0 0 0 0  0 0 0 0.166111233 0" type="matrix" in="shadowBlurOuter1"></feColorMatrix>
        </filter>
    </defs>
    <g id="11.3-Total-SKU-Visibility---List-view" stroke="none" stroke-width="1" fill="none" fill-rule="evenodd">
        <g id="10-FAB-icons-ON-OFF-states" transform="translate(-243.000000, -109.000000)">
            <g id="fab_planogram_ON" transform="translate(247.000000, 111.000000)">
                <g id="Oval-Copy-8">
                    <use fill="black" fill-opacity="1" filter="url(#filter-2)" xlink:href="#path-1"></use>
                    <use fill="#FFFFFF" fill-rule="evenodd" xlink:href="#path-1"></use>
                </g>
                <g id="Group-11" transform="translate(9.000000, 12.000000)" fill="currentColor" stroke="#FFFFFF">
                    <path d="M1.42935409,1.07420853 L11.8556315,4.42172 C12.0608435,4.48914677 12.2328051,4.61865204 12.3534638,4.78530196 C12.4741225,4.95195187 12.5434783,5.15574642 12.5434783,5.37175174 L12.5434783,13.3052257 C12.5434783,13.503784 12.4847328,13.6929349 12.3805196,13.8523654 C12.2763064,14.0117958 12.1266255,14.141506 11.9447547,14.2211827 L1.90127641,18.6211827 C1.64834186,18.7319921 1.37443822,18.7297893 1.13606585,18.6366504 C0.89769349,18.5435115 0.694852408,18.3594367 0.584042989,18.1065021 L0.5,2.07175174 C0.5,1.79560937 0.611928813,1.54560937 0.792893219,1.36464496 C0.958292794,1.19924539 1.18136311,1.09151655 1.42935409,1.07420853 Z" id="Rectangle-Copy-4" opacity="0.91179548"></path>
                    <path d="M8.38283235,1.07420853 L18.8091098,4.42172 C19.0143217,4.48914677 19.1862834,4.61865204 19.3069421,4.78530196 C19.4276008,4.95195187 19.4969565,5.15574642 19.4969565,5.37175174 L19.4969565,13.3052257 C19.4969565,13.503784 19.438211,13.6929349 19.3339979,13.8523654 C19.2297847,14.0117958 19.0801038,14.141506 18.8982329,14.2211827 L8.85475467,18.6211827 C8.60182012,18.7319921 8.32791648,18.7297893 8.08954411,18.6366504 C7.85117175,18.5435115 7.64833067,18.3594367 7.53752125,18.1065021 L7.45347826,2.07175174 C7.45347826,1.79560937 7.56540707,1.54560937 7.74637148,1.36464496 C7.91177106,1.19924539 8.13484137,1.09151655 8.38283235,1.07420853 Z" id="Rectangle-Copy-5"></path>
                    <path d="M15.3363106,1.07420853 L25.7625881,4.42172 C25.9678,4.48914677 26.1397617,4.61865204 26.2604204,4.78530196 C26.3810791,4.95195187 26.4504348,5.15574642 26.4504348,5.37175174 L26.4504348,13.3052257 C26.4504348,13.503784 26.3916893,13.6929349 26.2874761,13.8523654 C26.1832629,14.0117958 26.033582,14.141506 25.8517112,14.2211827 L15.8082329,18.6211827 C15.5552984,18.7319921 15.2813947,18.7297893 15.0430224,18.6366504 C14.80465,18.5435115 14.6018089,18.3594367 14.4909995,18.1065021 L14.4069565,2.07175174 C14.4069565,1.79560937 14.5188853,1.54560937 14.6998497,1.36464496 C14.8652493,1.19924539 15.0883196,1.09151655 15.3363106,1.07420853 Z" id="Rectangle-Copy-7" opacity="0.878382365"></path>
                </g>
            </g>
        </g>
    </g>
</svg>