<?xml version="1.0" encoding="UTF-8"?>
<svg width="52px" height="52px" viewBox="0 0 52 52" version="1.1" xmlns="http://www.w3.org/2000/svg" xmlns:xlink="http://www.w3.org/1999/xlink">
    <title>fab_store_map_ON</title>
    <defs>
        <circle id="path-1" cx="22" cy="22" r="22"></circle>
        <filter x="-15.9%" y="-11.4%" width="131.8%" height="131.8%" filterUnits="objectBoundingBox" id="filter-2">
            <feOffset dx="0" dy="2" in="SourceAlpha" result="shadowOffsetOuter1"></feOffset>
            <feGaussianBlur stdDeviation="2" in="shadowOffsetOuter1" result="shadowBlurOuter1"></feGaussianBlur>
            <feColorMatrix values="0 0 0 0 0   0 0 0 0 0   0 0 0 0 0  0 0 0 0.166111233 0" type="matrix" in="shadowBlurOuter1"></feColorMatrix>
        </filter>
    </defs>
    <g id="11.3-Total-SKU-Visibility---List-view" stroke="none" stroke-width="1" fill="none" fill-rule="evenodd">
        <g id="10-FAB-icons-ON-OFF-states" transform="translate(-144.000000, -109.000000)">
            <g id="fab_storemap" transform="translate(148.000000, 111.000000)">
                <g id="Oval-Copy-8">
                    <use fill="black" fill-opacity="1" filter="url(#filter-2)" xlink:href="#path-1"></use>
                    <use fill="#FFFFFF" fill-rule="evenodd" xlink:href="#path-1"></use>
                </g>
                <path d="M12,30.5098018 C12,30.922535 12.1138846,31.2402014 12.3416537,31.4628009 C12.5694228,31.6854005 12.8739594,31.7967003 13.2552634,31.7967003 C13.5244451,31.7967003 13.8185184,31.7044138 14.1374832,31.519841 L18.2293974,29.2732874 L18.2293974,12.1393564 C18.1254254,12.1817082 18.0175434,12.2308284 17.9057515,12.286717 C17.7939596,12.3426056 17.6771564,12.4059367 17.5553417,12.4767102 L12.9367391,15.1713275 C12.6196466,15.348486 12.3842503,15.5694005 12.2305502,15.8340709 C12.0768501,16.0987414 12,16.4157618 12,16.7851322 L12,30.5098018 Z M19.6473923,29.0375442 L24.5428865,31.8295594 C24.6428934,31.8851672 24.7400092,31.933501 24.8342338,31.9745608 C24.9284584,32.0156207 25.0247481,32.0518781 25.123103,32.083333 L25.123103,15.2672088 L20.3521769,12.311235 C20.2284899,12.2356309 20.1081897,12.1716539 19.9912763,12.1193039 C19.8743629,12.066954 19.7597349,12.027186 19.6473923,12 L19.6473923,29.0375442 Z M26.5508453,32.0407004 C26.6034921,32.0248606 26.6568824,32.0036566 26.7110161,31.9770885 C26.7651498,31.9505203 26.8195864,31.9211718 26.8743259,31.8890428 L32.0064003,28.9234641 C32.3310925,28.7356334 32.570619,28.5095513 32.72498,28.2452179 C32.8793409,27.9808844 32.9565214,27.6665601 32.9565214,27.302245 L32.9565214,13.6095919 C32.9565214,13.1833781 32.8409297,12.861808 32.6097462,12.6448815 C32.3785628,12.4279551 32.0655454,12.3194919 31.6706942,12.3194919 C31.3878552,12.3194919 31.0818317,12.4145868 30.7526238,12.6047765 L26.5508453,14.9793965 L26.5508453,32.0407004 Z" id="Shape" fill="currentColor" fill-rule="nonzero"></path>
            </g>
        </g>
    </g>
</svg>