<?xml version="1.0" encoding="UTF-8"?>
<svg width="64px" height="64px" viewBox="0 0 64 64" version="1.1" xmlns="http://www.w3.org/2000/svg" xmlns:xlink="http://www.w3.org/1999/xlink">
    <title>fab_hamburger</title>
    <defs>
        <circle id="path-1" cx="28" cy="28" r="28"></circle>
        <filter x="-12.5%" y="-8.9%" width="125.0%" height="125.0%" filterUnits="objectBoundingBox" id="filter-2">
            <feOffset dx="0" dy="2" in="SourceAlpha" result="shadowOffsetOuter1"></feOffset>
            <feGaussianBlur stdDeviation="2" in="shadowOffsetOuter1" result="shadowBlurOuter1"></feGaussianBlur>
            <feComposite in="shadowBlurOuter1" in2="SourceAlpha" operator="out" result="shadowBlurOuter1"></feComposite>
            <feColorMatrix values="0 0 0 0 0   0 0 0 0 0   0 0 0 0 0  0 0 0 0.166111233 0" type="matrix" in="shadowBlurOuter1"></feColorMatrix>
        </filter>
    </defs>
    <g id="11.3-Total-SKU-Visibility---List-view" stroke="none" stroke-width="1" fill="none" fill-rule="evenodd">
        <g id="08-PSR-Total-SKU-Visibility-Product-Trend" transform="translate(-18.000000, -314.000000)">
            <g id="fab_hamburger" transform="translate(22.000000, 316.000000)">
                <g id="Oval-Copy-8">
                    <use fill="black" fill-opacity="1" filter="url(#filter-2)" xlink:href="#path-1"></use>
                    <circle stroke="#FFFFFF" stroke-width="2" stroke-linejoin="square" fill="#6C0CC3" fill-rule="evenodd" cx="28" cy="28" r="27"></circle>
                </g>
                <g id="􀌇" transform="translate(14.494141, 20.781250)" fill="#FFFFFF" fill-rule="nonzero">
                    <path d="M1.03806228,2.0899654 L26.9480969,2.0899654 C27.5294118,2.0899654 28,1.63321799 28,1.05190311 C28,0.470588235 27.5294118,5.55111512e-17 26.9480969,5.55111512e-17 L1.03806228,5.55111512e-17 C0.456747405,5.55111512e-17 0,0.470588235 0,1.05190311 C0,1.63321799 0.456747405,2.0899654 1.03806228,2.0899654 Z M1.03806228,8.12456747 L26.9480969,8.12456747 C27.5294118,8.12456747 28,7.66782007 28,7.08650519 C28,6.49134948 27.5294118,6.02076125 26.9480969,6.02076125 L1.03806228,6.02076125 C0.456747405,6.02076125 0,6.49134948 0,7.08650519 C0,7.66782007 0.456747405,8.12456747 1.03806228,8.12456747 Z M1.03806228,14.1730104 L26.9480969,14.1730104 C27.5294118,14.1730104 28,13.7024221 28,13.1072664 C28,12.5259516 27.5294118,12.0692042 26.9480969,12.0692042 L1.03806228,12.0692042 C0.456747405,12.0692042 0,12.5259516 0,13.1072664 C0,13.7024221 0.456747405,14.1730104 1.03806228,14.1730104 Z" id="Shape"></path>
                </g>
            </g>
        </g>
    </g>
</svg>