<?xml version="1.0" encoding="UTF-8"?>
<svg width="64px" height="64px" viewBox="0 0 64 64" version="1.1" xmlns="http://www.w3.org/2000/svg" xmlns:xlink="http://www.w3.org/1999/xlink">
    <title>fab_close</title>
    <defs>
        <circle id="path-1" cx="28" cy="28" r="28"></circle>
        <filter x="-12.5%" y="-8.9%" width="125.0%" height="125.0%" filterUnits="objectBoundingBox" id="filter-2">
            <feOffset dx="0" dy="2" in="SourceAlpha" result="shadowOffsetOuter1"></feOffset>
            <feGaussianBlur stdDeviation="2" in="shadowOffsetOuter1" result="shadowBlurOuter1"></feGaussianBlur>
            <feComposite in="shadowBlurOuter1" in2="SourceAlpha" operator="out" result="shadowBlurOuter1"></feComposite>
            <feColorMatrix values="0 0 0 0 0   0 0 0 0 0   0 0 0 0 0  0 0 0 0.166111233 0" type="matrix" in="shadowBlurOuter1"></feColorMatrix>
        </filter>
    </defs>
    <g id="11.3-Total-SKU-Visibility---List-view" stroke="none" stroke-width="1" fill="none" fill-rule="evenodd">
        <g id="05-PSR-Total-SKU-Visibility-Floating-Icons-Option-B" transform="translate(-346.000000, -684.000000)">
            <g id="Group-25" transform="translate(288.000000, 622.000000)">
                <g id="fab_close" transform="translate(62.000000, 64.000000)">
                    <g id="Oval-Copy-8">
                        <use fill="black" fill-opacity="1" filter="url(#filter-2)" xlink:href="#path-1"></use>
                        <circle stroke="#FFFFFF" stroke-width="2" stroke-linejoin="square" fill="#6C0CC3" fill-rule="evenodd" cx="28" cy="28" r="27"></circle>
                    </g>
                    <g id="􀆄" transform="translate(21.276111, 21.121400)" fill="#FFFFFF" fill-rule="nonzero">
                        <path d="M0.280549527,1.68446547 L12.3069954,13.7125379 C12.4317936,13.8373362 12.5792742,13.9210621 12.7494372,13.9637158 C12.9196001,14.0063695 13.0909153,14.0067762 13.2633826,13.9649358 C13.43585,13.9230954 13.5850701,13.8368391 13.7110431,13.706167 C13.8369258,13.5791999 13.9208099,13.4306575 13.9626955,13.2605397 C14.004581,13.090422 14.0053718,12.9205527 13.9650676,12.7509319 C13.9247635,12.5813112 13.8421671,12.4341017 13.7172785,12.3093035 L1.69083269,0.282857634 C1.5682033,0.15543874 1.42090344,0.0715772266 1.24893312,0.0312730943 C1.0769628,-0.00903103809 0.905105435,-0.00903103809 0.733361032,0.0312730943 C0.561616629,0.0715772266 0.412803109,0.157562388 0.286920472,0.289228578 C0.161037834,0.415111216 0.077673345,0.563653632 0.0368270046,0.734855827 C-0.00401933587,0.906058021 -0.00401933587,1.07671801 0.0368270046,1.24683579 C0.077673345,1.41695356 0.158914186,1.56283012 0.280549527,1.68446547 Z M0.280549527,12.3109301 C0.158914186,12.4336499 0.0764985609,12.5797975 0.0333026522,12.7493731 C-0.0098932565,12.9189487 -0.0110680406,13.0896087 0.0297782998,13.2613531 C0.0706246402,13.4330975 0.156338698,13.581911 0.286920472,13.7077936 C0.417502246,13.8336763 0.568665334,13.9182155 0.740409737,13.9614114 C0.912154139,14.0046073 1.08283672,14.0046073 1.25245747,13.9614114 C1.42207823,13.9182155 1.5682033,13.8357999 1.69083269,13.7141646 L13.7172785,1.68771871 C13.8421671,1.56283012 13.9259383,1.41532694 13.968592,1.24520916 C14.0112457,1.07509138 14.010455,0.904973605 13.9662198,0.734855827 C13.9219847,0.564738048 13.8369258,0.41673784 13.7110431,0.290855202 C13.580371,0.16018306 13.429976,0.0739042029 13.2598583,0.0320186304 C13.0897405,-0.00986694218 12.9196001,-0.0106576623 12.7494372,0.0296464701 C12.5792742,0.0699506025 12.4317936,0.154896532 12.3069954,0.284484258 L0.280549527,12.3109301 Z" id="Shape"></path>
                    </g>
                </g>
            </g>
        </g>
    </g>
</svg>