<?xml version="1.0" encoding="UTF-8"?>
<svg width="52px" height="52px" viewBox="0 0 52 52" version="1.1" xmlns="http://www.w3.org/2000/svg" xmlns:xlink="http://www.w3.org/1999/xlink">
    <title>fab_sku_list_ON</title>
    <defs>
        <circle id="path-1" cx="22" cy="22" r="22"></circle>
        <filter x="-15.9%" y="-11.4%" width="131.8%" height="131.8%" filterUnits="objectBoundingBox" id="filter-2">
            <feOffset dx="0" dy="2" in="SourceAlpha" result="shadowOffsetOuter1"></feOffset>
            <feGaussianBlur stdDeviation="2" in="shadowOffsetOuter1" result="shadowBlurOuter1"></feGaussianBlur>
            <feColorMatrix values="0 0 0 0 0   0 0 0 0 0   0 0 0 0 0  0 0 0 0.166111233 0" type="matrix" in="shadowBlurOuter1"></feColorMatrix>
        </filter>
    </defs>
    <g id="11.3-Total-SKU-Visibility---List-view" stroke="none" stroke-width="1" fill="none" fill-rule="evenodd">
        <g id="10-FAB-icons-ON-OFF-states" transform="translate(-342.000000, -109.000000)">
            <g id="fab_sku_list_ON" transform="translate(346.000000, 111.000000)">
                <g id="Oval-Copy-8">
                    <use fill="black" fill-opacity="1" filter="url(#filter-2)" xlink:href="#path-1"></use>
                    <use fill="#FFFFFF" fill-rule="evenodd" xlink:href="#path-1"></use>
                </g>
                <path d="M18.685053,14.7314373 L24.7341528,14.7314373 C25.3233509,14.7314373 25.6866897,14.3582786 25.6866897,13.7199807 L25.6866897,12.6888841 C25.6866897,12.0505863 25.3233509,11.6774275 24.7341528,11.6774275 L23.8994556,11.6774275 C23.8307158,10.5383113 22.878179,9.61523438 21.7096029,9.61523438 C20.5410268,9.61523438 19.58849,10.5383113 19.5099303,11.6774275 L18.685053,11.6774275 C18.086035,11.6774275 17.7325162,12.0505863 17.7325162,12.6888841 L17.7325162,13.7199807 C17.7325162,14.3582786 18.086035,14.7314373 18.685053,14.7314373 Z M21.7096029,12.6299643 C21.2284245,12.6299643 20.8356258,12.2273457 20.8356258,11.7559872 C20.8356258,11.2846288 21.2284245,10.8918301 21.7096029,10.8918301 C22.1907813,10.8918301 22.57376,11.2846288 22.57376,11.7559872 C22.57376,12.2273457 22.1907813,12.6299643 21.7096029,12.6299643 Z M16.4952003,33.6152344 L26.9141856,33.6152344 C29.0058386,33.6152344 30.1056749,32.4957581 30.1056749,30.3844651 L30.1056749,15.5170347 C30.1056749,13.3959218 29.0058386,12.2862655 27.0025653,12.2862655 L26.796346,12.2862655 C26.8258059,12.3648252 26.8356258,12.4728448 26.8356258,12.5808645 L26.8356258,13.7199807 C26.8356258,14.9867565 25.9812887,15.8901935 24.7341528,15.8901935 L18.685053,15.8901935 C17.4280972,15.8901935 16.57376,14.9867565 16.57376,13.7199807 L16.57376,12.5808645 C16.57376,12.4728448 16.5934,12.3648252 16.6228599,12.2862655 L16.4166406,12.2862655 C14.4133672,12.2862655 13.3037109,13.3959218 13.3037109,15.5170347 L13.3037109,30.3844651 C13.3037109,32.4957581 14.4133672,33.6152344 16.4952003,33.6152344 Z M17.5164769,20.8689169 C17.0058386,20.8689169 16.5934,20.4368383 16.5934,19.9458399 C16.5934,19.4352016 17.0058386,19.012943 17.5164769,19.012943 C18.0271152,19.012943 18.4395538,19.4253817 18.4395538,19.9458399 C18.4395538,20.4466583 18.0271152,20.8689169 17.5164769,20.8689169 Z M20.2955276,20.6626976 C19.9027289,20.6626976 19.5688501,20.3386386 19.5688501,19.9458399 C19.5688501,19.5530412 19.9027289,19.2191624 20.2955276,19.2191624 L26.1089483,19.2191624 C26.5017469,19.2191624 26.8258059,19.5530412 26.8258059,19.9458399 C26.8258059,20.3386386 26.5017469,20.6626976 26.1089483,20.6626976 L20.2955276,20.6626976 Z M17.5164769,24.4630249 C16.9960186,24.4630249 16.5934,24.0505863 16.5934,23.539948 C16.5934,23.0293097 16.9960186,22.626691 17.5164769,22.626691 C18.0172952,22.626691 18.4395538,23.0194897 18.4395538,23.539948 C18.4395538,24.0505863 18.0271152,24.4630249 17.5164769,24.4630249 Z M20.2955276,24.2568056 C19.883089,24.2568056 19.5688501,23.9425666 19.5688501,23.539948 C19.5688501,23.1373293 19.892909,22.8230903 20.2955276,22.8230903 L26.1089483,22.8230903 C26.5115669,22.8230903 26.8258059,23.1373293 26.8258059,23.539948 C26.8258059,23.9425666 26.5115669,24.2568056 26.1089483,24.2568056 L20.2955276,24.2568056 Z M17.5164769,28.2535322 C17.0058386,28.2535322 16.5934,27.8312737 16.5934,27.3304553 C16.5934,26.829637 17.0058386,26.4073784 17.5164769,26.4073784 C18.0271152,26.4073784 18.4395538,26.819817 18.4395538,27.3304553 C18.4395538,27.8509136 18.0271152,28.2535322 17.5164769,28.2535322 Z M20.2955276,28.0571329 C19.9027289,28.0571329 19.5688501,27.723254 19.5688501,27.3304553 C19.5688501,26.9376566 19.892909,26.6234177 20.2955276,26.6234177 L26.1089483,26.6234177 C26.5115669,26.6234177 26.8258059,26.9376566 26.8258059,27.3304553 C26.8258059,27.723254 26.5017469,28.0571329 26.1089483,28.0571329 L20.2955276,28.0571329 Z" id="Shape" fill="currentColor" fill-rule="nonzero"></path>
            </g>
        </g>
    </g>
</svg>