<?xml version="1.0" encoding="UTF-8"?>
<svg width="19px" height="24px" viewBox="0 0 19 24" version="1.1" xmlns="http://www.w3.org/2000/svg" xmlns:xlink="http://www.w3.org/1999/xlink">
    <title>Group 11</title>
    <g id="8.2-Favorite-employee-in-My-Day" stroke="none" stroke-width="1" fill="none" fill-rule="evenodd">
        <g id="04-Merch-Manager---Favorite-Employee---My-Day---Favorited-Sash" transform="translate(-22.000000, -572.000000)">
            <g id="Group-27" transform="translate(0.000000, 559.000000)">
                <g id="Group-11" transform="translate(22.000000, 13.000000)">
                    <polygon id="Path-2" fill="#FFC409" points="0 0 0 24 9.6283973 19.8217085 19 24 19 0"></polygon>
                    <path d="M5.74978044,15.2310895 C5.99220332,15.4074476 6.29136346,15.3486616 6.64210294,15.1086186 L9.32422837,13.2372626 L12.0063538,15.1086186 C12.3570933,15.3486616 12.6614114,15.4074476 12.9038342,15.2310895 C13.1410992,15.0596302 13.1926785,14.7754976 13.0534143,14.3884894 L11.9960379,11.3952997 L14.703953,9.54843793 C15.0495346,9.31329373 15.1991147,9.05365534 15.1011139,8.77932043 C15.0031132,8.50988437 14.7297427,8.37761576 14.3016342,8.38251459 L10.979925,8.40210994 L9.96897006,5.39422369 C9.84002173,5.00231668 9.62854645,4.79166667 9.32422837,4.79166667 C9.02506823,4.79166667 8.81359295,5.00231668 8.67948668,5.39422369 L7.66853171,8.40210994 L4.34682252,8.38251459 C3.91871404,8.37761576 3.65050149,8.50988437 3.55250076,8.77932043 C3.45450002,9.05365534 3.59892216,9.31329373 3.94966164,9.54843793 L6.65757674,11.3952997 L5.59504243,14.3884894 C5.45577823,14.7754976 5.50735756,15.0596302 5.74978044,15.2310895 Z M6.65241881,14.0504696 C6.64726087,14.040672 6.64726087,14.0357731 6.65241881,14.0112789 L7.63242618,11.3806032 C7.72011105,11.1405601 7.68916345,10.9886962 7.45705644,10.841731 L5.03282768,9.26430535 C5.01219595,9.25450768 5.00188008,9.24471 5.00703801,9.23001349 C5.01735388,9.22021581 5.02766975,9.21531698 5.05345941,9.21531698 L7.98832359,9.27900186 C8.25653613,9.28879954 8.39064241,9.2055193 8.46801141,8.96057742 L9.29843871,6.28581212 C9.30359664,6.25641909 9.31391251,6.25152026 9.32422837,6.25152026 C9.33970217,6.25152026 9.34486011,6.25641909 9.35517597,6.28581212 L10.1804453,8.96057742 C10.2578143,9.2055193 10.3970785,9.28879954 10.6601332,9.27900186 L13.5949973,9.21531698 C13.6259449,9.21531698 13.6362608,9.22021581 13.6414187,9.23001349 C13.6465767,9.24471 13.6414187,9.24960884 13.6156291,9.26430535 L11.1965582,10.841731 C10.9592933,10.993595 10.9283457,11.1405601 11.0160306,11.3806032 L11.9960379,14.0112789 C12.0063538,14.0357731 12.0063538,14.040672 11.9960379,14.0504696 C11.9857221,14.0651662 11.9754062,14.0553685 11.9547745,14.0455708 L9.62854645,12.3407753 C9.41707118,12.1840125 9.23138557,12.1840125 9.02506823,12.3407753 L6.69884021,14.0455708 C6.67820847,14.0553685 6.66273467,14.0651662 6.65241881,14.0504696 Z" id="Shape" fill="#000000" fill-rule="nonzero"></path>
                </g>
            </g>
        </g>
    </g>
</svg>