<?xml version="1.0" encoding="UTF-8"?>
<svg width="20px" height="20px" viewBox="0 0 20 20" version="1.1" xmlns="http://www.w3.org/2000/svg" xmlns:xlink="http://www.w3.org/1999/xlink">
    <title>Shape</title>
    <g id="4.4-Wireframe" stroke="none" stroke-width="1" fill="none" fill-rule="evenodd">
        <g id="02-Muscle-Merch_VD_Edit-the-Multiple-Pepsi-Locs-in-Co-Pilot-Page---Choose-Location-@2x" transform="translate(-386.000000, -308.000000)" fill="#2DD36F" fill-rule="nonzero">
            <g id="Group-2-Copy" transform="translate(0.000000, 293.000000)">
                <path d="M396,15 C390.475962,15 386,19.4759615 386,25 C386,30.5240385 390.475962,35 396,35 C401.524038,35 406,30.5240385 406,25 C406,19.4759615 401.524038,15 396,15 Z M401.120192,22.2355769 L394.692308,28.6923077 L394.6875,28.6923077 C394.605769,28.7740385 394.384615,28.9567308 394.129808,28.9567308 C393.947115,28.9567308 393.740385,28.8557692 393.567308,28.6826923 L390.875,25.9903846 C390.798077,25.9134615 390.798077,25.7932692 390.875,25.7163462 L391.730769,24.8605769 C391.769231,24.8221154 391.817308,24.8028846 391.865385,24.8028846 C391.913462,24.8028846 391.961538,24.8221154 392,24.8605769 L394.134615,26.9951923 L400,21.0865385 C400.038462,21.0480769 400.086538,21.0288462 400.134615,21.0288462 C400.1875,21.0288462 400.235577,21.0480769 400.269231,21.0865385 L401.110577,21.9567308 C401.197115,22.0384615 401.197115,22.1586538 401.120192,22.2355769 L401.120192,22.2355769 Z" id="Shape"></path>
            </g>
        </g>
    </g>
</svg>