<?xml version="1.0" encoding="UTF-8"?>
<svg width="58px" height="58px" viewBox="0 0 58 58" version="1.1" xmlns="http://www.w3.org/2000/svg" xmlns:xlink="http://www.w3.org/1999/xlink">
    <title>icon-store-placeholder</title>
    <defs>
        <circle id="path-1" cx="29" cy="29" r="29"></circle>
        <linearGradient x1="82.2341083%" y1="19.0930598%" x2="13.7462862%" y2="84.2073657%" id="linearGradient-3">
            <stop stop-color="#FFC409" offset="0%"></stop>
            <stop stop-color="#EB445A" offset="100%"></stop>
        </linearGradient>
        <circle id="path-4" cx="29" cy="29" r="29"></circle>
        <filter color-interpolation-filters="auto" id="filter-6">
            <feColorMatrix in="SourceGraphic" type="matrix" values="0 0 0 0 1.000000 0 0 0 0 1.000000 0 0 0 0 1.000000 0 0 0 1.000000 0"></feColorMatrix>
        </filter>
        <polygon id="path-7" points="0 0 27 0 27 26 0 26"></polygon>
    </defs>
    <g id="Symbols" stroke="none" stroke-width="1" fill="none" fill-rule="evenodd">
        <g id="Group">
            <mask id="mask-2" fill="white">
                <use xlink:href="#path-1"></use>
            </mask>
            <use id="Mask" fill="#FFFFFF" xlink:href="#path-1"></use>
            <mask id="mask-5" fill="white">
                <use xlink:href="#path-4"></use>
            </mask>
            <use id="Mask" fill="url(#linearGradient-3)" opacity="0.8" xlink:href="#path-4"></use>
            <g filter="url(#filter-6)" id="Group-3">
                <g mask="url(#mask-5)">
                    <g transform="translate(15.500000, 16.000000)">
                        <mask id="mask-8" fill="white">
                            <use xlink:href="#path-7"></use>
                        </mask>
                        <g id="Clip-2" stroke="none" fill="none"></g>
                        <path d="M20.5314647,12.5714155 C19.455758,12.5714155 18.4454514,12.2188128 17.6081156,11.550411 C17.5997767,11.5444749 17.5926292,11.5373516 17.5842904,11.5314155 C17.5663024,11.5159817 17.5472422,11.5029224 17.5283012,11.4886758 C17.5247274,11.4874886 17.5222258,11.4851142 17.5199624,11.4827397 C17.4985198,11.4696804 17.476958,11.4554338 17.4544432,11.4435616 C17.4508694,11.4411872 17.4471765,11.44 17.4437218,11.4376256 C17.4246617,11.4281279 17.4056016,11.4186301 17.3853502,11.4091324 C17.3625971,11.3984475 17.3387719,11.390137 17.3150659,11.3818265 C17.297197,11.3758904 17.279209,11.3699543 17.2614592,11.3652055 C17.2459729,11.3604566 17.2304865,11.356895 17.2150002,11.3533333 C17.1971313,11.3497717 17.1791433,11.34621 17.1600831,11.3426484 C17.1387596,11.3390868 17.1173169,11.3367123 17.0958743,11.3355251 C17.0720491,11.3331507 17.0470327,11.3319635 17.0220162,11.3319635 C16.9969998,11.3319635 16.9719834,11.3331507 16.9481582,11.3355251 C16.9265964,11.3367123 16.9052729,11.3390868 16.8838302,11.3426484 C16.8658422,11.34621 16.8467821,11.3497717 16.8290323,11.3533333 C16.8135459,11.356895 16.7967492,11.3604566 16.7813819,11.3652055 C16.7194365,11.3830137 16.6573719,11.406758 16.6003106,11.4376256 C16.5860155,11.4447489 16.5717204,11.4530594 16.5574253,11.4625571 C16.5431302,11.4708676 16.528716,11.4791781 16.5157312,11.4886758 C16.4954798,11.5029224 16.4764197,11.5171689 16.4585508,11.5314155 C15.6175221,12.2116895 14.5988767,12.5714155 13.5125678,12.5714155 C12.4368611,12.5714155 11.4265545,12.2188128 10.5904099,11.550411 C10.581952,11.5444749 10.5749236,11.5373516 10.5665847,11.5314155 C10.5485967,11.5159817 10.5296557,11.5029224 10.5105956,11.4886758 C10.4830775,11.4708676 10.4546064,11.4530594 10.4260162,11.4376256 C10.4069561,11.4281279 10.3878959,11.4186301 10.3676445,11.4091324 C10.3462019,11.3996347 10.3246401,11.3913242 10.3033166,11.3842009 C10.2841373,11.3770776 10.264005,11.3711416 10.2437536,11.3652055 C10.2282672,11.3604566 10.2127809,11.356895 10.1959841,11.3533333 C10.1804978,11.3497717 10.1650114,11.34621 10.1484529,11.3438356 C10.1448791,11.3426484 10.1411862,11.3426484 10.1377316,11.3426484 C10.1174802,11.3390868 10.0972288,11.3367123 10.0781686,11.3355251 C10.0531522,11.3331507 10.0281358,11.3319635 10.0031193,11.3319635 C9.9781029,11.3319635 9.95296734,11.3331507 9.92926129,11.3355251 C9.9076995,11.3367123 9.88637597,11.3390868 9.86493331,11.3426484 C9.84587317,11.34621 9.82788516,11.3497717 9.81013541,11.3533333 C9.79464904,11.356895 9.77904355,11.3604566 9.76355719,11.3652055 C9.74580743,11.3699543 9.72793855,11.3758904 9.71006967,11.3818265 C9.68624449,11.390137 9.66241931,11.3984475 9.63966627,11.4091324 C9.61941487,11.4186301 9.60035473,11.4281279 9.58141372,11.4376256 C9.5528235,11.4530594 9.52423329,11.4708676 9.49683434,11.4886758 C9.4777742,11.5029224 9.45871406,11.5159817 9.44072605,11.5314155 C9.43250636,11.5373516 9.42535881,11.5444749 9.41690087,11.550411 C8.57956506,12.2188128 7.56818633,12.5714155 6.4923605,12.5714155 C4.16940583,12.5714155 2.28971855,11.019726 1.87396923,8.90410959 L25.1475926,8.90410959 C24.7829482,11.0410959 22.9199386,12.5714155 20.5314647,12.5714155 L20.5314647,12.5714155 Z M23.6501802,23.7146119 C23.6501802,23.9924201 23.4226498,24.2191781 23.1438952,24.2191781 L17.5747603,24.2191781 L17.5747603,18.8232877 C17.5747603,17.6740639 16.6335467,16.739726 15.4768344,16.739726 L11.4528813,16.739726 C10.296169,16.739726 9.35507454,17.6740639 9.35507454,18.8232877 L9.35507454,24.2191781 L3.90983053,24.2191781 C3.6275022,24.2191781 3.3987805,23.9924201 3.3987805,23.7134247 L3.3987805,13.5971689 C4.33630119,14.0910502 5.39294775,14.3522374 6.4923605,14.3522374 C7.7397276,14.3522374 8.96315039,13.990137 10.0043106,13.3205479 C11.0441604,13.990137 12.2665111,14.3522374 13.5125678,14.3522374 C14.7598158,14.3522374 15.9831194,13.990137 17.0220162,13.3205479 C18.0619852,13.990137 19.285408,14.3522374 20.5314647,14.3522374 C21.6691168,14.3522374 22.729218,14.0827397 23.6501802,13.6053607 L23.6501802,23.7146119 Z M15.7878721,24.2191781 L11.1419628,24.2191781 L11.1419628,18.8232877 C11.1419628,18.6558904 11.28134,18.5205479 11.4528813,18.5205479 L15.4768344,18.5205479 C15.6484948,18.5205479 15.7878721,18.6558904 15.7878721,18.8232877 L15.7878721,24.2191781 Z M2.8436539,2.02657534 C2.86855121,1.88410959 2.99136999,1.78082192 3.13658444,1.78082192 L5.99453345,1.78082192 L5.99453345,7.12328767 L1.95497483,7.12328767 L2.8436539,2.02657534 Z M7.78142166,7.12328767 L12.5714733,7.12328767 L12.5714733,1.78082192 L7.78142166,1.78082192 L7.78142166,7.12328767 Z M14.3583615,7.12328767 L19.1484132,7.12328767 L19.1484132,1.78082192 L14.3583615,1.78082192 L14.3583615,7.12328767 Z M23.9538321,2.01826484 L24.8557341,6.46200913 C24.8569254,6.46794521 24.8579975,6.47506849 24.8593079,6.48219178 L24.9891551,7.12328767 L20.9353014,7.12328767 L20.9353014,1.78082192 L23.6619737,1.78082192 C23.8026614,1.78082192 23.9265523,1.88054795 23.9538321,2.01826484 L23.9538321,2.01826484 Z M26.9642622,7.87954338 C26.9629519,7.8652968 26.9606885,7.85223744 26.9581868,7.83917808 L26.6140321,6.14739726 C26.6128409,6.14027397 26.6116496,6.1343379 26.6103392,6.12721461 L25.7051017,1.6656621 C25.5097352,0.700456621 24.6495272,0 23.6619737,0 L3.13658444,0 C2.12044068,0 1.25677804,0.724200913 1.08285426,1.72146119 L0.017988008,7.83205479 C0.0191792668,7.83324201 0.017988008,7.83324201 0.017988008,7.83442922 C0.0154863645,7.84511416 0.0132229728,7.85579909 0.012031714,7.86767123 C0.00845793753,7.88547945 0.00595629404,7.90447489 0.00476503523,7.92228311 C0.00131038469,7.95315068 0,7.98283105 0,8.01369863 C0,9.58557078 0.569540836,11.0600913 1.61189229,12.2128767 L1.61189229,23.7134247 C1.61189229,24.9742466 2.64233116,26 3.90983053,26 L23.1438952,26 C24.4078208,26 25.4370684,24.9742466 25.4370684,23.7146119 L25.4370684,12.2271233 C26.4150919,11.1396347 27,9.71141553 27,8.12767123 C27,8.04100457 26.9879683,7.95789954 26.9642622,7.87954338 L26.9642622,7.87954338 Z" id="Fill-1" stroke="none" fill="#FFFFFF" fill-rule="evenodd" mask="url(#mask-8)"></path>
                    </g>
                </g>
            </g>
        </g>
    </g>
</svg>