<?xml version="1.0" encoding="UTF-8"?>
<svg width="25px" height="26px" viewBox="0 0 25 26" version="1.1" xmlns="http://www.w3.org/2000/svg" xmlns:xlink="http://www.w3.org/1999/xlink">
    <title>call star</title>
    <g id="2.4-Notifications" stroke="none" stroke-width="1" fill="none" fill-rule="evenodd">
        <g id="Artboard" transform="translate(-136.000000, -58.000000)">
            <g id="call-star" transform="translate(136.000000, 60.000000)">
                <path d="M15.7557651,21.3339844 C16.3612338,21.3339844 16.9243849,21.2249349 17.4452182,21.0068359 C17.9660515,20.788737 18.4380567,20.4485677 18.8612338,19.9863281 C19.1021192,19.7063802 19.2958041,19.4101562 19.4422885,19.0976562 C19.5887729,18.7851562 19.6620151,18.4726562 19.6620151,18.1601562 C19.6620151,17.9192708 19.6131869,17.688151 19.5155307,17.4667969 C19.4178744,17.2454427 19.2518588,17.0566406 19.0174838,16.9003906 L16.1756869,14.8886719 C15.9608432,14.7259115 15.7606479,14.608724 15.575101,14.5371094 C15.3895541,14.4654948 15.2088901,14.4296875 15.0331088,14.4296875 C14.8247755,14.4296875 14.621325,14.4866536 14.4227573,14.6005859 C14.2241895,14.7145182 14.020739,14.8789062 13.8124057,15.09375 L13.1385776,15.7382812 C13.0474317,15.8424479 12.9302442,15.8945312 12.7870151,15.8945312 C12.7154005,15.8945312 12.6470411,15.8815104 12.5819369,15.8554688 C12.5168328,15.8294271 12.4614942,15.8066406 12.4159213,15.7871094 C12.1229526,15.6308594 11.7502312,15.3606771 11.2977573,14.9765625 C10.8452833,14.5924479 10.3879265,14.172526 9.92568694,13.7167969 C9.46995778,13.2545573 9.0500359,12.7972005 8.66592132,12.3447266 C8.28180673,11.8922526 8.01487965,11.5227865 7.86514007,11.2363281 C7.8390984,11.1842448 7.81468434,11.125651 7.79189788,11.0605469 C7.76911142,10.9954427 7.75771819,10.9270833 7.75771819,10.8554688 C7.75771819,10.71875 7.80654632,10.6048177 7.90420257,10.5136719 L8.55849944,9.83984375 C8.76683278,9.625 8.92796559,9.41829427 9.04189788,9.21972656 C9.15583017,9.02115885 9.21279632,8.81445312 9.21279632,8.59960938 C9.21279632,8.43684896 9.17536142,8.26106771 9.10049163,8.07226562 C9.02562184,7.88346354 8.91331715,7.67838542 8.76357757,7.45703125 L6.76162444,4.65429688 C6.59886403,4.42643229 6.40355153,4.25878906 6.17568694,4.15136719 C5.94782236,4.04394531 5.70368173,3.99023438 5.44326507,3.99023438 C4.80524423,3.99023438 4.20954111,4.25716146 3.65615569,4.79101562 C3.20042653,5.22721354 2.86839528,5.70898438 2.66006194,6.23632812 C2.45172861,6.76367188 2.34756194,7.32356771 2.34756194,7.91601562 C2.34756194,8.80794271 2.55589528,9.75032552 2.97256194,10.7431641 C3.38922861,11.7360026 3.95400725,12.7255859 4.66689788,13.7119141 C5.3797885,14.6982422 6.18870778,15.640625 7.09365569,16.5390625 C7.99209319,17.4440104 8.93935882,18.2594401 9.93545257,18.9853516 C10.9315463,19.711263 11.9276401,20.2841797 12.9237338,20.7041016 C13.9198276,21.1240234 14.863838,21.3339844 15.7557651,21.3339844 Z" id="􀌿" fill="#00A2D9" fill-rule="nonzero"></path>
                <polygon id="Star-Copy-2" stroke="#FFFFFF" fill="#FFC409" points="16.5 11.25 12.0916106 13.5676275 12.9335381 8.65881373 9.36707613 5.18237254 14.2958053 4.46618627 16.5 0 18.7041947 4.46618627 23.6329239 5.18237254 20.0664619 8.65881373 20.9083894 13.5676275"></polygon>
            </g>
        </g>
    </g>
</svg>