<?xml version="1.0" encoding="UTF-8"?>
<svg width="24px" height="23px" viewBox="0 0 24 23" version="1.1" xmlns="http://www.w3.org/2000/svg" xmlns:xlink="http://www.w3.org/1999/xlink">
    <title>Customer icon</title>
    <g id="3.2-Task-/-Nav-bar-/-Profile-/-Sync" stroke="none" stroke-width="1" fill="none" fill-rule="evenodd">
        <g id="3.3.0-KevitaLoca-VD_task-comepleted--activity-list" transform="translate(-30.000000, -664.000000)" fill="#FFFFFF">
            <g id="Customer-icon" transform="translate(30.000000, 664.000000)">
                <path d="M18.2501908,11.1208676 C17.2940071,11.1208676 16.3959568,10.8089498 15.6516583,10.2176712 C15.644246,10.2124201 15.6378926,10.2061187 15.6304803,10.2008676 C15.614491,10.1872146 15.5975487,10.1756621 15.5807122,10.1630594 C15.5775355,10.1620091 15.5753118,10.1599087 15.5732999,10.1578082 C15.5542398,10.1462557 15.5350737,10.133653 15.5150606,10.1231507 C15.5118839,10.1210502 15.5086013,10.12 15.5055305,10.1178995 C15.4885882,10.1094977 15.4716458,10.1010959 15.4536446,10.0926941 C15.4334197,10.083242 15.4122417,10.0758904 15.3911697,10.0685388 C15.3752862,10.0632877 15.3592969,10.0580365 15.3435193,10.0538356 C15.3297537,10.0496347 15.315988,10.046484 15.3022224,10.0433333 C15.2863389,10.0401826 15.2703496,10.037032 15.2534072,10.0338813 C15.234453,10.0307306 15.2153928,10.0286301 15.1963327,10.0275799 C15.1751548,10.0254795 15.1529179,10.0244292 15.1306811,10.0244292 C15.1084443,10.0244292 15.0862074,10.0254795 15.0650295,10.0275799 C15.0458635,10.0286301 15.0269092,10.0307306 15.0078491,10.0338813 C14.9918597,10.037032 14.9749174,10.0401826 14.9591398,10.0433333 C14.9453742,10.046484 14.9304437,10.0496347 14.916784,10.0538356 C14.8617213,10.069589 14.8065528,10.0905936 14.7558317,10.1178995 C14.7431249,10.1242009 14.7304181,10.1315525 14.7177114,10.1399543 C14.7050046,10.1473059 14.692192,10.1546575 14.68065,10.1630594 C14.6626487,10.1756621 14.6457064,10.1882648 14.6298229,10.2008676 C13.8822419,10.8026484 12.9767793,11.1208676 12.0111714,11.1208676 C11.0549876,11.1208676 10.1569373,10.8089498 9.41369771,10.2176712 C9.40617954,10.2124201 9.39993205,10.2061187 9.39251978,10.2008676 C9.37653044,10.1872146 9.35969398,10.1756621 9.34275163,10.1630594 C9.31829112,10.1473059 9.29298349,10.1315525 9.26756996,10.1178995 C9.25062762,10.1094977 9.23368527,10.1010959 9.21568403,10.0926941 C9.19662388,10.0842922 9.17745785,10.0769406 9.1585036,10.0706393 C9.14145537,10.0643379 9.12356001,10.0590868 9.10555877,10.0538356 C9.09179311,10.0496347 9.07802745,10.046484 9.06309701,10.0433333 C9.04933135,10.0401826 9.03556569,10.037032 9.02084703,10.0349315 C9.01767034,10.0338813 9.01438776,10.0338813 9.01131696,10.0338813 C8.99331571,10.0307306 8.97531447,10.0286301 8.95837212,10.0275799 C8.93613529,10.0254795 8.91389846,10.0244292 8.89166163,10.0244292 C8.8694248,10.0244292 8.84708208,10.0254795 8.82601003,10.0275799 C8.806844,10.0286301 8.78788975,10.0307306 8.76882961,10.0338813 C8.75188726,10.037032 8.73589792,10.0401826 8.72012036,10.0433333 C8.7063547,10.046484 8.69248316,10.0496347 8.6787175,10.0538356 C8.66293994,10.0580365 8.64705649,10.0632877 8.63117304,10.0685388 C8.6099951,10.0758904 8.58881717,10.083242 8.56859224,10.0926941 C8.550591,10.1010959 8.53364865,10.1094977 8.51681219,10.1178995 C8.49139867,10.1315525 8.46598515,10.1473059 8.44163052,10.1630594 C8.42468818,10.1756621 8.40774583,10.1872146 8.39175649,10.2008676 C8.3844501,10.2061187 8.37809672,10.2124201 8.37057855,10.2176712 C7.62628005,10.8089498 6.72727674,11.1208676 5.77098711,11.1208676 C3.70613851,11.1208676 2.03530538,9.74821918 1.66575043,7.87671233 L22.3534156,7.87671233 C22.0292873,9.76712329 20.3732787,11.1208676 18.2501908,11.1208676 L18.2501908,11.1208676 Z M21.0223824,20.9783105 C21.0223824,21.2240639 20.8201332,21.4246575 20.5723513,21.4246575 L15.6220092,21.4246575 L15.6220092,16.6513699 C15.6220092,15.6347489 14.7853749,14.8082192 13.7571862,14.8082192 L10.1803389,14.8082192 C9.15215022,14.8082192 8.31562182,15.6347489 8.31562182,16.6513699 L8.31562182,21.4246575 L3.47540492,21.4246575 C3.2244464,21.4246575 3.02113823,21.2240639 3.02113823,20.9772603 L3.02113823,12.0282648 C3.85448994,12.4651598 4.79373133,12.69621 5.77098711,12.69621 C6.87975787,12.69621 7.96724479,12.3758904 8.89272053,11.7835616 C9.81703147,12.3758904 10.9035654,12.69621 12.0111714,12.69621 C13.1198362,12.69621 14.2072173,12.3758904 15.1306811,11.7835616 C16.0550979,12.3758904 17.1425849,12.69621 18.2501908,12.69621 C19.2614372,12.69621 20.2037494,12.4578082 21.0223824,12.0355114 L21.0223824,20.9783105 Z M14.0336641,21.4246575 L9.90396689,21.4246575 L9.90396689,16.6513699 C9.90396689,16.5032877 10.0278578,16.3835616 10.1803389,16.3835616 L13.7571862,16.3835616 C13.9097732,16.3835616 14.0336641,16.5032877 14.0336641,16.6513699 L14.0336641,21.4246575 Z M2.52769236,1.79273973 C2.5498233,1.66671233 2.65899555,1.57534247 2.78807506,1.57534247 L5.32847417,1.57534247 L5.32847417,6.30136986 L1.7377554,6.30136986 L2.52769236,1.79273973 Z M6.91681925,6.30136986 L11.174643,6.30136986 L11.174643,1.57534247 L6.91681925,1.57534247 L6.91681925,6.30136986 Z M12.762988,6.30136986 L17.0208117,6.30136986 L17.0208117,1.57534247 L12.762988,1.57534247 L12.762988,6.30136986 Z M21.2922952,1.78538813 L22.0939859,5.71639269 C22.0950448,5.72164384 22.0959978,5.72794521 22.0971626,5.73424658 L22.2125823,6.30136986 L18.6091568,6.30136986 L18.6091568,1.57534247 L21.0328655,1.57534247 C21.1579212,1.57534247 21.2680465,1.66356164 21.2922952,1.78538813 L21.2922952,1.78538813 Z M23.9682331,6.9703653 C23.9670683,6.95776256 23.9650564,6.94621005 23.9628327,6.93465753 L23.6569175,5.43808219 C23.6558586,5.43178082 23.6547997,5.42652968 23.6536349,5.42022831 L22.8489793,1.47347032 C22.6753202,0.619634703 21.9106909,0 21.0328655,0 L2.78807506,0 C1.88483616,0 1.11713604,0.640639269 0.962537117,1.52283105 L0.0159893404,6.92835616 C0.0170482372,6.92940639 0.0159893404,6.92940639 0.0159893404,6.93045662 C0.0137656573,6.93990868 0.0117537536,6.94936073 0.0106948569,6.95986301 C0.0075181667,6.97561644 0.00529448359,6.99242009 0.00423558687,7.00817352 C0.00116478639,7.03547945 0,7.06173516 0,7.0890411 C0,8.47954338 0.506258521,9.78392694 1.43279315,10.8036986 L1.43279315,20.9772603 C1.43279315,22.0926027 2.34873881,23 3.47540492,23 L20.5723513,23 C21.6958407,23 22.6107275,22.0926027 22.6107275,20.9783105 L22.6107275,10.8163014 C23.4800817,9.85429224 24,8.59086758 24,7.18986301 C24,7.11319635 23.9893051,7.03968037 23.9682331,6.9703653 L23.9682331,6.9703653 Z" id="Fill-1"></path>
            </g>
        </g>
    </g>
</svg>