<?xml version="1.0" encoding="UTF-8"?>
<svg width="24px" height="24px" viewBox="0 0 24 24" version="1.1" xmlns="http://www.w3.org/2000/svg" xmlns:xlink="http://www.w3.org/1999/xlink">
    <title>icon-delivery-route</title>
    <g id="Symbols" stroke="none" stroke-width="1" fill="none" fill-rule="evenodd">
        <g id="icon-delivery-route">
            <polygon id="Path" points="0 0 24 0 24 24 0 24"></polygon>
            <g id="ios-list" transform="translate(0.000000, 2.000000)" fill="#00A2D9" fill-rule="nonzero" stroke="#00A2D9">
                <circle id="Oval" cx="1.75" cy="9.5" r="1.75"></circle>
                <circle id="Oval" cx="1.75" cy="1.75" r="1.75"></circle>
                <circle id="Oval" cx="1.75" cy="17.25" r="1.75"></circle>
                <path d="M23,8.5 L7.96875,8.5 C7.41875,8.5 6.96875,8.95 6.96875,9.5 C6.96875,10.05 7.41875,10.5 7.96875,10.5 L23,10.5 C23.55,10.5 24,10.05 24,9.5 C24,8.95 23.55,8.5 23,8.5 Z M23,16.25 L7.96875,16.25 C7.41875,16.25 6.96875,16.7 6.96875,17.25 C6.96875,17.8 7.41875,18.25 7.96875,18.25 L23,18.25 C23.55,18.25 24,17.8 24,17.25 C24,16.7 23.55,16.25 23,16.25 Z M7.96875,2.75 L23,2.75 C23.55,2.75 24,2.3 24,1.75 C24,1.2 23.55,0.75 23,0.75 L7.96875,0.75 C7.41875,0.75 6.96875,1.2 6.96875,1.75 C6.96875,2.3 7.41875,2.75 7.96875,2.75 Z" id="Shape"></path>
            </g>
        </g>
    </g>
</svg>