<?xml version="1.0" encoding="UTF-8"?>
<svg width="20px" height="20px" viewBox="0 0 20 20" version="1.1" xmlns="http://www.w3.org/2000/svg" xmlns:xlink="http://www.w3.org/1999/xlink">
    <title>icon-sales-route@2x</title>
    <g id="14.1-Route-Info-tab-REVAMP" stroke="none" stroke-width="1" fill="none" fill-rule="evenodd">
        <g id="05_Route-Info-Cards" transform="translate(-843, -418)">
            <g id="01-Card-Copy" transform="translate(524, 199)">
                <g id="Group-9-Copy" transform="translate(1, 209)">
                    <g id="icon-sales-route" transform="translate(318, 10)">
                        <g id="task-copy-6" fill="#000000">
                            <rect id="Rectangle" x="0" y="0" width="20" height="20" rx="4"></rect>
                        </g>
                        <g id="􀗗" transform="translate(4, 4)" fill="#FFFFFF" fill-rule="nonzero">
                            <path d="M2.11235955,12 L9.88764045,12 C11.2808989,12 12,11.2808989 12,9.90690209 L12,2.09309791 C12,0.719101124 11.2808989,0 9.88764045,0 L2.11235955,0 C0.725521669,0 0,0.712680578 0,2.09309791 L0,9.90690209 C0,11.2808989 0.725521669,12 2.11235955,12 Z M2.19582665,10.7223114 C1.60513644,10.7223114 1.2776886,10.4141252 1.2776886,9.79133226 L1.2776886,2.20866774 C1.2776886,1.5858748 1.60513644,1.2776886 2.19582665,1.2776886 L9.80417335,1.2776886 C10.388443,1.2776886 10.7223114,1.5858748 10.7223114,2.20866774 L10.7223114,9.79133226 C10.7223114,10.4141252 10.388443,10.7223114 9.80417335,10.7223114 L2.19582665,10.7223114 Z M6.00321027,9.59229535 C6.17014446,9.59229535 6.29855538,9.47672552 6.29855538,9.29695024 L6.29855538,8.86677368 C7.33868379,8.77046549 8.12199037,8.17977528 8.12199037,7.20385233 C8.12199037,6.33065811 7.55698234,5.81701445 6.43980738,5.60513644 L6.29855538,5.57945425 L6.29855538,3.98073836 C6.70304976,4.05136437 6.99197432,4.2953451 7.11396469,4.6741573 C7.20385233,4.88603531 7.34510433,5.00802568 7.57624398,5.00802568 C7.83306581,5.00802568 8.01284109,4.84109149 8.01284109,4.59069021 C8.01284109,4.51364366 7.99357945,4.44301766 7.97431782,4.37239165 C7.80096308,3.7046549 7.15890851,3.22953451 6.29855538,3.13964687 L6.29855538,2.7094703 C6.29855538,2.53611557 6.17014446,2.42054575 6.00321027,2.42054575 C5.83627608,2.42054575 5.71428571,2.53611557 5.71428571,2.7094703 L5.71428571,3.13964687 C4.69983949,3.2423756 3.98073836,3.85874799 3.98073836,4.7576244 C3.98073836,5.5858748 4.53932584,6.08025682 5.60513644,6.32423756 L5.71428571,6.34991974 L5.71428571,8.03852327 C5.19422151,7.96147673 4.89245586,7.68539326 4.78972713,7.30658106 C4.69983949,7.08186196 4.55216693,6.95987159 4.33386838,6.95987159 C4.06420546,6.95987159 3.89085072,7.13964687 3.89085072,7.3964687 C3.89085072,7.47351525 3.90369181,7.54414125 3.929374,7.6211878 C4.11556982,8.30176565 4.79614767,8.78330658 5.71428571,8.86035313 L5.71428571,9.29695024 C5.71428571,9.47672552 5.83627608,9.59229535 6.00321027,9.59229535 Z M5.71428571,5.4317817 L5.66934189,5.41894061 C5.15569823,5.26484751 4.91813804,5.04012841 4.91813804,4.69983949 C4.91813804,4.34028892 5.21990369,4.05136437 5.71428571,3.97431782 L5.71428571,5.4317817 Z M6.29855538,6.49117175 L6.4141252,6.52327448 C6.97913323,6.67094703 7.17817014,6.90208668 7.17817014,7.26805778 C7.17817014,7.67897271 6.88282504,7.97431782 6.29855538,8.03852327 L6.29855538,6.49117175 Z" id="Shape"></path>
                        </g>
                    </g>
                </g>
            </g>
        </g>
    </g>
</svg>