<?xml version="1.0" encoding="UTF-8"?>
<svg width="28px" height="28px" viewBox="0 0 28 28" version="1.1" xmlns="http://www.w3.org/2000/svg" xmlns:xlink="http://www.w3.org/1999/xlink">
    <title>Shape Copy 2</title>
    <g id="3.3-Map-View-/-Task-Edit" stroke="none" stroke-width="1" fill="none" fill-rule="evenodd">
        <g id="3.3.2-KevitaLoca_VD--leads-map" transform="translate(-200.000000, -844.000000)" fill="#565656" fill-rule="nonzero">
            <path d="M214,844 C210.327333,844 207,846.9785 207,850.652333 C207,856.114667 212.580167,856.692167 214,865 C215.419833,856.692167 221,856.114667 221,850.652333 C221,846.9785 217.673833,844 214,844 Z M214,853.333333 C212.710833,853.333333 211.666667,852.289167 211.666667,851 C211.666667,849.710833 212.710833,848.666667 214,848.666667 C215.289167,848.666667 216.333333,849.710833 216.333333,851 C216.333333,852.289167 215.289167,853.333333 214,853.333333 Z M228,872 L220.175167,869.1685 L214,872 L207.488833,869.1685 L200,872 L204.666667,861.5 L209.286667,859.652 C209.73,860.254 210.151167,860.912 210.5245,861.669167 L206.414333,863.314167 L204.401833,867.840833 L207.519167,866.6625 L209.276167,863.527667 L208.535333,867.079 L213.4225,869.166167 L214,866.808333 L214.5425,869.169667 L219.384167,866.964667 L218.663167,863.426167 L220.497167,866.804833 L223.6845,867.958667 L221.655667,863.317667 L217.477833,861.666833 C217.85,860.9085 218.272333,860.249333 218.716833,859.647333 L223.408,861.5 L228,872 L228,872 Z" id="Shape-Copy-2"></path>
        </g>
    </g>
</svg>