<?xml version="1.0" encoding="UTF-8"?>
<svg width="23px" height="18px" viewBox="0 0 23 18" version="1.1" xmlns="http://www.w3.org/2000/svg" xmlns:xlink="http://www.w3.org/1999/xlink">
    <title>􀍕</title>
    <g id="2.4-Notifications" stroke="none" stroke-width="1" fill="none" fill-rule="evenodd">
        <g id="Artboard" transform="translate(-43.000000, -104.000000)" fill="#D3D3D3" fill-rule="nonzero">
            <path d="M62.5537109,121.763672 C63.5722656,121.763672 64.3669434,121.473145 64.9377441,120.89209 C65.5085449,120.311035 65.7939453,119.470215 65.7939453,118.369629 L65.7939453,107.644043 C65.7939453,106.550293 65.5,105.712891 64.9121094,105.131836 C64.3242188,104.550781 63.4833984,104.260254 62.3896484,104.260254 L46.7114258,104.260254 C45.6928711,104.260254 44.8981934,104.550781 44.3273926,105.131836 C43.7565918,105.712891 43.4711914,106.550293 43.4711914,107.644043 L43.4711914,118.369629 C43.4711914,119.470215 43.7634277,120.311035 44.3479004,120.89209 C44.932373,121.473145 45.7749023,121.763672 46.8754883,121.763672 L62.5537109,121.763672 Z M54.6376953,113.652832 C54.4736328,113.652832 54.3129883,113.611816 54.1557617,113.529785 C53.9985352,113.447754 53.8242188,113.311035 53.6328125,113.119629 L46.999,106.568 L62.285,106.568 L55.6425781,113.119629 C55.4511719,113.311035 55.2768555,113.447754 55.1196289,113.529785 C54.9624023,113.611816 54.8017578,113.652832 54.6376953,113.652832 Z M45.737,117.74 L45.737,108.13 L50.597,112.913 L45.737,117.74 Z M63.527,117.719 L58.683,112.908 L63.527,108.141 L63.527,117.719 Z M62.2973633,119.456543 L46.9677734,119.456543 L46.841,119.452 L52.014,114.307 L52.4023438,114.688477 C52.7714844,115.043945 53.138916,115.30542 53.5046387,115.4729 C53.8703613,115.640381 54.2480469,115.724121 54.6376953,115.724121 C55.0273438,115.724121 55.4067383,115.640381 55.7758789,115.4729 C56.1450195,115.30542 56.5107422,115.043945 56.8730469,114.688477 L57.261,114.307 L62.424,119.452 L62.2973633,119.456543 L62.2973633,119.456543 Z" id="􀍕"></path>
        </g>
    </g>
</svg>