<?xml version="1.0" encoding="UTF-8"?>
<svg width="28px" height="32px" viewBox="0 0 28 32" version="1.1" xmlns="http://www.w3.org/2000/svg" xmlns:xlink="http://www.w3.org/1999/xlink">
    <title>my leads icon copy</title>
    <g id="3.3-Map-View-/-Task-Edit" stroke="none" stroke-width="1" fill="none" fill-rule="evenodd">
        <g id="3.3.2-KevitaLoca_VD--leads-map" transform="translate(-205.000000, -539.000000)">
            <g id="my-leads-icon-copy" transform="translate(200.000000, 537.000000)">
                <g id="Group-29" transform="translate(8.444444, 8.000000)"></g>
                <polygon id="Path" points="0 0 38 0 38 36 0 36"></polygon>
                <g id="Group" transform="translate(6.333333, 3.000000)" fill-rule="nonzero">
                    <g id="icon_location-blue" fill="#302E98" stroke="#FFFFFF">
                        <path d="M12.6666667,0 C5.67213333,0 0,5.49375 0,12.26875 C0,19.15 5.54166667,23.85375 12.6666667,30 C19.7916667,23.85375 25.3333333,19.15 25.3333333,12.26875 C25.3333333,5.49375 19.6612,0 12.6666667,0 Z" id="Path"></path>
                    </g>
                    <path d="M9.02729922,13.7175581 L8.44984578,17.0476864 C8.39690187,17.3533176 8.52379586,17.6621302 8.77715513,17.8443211 C8.92055391,17.9474 9.09053183,18 9.26115287,18 C9.39211944,18 9.52351478,17.9690339 9.64419265,17.9062533 L12.6667134,16.3339814 L15.689234,17.9062533 C15.8094832,17.9690339 15.9410928,18 16.0720595,18 C16.0729169,18 16.0737743,18 16.0744173,18 C16.5284063,17.9991517 16.8964418,17.6347697 16.8964418,17.1855492 C16.8964418,17.1229807 16.8893683,17.062109 16.8758644,17.0033582 L16.3061274,13.7175581 L18.7514091,11.3590442 C18.9758314,11.1427057 19.0564262,10.8190463 18.9597553,10.5240199 C18.86287,10.2292057 18.6052238,10.0143519 18.2952766,9.96981158 L14.9160809,9.48389832 L13.4047134,6.45388667 C13.2660302,6.17604018 12.9798757,6 12.6667134,6 C12.3533366,6 12.0671821,6.17604018 11.9284989,6.45388667 L10.4173458,9.48389832 L7.03815009,9.96981158 C6.72798857,10.0143519 6.47055668,10.2292057 6.3736714,10.5240199 C6.27678612,10.8190463 6.35759529,11.1427057 6.58201762,11.3590442 L9.02729922,13.7175581 Z" id="Shape" fill="#FFFFFF"></path>
                </g>
            </g>
        </g>
    </g>
</svg>