<?xml version="1.0" encoding="UTF-8"?>
<svg width="22px" height="22px" viewBox="0 0 22 22" version="1.1" xmlns="http://www.w3.org/2000/svg" xmlns:xlink="http://www.w3.org/1999/xlink">
    <title>icon-error</title>
    <g id="Symbols" stroke="none" stroke-width="1" fill="none" fill-rule="evenodd">
        <g id="icon-error">
            <circle id="Oval" stroke="#FFFFFF" fill="#FFFFFF" cx="11" cy="11" r="10.5"></circle>
            <path d="M11.0047192,21 C16.4884379,21 21,16.4978764 21,11.0047192 C21,5.51156206 16.4884379,1 10.9952808,1 C5.50212364,1 1,5.51156206 1,11.0047192 C1,16.4978764 5.51156206,21 11.0047192,21 Z M11.0047192,12.2317131 C10.3440302,12.2317131 9.96649363,11.8636149 9.92873997,11.2029259 L9.78716376,7.46531383 C9.7494101,6.76687117 10.2590845,6.28551203 10.9952808,6.28551203 C11.7314771,6.28551203 12.2411515,6.77630958 12.2033978,7.47475224 L12.0523832,11.1934875 C12.0146295,11.8730533 11.6465314,12.2317131 11.0047192,12.2317131 Z M11.0047192,15.874941 C10.2213308,15.874941 9.6833412,15.4124587 9.6833412,14.6951392 C9.6833412,13.9872581 10.2118924,13.5342143 11.0047192,13.5342143 C11.7692308,13.5342143 12.3072204,13.9872581 12.3072204,14.6951392 C12.3072204,15.4218971 11.7692308,15.874941 11.0047192,15.874941 Z" id="ô€Ÿ" fill="#EB445A" fill-rule="nonzero"></path>
        </g>
    </g>
</svg>

