<?xml version="1.0" encoding="UTF-8"?>
<svg width="22px" height="21px" viewBox="0 0 22 21" version="1.1" xmlns="http://www.w3.org/2000/svg" xmlns:xlink="http://www.w3.org/1999/xlink">
    <title>Group 2</title>
    <g id="2.2--Lead-Retouch-Request-COF/Actiivity/Distribution" stroke="none" stroke-width="1" fill="none" fill-rule="evenodd">
        <g id="1.0-KevitaLoca_lead-details---activity" transform="translate(-33.000000, -448.000000)">
            <g id="Group-5" transform="translate(22.000000, 438.000000)">
                <g id="callli" transform="translate(11.128906, 11.500000)">
                    <path d="M13.4082031,18.8339844 C14.0136719,18.8339844 14.5768229,18.7249349 15.0976562,18.5068359 C15.6184896,18.288737 16.0904948,17.9485677 16.5136719,17.4863281 C16.7545573,17.2063802 16.9482422,16.9101562 17.0947266,16.5976562 C17.2412109,16.2851562 17.3144531,15.9726562 17.3144531,15.6601562 C17.3144531,15.4192708 17.265625,15.188151 17.1679688,14.9667969 C17.0703125,14.7454427 16.9042969,14.5566406 16.6699219,14.4003906 L13.828125,12.3886719 C13.6132812,12.2259115 13.4130859,12.108724 13.2275391,12.0371094 C13.0419922,11.9654948 12.8613281,11.9296875 12.6855469,11.9296875 C12.4772135,11.9296875 12.273763,11.9866536 12.0751953,12.1005859 C11.8766276,12.2145182 11.6731771,12.3789062 11.4648438,12.59375 L10.7910156,13.2382812 C10.6998698,13.3424479 10.5826823,13.3945312 10.4394531,13.3945312 C10.3678385,13.3945312 10.2994792,13.3815104 10.234375,13.3554687 C10.1692708,13.3294271 10.1139323,13.3066406 10.0683594,13.2871094 C9.77539062,13.1308594 9.40266927,12.8606771 8.95019531,12.4765625 C8.49772135,12.0924479 8.04036458,11.672526 7.578125,11.2167969 C7.12239583,10.7545573 6.70247396,10.2972005 6.31835938,9.84472656 C5.93424479,9.3922526 5.66731771,9.02278646 5.51757812,8.73632812 C5.49153646,8.68424479 5.4671224,8.62565104 5.44433594,8.56054687 C5.42154948,8.49544271 5.41015625,8.42708333 5.41015625,8.35546875 C5.41015625,8.21875 5.45898438,8.10481771 5.55664062,8.01367187 L6.2109375,7.33984375 C6.41927083,7.125 6.58040365,6.91829427 6.69433594,6.71972656 C6.80826823,6.52115885 6.86523437,6.31445312 6.86523437,6.09960937 C6.86523437,5.93684896 6.82779948,5.76106771 6.75292969,5.57226562 C6.6780599,5.38346354 6.56575521,5.17838542 6.41601562,4.95703125 L4.4140625,2.15429687 C4.25130208,1.92643229 4.05598958,1.75878906 3.828125,1.65136719 C3.60026042,1.54394531 3.35611979,1.49023437 3.09570312,1.49023437 C2.45768229,1.49023437 1.86197917,1.75716146 1.30859375,2.29101562 C0.852864583,2.72721354 0.520833333,3.20898437 0.3125,3.73632812 C0.104166667,4.26367187 0,4.82356771 0,5.41601562 C0,6.30794271 0.208333333,7.25032552 0.625,8.24316406 C1.04166667,9.2360026 1.60644531,10.2255859 2.31933594,11.2119141 C3.03222656,12.1982422 3.84114583,13.140625 4.74609375,14.0390625 C5.64453125,14.9440104 6.59179688,15.7594401 7.58789062,16.4853516 C8.58398438,17.211263 9.58007812,17.7841797 10.5761719,18.2041016 C11.5722656,18.6240234 12.516276,18.8339844 13.4082031,18.8339844 Z" id="􀌿" fill="#000000" fill-rule="nonzero"></path>
                    <path d="M11.8840453,0 C11.2830759,5.33333333 13.9497426,8 19.8840453,8" id="Path-2" stroke="#000000" stroke-width="2" transform="translate(15.842597, 4.000000) rotate(-180.000000) translate(-15.842597, -4.000000) "></path>
                    <path d="M11.2806161,3.69828539 C10.9574662,6.56609513 12.3913711,8 15.5823307,8" id="Path-2-Copy" stroke="#000000" stroke-width="2" transform="translate(13.409186, 5.849143) rotate(-180.000000) translate(-13.409186, -5.849143) "></path>
                </g>
            </g>
        </g>
    </g>
</svg>