<?xml version="1.0" encoding="UTF-8"?>
<svg width="22px" height="22px" viewBox="0 0 22 22" version="1.1" xmlns="http://www.w3.org/2000/svg" xmlns:xlink="http://www.w3.org/1999/xlink">
    <title>icon-cart-selling-page</title>
    <g id="11.3-Total-SKU-Visibility---List-view" stroke="none" stroke-width="1" fill="none" fill-rule="evenodd">
        <g id="08-PSR-Total-SKU-Visibility-Product-Trend" transform="translate(-225.000000, -333.000000)" fill="#FFFFFF" fill-rule="nonzero" stroke="#FFFFFF" stroke-width="0.5">
            <g id="Group-17" transform="translate(206.000000, 322.000000)">
                <g id="icon-cart-selling-page" transform="translate(20.000000, 12.000000)">
                    <path d="M5.70002903,13.1684885 L17.5584337,13.1684885 C18.9030644,13.1684885 20,12.1491053 20,10.8995389 L20,6.26298956 C20,6.25887914 20,6.25065831 20,6.24654789 C20,6.23421664 20,6.22599581 20,6.21366456 C20,6.20544373 20,6.1972229 19.9955769,6.18900207 C19.9955769,6.18078124 19.9911537,6.16844999 19.9911537,6.16022916 C19.9911537,6.15200832 19.9867306,6.14378749 19.9867306,6.13556666 C19.9823075,6.12734583 19.9823075,6.119125 19.9778844,6.10679375 C19.9734612,6.09857291 19.9734612,6.09035208 19.9690381,6.08213125 C19.964615,6.07391042 19.964615,6.06568959 19.9601919,6.05746875 C19.9557687,6.04924792 19.9513456,6.04102709 19.9469225,6.02869584 C19.9424993,6.02047501 19.9380762,6.01225418 19.9336531,6.00814376 C19.92923,5.99992293 19.9248068,5.9917021 19.9203837,5.98348127 C19.9159606,5.97526043 19.9115375,5.97115002 19.9071143,5.96292919 C19.9026912,5.95470835 19.8938449,5.94648752 19.8894218,5.93826669 C19.8849987,5.93004586 19.8805756,5.92593544 19.8717293,5.91771461 C19.8673062,5.90949378 19.8584599,5.90538336 19.8540368,5.89716253 C19.8496137,5.8889417 19.8407674,5.88483128 19.8363443,5.87661045 C19.8319212,5.86838962 19.8230749,5.8642792 19.8186518,5.86016878 C19.8098055,5.85194795 19.8053824,5.84783754 19.7965361,5.8396167 C19.7876899,5.83550629 19.7832668,5.82728546 19.7744205,5.82317504 C19.7655742,5.81906462 19.756728,5.81084379 19.7478817,5.80673338 C19.7390355,5.80262296 19.7346124,5.79851254 19.7257661,5.79440213 C19.7169198,5.79029171 19.7080736,5.7861813 19.6992273,5.77796046 C19.6903811,5.77385005 19.6815348,5.76973963 19.6726886,5.76562921 C19.6638423,5.7615188 19.6549961,5.75740838 19.6461498,5.75329797 C19.6373036,5.74918755 19.6284573,5.74507713 19.619611,5.74096672 C19.6107648,5.7368563 19.6019185,5.7368563 19.5930723,5.73274589 C19.584226,5.72863547 19.5709566,5.72452505 19.5621104,5.72452505 C19.5532641,5.72452505 19.5444179,5.72041464 19.5399947,5.72041464 C19.5267254,5.71630422 19.5178791,5.71630422 19.5046097,5.71630422 C19.5001866,5.71630422 19.4957635,5.71219381 19.4869172,5.71219381 L4.45713022,3.78440868 L4.45713022,1.83607147 C4.45713022,1.81551939 4.45713022,1.79496731 4.45270709,1.77852565 C4.45270709,1.77441523 4.45270709,1.77030481 4.44828396,1.76208398 C4.44828396,1.74975273 4.44386084,1.73742148 4.44386084,1.72509024 C4.43943771,1.71275899 4.43943771,1.70453816 4.43501458,1.69220691 C4.43501458,1.68398608 4.43059146,1.67987566 4.43059146,1.67165483 C4.42616833,1.65932358 4.4217452,1.64699233 4.41732207,1.63466108 C4.41732207,1.63055067 4.41289895,1.62232984 4.41289895,1.61821942 C4.40847582,1.60588817 4.40405269,1.59766734 4.39520644,1.58533609 C4.39078331,1.58122567 4.39078331,1.57300484 4.38636018,1.56889443 C4.38193705,1.56067359 4.37751393,1.55245276 4.36866767,1.54423193 C4.36424454,1.5360111 4.35982142,1.53190068 4.35539829,1.52367985 C4.35097516,1.51545902 4.34655203,1.5113486 4.34212891,1.50312777 C4.33770578,1.49490694 4.32885952,1.48668611 4.3244364,1.47846527 C4.32001327,1.47435486 4.31559014,1.47024444 4.31116701,1.46613403 C4.30232076,1.45791319 4.2934745,1.44969236 4.28462825,1.44147153 C4.28020512,1.43736111 4.275782,1.4332507 4.27135887,1.42914028 C4.26251261,1.42091945 4.25366636,1.41269862 4.24039698,1.40447778 C4.23597385,1.40036737 4.22712759,1.39625695 4.22270447,1.39214654 C4.21385821,1.3839257 4.20501196,1.37981529 4.1961657,1.37159446 C4.18289632,1.36337362 4.16962694,1.35515279 4.16078068,1.35104238 C4.15635755,1.34693196 4.15193443,1.34693196 4.1475113,1.34282154 C4.12981879,1.33460071 4.10770315,1.32637988 4.09001064,1.31815905 L0.830165729,0.0439300715 C0.524969937,-0.0752719939 0.17554287,0.0562613197 0.0472721744,0.339880027 C-0.080998521,0.623498735 0.0605415567,0.948221603 0.365737349,1.06742367 L3.25846269,2.2018985 L3.25846269,4.71747312 L3.25846269,5.11618348 L3.25846269,8.17433302 L3.25846269,10.9077597 L3.25846269,14.3605092 C3.25846269,15.5114257 4.18731945,16.4650422 5.38598698,16.6089068 C5.16925374,16.9459609 5.04098304,17.3405608 5.04098304,17.7598233 C5.04098304,18.9970585 6.12464926,20 7.45158749,20 C8.77852572,20 9.86219194,18.9929481 9.86219194,17.7598233 C9.86219194,17.3487816 9.7427675,16.9582921 9.53045738,16.6294588 L14.9001341,16.6294588 C14.687824,16.9624025 14.5683995,17.3487816 14.5683995,17.7598233 C14.5683995,18.9970585 15.6520657,20 16.979004,20 C18.3059422,20 19.3896084,18.9929481 19.3896084,17.7598233 C19.3896084,16.5266984 18.3059422,15.5196465 16.979004,15.5196465 L5.70002903,15.5196465 C5.01002115,15.5196465 4.45270709,14.9976237 4.45270709,14.3605092 L4.45270709,12.8560969 C4.81540354,13.0533969 5.2444469,13.1684885 5.70002903,13.1684885 Z M8.67237066,17.7557128 C8.67237066,18.3804961 8.12390286,18.8860773 7.45601062,18.8860773 C6.78811837,18.8860773 6.23965057,18.3763857 6.23965057,17.7557128 C6.23965057,17.13504 6.78811837,16.6253484 7.45601062,16.6253484 C8.12390286,16.6253484 8.67237066,17.1309296 8.67237066,17.7557128 Z M18.1997871,17.7557128 C18.1997871,18.3804961 17.6513193,18.8860773 16.9834271,18.8860773 C16.3155349,18.8860773 15.7670671,18.3763857 15.7670671,17.7557128 C15.7670671,17.13504 16.3155349,16.6253484 16.9834271,16.6253484 C17.6513193,16.6253484 18.1997871,17.1309296 18.1997871,17.7557128 Z M17.5584337,12.0586762 L5.70002903,12.0586762 C5.01002115,12.0586762 4.45270709,11.5366534 4.45270709,10.8995389 L4.45270709,8.16611219 L4.45270709,5.10796265 L4.45270709,4.90244184 L18.8057556,6.73979782 L18.8057556,10.8954284 C18.8057556,11.5407638 18.2440184,12.0586762 17.5584337,12.0586762 Z" id="Shape"></path>
                </g>
            </g>
        </g>
    </g>
</svg>