<svg xmlns="http://www.w3.org/2000/svg" viewBox="0 0 50 50"><defs><style>.a{fill:#da505d;}</style></defs><path class="a" d="M49,13.65,36.35,1a3.4,3.4,0,0,0-2.41-1H16.06a3.4,3.4,0,0,0-2.41,1L1,13.65a3.4,3.4,0,0,0-1,2.41V33.94a3.4,3.4,0,0,0,1,2.41L13.65,49a3.4,3.4,0,0,0,2.41,1H33.94a3.4,3.4,0,0,0,2.41-1L49,36.35a3.4,3.4,0,0,0,1-2.41V16.06A3.4,3.4,0,0,0,49,13.65ZM38.27,38a1.12,1.12,0,0,1-1.57,0L25,26.22,13.3,37.9a1.11,1.11,0,1,1-1.57-1.56L23.41,24.66l-11-11A1.11,1.11,0,1,1,14,12.1l11,11,11-11a1.11,1.11,0,1,1,1.57,1.57l-11,11L38.27,36.38A1.12,1.12,0,0,1,38.27,38Z"/></svg>