<?xml version="1.0" encoding="UTF-8"?>
<svg width="14px" height="14px" viewBox="0 0 14 14" version="1.1" xmlns="http://www.w3.org/2000/svg" xmlns:xlink="http://www.w3.org/1999/xlink">
    <title>icon-arrow-up</title>
    <g id="Symbols" stroke="none" stroke-width="1" fill="none" fill-rule="evenodd">
        <g id="icon-arrow-up" fill="#00A2D9" fill-rule="nonzero">
            <path d="M11.6121673,14 C13.2091255,14 14,13.2091255 14,11.6425856 L14,2.35741445 C14,0.790874525 13.2091255,0 11.6121673,0 L2.3878327,0 C0.798479087,0 0,0.783269962 0,2.35741445 L0,11.6425856 C0,13.21673 0.798479087,14 2.3878327,14 L11.6121673,14 Z M11.5969582,12.7756654 L2.40304183,12.7756654 C1.64258555,12.7756654 1.2243346,12.3726236 1.2243346,11.581749 L1.2243346,2.41825095 C1.2243346,1.62737643 1.64258555,1.2243346 2.40304183,1.2243346 L11.5969582,1.2243346 C12.3498099,1.2243346 12.7756654,1.62737643 12.7756654,2.41825095 L12.7756654,11.581749 C12.7756654,12.3726236 12.3498099,12.7756654 11.5969582,12.7756654 Z M4.62357414,9.92395437 C4.80608365,9.92395437 4.94296578,9.85551331 5.04942966,9.74904943 L7.85551331,6.95057034 L8.95057034,5.77946768 L8.8365019,6.96577947 L8.8365019,8.28136882 C8.8365019,8.64638783 9.05703422,8.87452471 9.39163498,8.87452471 C9.72623574,8.87452471 9.94676806,8.62357414 9.94676806,8.2661597 L9.94676806,4.68441065 C9.94676806,4.22813688 9.70342205,4.05323194 9.31558935,4.05323194 L5.70342205,4.05323194 C5.35361217,4.05323194 5.12547529,4.27376426 5.12547529,4.60836502 C5.12547529,4.94296578 5.36121673,5.17110266 5.71863118,5.17110266 L7.11026616,5.17110266 L8.22813688,5.04942966 L7.04942966,6.15209125 L4.24334601,8.95057034 C4.13688213,9.05703422 4.0608365,9.20912548 4.0608365,9.36121673 C4.0608365,9.70342205 4.28136882,9.92395437 4.62357414,9.92395437 Z" id="􀄔"></path>
        </g>
    </g>
</svg>