<?xml version="1.0" encoding="UTF-8"?>
<svg width="28px" height="27px" viewBox="0 0 28 27" version="1.1" xmlns="http://www.w3.org/2000/svg" xmlns:xlink="http://www.w3.org/1999/xlink">
    <title>msg star</title>
    <g id="2.4-Notifications" stroke="none" stroke-width="1" fill="none" fill-rule="evenodd">
        <g id="Artboard" transform="translate(-92.000000, -56.000000)">
            <g id="Group-4" transform="translate(92.692144, 58.000000)">
                <path d="M6.06445313,24.8476562 C6.37044271,24.8476562 6.66341146,24.7760417 6.94335938,24.6328125 C7.22330729,24.4895833 7.55208333,24.2552083 7.9296875,23.9296875 L11.0546875,21.1855469 L16.1132812,21.1855469 C17.0507812,21.1855469 17.8564453,21.0032552 18.5302734,20.6386719 C19.2041016,20.2740885 19.7200521,19.7565104 20.078125,19.0859375 C20.4361979,18.4153646 20.6152344,17.6145833 20.6152344,16.6835938 L20.6152344,9.359375 C20.6152344,8.42838542 20.4361979,7.62597656 20.078125,6.95214844 C19.7200521,6.27832031 19.2041016,5.75911458 18.5302734,5.39453125 C17.8564453,5.02994792 17.0507812,4.84765625 16.1132812,4.84765625 L4.50195312,4.84765625 C3.56445312,4.84765625 2.76041667,5.02994792 2.08984375,5.39453125 C1.41927083,5.75911458 0.903320312,6.27832031 0.541992188,6.95214844 C0.180664062,7.62597656 0,8.42838542 0,9.359375 L0,16.6835938 C0,17.6145833 0.185546875,18.4169922 0.556640625,19.0908203 C0.927734375,19.7646484 1.44042969,20.2822266 2.09472656,20.6435547 C2.74902344,21.0048828 3.49934896,21.1855469 4.34570312,21.1855469 L4.62890625,21.1855469 L4.62890625,23.265625 C4.62890625,23.7539062 4.75585938,24.1396484 5.00976562,24.4228516 C5.26367187,24.7060547 5.61523438,24.8476562 6.06445313,24.8476562 Z M6.63085938,22.2695312 L6.63085938,19.7011719 C6.63085938,19.3951823 6.55761719,19.1770833 6.41113281,19.046875 C6.26464844,18.9166667 6.0546875,18.8515625 5.78125,18.8515625 L4.63867188,18.8515625 C3.86393229,18.8515625 3.28613281,18.6578776 2.90527344,18.2705078 C2.52441406,17.883138 2.33398438,17.3085938 2.33398438,16.546875 L2.33398438,9.49609375 C2.33398438,8.72786458 2.52441406,8.1500651 2.90527344,7.76269531 C3.28613281,7.37532552 3.86393229,7.18164062 4.63867188,7.18164062 L15.9765625,7.18164062 C16.7447917,7.18164062 17.3209635,7.37532552 17.7050781,7.76269531 C18.0891927,8.1500651 18.28125,8.72786458 18.28125,9.49609375 L18.28125,16.546875 C18.28125,17.3085938 18.0891927,17.883138 17.7050781,18.2705078 C17.3209635,18.6578776 16.7447917,18.8515625 15.9765625,18.8515625 L10.8886719,18.8515625 C10.5696615,18.8515625 10.3190104,18.890625 10.1367188,18.96875 C9.95442708,19.046875 9.74934896,19.1998698 9.52148438,19.4277344 L6.63085938,22.2695312 Z" id="􀌪" fill="#00A2D9" fill-rule="nonzero"></path>
                <polygon id="Star-Copy-4" stroke="#FFFFFF" fill="#FFC409" points="18.8078564 11.25 14.399467 13.5676275 15.2413944 8.65881373 11.6749325 5.18237254 16.6036617 4.46618627 18.8078564 0 21.0120511 4.46618627 25.9407802 5.18237254 22.3743183 8.65881373 23.2162458 13.5676275"></polygon>
            </g>
        </g>
    </g>
</svg>