<?xml version="1.0" encoding="UTF-8"?>
<svg width="14px" height="14px" viewBox="0 0 14 14" version="1.1" xmlns="http://www.w3.org/2000/svg" xmlns:xlink="http://www.w3.org/1999/xlink">
    <title>Shape</title>
    <g id="PI9---9.1-Flow-for-Location-&amp;-route-changing-for-PSR-Persona" stroke="none" stroke-width="1" fill="none" fill-rule="evenodd">
        <g id="4280530-05" transform="translate(-373.000000, -121.000000)" fill="currentColor" fill-rule="nonzero">
            <g id="Group-13" transform="translate(221.000000, 120.000000)">
                <path d="M159,15 C159.956209,15 160.856373,14.8169935 161.70049,14.4509804 C162.544608,14.0849673 163.289216,13.5794118 163.934314,12.9343137 C164.579412,12.2892157 165.084967,11.5446078 165.45098,10.7004902 C165.816993,9.85637255 166,8.95620915 166,8 C166,7.04379085 165.816993,6.14362745 165.45098,5.2995098 C165.084967,4.45539216 164.579412,3.71078431 163.934314,3.06568627 C163.289216,2.42058824 162.543464,1.91503268 161.697059,1.54901961 C160.850654,1.18300654 159.949346,1 158.993137,1 C158.036928,1 157.136765,1.18300654 156.292647,1.54901961 C155.448529,1.91503268 154.705065,2.42058824 154.062255,3.06568627 C153.419444,3.71078431 152.915033,4.45539216 152.54902,5.2995098 C152.183007,6.14362745 152,7.04379085 152,8 C152,8.95620915 152.183007,9.85637255 152.54902,10.7004902 C152.915033,11.5446078 153.420588,12.2892157 154.065686,12.9343137 C154.710784,13.5794118 155.455392,14.0849673 156.29951,14.4509804 C157.143627,14.8169935 158.043791,15 159,15 Z M159,13.8333333 C158.190196,13.8333333 157.433007,13.6823529 156.728431,13.3803922 C156.023856,13.0784314 155.405065,12.6609477 154.872059,12.1279412 C154.339052,11.5949346 153.922712,10.9761438 153.623039,10.2715686 C153.323366,9.56699346 153.173529,8.80980392 153.173529,8 C153.173529,7.19019608 153.323366,6.43300654 153.623039,5.72843137 C153.922712,5.02385621 154.337908,4.40392157 154.868627,3.86862745 C155.399346,3.33333333 156.016993,2.91584967 156.721569,2.61617647 C157.426144,2.31650327 158.183333,2.16666667 158.993137,2.16666667 C159.802941,2.16666667 160.560131,2.31650327 161.264706,2.61617647 C161.969281,2.91584967 162.589216,3.33333333 163.12451,3.86862745 C163.659804,4.40392157 164.078431,5.02385621 164.380392,5.72843137 C164.682353,6.43300654 164.833333,7.19019608 164.833333,8 C164.833333,8.80980392 164.683497,9.56699346 164.383824,10.2715686 C164.08415,10.9761438 163.66781,11.5949346 163.134804,12.1279412 C162.601797,12.6609477 161.981863,13.0784314 161.275,13.3803922 C160.568137,13.6823529 159.809804,13.8333333 159,13.8333333 Z M157.023529,11.5411765 L158.993137,10.1 L160.962745,11.5411765 C161.1,11.6418301 161.229248,11.680719 161.35049,11.6578431 C161.471732,11.6349673 161.562092,11.5686275 161.621569,11.4588235 C161.681046,11.3490196 161.685621,11.2163399 161.635294,11.0607843 L160.852941,8.73431373 L162.843137,7.31372549 C162.966667,7.22679739 163.037582,7.12042484 163.055882,6.99460784 C163.074183,6.86879085 163.043301,6.75784314 162.963235,6.66176471 C162.88317,6.56568627 162.758497,6.51993464 162.589216,6.5245098 L160.146078,6.54509804 L159.398039,4.20490196 C159.352288,4.05392157 159.273366,3.95326797 159.161275,3.90294118 C159.049183,3.85261438 158.938235,3.85261438 158.828431,3.90294118 C158.718627,3.95326797 158.638562,4.05392157 158.588235,4.20490196 L157.847059,6.54509804 L155.403922,6.5245098 C155.234641,6.51993464 155.109967,6.56568627 155.029902,6.66176471 C154.949837,6.75784314 154.918954,6.86879085 154.937255,6.99460784 C154.955556,7.12042484 155.026471,7.22908497 155.15,7.32058824 L157.140196,8.73431373 L156.357843,11.0607843 C156.307516,11.2163399 156.312092,11.3490196 156.371569,11.4588235 C156.431046,11.5686275 156.521405,11.6349673 156.642647,11.6578431 C156.763889,11.680719 156.89085,11.6418301 157.023529,11.5411765 Z" id="Shape"></path>
            </g>
        </g>
    </g>
</svg>