<?xml version="1.0" encoding="UTF-8"?>
<svg width="18px" height="19px" viewBox="0 0 18 19" version="1.1" xmlns="http://www.w3.org/2000/svg" xmlns:xlink="http://www.w3.org/1999/xlink">
    <title>icon-phone-disabled@2x</title>
    <g id="Symbols" stroke="none" stroke-width="1" fill="none" fill-rule="evenodd">
        <g id="icon-phone-disabled" fill="currentColor">
            <path d="M17.5964729,14.8084461 L14.8166536,11.9102023 C14.2629651,11.3353084 13.3460462,11.3527752 12.7730689,11.9503112 L11.372584,13.4099725 C11.2841035,13.3591355 11.1925202,13.3060344 11.096231,13.2496987 C10.2118395,12.7388496 9.00139899,12.0386694 7.72766207,10.7098471 C6.45015013,9.37822162 5.77788429,8.11441461 5.28635454,7.19185651 C5.23448665,7.09411807 5.18479069,6.99988378 5.13571528,6.91039354 L6.07564635,5.93198491 L6.53775154,5.44965409 C7.111608,4.85125551 7.12743211,3.89565072 6.57503644,3.3190856 L3.7952172,0.420518363 C3.24282153,-0.155238107 2.32548894,-0.137771338 1.75163248,0.460627241 L0.968184214,1.28205059 L0.989593296,1.30420751 C0.726892491,1.65365071 0.507371839,2.05668024 0.344011241,2.4913009 C0.193423693,2.90500457 0.0996684649,3.2997859 0.0567985896,3.69537588 C-0.310258558,6.86764308 1.08029747,9.76685724 4.85408761,13.7010314 C10.0706119,19.1388033 14.2744454,18.7280107 14.455802,18.7079563 C14.850784,18.6587367 15.2293214,18.5603513 15.6140126,18.4046059 C16.027301,18.2362996 16.413647,18.007776 16.7486422,17.7345074 L16.7657591,17.7503568 L17.5594465,16.9401467 C18.1321136,16.341856 18.14861,15.3859277 17.5964729,14.8084461 Z" id="icon_call"></path>
        </g>
    </g>
</svg>