<?xml version="1.0" encoding="UTF-8"?>
<svg width="23px" height="18px" viewBox="0 0 23 18" version="1.1" xmlns="http://www.w3.org/2000/svg" xmlns:xlink="http://www.w3.org/1999/xlink">
    <title>􀍕</title>
    <g id="Lead-Management--1.4" stroke="none" stroke-width="1" fill="none" fill-rule="evenodd">
        <path d="M19.5537109,17.7636719 C20.5722656,17.7636719 21.3669434,17.4731445 21.9377441,16.8920898 C22.5085449,16.3110352 22.7939453,15.4702148 22.7939453,14.3696289 L22.7939453,3.64404297 C22.7939453,2.55029297 22.5,1.71289062 21.9121094,1.13183594 C21.3242188,0.55078125 20.4833984,0.260253906 19.3896484,0.260253906 L3.71142578,0.260253906 C2.69287109,0.260253906 1.89819336,0.55078125 1.32739258,1.13183594 C0.756591797,1.71289062 0.471191406,2.55029297 0.471191406,3.64404297 L0.471191406,14.3696289 C0.471191406,15.4702148 0.763427734,16.3110352 1.34790039,16.8920898 C1.93237305,17.4731445 2.77490234,17.7636719 3.87548828,17.7636719 L19.5537109,17.7636719 Z M11.6376953,9.65283203 C11.4736328,9.65283203 11.3129883,9.61181641 11.1557617,9.52978516 C10.9985352,9.44775391 10.8242188,9.31103516 10.6328125,9.11962891 L3.999,2.568 L19.285,2.568 L12.6425781,9.11962891 C12.4511719,9.31103516 12.2768555,9.44775391 12.1196289,9.52978516 C11.9624023,9.61181641 11.8017578,9.65283203 11.6376953,9.65283203 Z M2.737,13.74 L2.737,4.13 L7.597,8.913 L2.737,13.74 Z M20.527,13.719 L15.683,8.908 L20.527,4.141 L20.527,13.719 Z M19.2973633,15.456543 L3.96777344,15.456543 L3.841,15.452 L9.014,10.307 L9.40234375,10.6884766 C9.77148438,11.0439453 10.138916,11.3054199 10.5046387,11.4729004 C10.8703613,11.6403809 11.2480469,11.7241211 11.6376953,11.7241211 C12.0273437,11.7241211 12.4067383,11.6403809 12.7758789,11.4729004 C13.1450195,11.3054199 13.5107422,11.0439453 13.8730469,10.6884766 L14.261,10.307 L19.424,15.452 L19.2973633,15.456543 L19.2973633,15.456543 Z" id="􀍕" fill="#00A2D9" fill-rule="nonzero"></path>
    </g>
</svg>