<?xml version="1.0" encoding="UTF-8"?>
<svg width="18px" height="18px" viewBox="0 0 18 18" version="1.1" xmlns="http://www.w3.org/2000/svg" xmlns:xlink="http://www.w3.org/1999/xlink">
    <title>icon_pricing_hurdle</title>
    <g id="15.1-Pricing-Hurdles" stroke="none" stroke-width="1" fill="none" fill-rule="evenodd">
        <g id="01-PSR-Pricing-Hurdles--Product-List" transform="translate(-249, -544)">
            <g id="Group-8-Copy-2" transform="translate(-1, 511)">
                <g id="icon_pricing_hurdle" transform="translate(250, 33)">
                    <path d="M9,17.9999783 C9.48400316,17.9971741 9.97913282,17.7426552 10.485389,17.236399 L11.687052,16.034736 C11.7927538,15.9290342 11.9234903,15.8761833 12.0792615,15.8761833 L13.7732725,15.8761833 C14.4909324,15.8761833 15.0208324,15.7051132 15.3629725,15.362973 C15.7051127,15.0208329 15.8761828,14.4909329 15.8761828,13.773273 L15.8761828,12.0792619 C15.8761828,11.9290541 15.9290337,11.8010992 16.0347355,11.6953974 L17.2363986,10.4770446 C17.748218,9.97635168 18.0027369,9.48400364 17.9999778,9.00000049 C17.9971736,8.51599733 17.7426547,8.02086766 17.2363986,7.51461149 L16.0347355,6.30460359 C15.9290337,6.19890175 15.8761828,6.0709469 15.8761828,5.92073902 L15.8761828,4.22672797 C15.8761828,3.50906812 15.7051127,2.9777773 15.3629725,2.63285551 C15.0208324,2.28793372 14.4909324,2.11547282 13.7732725,2.11547282 L12.0792615,2.11547282 C11.9234903,2.11547282 11.7927538,2.06540353 11.687052,1.96526495 L10.485389,0.755257053 C9.97913282,0.249000877 9.48400316,-0.00273639713 9,2.24299875e-05 C8.51599684,0.00282685755 8.02086718,0.257345759 7.514611,0.763601935 L6.30460311,1.96526495 C6.19890127,2.06540353 6.07094641,2.11547282 5.92073854,2.11547282 L4.22672749,2.11547282 C3.50906763,2.11547282 2.97777681,2.2865429 2.63285502,2.62868307 C2.28793323,2.97082323 2.11547234,3.50350486 2.11547234,4.22672797 L2.11547234,5.92073902 C2.11547234,6.0709469 2.06540304,6.19890175 1.96526446,6.30460359 L0.76360145,7.51461149 C0.251782019,8.02086766 -0.00273688218,8.51599733 2.21914234e-05,9.00000049 C0.0028263725,9.48400364 0.257345274,9.97635168 0.76360145,10.4770446 L1.96526446,11.6953974 C2.06540304,11.8010992 2.11547234,11.9290541 2.11547234,12.0792619 L2.11547234,13.773273 C2.11547234,14.4909329 2.28793323,15.0208329 2.63285502,15.362973 C2.97777681,15.7051132 3.50906763,15.8761833 4.22672749,15.8761833 L5.92073854,15.8761833 C6.07094641,15.8761833 6.19890127,15.9290342 6.30460311,16.034736 L7.514611,17.236399 C8.02086718,17.7482185 8.51599684,18.0027374 9,17.9999783 Z" id="􀇻" fill="#004C97" fill-rule="nonzero"></path>
                    <text font-size="8" font-weight="700" fill="#FFFFFF">
                        <tspan x="4.5" y="12">%</tspan>
                    </text>
                </g>
            </g>
        </g>
    </g>
</svg>