<?xml version="1.0" encoding="UTF-8"?>
<svg width="24px" height="25.1949704px" viewBox="0 0 24 25.1949704" version="1.1" xmlns="http://www.w3.org/2000/svg" xmlns:xlink="http://www.w3.org/1999/xlink">
    <title>icon-break SVG</title>
    <g id="Symbols" stroke="none" stroke-width="1" fill="none" fill-rule="evenodd">
        <g id="icon-break-SVG" fill="#000000" fill-rule="nonzero">
            <path d="M0,22.8334306 C0.209191759,23.6510551 0.467928935,24.4405288 0.77521061,25.1949704 L23.2237885,25.1949704 C23.5315706,24.4405288 23.7908082,23.6504296 24,22.8334306 L0,22.8334306 Z" id="Path"></path>
            <path d="M7.20110101,21.2588623 L15.0751939,21.2588623 C16.928768,21.2588623 18.47456,19.9720577 18.8911919,18.245475 C19.9333973,17.7462674 21.3640837,16.9236383 22.7459755,15.668738 C22.771624,15.6437151 22.8010259,15.6230711 22.8254233,15.5980482 C22.8291767,15.5942948 22.8341813,15.5911669 22.8379348,15.5867879 C22.8379348,15.5855367 22.8379348,15.5842856 22.8379348,15.5830344 C23.3915673,15.0156393 23.7362582,14.2411794 23.7362582,13.3853949 C23.7362582,11.6463008 22.3262157,10.2362582 20.586496,10.2362582 L19.0125532,10.2362582 L19.0125532,8.6942197 L3.26436734,8.6942197 L3.26436734,17.3221286 C3.26436734,19.4959963 5.0272333,21.2588623 7.20110101,21.2588623 Z M19.0119276,11.810201 L20.5858704,11.810201 C21.4572942,11.810201 22.1610643,12.5158479 22.1610643,13.3853949 C22.1610643,13.6143548 22.1097673,13.8295521 22.0203103,14.024731 C21.9934106,14.0816582 21.9064559,14.2349237 21.7206606,14.4551255 C21.6837518,14.4945367 21.6499708,14.5389524 21.6080574,14.5739845 L21.6043039,14.5883727 C21.1939278,15.0312787 20.4200934,15.6737426 19.011302,16.3437318 L19.011302,11.810201 L19.0119276,11.810201 Z" id="Shape"></path>
            <path d="M7.46696972,6.75494203 C7.52514805,6.87129869 7.59145884,6.98077404 7.66089749,7.08587038 L8.39344399,7.08587038 C8.38906498,7.07711235 8.38280924,7.07085662 8.37843023,7.06209859 C7.82917675,5.98173326 7.92113604,4.74622571 8.5085495,3.78221703 C8.58799733,3.68087413 8.66118942,3.57515222 8.72750021,3.46630244 C8.74001168,3.45003753 8.75064643,3.43377262 8.76378347,3.41938444 C8.87075653,3.24172158 8.95208107,3.05404955 9.01463842,2.87325882 C9.26862124,2.18074902 9.29864876,1.40065894 9.04404037,0.646217366 C8.96584369,0.414755192 8.8619985,0.200183502 8.7418884,7.10542736e-15 L8.0894153,7.10542736e-15 C8.12069397,0.0744432396 8.15072149,0.149512053 8.17762115,0.22708316 C8.52418884,1.25677705 8.34214697,2.33464009 7.78225874,3.1729085 L7.78601218,3.1729085 C7.78601218,3.1729085 7.71782467,3.27049796 7.62711652,3.4250146 C7.46696972,3.67774627 7.33997831,3.95049629 7.25239803,4.23575778 C7.18733839,4.4259321 7.13604137,4.63174577 7.11352073,4.84006172 C7.11727417,4.838185 7.12040204,4.83568271 7.12415548,4.83505714 C7.04971224,5.47314205 7.15355743,6.14000334 7.46696972,6.75494203 Z" id="Path"></path>
            <path d="M10.4953708,6.75494203 C10.5541747,6.87129869 10.6198599,6.98077404 10.6892985,7.08587038 L11.421845,7.08587038 C11.417466,7.07711235 11.4112103,7.07085662 11.4074568,7.06209859 C10.8582034,5.98173326 10.9495371,4.74622571 11.5375761,3.78221703 C11.6163984,3.68087413 11.690216,3.57515222 11.7565268,3.46630244 C11.7690383,3.45003753 11.779673,3.43377262 11.7921845,3.41938444 C11.8991576,3.24172158 11.9804821,3.05404955 12.0430395,2.87325882 C12.2970223,2.18074902 12.3270498,1.40065894 12.0724414,0.646217366 C11.9942447,0.414755192 11.889774,0.200183502 11.7702894,7.10542736e-15 L11.1178163,7.10542736e-15 C11.149095,0.0744432396 11.1791225,0.149512053 11.2060222,0.22708316 C11.5525899,1.25677705 11.370548,2.33464009 10.8106598,3.1729085 L10.8150388,3.1729085 C10.8150388,3.1729085 10.7468513,3.27049796 10.6561431,3.4250146 C10.4959963,3.67774627 10.3690049,3.95049629 10.2807991,4.23575778 C10.216365,4.4259321 10.1644424,4.63174577 10.1425473,4.84006172 C10.1456752,4.838185 10.1494286,4.83568271 10.1525565,4.83505714 C10.0774877,5.47314205 10.182584,6.14000334 10.4953708,6.75494203 Z" id="Path"></path>
            <path d="M13.5243974,6.75494203 C13.5825757,6.87129869 13.6482609,6.98077404 13.7183251,7.08587038 L14.4508716,7.08587038 C14.4471182,7.07711235 14.4408625,7.07085662 14.4364834,7.06209859 C13.88723,5.98173326 13.9791893,4.74622571 14.5672283,3.78221703 C14.645425,3.68087413 14.7198682,3.57515222 14.7849279,3.46630244 C14.7974393,3.45003753 14.8080741,3.43377262 14.8205855,3.41938444 C14.9281842,3.24172158 15.0101343,3.05404955 15.0733172,2.87325882 C15.3273,2.18074902 15.3554508,1.40065894 15.101468,0.646217366 C15.0245225,0.414755192 14.9206773,0.200183502 14.8011928,7.10542736e-15 L14.1474685,7.10542736e-15 C14.1793728,0.0744432396 14.2100259,0.149512053 14.2356744,0.22708316 C14.5828676,1.25677705 14.4020769,2.33464009 13.8409375,3.1729085 L13.8453165,3.1729085 C13.8453165,3.1729085 13.777129,3.27049796 13.6864209,3.4250146 C13.5262741,3.67774627 13.3992827,3.95049629 13.3110768,4.23575778 C13.2466428,4.4259321 13.1947202,4.63174577 13.1728251,4.84006172 C13.1765785,4.838185 13.1797064,4.83568271 13.1828343,4.83505714 C13.1058887,5.47314205 13.2109851,6.14000334 13.5243974,6.75494203 Z" id="Path"></path>
        </g>
    </g>
</svg>