<?xml version="1.0" encoding="UTF-8"?>
<svg width="21px" height="21px" viewBox="0 0 21 21" version="1.1" xmlns="http://www.w3.org/2000/svg" xmlns:xlink="http://www.w3.org/1999/xlink">
    <title>Group 84 Copy@3x</title>
    <g id="Realogram-Design-Assets" stroke="none" stroke-width="1" fill="none" fill-rule="evenodd">
        <g id="14-Realogram-Design-Assets" transform="translate(-24, -135)">
            <g id="Group-84-Copy" transform="translate(24, 135)">
                <rect id="Rectangle" fill="#000000" x="0" y="0" width="21" height="21" rx="3.15"></rect>
                <g id="Group-83" transform="translate(2.8355, 2.625)" fill="#FFFFFF" stroke="#000000">
                    <g id="Group-82" transform="translate(0, 2.0939)" stroke-width="0.525">
                        <path d="M2.42996354,8.77680939 L4.46689768,13.3390365 C4.55135079,13.5281905 4.73913517,13.65 4.94628625,13.65 L10.8037138,13.65 C11.0108648,13.65 11.1986492,13.5281905 11.2831023,13.3390365 L13.3200365,8.77680939 C13.4382455,8.51205039 13.3194433,8.20159344 13.0546844,8.08338436 C12.987335,8.05331433 12.9144053,8.03777293 12.8406479,8.03777293 L2.9093521,8.03777293 C2.61940261,8.03777293 2.3843521,8.27282343 2.3843521,8.56277293 C2.3843521,8.63653029 2.39989351,8.70945998 2.42996354,8.77680939 Z" id="Path-6-Copy-4" transform="translate(7.875, 10.8439) rotate(-180) translate(-7.875, -10.8439)"></path>
                        <path d="M1.6058642,6.17820583 L3.95617283,10.7404329 C4.04619846,10.9151833 4.22630504,11.025 4.42288153,11.025 L11.3271185,11.025 C11.523695,11.025 11.7038015,10.9151833 11.7938272,10.7404329 L14.1441358,6.17820583 C14.2769232,5.92044973 14.1756161,5.60385164 13.91786,5.47106422 C13.8435035,5.43275821 13.7610706,5.41277293 13.6774271,5.41277293 L2.07257291,5.41277293 C1.78262341,5.41277293 1.54757291,5.64782343 1.54757291,5.93777293 C1.54757291,6.02141644 1.5675582,6.10384934 1.6058642,6.17820583 Z" id="Path-6-Copy-3" transform="translate(7.875, 8.2189) rotate(-180) translate(-7.875, -8.2189)"></path>
                        <path d="M1.04537341,3.56540118 L3.60934646,8.12762825 C3.70230574,8.29303614 3.87728149,8.39541485 4.0670213,8.39541485 L11.6829787,8.39541485 C11.8727185,8.39541485 12.0476943,8.29303614 12.1406535,8.12762825 L14.7046266,3.56540118 C14.8466816,3.31263434 14.756932,2.99256797 14.5041652,2.85051293 C14.4256244,2.806373 14.3370461,2.78318777 14.2469517,2.78318777 L1.50304826,2.78318777 C1.21309876,2.78318777 0.978048255,3.01823828 0.978048255,3.30818777 C0.978048255,3.39828208 1.00123348,3.48686042 1.04537341,3.56540118 Z" id="Path-6-Copy" transform="translate(7.875, 5.5893) rotate(-180) translate(-7.875, -5.5893)"></path>
                        <path d="M0.485859808,0.798017306 L3.26349728,5.36024438 C3.3587687,5.51672624 3.52872135,5.61222707 3.71192403,5.61222707 L12.038076,5.61222707 C12.2212786,5.61222707 12.3912313,5.51672624 12.4865027,5.36024438 L15.2641402,0.798017306 C15.4149235,0.55035805 15.33639,0.227356544 15.0887307,0.0765732493 C15.0064709,0.026490692 14.9120199,3.15375689e-16 14.8157134,3.33066907e-16 L0.934286558,-4.4408921e-16 C0.644337065,-3.90826352e-16 0.409286558,0.235050506 0.409286558,0.525 C0.409286558,0.621306505 0.43577725,0.715757471 0.485859808,0.798017306 Z" id="Path-6-Copy-2" transform="translate(7.875, 2.8061) rotate(-180) translate(-7.875, -2.8061)"></path>
                    </g>
                    <path d="M15.0105548,2.62234354 C15.0105548,2.75840352 14.9200745,2.85699771 14.7784531,2.90432293 C14.5542193,2.97728263 14.3201507,3.03841103 14.1116525,3.14489275 C13.3720743,3.52152256 12.90197,4.12097524 12.6895379,4.92550384 C12.6718353,4.99057601 12.6580665,5.06156382 12.6226612,5.11874845 C12.5597183,5.21734265 12.4633371,5.26663974 12.3433524,5.24494902 C12.2253346,5.2232583 12.1505899,5.15227048 12.1151846,5.03790122 C12.0660105,4.87620674 12.0286382,4.7105685 11.9637284,4.55676157 C11.5998402,3.70293587 10.964511,3.15869594 10.0675756,2.92206988 C10.0026658,2.90432293 9.93382211,2.88460409 9.87874713,2.84713829 C9.78236592,2.78206613 9.74696058,2.68150005 9.7725311,2.56713079 C9.79613466,2.46064907 9.86694535,2.38966125 9.97512834,2.35219546 C10.2052631,2.2733201 10.4452326,2.21613547 10.6596316,2.10768186 C11.4051108,1.73105205 11.879149,1.12568372 12.091581,0.315239471 C12.1092837,0.246223538 12.1289533,0.17523572 12.1682926,0.118051089 C12.2292685,0.0253725498 12.3256497,-0.0160370104 12.4377666,0.00565371163 C12.5479166,0.0273444336 12.6285621,0.0943884835 12.6620004,0.206785861 C12.7092076,0.360592799 12.7426459,0.518343505 12.8036218,0.666234791 C13.169477,1.54963874 13.818575,2.10768186 14.7469817,2.34036415 C14.9220415,2.3837456 15.0144888,2.48233979 15.0144888,2.62825919 L15.0105548,2.62234354 Z" id="Path" stroke-width="0.3" fill-rule="nonzero"></path>
                </g>
            </g>
        </g>
    </g>
</svg>