<?xml version="1.0" encoding="UTF-8"?>
<svg width="18px" height="18px" viewBox="0 0 18 18" version="1.1" xmlns="http://www.w3.org/2000/svg" xmlns:xlink="http://www.w3.org/1999/xlink">
    <title>􀌿</title>
    <g id="2.4-Notifications" stroke="none" stroke-width="1" fill="none" fill-rule="evenodd">
        <g id="Artboard" transform="translate(-138.000000, -105.000000)" fill="#D3D3D3" fill-rule="nonzero">
            <path d="M151.755765,122.333984 C152.361234,122.333984 152.924385,122.224935 153.445218,122.006836 C153.966052,121.788737 154.438057,121.448568 154.861234,120.986328 C155.102119,120.70638 155.295804,120.410156 155.442289,120.097656 C155.588773,119.785156 155.662015,119.472656 155.662015,119.160156 C155.662015,118.919271 155.613187,118.688151 155.515531,118.466797 C155.417874,118.245443 155.251859,118.056641 155.017484,117.900391 L152.175687,115.888672 C151.960843,115.725911 151.760648,115.608724 151.575101,115.537109 C151.389554,115.465495 151.20889,115.429688 151.033109,115.429688 C150.824775,115.429688 150.621325,115.486654 150.422757,115.600586 C150.22419,115.714518 150.020739,115.878906 149.812406,116.09375 L149.138578,116.738281 C149.047432,116.842448 148.930244,116.894531 148.787015,116.894531 C148.7154,116.894531 148.647041,116.88151 148.581937,116.855469 C148.516833,116.829427 148.461494,116.806641 148.415921,116.787109 C148.122953,116.630859 147.750231,116.360677 147.297757,115.976562 C146.845283,115.592448 146.387927,115.172526 145.925687,114.716797 C145.469958,114.254557 145.050036,113.797201 144.665921,113.344727 C144.281807,112.892253 144.01488,112.522786 143.86514,112.236328 C143.839098,112.184245 143.814684,112.125651 143.791898,112.060547 C143.769111,111.995443 143.757718,111.927083 143.757718,111.855469 C143.757718,111.71875 143.806546,111.604818 143.904203,111.513672 L144.558499,110.839844 C144.766833,110.625 144.927966,110.418294 145.041898,110.219727 C145.15583,110.021159 145.212796,109.814453 145.212796,109.599609 C145.212796,109.436849 145.175361,109.261068 145.100492,109.072266 C145.025622,108.883464 144.913317,108.678385 144.763578,108.457031 L142.761624,105.654297 C142.598864,105.426432 142.403552,105.258789 142.175687,105.151367 C141.947822,105.043945 141.703682,104.990234 141.443265,104.990234 C140.805244,104.990234 140.209541,105.257161 139.656156,105.791016 C139.200427,106.227214 138.868395,106.708984 138.660062,107.236328 C138.451729,107.763672 138.347562,108.323568 138.347562,108.916016 C138.347562,109.807943 138.555895,110.750326 138.972562,111.743164 C139.389229,112.736003 139.954007,113.725586 140.666898,114.711914 C141.379789,115.698242 142.188708,116.640625 143.093656,117.539062 C143.992093,118.44401 144.939359,119.25944 145.935453,119.985352 C146.931546,120.711263 147.92764,121.28418 148.923734,121.704102 C149.919828,122.124023 150.863838,122.333984 151.755765,122.333984 Z" id="􀌿"></path>
        </g>
    </g>
</svg>