<?xml version="1.0" encoding="UTF-8"?>
<svg width="17px" height="16px" viewBox="0 0 17 16" version="1.1" xmlns="http://www.w3.org/2000/svg" xmlns:xlink="http://www.w3.org/1999/xlink">
    <title>Shape</title>
    <g id="FS---10.5--Optimized-Visit-Indicator" stroke="none" stroke-width="1" fill="none" fill-rule="evenodd">
        <g id="03-Optimized-Visits-on-Employee-Cards---RNS" transform="translate(-37.000000, -249.000000)" fill="#000000" fill-rule="nonzero">
            <g id="Group-2-Copy-4" transform="translate(37.000000, 249.820312)">
                <g id="Group-3" transform="translate(0.882812, 0.000000)">
                    <path d="M2.55328084,15 L13.4467192,15 C15.1433071,15 16,14.1282051 16,12.4273504 L16,2.57264957 C16,0.871794872 15.1433071,0 13.4467192,0 L2.55328084,0 C0.865091864,0 0,0.871794872 0,2.57264957 L0,12.4273504 C0,14.1282051 0.865091864,15 2.55328084,15 Z M2.49448819,13.5470085 C1.80577428,13.5470085 1.42782152,13.1794872 1.42782152,12.4444444 L1.42782152,4.91452991 C1.42782152,4.17948718 1.80577428,3.82051282 2.49448819,3.82051282 L13.5055118,3.82051282 C14.1858268,3.82051282 14.5721785,4.17948718 14.5721785,4.91452991 L14.5721785,12.4444444 C14.5721785,13.1794872 14.1858268,13.5470085 13.5055118,13.5470085 L2.49448819,13.5470085 Z M6.4671916,6.66666667 L6.92913386,6.66666667 C7.21469816,6.66666667 7.30708661,6.58119658 7.30708661,6.2991453 L7.30708661,5.82051282 C7.30708661,5.53846154 7.21469816,5.44444444 6.92913386,5.44444444 L6.4671916,5.44444444 C6.1816273,5.44444444 6.08923885,5.53846154 6.08923885,5.82051282 L6.08923885,6.2991453 C6.08923885,6.58119658 6.1816273,6.66666667 6.4671916,6.66666667 Z M9.07926509,6.66666667 L9.5496063,6.66666667 C9.8351706,6.66666667 9.92755906,6.58119658 9.92755906,6.2991453 L9.92755906,5.82051282 C9.92755906,5.53846154 9.8351706,5.44444444 9.5496063,5.44444444 L9.07926509,5.44444444 C8.80209974,5.44444444 8.70971129,5.53846154 8.70971129,5.82051282 L8.70971129,6.2991453 C8.70971129,6.58119658 8.80209974,6.66666667 9.07926509,6.66666667 Z M11.6997375,6.66666667 L12.1700787,6.66666667 C12.4472441,6.66666667 12.5396325,6.58119658 12.5396325,6.2991453 L12.5396325,5.82051282 C12.5396325,5.53846154 12.4472441,5.44444444 12.1700787,5.44444444 L11.6997375,5.44444444 C11.4141732,5.44444444 11.3217848,5.53846154 11.3217848,5.82051282 L11.3217848,6.2991453 C11.3217848,6.58119658 11.4141732,6.66666667 11.6997375,6.66666667 Z M3.84671916,9.29059829 L4.31706037,9.29059829 C4.59422572,9.29059829 4.68661417,9.20512821 4.68661417,8.91452991 L4.68661417,8.44444444 C4.68661417,8.15384615 4.59422572,8.06837607 4.31706037,8.06837607 L3.84671916,8.06837607 C3.56115486,8.06837607 3.4687664,8.15384615 3.4687664,8.44444444 L3.4687664,8.91452991 C3.4687664,9.20512821 3.56115486,9.29059829 3.84671916,9.29059829 Z M6.4671916,9.29059829 L6.92913386,9.29059829 C7.21469816,9.29059829 7.30708661,9.20512821 7.30708661,8.91452991 L7.30708661,8.44444444 C7.30708661,8.15384615 7.21469816,8.06837607 6.92913386,8.06837607 L6.4671916,8.06837607 C6.1816273,8.06837607 6.08923885,8.15384615 6.08923885,8.44444444 L6.08923885,8.91452991 C6.08923885,9.20512821 6.1816273,9.29059829 6.4671916,9.29059829 Z M9.07926509,9.29059829 L9.5496063,9.29059829 C9.8351706,9.29059829 9.92755906,9.20512821 9.92755906,8.91452991 L9.92755906,8.44444444 C9.92755906,8.15384615 9.8351706,8.06837607 9.5496063,8.06837607 L9.07926509,8.06837607 C8.80209974,8.06837607 8.70971129,8.15384615 8.70971129,8.44444444 L8.70971129,8.91452991 C8.70971129,9.20512821 8.80209974,9.29059829 9.07926509,9.29059829 Z M11.6997375,9.29059829 L12.1700787,9.29059829 C12.4472441,9.29059829 12.5396325,9.20512821 12.5396325,8.91452991 L12.5396325,8.44444444 C12.5396325,8.15384615 12.4472441,8.06837607 12.1700787,8.06837607 L11.6997375,8.06837607 C11.4141732,8.06837607 11.3217848,8.15384615 11.3217848,8.44444444 L11.3217848,8.91452991 C11.3217848,9.20512821 11.4141732,9.29059829 11.6997375,9.29059829 Z M3.84671916,11.9145299 L4.31706037,11.9145299 C4.59422572,11.9145299 4.68661417,11.8290598 4.68661417,11.5384615 L4.68661417,11.0683761 C4.68661417,10.7777778 4.59422572,10.6923077 4.31706037,10.6923077 L3.84671916,10.6923077 C3.56115486,10.6923077 3.4687664,10.7777778 3.4687664,11.0683761 L3.4687664,11.5384615 C3.4687664,11.8290598 3.56115486,11.9145299 3.84671916,11.9145299 Z M6.4671916,11.9145299 L6.92913386,11.9145299 C7.21469816,11.9145299 7.30708661,11.8290598 7.30708661,11.5384615 L7.30708661,11.0683761 C7.30708661,10.7777778 7.21469816,10.6923077 6.92913386,10.6923077 L6.4671916,10.6923077 C6.1816273,10.6923077 6.08923885,10.7777778 6.08923885,11.0683761 L6.08923885,11.5384615 C6.08923885,11.8290598 6.1816273,11.9145299 6.4671916,11.9145299 Z M9.07926509,11.9145299 L9.5496063,11.9145299 C9.8351706,11.9145299 9.92755906,11.8290598 9.92755906,11.5384615 L9.92755906,11.0683761 C9.92755906,10.7777778 9.8351706,10.6923077 9.5496063,10.6923077 L9.07926509,10.6923077 C8.80209974,10.6923077 8.70971129,10.7777778 8.70971129,11.0683761 L8.70971129,11.5384615 C8.70971129,11.8290598 8.80209974,11.9145299 9.07926509,11.9145299 Z" id="Shape"></path>
                </g>
            </g>
        </g>
    </g>
</svg>