<?xml version="1.0" encoding="UTF-8"?>
<svg width="12px" height="11.5414424px" viewBox="0 0 12 11.5414424" version="1.1" xmlns="http://www.w3.org/2000/svg" xmlns:xlink="http://www.w3.org/1999/xlink">
    <title>icon-checkmark</title>
    <g id="Symbols" stroke="none" stroke-width="1" fill="none" fill-rule="evenodd">
        <g id="icon-checkmark" fill="#2DD36F" fill-rule="nonzero">
            <path d="M4.68891281,11.5414424 C5.14101184,11.5414424 5.49623251,11.3670614 5.7416577,11.0053821 L11.7545748,1.84068891 C11.9289559,1.57588805 12,1.32400431 12,1.09149623 C12,0.465016146 11.5220667,5.32907052e-15 10.876211,5.32907052e-15 C10.4370291,5.32907052e-15 10.1593111,0.16146394 9.88805167,0.581270183 L4.66307858,8.82238967 L2.01506997,5.5737352 C1.76964478,5.27664155 1.49838536,5.1474704 1.12378902,5.1474704 C0.471474704,5.1474704 0,5.61248654 0,6.24542519 C0,6.52960172 0.0839612487,6.77502691 0.329386437,7.05274489 L3.66200215,11.0570506 C3.93972013,11.386437 4.26264801,11.5414424 4.68891281,11.5414424 Z" id="􀆅"></path>
        </g>
    </g>
</svg>