<svg xmlns="http://www.w3.org/2000/svg" viewBox="0 0 68.7 87.11"><defs><style>.cls-1{fill:#fff;}</style></defs><g id="2" ><g id="1-2" ><g id="Symbols"><g id="Regular-S"><path class="cls-1" d="M12.45,87.11h43.8q6.26,0,9.35-3.08t3.1-9.23V37.26q0-6.16-3.1-9.23T56.25,25H45.75V32h10.4a5.67,5.67,0,0,1,4.08,1.39,5.56,5.56,0,0,1,1.44,4.18V74.46a5.56,5.56,0,0,1-1.44,4.18A5.62,5.62,0,0,1,56.15,80H12.55a5.62,5.62,0,0,1-4.08-1.39A5.56,5.56,0,0,1,7,74.46V37.6a5.56,5.56,0,0,1,1.44-4.18A5.67,5.67,0,0,1,12.55,32H23V25H12.45Q6.26,25,3.12,28T0,37.26V74.8Q0,81,3.12,84T12.45,87.11Z"/><path class="cls-1" d="M34.33,56.84a3.45,3.45,0,0,0,2.46-1,3.2,3.2,0,0,0,1.05-2.41V15.33l-.29-5.86,2.05,2.25L45,17.53a3,3,0,0,0,2.34,1,3.26,3.26,0,0,0,2.3-.85,2.81,2.81,0,0,0,.93-2.17,3.12,3.12,0,0,0-1.08-2.3L36.87,1.17A3.81,3.81,0,0,0,35.62.24,3.52,3.52,0,0,0,34.33,0a3.39,3.39,0,0,0-1.25.24,4.14,4.14,0,0,0-1.29.93L19.19,13.23a3.21,3.21,0,0,0-1,2.3A2.92,2.92,0,0,0,19,17.7a3.16,3.16,0,0,0,2.3.85,3.09,3.09,0,0,0,2.39-1l5.37-5.81,2-2.25-.29,5.86V53.42a3.2,3.2,0,0,0,1.05,2.41A3.39,3.39,0,0,0,34.33,56.84Z"/></g></g></g></g></svg>
