<?xml version="1.0" encoding="UTF-8"?>
<svg width="22px" height="22px" viewBox="0 0 22 22" version="1.1" xmlns="http://www.w3.org/2000/svg" xmlns:xlink="http://www.w3.org/1999/xlink">
    <title>icon-chat</title>
    <g id="Symbols" stroke="none" stroke-width="1" fill="none" fill-rule="evenodd">
        <g id="icon-chat" fill="currentColor" fill-rule="nonzero">
            <g transform="translate(0.353516, 0.583984)" id="􀌪">
                <path d="M6.25976562,20.46875 C6.96289062,20.46875 7.54882813,20.1855469 8.40820312,19.4335938 L11.4941406,16.7480469 L16.1035156,16.7480469 C18.9453125,16.7480469 20.7421875,14.9316406 20.7421875,12.0996094 L20.7421875,4.6484375 C20.7421875,1.81640625 18.9453125,0 16.1035156,0 L4.6484375,0 C1.796875,0 0,1.81640625 0,4.6484375 L0,12.0996094 C0,14.9414062 1.953125,16.7480469 4.4140625,16.7480469 L4.609375,16.7480469 L4.609375,18.6523438 C4.609375,19.7851562 5.234375,20.46875 6.25976562,20.46875 Z M6.92382812,17.4121094 L6.92382812,14.9023438 C6.92382812,14.2285156 6.57226562,13.9746094 5.99609375,13.9746094 L4.85351562,13.9746094 C3.4765625,13.9746094 2.7734375,13.28125 2.7734375,11.8945312 L2.7734375,4.85351562 C2.7734375,3.46679688 3.4765625,2.7734375 4.85351562,2.7734375 L15.8984375,2.7734375 C17.2753906,2.7734375 17.9785156,3.46679688 17.9785156,4.85351562 L17.9785156,11.8945312 C17.9785156,13.28125 17.2753906,13.9746094 15.8984375,13.9746094 L11.2695312,13.9746094 C10.5859375,13.9746094 10.2929688,14.1210938 9.78515625,14.6191406 L6.92382812,17.4121094 Z"></path>
            </g>
        </g>
    </g>
</svg>