<?xml version="1.0" encoding="UTF-8"?>
<svg width="28px" height="26px" viewBox="0 0 28 26" version="1.1" xmlns="http://www.w3.org/2000/svg" xmlns:xlink="http://www.w3.org/1999/xlink">
    <title>leads icon</title>
    <g id="Symbols" stroke="none" stroke-width="1" fill="none" fill-rule="evenodd">
        <g id="nav-bar_final---copilot" transform="translate(-114.000000, -13.000000)" fill="#565656" fill-rule="nonzero">
            <path d="M135.90918,38.6835938 C136.161458,38.4964193 136.314046,38.2441406 136.366943,37.9267578 C136.41984,37.609375 136.368978,37.230957 136.214355,36.7915039 L133.663086,29.1987305 L140.181641,24.5112305 C140.564128,24.2426758 140.828613,23.9659831 140.975098,23.6811523 C141.121582,23.3963216 141.145996,23.1033529 141.04834,22.8022461 C140.950684,22.5092773 140.75944,22.2895508 140.474609,22.1430664 C140.189779,21.996582 139.811361,21.9274089 139.339355,21.9355469 L131.34375,21.984375 L128.914551,14.3549805 C128.768066,13.9073893 128.582926,13.5696615 128.359131,13.3417969 C128.135335,13.1139323 127.864746,13 127.547363,13 C127.238118,13 126.971598,13.1139323 126.747803,13.3417969 C126.524007,13.5696615 126.338867,13.9073893 126.192383,14.3549805 L123.763184,21.984375 L115.767578,21.9355469 C115.295573,21.9274089 114.917155,21.996582 114.632324,22.1430664 C114.347493,22.2895508 114.15625,22.5092773 114.058594,22.8022461 C113.960938,23.1033529 113.985352,23.3963216 114.131836,23.6811523 C114.27832,23.9659831 114.542806,24.2426758 114.925293,24.5112305 L121.443848,29.1987305 L118.892578,36.7915039 C118.737956,37.230957 118.687093,37.609375 118.73999,37.9267578 C118.792887,38.2441406 118.945475,38.4964193 119.197754,38.6835938 C119.450033,38.8789062 119.734863,38.9460449 120.052246,38.8850098 C120.369629,38.8239746 120.715495,38.6591797 121.089844,38.390625 L127.547363,33.6420898 L134.01709,38.390625 C134.391439,38.6591797 134.737305,38.8239746 135.054688,38.8850098 C135.37207,38.9460449 135.656901,38.8789062 135.90918,38.6835938 Z M120.955566,36.2666016 C120.93929,36.2503255 120.93929,36.2137044 120.955566,36.1567383 L123.384766,29.1743164 C123.441732,29.019694 123.46818,28.8732096 123.464111,28.7348633 C123.460042,28.5965169 123.421387,28.4683431 123.348145,28.3503418 C123.274902,28.2323405 123.169108,28.1245117 123.030762,28.0268555 L116.95166,23.8276367 C116.894694,23.7950846 116.874349,23.7625326 116.890625,23.7299805 C116.898763,23.7055664 116.935384,23.6933594 117.000488,23.6933594 L124.385742,23.8276367 C124.638021,23.8357747 124.84554,23.7849121 125.008301,23.6750488 C125.171061,23.5651855 125.289062,23.3841146 125.362305,23.1318359 L127.486328,16.0639648 C127.502604,15.9988607 127.522949,15.9663086 127.547363,15.9663086 C127.579915,15.9663086 127.604329,15.9988607 127.620605,16.0639648 L129.744629,23.1318359 C129.817871,23.3841146 129.935872,23.5651855 130.098633,23.6750488 C130.261393,23.7849121 130.468913,23.8357747 130.721191,23.8276367 L138.106445,23.6933594 C138.171549,23.6933594 138.208171,23.7055664 138.216309,23.7299805 C138.232585,23.7625326 138.21224,23.7950846 138.155273,23.8276367 L132.076172,28.0268555 C131.937826,28.1245117 131.832031,28.2323405 131.758789,28.3503418 C131.685547,28.4683431 131.646891,28.5965169 131.642822,28.7348633 C131.638753,28.8732096 131.665202,29.019694 131.722168,29.1743164 L134.151367,36.1567383 C134.159505,36.2137044 134.159505,36.2503255 134.151367,36.2666016 C134.135091,36.2910156 134.09847,36.2828776 134.041504,36.2421875 L128.169922,31.762207 C127.974609,31.6075846 127.769124,31.5302734 127.553467,31.5302734 C127.337809,31.5302734 127.132324,31.6075846 126.937012,31.762207 L121.06543,36.2421875 C121.008464,36.2828776 120.971842,36.2910156 120.955566,36.2666016 Z" id="leads-icon"></path>
        </g>
    </g>
</svg>