<?xml version="1.0" encoding="UTF-8"?>
<svg width="20px" height="20px" viewBox="0 0 20 20" version="1.1" xmlns="http://www.w3.org/2000/svg" xmlns:xlink="http://www.w3.org/1999/xlink">
    <title>icon-delivery-route</title>
    <g id="11.2-Route-Operation-Center-Development-Overview" stroke="none" stroke-width="1" fill="none" fill-rule="evenodd">
        <g id="03-PSR-My-Route" transform="translate(-371, -487)">
            <g id="Group-47" transform="translate(22, 352)">
                <g id="Group-9" transform="translate(1, 125)">
                    <g id="icon-delivery-route" transform="translate(348, 10)">
                        <g id="task-copy-6" fill="#000000">
                            <rect id="Rectangle" x="0" y="0" width="20" height="20" rx="4"></rect>
                        </g>
                        <g id="local_shipping-24px-copy" transform="translate(4, 4)">
                            <path d="M7.9,0 L11.7,0 L11.7,0 L11.7,10.4 L1.3,10.4 L1.3,6.6 C1.3,2.95492065 4.25492065,4.46393476e-16 7.9,0 Z" id="Path"></path>
                            <g id="van" transform="translate(0, 2.1667)" fill="#FFFFFF" fill-rule="nonzero">
                                <path d="M10.6166538,5.2 C9.78035338,5.2 9.1,5.880408 9.1,6.71674391 C9.1,7.55292533 9.78037913,8.23333333 10.6166538,8.23333333 C11.4530829,8.23333333 12.1333333,7.55292533 12.1333333,6.71674391 C12.1333333,5.880408 11.4529542,5.2 10.6166538,5.2 Z M10.6166538,7.38268172 C10.2492501,7.38268172 9.95046103,7.08387998 9.95046103,6.71658942 C9.95046103,6.34917013 10.2492501,6.05036839 10.6166538,6.05036839 C10.9840575,6.05036839 11.2828466,6.34932462 11.2828466,6.71658942 C11.2828723,7.08385423 10.9840575,7.38268172 10.6166538,7.38268172 Z" id="Shape"></path>
                                <path d="M8.66528922,0 L0.434710777,0 C0.194614403,0 0,0.189536307 0,0.423393451 L0,6.94329885 C0,7.17713036 0.194614403,7.36666667 0.434710777,7.36666667 L1.79682736,7.36666667 L1.79682736,6.51993103 L0.869421555,6.51993103 L0.869421555,0.846761268 L8.23057845,0.846761268 L8.23057845,6.94329885 L9.1,6.94329885 L9.1,0.423393451 C9.1,0.189536307 8.90541192,0 8.66528922,0 Z" id="Path"></path>
                                <rect id="Rectangle" x="3.9" y="6.5" width="5.63333333" height="1"></rect>
                                <path d="M2.81666667,5.2 C1.98037335,5.2 1.3,5.880408 1.3,6.71674391 C1.3,7.55292533 1.98037335,8.23333333 2.81666667,8.23333333 C3.65295998,8.23333333 4.33333333,7.55292533 4.33333333,6.71674391 C4.33333333,5.880408 3.65295998,5.2 2.81666667,5.2 Z M2.81666667,7.38268172 C2.44926609,7.38268172 2.15047956,7.08387998 2.15047956,6.71658942 C2.15047956,6.34917013 2.44926609,6.05036839 2.81666667,6.05036839 C3.18406725,6.05036839 3.48285377,6.34932462 3.48285377,6.71658942 C3.48285377,7.08385423 3.18391277,7.38268172 2.81666667,7.38268172 Z" id="Shape"></path>
                                <path d="M12.5693054,3.46666667 L8.23333333,3.46666667 L8.23333333,4.32380724 L12.1385586,4.32380724 L12.1385586,6.50952609 L11.5211906,6.50952609 L11.5211906,7.36666667 L12.5692793,7.36666667 C12.8071719,7.36666667 13,7.17495697 13,6.93809638 L13,3.89523695 C13,3.65853205 12.807198,3.46666667 12.5693054,3.46666667 Z" id="Path"></path>
                                <path d="M11.4093018,1.51903064 C11.3300965,1.38400228 11.1785661,1.3 11.0141214,1.3 L8.23333333,1.3 L8.23333333,2.14570663 L10.7474552,2.14570663 L11.7763331,3.9 L12.5666667,3.49235466 L11.4093018,1.51903064 Z" id="Path"></path>
                            </g>
                        </g>
                    </g>
                </g>
            </g>
        </g>
    </g>
</svg>