<?xml version="1.0" encoding="UTF-8"?>
<svg width="24px" height="14.4618399px" viewBox="0 0 24 14.4618399" version="1.1" xmlns="http://www.w3.org/2000/svg" xmlns:xlink="http://www.w3.org/1999/xlink">
    <title>icon-lunch SVG</title>
    <g id="Symbols" stroke="none" stroke-width="1" fill="none" fill-rule="evenodd">
        <g id="icon-lunch-SVG" fill="#000000" fill-rule="nonzero">
            <path d="M22.906794,13.0329171 C22.350935,8.74915049 19.3414914,5.23738248 15.3268986,3.96606141 L15.3268986,0.974629448 L15.3268986,0.475306969 L15.3268986,-1.95399252e-14 L14.8510913,-1.95399252e-14 L14.5954262,-1.95399252e-14 L9.32552273,-1.95399252e-14 L9.14840835,-1.95399252e-14 L8.6736017,-1.95399252e-14 L8.6736017,0.475306969 L8.6736017,1.09270571 L8.6736017,3.96556109 C4.65850862,5.23688215 1.64956534,8.74865017 1.09270571,13.0324168 L0,13.0324168 L0,14.4618399 L0.989138819,14.4618399 L1.65606954,14.4618399 L2.36852968,14.4618399 L21.6314703,14.4618399 L22.1933332,14.4618399 L23.0108612,14.4618399 L24,14.4618399 L24,13.0324168 L22.906794,13.0324168 L22.906794,13.0329171 Z M9.62371532,1.82317747 L9.62371532,1.42542058 L9.62371532,0.950113615 L10.0990223,0.950113615 L10.3817049,0.950113615 L13.460193,0.950113615 L13.9004774,0.950113615 L14.376785,0.950113615 L14.376785,1.42542058 L14.376785,2.04031771 L14.376785,3.71589985 C13.61029,3.54729096 12.8162772,3.45172924 11.9997498,3.45172924 C11.1832225,3.45172924 10.38971,3.54729096 9.62321499,3.71589985 L9.62321499,1.82317747 L9.62371532,1.82317747 Z M17.4912965,11.7570931 C16.6347433,9.15441222 14.5779149,7.09758386 11.973733,6.24003002 C11.9827389,6.24003002 11.9912443,6.23852905 11.9997498,6.23852905 C15.6741229,6.23852905 18.8056453,8.52900832 20.0654589,11.7570931 L17.4912965,11.7570931 Z" id="Shape"></path>
        </g>
    </g>
</svg>