<?xml version="1.0" encoding="UTF-8"?>
<svg width="31px" height="26px" viewBox="0 0 31 26" version="1.1" xmlns="http://www.w3.org/2000/svg" xmlns:xlink="http://www.w3.org/1999/xlink">
    <title>mail star</title>
    <g id="2.4-Notifications" stroke="none" stroke-width="1" fill="none" fill-rule="evenodd">
        <g id="Artboard" transform="translate(-43.000000, -55.000000)">
            <g id="mail-star" transform="translate(43.471191, 57.000000)">
                <path d="M19.0825195,23.7636719 C20.1010742,23.7636719 20.895752,23.4731445 21.4665527,22.8920898 C22.0373535,22.3110352 22.3227539,21.4702148 22.3227539,20.3696289 L22.3227539,9.64404297 C22.3227539,8.55029297 22.0288086,7.71289062 21.440918,7.13183594 C20.8530273,6.55078125 20.012207,6.26025391 18.918457,6.26025391 L3.24023437,6.26025391 C2.22167969,6.26025391 1.42700195,6.55078125 0.856201172,7.13183594 C0.285400391,7.71289062 -7.10542736e-15,8.55029297 -7.10542736e-15,9.64404297 L-7.10542736e-15,20.3696289 C-7.10542736e-15,21.4702148 0.292236328,22.3110352 0.876708984,22.8920898 C1.46118164,23.4731445 2.30371094,23.7636719 3.40429687,23.7636719 L19.0825195,23.7636719 Z M11.1665039,15.652832 C11.0024414,15.652832 10.8417969,15.6118164 10.6845703,15.5297852 C10.5273437,15.4477539 10.3530273,15.3110352 10.1616211,15.1196289 L3.52780859,8.568 L18.8138086,8.568 L12.1713867,15.1196289 C11.9799805,15.3110352 11.8056641,15.4477539 11.6484375,15.5297852 C11.4912109,15.6118164 11.3305664,15.652832 11.1665039,15.652832 Z M2.26580859,19.74 L2.26580859,10.13 L7.12580859,14.913 L2.26580859,19.74 Z M20.0558086,19.719 L15.2118086,14.908 L20.0558086,10.141 L20.0558086,19.719 Z M18.8261719,21.456543 L3.49658203,21.456543 L3.36980859,21.452 L8.54280859,16.307 L8.93115234,16.6884766 C9.30029297,17.0439453 9.66772461,17.3054199 10.0334473,17.4729004 C10.3991699,17.6403809 10.7768555,17.7241211 11.1665039,17.7241211 C11.5561523,17.7241211 11.9355469,17.6403809 12.3046875,17.4729004 C12.6738281,17.3054199 13.0395508,17.0439453 13.4018555,16.6884766 L13.7898086,16.307 L18.9528086,21.452 L18.8261719,21.456543 L18.8261719,21.456543 Z" id="ô€•" fill="#00A2D9" fill-rule="nonzero"></path>
                <polygon id="Star-Copy-3" stroke="#FFFFFF" fill="#FFC409" points="22.0288086 11.25 17.6204192 13.5676275 18.4623467 8.65881373 14.8958847 5.18237254 19.8246139 4.46618627 22.0288086 0 24.2330033 4.46618627 29.1617325 5.18237254 25.5952705 8.65881373 26.437198 13.5676275"></polygon>
            </g>
        </g>
    </g>
</svg>