<?xml version="1.0" encoding="UTF-8"?>
<svg width="19px" height="24px" viewBox="0 0 19 24" version="1.1" xmlns="http://www.w3.org/2000/svg" xmlns:xlink="http://www.w3.org/1999/xlink">
    <title>Group 15 Copy</title>
    <g id="12.4-Post-CDA-Reset-Visit-&amp;-Exports" stroke="none" stroke-width="1" fill="none" fill-rule="evenodd">
        <g id="10-PSR---Post-CDA-Reset-Visit" transform="translate(-37, -631)">
            <g id="accordian_2-copy-4" transform="translate(0, 448)">
                <g id="Group-15" transform="translate(22, 80)">
                    <g id="Group-9" transform="translate(4, 63)">
                        <g id="Group-11" transform="translate(0, 32)">
                            <g id="Group-15-Copy" transform="translate(11, 8)">
                                <path d="M17.1803542,0 C18.1636042,0 18.9798125,0.8148 19,1.816 L19,22.828 C19,23.4744 18.4794792,24 17.8402083,24 L1.15979167,24 C0.520125,24 0,23.4744 0,22.8284 L0,1.8244 C0,0.8184 0.809875,0 1.80539583,0 Z M17.8402083,23.2 C18.0432708,23.2 18.2083333,23.0332 18.2083333,22.828 L18.2083333,1.8244 C18.19725,1.2632 17.7361042,0.8 17.1803542,0.8 L1.80539583,0.8 C1.24608333,0.8 0.791666667,1.2592 0.791666667,1.8244 L0.791666667,22.828 C0.791666667,23.0332 0.956729167,23.2 1.15979167,23.2 Z" id="Combined-Shape" fill="#FFFFFF" fill-rule="nonzero"></path>
                                <line x1="7.46428571" y1="11.3333333" x2="7.46428571" y2="12.6666667" id="Line-6-Copy-4" stroke="#FFFFFF" stroke-width="1.33333333" stroke-linecap="square"></line>
                                <line x1="11.5357143" y1="11.3333333" x2="11.5357143" y2="12.6666667" id="Line-6-Copy-5" stroke="#FFFFFF" stroke-width="1.33333333" stroke-linecap="square"></line>
                                <rect id="Rectangle-Copy-12" stroke="#FFFFFF" stroke-width="1.33333333" x="1.35714286" y="2.66666667" width="8.14285714" height="18.6666667"></rect>
                                <rect id="Rectangle-Copy-14" stroke="#FFFFFF" stroke-width="1.33333333" x="9.5" y="2.66666667" width="8.14285714" height="18.6666667"></rect>
                            </g>
                        </g>
                    </g>
                </g>
            </g>
        </g>
    </g>
</svg>