<svg xmlns="http://www.w3.org/2000/svg" viewBox="0 0 200 200"><defs><style>.a{fill:#fff;}.b{fill:#00a2d9;}</style></defs><path class="a" d="M100,0A100,100,0,1,0,200,100,100,100,0,0,0,100,0Zm0,186.5A86.5,86.5,0,1,1,186.5,100,86.49,86.49,0,0,1,100,186.5Z"/><path class="b" d="M100,13.5A86.5,86.5,0,1,0,186.5,100,86.49,86.49,0,0,0,100,13.5Zm45.55,125.05-40.84-10.21a19.5,19.5,0,0,0-9.42,0L54.45,138.55A3.1,3.1,0,0,1,50.91,134l45.44-78.7a4.21,4.21,0,0,1,7.3,0L149.09,134A3.1,3.1,0,0,1,145.55,138.55Z"/><path class="a" d="M103.65,55.32a4.21,4.21,0,0,0-7.3,0L50.91,134a3.1,3.1,0,0,0,3.54,4.53l40.84-10.21a19.5,19.5,0,0,1,9.42,0l40.84,10.21a3.1,3.1,0,0,0,3.54-4.53Z"/></svg>