<?xml version="1.0" standalone="no"?><!DOCTYPE svg PUBLIC "-//W3C//DTD SVG 1.1//EN" "http://www.w3.org/Graphics/SVG/1.1/DTD/svg11.dtd"><svg t="1622531605231" class="icon" viewBox="0 0 1024 1024" version="1.1" xmlns="http://www.w3.org/2000/svg" p-id="3041" width="20" height="20" xmlns:xlink="http://www.w3.org/1999/xlink"><defs><style type="text/css"></style></defs><path d="M128 725.333333h170.666667v170.666667a42.624 42.624 0 0 0 72.832 30.165333L572.330667 725.333333H896a42.666667 42.666667 0 0 0 42.666667-42.666666V213.333333a42.666667 42.666667 0 0 0-42.666667-42.666666H128a42.666667 42.666667 0 0 0-42.666667 42.666666v469.333334a42.666667 42.666667 0 0 0 42.666667 42.666666zM170.666667 256h682.666666v384h-298.666666a42.496 42.496 0 0 0-30.165334 12.501333L384 793.002667V682.666667a42.666667 42.666667 0 0 0-42.666667-42.666667H170.666667V256z" fill="#00A2D9" p-id="3042"></path></svg>