<?xml version="1.0" encoding="UTF-8"?>
<svg width="15px" height="15px" viewBox="0 0 15 15" version="1.1" xmlns="http://www.w3.org/2000/svg" xmlns:xlink="http://www.w3.org/1999/xlink">
    <title>􀄔 copy@3x</title>
    <g id="12.1-Space-Review-Updated-Headers" stroke="none" stroke-width="1" fill="none" fill-rule="evenodd">
        <g id="04-Space-Review---No-Form" transform="translate(-282.000000, -359.000000)" fill="#FFFFFF" fill-rule="nonzero">
            <g id="Group-3" transform="translate(22.000000, 217.000000)">
                <g id="Group-2" transform="translate(0.000000, 126.000000)">
                    <g id="Group" transform="translate(110.000000, 16.000000)">
                        <path d="M161.869003,14.7822266 C163.465961,14.7822266 164.256836,13.991352 164.256836,12.4248121 L164.256836,3.13964101 C164.256836,1.57310109 163.465961,0.782226562 161.869003,0.782226562 L152.644669,0.782226562 C151.055315,0.782226562 150.256836,1.56549652 150.256836,3.13964101 L150.256836,12.4248121 C150.256836,13.9989566 151.055315,14.7822266 152.644669,14.7822266 L161.869003,14.7822266 Z M161.853794,13.557892 L152.659878,13.557892 C151.899421,13.557892 151.481171,13.1548501 151.481171,12.3639756 L151.481171,3.20047751 C151.481171,2.40960299 151.899421,2.00656116 152.659878,2.00656116 L161.853794,2.00656116 C162.606646,2.00656116 163.032501,2.40960299 163.032501,3.20047751 L163.032501,12.3639756 C163.032501,13.1548501 162.606646,13.557892 161.853794,13.557892 Z M154.88041,10.7061809 C155.06292,10.7061809 155.199802,10.6377399 155.306266,10.531276 L158.112349,7.7327969 L159.207406,6.56169424 L159.093338,7.74800603 L159.093338,9.06359538 C159.093338,9.4286144 159.31387,9.65675128 159.648471,9.65675128 C159.983072,9.65675128 160.203604,9.40580071 160.203604,9.04838626 L160.203604,5.46663721 C160.203604,5.01036344 159.960258,4.8354585 159.572425,4.8354585 L155.960258,4.8354585 C155.610448,4.8354585 155.382311,5.05599082 155.382311,5.39059158 C155.382311,5.72519234 155.618053,5.95332922 155.975467,5.95332922 L157.367102,5.95332922 L158.484973,5.83165622 L157.306266,6.93431782 L154.500182,9.7327969 C154.393718,9.83926078 154.317672,9.99135204 154.317672,10.1434433 C154.317672,10.4856486 154.538205,10.7061809 154.88041,10.7061809 Z" id="􀄔-copy"></path>
                    </g>
                </g>
            </g>
        </g>
    </g>
</svg>