<?xml version="1.0" encoding="UTF-8"?>
<svg width="24px" height="24px" viewBox="0 0 24 24" version="1.1" xmlns="http://www.w3.org/2000/svg" xmlns:xlink="http://www.w3.org/1999/xlink">
    <title>local_shipping-24px</title>
    <g id="SS---14.3-Reflect-Deliveries-for-Today-on-Customer-Card" stroke="none" stroke-width="1" fill="none" fill-rule="evenodd">
        <g id="02-Reflect-Deliveries-for-Today-on-Customer-Card" transform="translate(-75, -291)">
            <g id="Group-10" transform="translate(60, 104)">
                <g id="Group-9" transform="translate(1, 179)">
                    <g id="local_shipping-24px" transform="translate(14, 8)">
                        <polygon id="Path" points="0 0 24 0 24 24 0 24"></polygon>
                        <g id="van" transform="translate(0, 4)" fill="#565656" fill-rule="nonzero">
                            <path d="M19.5999762,10 C18.056037,10 16.8,11.2561378 16.8,12.8001426 C16.8,14.3438622 18.0560845,15.6 19.5999762,15.6 C21.1441531,15.6 22.4,14.3438622 22.4,12.8001426 C22.4,11.2561378 21.1439155,10 19.5999762,10 Z M19.5999762,14.0295663 C18.9216925,14.0295663 18.3700819,13.4779323 18.3700819,12.7998574 C18.3700819,12.1215449 18.9216925,11.5699109 19.5999762,11.5699109 C20.27826,11.5699109 20.8298706,12.1218301 20.8298706,12.7998574 C20.8299181,13.4778847 20.27826,14.0295663 19.5999762,14.0295663 Z" id="Shape"></path>
                            <path d="M15.6165652,0 L0.783434807,0 C0.35073365,0 0,0.349913181 0,0.781649448 L0,12.8183979 C0,13.2500868 0.35073365,13.6 0.783434807,13.6 L3.23823831,13.6 L3.23823831,12.0367958 L1.56686961,12.0367958 L1.56686961,1.56325157 L14.8331304,1.56325157 L14.8331304,12.8183979 L16.4,12.8183979 L16.4,0.781649448 C16.4,0.349913181 16.0493138,0 15.6165652,0 Z" id="Path"></path>
                            <rect id="Rectangle" x="7.2" y="12" width="10.4" height="1.6"></rect>
                            <path d="M5.2,10 C3.65607388,10 2.4,11.2561378 2.4,12.8001426 C2.4,14.3438622 3.65607388,15.6 5.2,15.6 C6.74392612,15.6 8,14.3438622 8,12.8001426 C8,11.2561378 6.74392612,10 5.2,10 Z M5.2,14.0295663 C4.52172201,14.0295663 3.97011611,13.4779323 3.97011611,12.7998574 C3.97011611,12.1215449 4.52172201,11.5699109 5.2,11.5699109 C5.87827799,11.5699109 6.42988389,12.1218301 6.42988389,12.7998574 C6.42988389,13.4778847 5.8779928,14.0295663 5.2,14.0295663 Z" id="Shape"></path>
                            <path d="M23.2410137,6.4 L15.6,6.4 L15.6,7.98241337 L22.4819355,7.98241337 L22.4819355,12.0175866 L21.3939861,12.0175866 L21.3939861,13.6 L23.2409677,13.6 C23.6601911,13.6 24,13.2460744 24,12.8087933 L24,7.19120669 C24,6.75421302 23.660237,6.4 23.2410137,6.4 Z" id="Path"></path>
                            <path d="M20.7701602,3.20436427 C20.6312461,2.95508114 20.3654851,2.8 20.0770745,2.8 L15.2,2.8 L15.2,4.36130455 L19.6093829,4.36130455 L21.4138765,7.6 L22.8,6.84742398 L20.7701602,3.20436427 Z" id="Path"></path>
                        </g>
                    </g>
                </g>
            </g>
        </g>
    </g>
</svg>
