<?xml version="1.0" encoding="UTF-8"?>
<svg width="18px" height="18px" viewBox="0 0 18 18" version="1.1" xmlns="http://www.w3.org/2000/svg" xmlns:xlink="http://www.w3.org/1999/xlink">
    <title>􀌿</title>
    <g id="Lead-Management--1.4" stroke="none" stroke-width="1" fill="none" fill-rule="evenodd">
        <path d="M13.7557651,17.3339844 C14.3612338,17.3339844 14.9243849,17.2249349 15.4452182,17.0068359 C15.9660515,16.788737 16.4380567,16.4485677 16.8612338,15.9863281 C17.1021192,15.7063802 17.2958041,15.4101562 17.4422885,15.0976562 C17.5887729,14.7851562 17.6620151,14.4726562 17.6620151,14.1601562 C17.6620151,13.9192708 17.6131869,13.688151 17.5155307,13.4667969 C17.4178744,13.2454427 17.2518588,13.0566406 17.0174838,12.9003906 L14.1756869,10.8886719 C13.9608432,10.7259115 13.7606479,10.608724 13.575101,10.5371094 C13.3895541,10.4654948 13.2088901,10.4296875 13.0331088,10.4296875 C12.8247755,10.4296875 12.621325,10.4866536 12.4227573,10.6005859 C12.2241895,10.7145182 12.020739,10.8789062 11.8124057,11.09375 L11.1385776,11.7382812 C11.0474317,11.8424479 10.9302442,11.8945312 10.7870151,11.8945312 C10.7154005,11.8945312 10.6470411,11.8815104 10.5819369,11.8554688 C10.5168328,11.8294271 10.4614942,11.8066406 10.4159213,11.7871094 C10.1229526,11.6308594 9.75023121,11.3606771 9.29775725,10.9765625 C8.8452833,10.5924479 8.38792653,10.172526 7.92568694,9.71679688 C7.46995778,9.25455729 7.0500359,8.79720052 6.66592132,8.34472656 C6.28180673,7.8922526 6.01487965,7.52278646 5.86514007,7.23632812 C5.8390984,7.18424479 5.81468434,7.12565104 5.79189788,7.06054688 C5.76911142,6.99544271 5.75771819,6.92708333 5.75771819,6.85546875 C5.75771819,6.71875 5.80654632,6.60481771 5.90420257,6.51367188 L6.55849944,5.83984375 C6.76683278,5.625 6.92796559,5.41829427 7.04189788,5.21972656 C7.15583017,5.02115885 7.21279632,4.81445312 7.21279632,4.59960938 C7.21279632,4.43684896 7.17536142,4.26106771 7.10049163,4.07226562 C7.02562184,3.88346354 6.91331715,3.67838542 6.76357757,3.45703125 L4.76162444,0.654296875 C4.59886403,0.426432292 4.40355153,0.258789062 4.17568694,0.151367188 C3.94782236,0.0439453125 3.70368173,-0.009765625 3.44326507,-0.009765625 C2.80524423,-0.009765625 2.20954111,0.257161458 1.65615569,0.791015625 C1.20042653,1.22721354 0.868395275,1.70898438 0.660061942,2.23632812 C0.451728609,2.76367188 0.347561942,3.32356771 0.347561942,3.91601562 C0.347561942,4.80794271 0.555895275,5.75032552 0.972561942,6.74316406 C1.38922861,7.7360026 1.95400725,8.72558594 2.66689788,9.71191406 C3.3797885,10.6982422 4.18870778,11.640625 5.09365569,12.5390625 C5.99209319,13.4440104 6.93935882,14.2594401 7.93545257,14.9853516 C8.93154632,15.711263 9.92764007,16.2841797 10.9237338,16.7041016 C11.9198276,17.1240234 12.863838,17.3339844 13.7557651,17.3339844 Z" id="􀌿" fill="#000000" fill-rule="nonzero"></path>
    </g>
</svg>