<?xml version="1.0" encoding="UTF-8"?>
<svg width="40px" height="40px" viewBox="0 0 40 40" version="1.1" xmlns="http://www.w3.org/2000/svg" xmlns:xlink="http://www.w3.org/1999/xlink">
    <title>Group 8</title>
    <g id="12.5-Uploading-Food-Service-and-Retail-Contracts-from-Savvy---FINAL" stroke="none" stroke-width="1" fill="none" fill-rule="evenodd">
        <g id="16" transform="translate(-22, -599)">
            <g id="Group-4" transform="translate(0, 576)">
                <g id="Group-8" transform="translate(22, 23)">
                    <rect id="Rectangle" fill="#3C49B6" x="0" y="0" width="40" height="40" rx="8"></rect>
                    <path d="M29,9 L11,9 C9.9,9 9,9.9 9,11 L9,29 C9,30.1 9.9,31 11,31 L29,31 C30.1,31 31,30.1 31,29 L31,11 C31,9.9 30.1,9 29,9 Z M13,14 C13,13.7 13.2,13.5 13.5,13.5 L18.5,13.5 C18.8,13.5 19,13.7 19,14 L19,19 C19,19.3 18.8,19.5 18.5,19.5 L13.5,19.5 C13.2,19.5 13,19.3 13,19 L13,14 Z M25,27 C25,27.3 24.8,27.5 24.5,27.5 L13.5,27.5 C13.2,27.5 13,27.3 13,27 L13,26 C13,25.7 13.2,25.5 13.5,25.5 L24.5,25.5 C24.8,25.5 25,25.7 25,26 L25,27 Z M27,23 C27,23.3 26.8,23.5 26.5,23.5 L13.5,23.5 C13.2,23.5 13,23.3 13,23 L13,22 C13,21.7 13.2,21.5 13.5,21.5 L26.5,21.5 C26.8,21.5 27,21.7 27,22 L27,23 Z M27,19 C27,19.3 26.8,19.5 26.5,19.5 L21.5,19.5 C21.2,19.5 21,19.3 21,19 L21,18 C21,17.7 21.2,17.5 21.5,17.5 L26.5,17.5 C26.8,17.5 27,17.7 27,18 L27,19 Z M27,15 C27,15.3 26.8,15.5 26.5,15.5 L21.5,15.5 C21.2,15.5 21,15.3 21,15 L21,14 C21,13.7 21.2,13.5 21.5,13.5 L26.5,13.5 C26.8,13.5 27,13.7 27,14 L27,15 Z" id="Shape" fill="#FFFFFF" fill-rule="nonzero"></path>
                </g>
            </g>
        </g>
    </g>
</svg>