<svg
    xmlns="http://www.w3.org/2000/svg"
    xmlns:xlink="http://www.w3.org/1999/xlink"
    width="21px"
    height="21px"
    viewBox="0 0 21 21"
    version="1.1"
>
    <g id="surface1">
        <path
            style=" stroke:none;fill-rule:evenodd;fill:rgb(0%,63.529412%,85.098039%);fill-opacity:1;"
            d="M 2.394531 0 L 18.605469 0 C 19.929688 0 21 1.070312 21 2.394531 L 21 18.605469 C 21 19.929688 19.929688 21 18.605469 21 L 2.394531 21 C 1.070312 21 0 19.929688 0 18.605469 L 0 2.394531 C 0 1.070312 1.070312 0 2.394531 0 Z M 2.394531 0 "
        />
        <path
            style=" stroke:none;fill-rule:evenodd;fill:rgb(71.372549%,92.941176%,100%);fill-opacity:1;"
            d="M 14.796875 15.917969 L 13.25 12.453125 C 13.1875 12.308594 13.042969 12.214844 12.886719 12.214844 L 8.433594 12.214844 C 8.277344 12.214844 8.132812 12.308594 8.070312 12.453125 L 6.523438 15.917969 C 6.433594 16.121094 6.523438 16.355469 6.722656 16.445312 C 6.773438 16.46875 6.828125 16.480469 6.886719 16.480469 L 14.433594 16.480469 C 14.652344 16.480469 14.832031 16.300781 14.832031 16.082031 C 14.832031 16.023438 14.820312 15.96875 14.796875 15.917969 Z M 14.796875 15.917969 "
        />
        <path
            style=" stroke:none;fill-rule:evenodd;fill:rgb(82.745098%,95.294118%,99.607843%);fill-opacity:1;"
            d="M 15.425781 13.902344 L 13.636719 10.4375 C 13.570312 10.304688 13.433594 10.21875 13.285156 10.21875 L 8.035156 10.21875 C 7.886719 10.21875 7.75 10.304688 7.683594 10.4375 L 5.894531 13.902344 C 5.792969 14.097656 5.871094 14.339844 6.066406 14.441406 C 6.125 14.46875 6.1875 14.484375 6.25 14.484375 L 15.070312 14.484375 C 15.289062 14.484375 15.46875 14.308594 15.46875 14.085938 C 15.46875 14.023438 15.453125 13.960938 15.425781 13.902344 Z M 15.425781 13.902344 "
        />
        <path
            style=" stroke:none;fill-rule:evenodd;fill:rgb(92.941176%,98.823529%,100%);fill-opacity:1;"
            d="M 15.851562 11.890625 L 13.902344 8.425781 C 13.832031 8.300781 13.699219 8.222656 13.554688 8.222656 L 7.765625 8.222656 C 7.621094 8.222656 7.488281 8.300781 7.417969 8.425781 L 5.46875 11.890625 C 5.363281 12.085938 5.429688 12.328125 5.621094 12.4375 C 5.679688 12.46875 5.75 12.488281 5.816406 12.488281 L 15.503906 12.488281 C 15.722656 12.488281 15.902344 12.308594 15.902344 12.085938 C 15.902344 12.019531 15.882812 11.953125 15.851562 11.890625 Z M 15.851562 11.890625 "
        />
        <path
            style=" stroke:none;fill-rule:evenodd;fill:rgb(100%,100%,100%);fill-opacity:1;"
            d="M 16.277344 9.765625 L 14.164062 6.296875 C 14.09375 6.179688 13.964844 6.105469 13.824219 6.105469 L 7.496094 6.105469 C 7.355469 6.105469 7.226562 6.179688 7.15625 6.296875 L 5.042969 9.765625 C 4.929688 9.953125 4.988281 10.199219 5.175781 10.3125 C 5.238281 10.351562 5.3125 10.371094 5.386719 10.371094 L 15.933594 10.371094 C 16.15625 10.371094 16.332031 10.191406 16.332031 9.972656 C 16.332031 9.898438 16.3125 9.828125 16.277344 9.765625 Z M 16.277344 9.765625 "
        />
        <path
            style="fill-rule:nonzero;fill:rgb(100%,100%,100%);fill-opacity:1;stroke-width:0.651429;stroke-linecap:butt;stroke-linejoin:miter;stroke:rgb(0%,63.529412%,85.098039%);stroke-opacity:1;stroke-miterlimit:4;"
            d="M 32.591561 5.69375 C 32.591561 5.995089 32.401829 6.207143 32.089329 6.307589 C 31.598257 6.463839 31.096025 6.597768 30.638436 6.832143 C 29.031293 7.646875 28.015668 8.952679 27.558079 10.69375 C 27.513436 10.838839 27.491114 10.995089 27.412989 11.117857 C 27.2679 11.329911 27.067007 11.441518 26.79915 11.385714 C 26.542454 11.341071 26.386204 11.184821 26.308079 10.939286 C 26.196471 10.593304 26.118346 10.225 25.973257 9.890179 C 25.192007 8.0375 23.808079 6.854464 21.866114 6.341071 C 21.721025 6.307589 21.575936 6.262946 21.453168 6.184821 C 21.241114 6.039732 21.162989 5.827679 21.218793 5.570982 C 21.274596 5.347768 21.430846 5.191518 21.665221 5.102232 C 22.156293 4.934821 22.680846 4.812054 23.149596 4.577679 C 24.7679 3.762946 25.794686 2.445982 26.252275 0.682589 C 26.296918 0.5375 26.341561 0.38125 26.419686 0.258482 C 26.553614 0.0575893 26.765668 -0.0316964 27.011204 0.0129464 C 27.245579 0.0575893 27.42415 0.202679 27.491114 0.448214 C 27.591561 0.783036 27.669686 1.129018 27.803614 1.441518 C 28.596025 3.361161 30.002275 4.577679 32.022364 5.079911 C 32.401829 5.180357 32.602721 5.392411 32.602721 5.704911 Z M 32.591561 5.69375 "
            transform="matrix(0.35,0,0,0.35,4.674985,4.515)"
        />
    </g>
</svg>