<?xml version="1.0" encoding="UTF-8"?>
<svg width="16px" height="16px" viewBox="0 0 16 16" version="1.1" xmlns="http://www.w3.org/2000/svg" xmlns:xlink="http://www.w3.org/1999/xlink">
    <title>􀐫</title>
    <g id="Muscle-Merch----Sprint-1.4" stroke="none" stroke-width="1" fill="none" fill-rule="evenodd">
        <g id="Muscle-Merch_VD_SPIKE---Schedule-Overview-Page-04-@2x" transform="translate(-180.000000, -297.000000)" fill="#000000" fill-rule="nonzero">
            <g id="Group-2-Copy" transform="translate(154.000000, 282.000000)">
                <g id="Group-5" transform="translate(26.000000, 15.000000)">
                    <path d="M8,16 C9.09739369,16 10.1289438,15.7901235 11.0946502,15.3703704 C12.0603567,14.9506173 12.9108368,14.3731139 13.6460905,13.6378601 C14.3813443,12.9026063 14.957476,12.0534979 15.3744856,11.090535 C15.7914952,10.127572 16,9.09739369 16,8 C16,6.90260631 15.7914952,5.87242798 15.3744856,4.90946502 C14.957476,3.94650206 14.3799726,3.09602195 13.6419753,2.35802469 C12.9039781,1.62002743 12.0521262,1.04252401 11.0864198,0.625514403 C10.1207133,0.208504801 9.08916324,0 7.99176955,0 C6.90534979,0 5.87928669,0.208504801 4.91358025,0.625514403 C3.9478738,1.04252401 3.09602195,1.62002743 2.35802469,2.35802469 C1.62002743,3.09602195 1.04252401,3.94650206 0.625514403,4.90946502 C0.208504801,5.87242798 0,6.90260631 0,8 C0,9.09739369 0.209876543,10.127572 0.62962963,11.090535 C1.04938272,12.0534979 1.62688615,12.9026063 2.36213992,13.6378601 C3.09739369,14.3731139 3.9478738,14.9506173 4.91358025,15.3703704 C5.87928669,15.7901235 6.90809328,16 8,16 Z M8,14.526749 C7.10013717,14.526749 6.25514403,14.3580247 5.46502058,14.0205761 C4.67489712,13.6831276 3.98216735,13.2167353 3.38683128,12.6213992 C2.7914952,12.0260631 2.32647462,11.3333333 1.99176955,10.5432099 C1.65706447,9.75308642 1.48971193,8.90534979 1.48971193,8 C1.48971193,7.10013717 1.65706447,6.25514403 1.99176955,5.46502058 C2.32647462,4.67489712 2.7914952,3.98079561 3.38683128,3.38271605 C3.98216735,2.78463649 4.67352538,2.31687243 5.46090535,1.97942387 C6.24828532,1.64197531 7.09190672,1.47325103 7.99176955,1.47325103 C8.90260631,1.47325103 9.75171468,1.64197531 10.5390947,1.97942387 C11.3264746,2.31687243 12.0192044,2.78463649 12.617284,3.38271605 C13.2153635,3.98079561 13.6831276,4.67489712 14.0205761,5.46502058 C14.3580247,6.25514403 14.526749,7.10013717 14.526749,8 C14.5322359,8.90534979 14.3648834,9.75308642 14.0246914,10.5432099 C13.6844993,11.3333333 13.218107,12.0260631 12.6255144,12.6213992 C12.0329218,13.2167353 11.3415638,13.6831276 10.5514403,14.0205761 C9.76131687,14.3580247 8.91083676,14.526749 8,14.526749 Z M7.99176955,8.91358025 C8.16186557,8.91358025 8.30315501,8.85733882 8.41563786,8.74485597 C8.52812071,8.63237311 8.58436214,8.49382716 8.58436214,8.32921811 L8.58436214,3.16049383 C8.58436214,3.00137174 8.52812071,2.86556927 8.41563786,2.75308642 C8.30315501,2.64060357 8.16186557,2.58436214 7.99176955,2.58436214 C7.83264746,2.58436214 7.69684499,2.64060357 7.58436214,2.75308642 C7.47187929,2.86556927 7.41563786,3.00137174 7.41563786,3.16049383 L7.41563786,7.74485597 L4.00823045,7.74485597 C3.8436214,7.74485597 3.70507545,7.80109739 3.59259259,7.91358025 C3.48010974,8.0260631 3.42386831,8.16460905 3.42386831,8.32921811 C3.42386831,8.49382716 3.48010974,8.63237311 3.59259259,8.74485597 C3.70507545,8.85733882 3.8436214,8.91358025 4.00823045,8.91358025 L7.99176955,8.91358025 Z" id="􀐫"></path>
                </g>
            </g>
        </g>
    </g>
</svg>