<?xml version="1.0" encoding="UTF-8"?>
<svg width="149px" height="28px" viewBox="0 0 149 28" version="1.1" xmlns="http://www.w3.org/2000/svg" xmlns:xlink="http://www.w3.org/1999/xlink">
    <title>The_logo_for_Postmates</title>
    <g id="3.5-Web-/-Social-Media-/-Customer-Equipment" stroke="none" stroke-width="1" fill="none" fill-rule="evenodd">
        <g id="The_logo_for_Postmates" fill="#000000" fill-rule="nonzero">
            <path d="M38.2147663,10.8125238 C37.3586871,9.484561 35.9242726,8.638329 34.3457917,8.53002454 C32.7673108,8.42172008 31.2303529,9.064077 30.200232,10.2626218 L28.4170043,8.91534856 C28.8653121,8.73288553 29.7970011,8.32295307 29.8596195,8.07049582 C29.8971995,7.92052168 29.4188154,7.82054207 28.6900012,7.77054754 L32.038564,4.71857617 C32.0617911,4.69663308 32.0679025,4.662109 32.0536149,4.63355146 L31.1995668,3.02882345 C31.1900538,3.01151326 31.1731722,2.99945742 31.1536855,2.99605778 C31.1341989,2.99265814 31.1142203,2.99828336 31.0993874,3.01134615 L27.6180765,6.18330627 C26.5761827,6.18330627 24.72283,6.32078178 24.1893558,5.98584111 C23.3403237,5.45093177 23.2401358,4.66356518 22.937092,4.3811131 C22.6340386,4.09866102 22.2683764,4.06617213 22.1857298,3.82621351 C22.1834053,3.81958905 22.1839786,3.81229441 22.1873097,3.8061127 C22.1906407,3.79993099 22.1964226,3.79543189 22.2032419,3.79371517 C22.3685368,3.75375356 23.2826949,3.4962704 23.4905772,2.85887795 C23.6984502,2.2214855 23.2751789,1.35913656 23.2025464,1.22415511 C23.1954454,1.21448143 23.1954454,1.20133045 23.2025464,1.19165678 L24.1592824,0.344300528 C24.1676872,0.33643012 24.1702949,0.324170189 24.1658187,0.313570853 C24.1613425,0.302971516 24.1507285,0.29627309 24.1392146,0.296781163 L22.7116218,0.471752566 C22.7035958,0.475096269 22.694563,0.475096269 22.6865369,0.471752566 C22.6113771,0.371763509 22.0428683,-0.308112957 20.8807679,0.166806724 C19.5182916,0.726703879 19.7662435,1.88650704 19.7662435,1.88650704 C19.9465704,3.09879878 20.3673332,3.33875741 21.0560873,3.73368773 C21.0735994,3.73368773 21.0810775,3.76618606 21.0560873,3.77865635 C20.6127766,4.14859886 16.1647128,7.79296572 12.0522559,9.21522126 C12.0208437,9.22685785 12,9.25676846 12,9.29020833 C12,9.3236482 12.0208437,9.35355881 12.0522559,9.3651954 C13.2444203,9.88010504 16.810889,9.6151586 17.865295,8.99275883 C17.874751,8.98765648 17.8863171,8.98850922 17.8949193,8.99494295 C17.9035214,9.00137669 17.9075884,9.01221626 17.905336,9.02270642 C17.7901256,9.46013021 17.1689964,12.0221892 18.1557869,12.8345531 L18.2108789,12.8770654 L16.8959976,13.8119026 C16.7699813,13.8996957 16.7198172,14.0616964 16.7742309,14.2051385 C16.8286445,14.3485806 16.9737307,14.4368085 17.126409,14.4193003 L17.8051387,14.3468403 C18.2462534,14.3013419 18.6587309,14.1074115 18.9747645,13.7969288 L19.2001684,13.5744759 L21.1236555,15.004223 L20.8732046,17.0338762 C18.603197,16.9118393 16.5367771,18.3344805 15.8449109,20.49564 C15.1530447,22.6567995 16.0101494,25.011656 17.9305345,26.2257968 C19.8509197,27.4399376 22.3504623,27.2072817 24.0127614,25.6596668 C25.6750604,24.112052 26.0810556,21.6396269 25.000684,19.6434262 L25.5015962,19.3309793 C25.9011813,19.6821925 26.4841393,19.7306522 26.9364376,19.4502536 C27.3887359,19.1698551 27.6035454,18.6268261 27.4651508,18.11369 L29.4963332,17.518791 C29.6634908,17.4702386 29.7649933,17.3014104 29.7292626,17.1313617 L29.7142117,17.0639088 C29.677833,16.9147054 29.5424514,16.8107736 29.3886217,16.8139551 L27.6604936,16.8139551 C27.6504668,16.8145179 27.6412763,16.8083928 27.6379551,16.798934 L27.1170063,15.6266322 L28.1363588,9.56267946 L29.796862,10.797465 C28.4619733,12.8834137 28.8630995,15.6309934 30.7388936,17.2500653 C32.6146878,18.8691372 35.3968013,18.8691372 37.2725955,17.2500653 C39.1483896,15.6309934 39.5495158,12.8834137 38.2146271,10.797465 L38.2147663,10.8125238 Z M24.3721714,7.22813713 L26.7264371,7.18817552 L27.034498,7.76807237 C26.4910078,7.78810042 25.9199726,7.8305183 25.3714853,7.90055032 C24.9707526,7.94806968 24.4923893,7.44063277 24.3496329,7.27816 C24.333024,7.27149479 24.3246757,7.25290955 24.3307401,7.23610016 C24.3368046,7.21929078 24.3551079,7.21028265 24.3721619,7.21571408 L24.3721714,7.22813713 Z M20.8132187,10.7450331 C21.0110766,10.4175935 22.1506385,8.51791473 22.2934044,7.87052715 C22.2955679,7.86036226 22.3032887,7.85228313 22.3133601,7.84964541 C22.3234314,7.84700768 22.3341323,7.85026206 22.3410183,7.85805686 C23.0923804,8.742909 24.7078066,9.25282108 24.830533,9.29031697 L24.8455839,9.29031697 L26.9093293,8.65542802 L27.3701625,8.99786032 L25.2137537,10.9750249 C24.979919,10.7676788 24.6860971,10.6398806 24.3747272,10.6100894 C23.1224633,10.4501107 21.1914603,10.7300687 20.8383224,10.7850608 C20.8237958,10.791934 20.8064358,10.7857729 20.7995189,10.7712893 C20.792602,10.7568057 20.7987395,10.7394675 20.8132376,10.7325344 L20.8132187,10.7450331 Z M26.145386,17.2289134 C26.0060563,17.2448879 25.870511,17.2846273 25.7446617,17.3463987 L24.2694844,16.2240914 C24.2623834,16.2144177 24.2623834,16.2012668 24.2694844,16.1915931 L25.0208465,14.6643604 C25.0257813,14.6559038 25.0348479,14.6507023 25.0446535,14.6507023 C25.0544591,14.6507023 25.0635257,14.6559038 25.0684604,14.6643604 L26.2831633,16.5540345 L26.145386,17.2289134 Z M23.0172111,15.5617017 L22.0153981,14.811831 L23.9489001,13.0396421 L23.0172111,15.5617017 Z M23.0172111,12.9621563 L21.4493704,14.3994045 L19.8740137,13.2296062 C20.9307182,13.2333793 21.9857552,13.1455653 23.0272355,12.9671538 L23.0172111,12.9621563 Z M21.7323842,15.4492235 L22.7667602,16.2190939 L22.6565572,16.5615356 C22.5689332,16.8016985 22.691989,17.0674162 22.9320551,17.1564251 L25.0909705,17.9412977 L25.1560964,17.988817 C25.0648446,18.2332353 25.0543298,18.5003774 25.1260893,18.7511864 L24.637711,19.0611298 C23.8915483,18.0380882 22.7827632,17.3373119 21.5370916,17.1014708 L21.7323842,15.4492235 Z M21.4042934,18.1287583 C22.3454924,18.3223613 23.1840264,18.850958 23.7635657,19.616001 L21.0085681,21.3657056 L21.4042934,18.1287583 Z M22.7291897,25.3375215 C21.2925887,26.2515521 19.4314972,26.1474078 18.1062821,25.0788297 C16.781067,24.0102516 16.2880594,22.2161841 16.8816627,20.6224082 C17.4752661,19.0286322 19.0227448,17.9915317 20.7255637,18.0462749 L20.2246525,22.0005946 C20.2116927,22.1256304 20.2699725,22.2473815 20.3755771,22.3158882 C20.4811817,22.3843948 20.6163295,22.3881219 20.7255637,22.3255401 L24.091666,20.1859028 C25.0367921,21.9962347 24.4479053,24.2269644 22.7316982,25.3375215 L22.7291897,25.3375215 Z M25.6745302,12.389751 C25.6745302,12.389751 25.6745302,12.389751 25.6745302,12.37473 C25.6971967,12.0925624 25.6631367,11.8087192 25.5743507,11.5398724 L27.3976584,9.86765364 L26.6087258,14.4968617 L25.6745302,12.389751 Z M36.1309909,16.8114893 C34.5734844,17.8100779 32.5307199,17.599222 31.2109625,16.3036399 C29.8912051,15.0080578 29.6462543,12.9731047 30.6209948,11.4024252 L33.7616931,13.7395183 C33.8737056,13.8220978 34.0251806,13.8270597 34.1423779,13.7519886 C34.1781135,13.73139 34.208903,13.7032411 34.2325887,13.6695146 C34.3426764,13.5216671 34.3124818,13.3128478 34.1650016,13.202096 L31.0192967,10.8624994 C31.2651623,10.5815862 31.550263,10.3374554 31.8658288,10.1376165 C33.0609183,9.34162211 34.5939919,9.25320737 35.8729979,9.90651685 C37.1520039,10.5598263 37.9767603,11.8526082 38.0287579,13.2856081 C38.0807555,14.718608 37.3518557,16.067542 36.1235497,16.8114705 L36.1309909,16.8114893 Z" id="path8208"></path>
            <path d="M26.051972,5.92975154 L27.1460311,5.9995846 C27.1965302,6.00316696 27.2461002,5.98345613 27.2827887,5.94520479 L29.9849407,3.16335468 C29.9989284,3.14847873 30.0036702,3.12598478 29.9970571,3.10587808 C29.990444,3.08577138 29.9737045,3.07178738 29.9542844,3.07014612 L28.8932263,3.00031305 C28.8156439,2.99652054 28.7399602,3.02731552 28.683381,3.08569718 L26.0189532,5.82872832 C26.0020037,5.84400614 25.9956412,5.86933231 26.0030619,5.8919844 C26.0104825,5.91463648 26.0300824,5.92971835 26.0520157,5.92965373 L26.051972,5.92975154 Z" id="path8210"></path>
            <polygon id="polygon8212" points="9.74123756 25.8791304 12 26.0252174 10.2527045 24.4756522 10.9874513 22.3182609 9.08697534 23.4791304 7.27996538 22 7.85374297 24.2695652 6 25.5113043 8.25616616 25.7513043 8.91821722 28"></polygon>
            <polygon id="polygon8214" points="11.7402597 17.8808177 14 18.0269682 12.2519481 16.476729 12.9896104 14.3183993 11.0857143 15.4797738 9.28051948 14 9.85194805 16.2705524 8 17.5128317 10.2571429 17.7529361 10.9168831 20"></polygon>
            <polygon id="polygon8216" points="2.91821722 22 3.74123756 19.8791304 6 20.0252174 4.25270446 18.4756522 4.9900476 16.3182609 3.08697534 17.4791304 1.28256166 16 1.85374297 18.2695652 0 19.5113043 2.25616616 19.7513043"></polygon>
            <path d="M51,22 L51,6 L57.4311616,6 C60.2032148,6 62,8.11177597 62,10.8623111 C62,13.6545474 60.1981667,15.7220111 57.4311616,15.7220111 L53.4595708,15.7220111 L53.4595708,22 L51,22 Z M53.4570458,8.16652338 L53.4570458,13.5945873 L57.3253139,13.5945873 C58.5550997,13.5945873 59.5429601,12.2910156 59.5429601,10.8701252 C59.5429601,9.44923473 58.5550997,8.16652338 57.3253139,8.16652338 L53.4570458,8.16652338 Z" id="path8218"></path>
            <path d="M74,18.3735524 C74.834005,18.2138374 75.6440891,18.0541125 76.4541812,17.9153379 C76.6162058,18.8291542 77.1713181,19.9236359 79.0438239,19.9236359 C79.4608274,19.9236359 81.5219059,19.763911 81.5219059,18.3054763 C81.5219059,15.5430968 74.3505973,18.3945422 74.3505973,13.4457725 C74.3505973,11.4819976 76.3399723,10 78.839308,10 C81.3386427,10 83.4687896,11.0263957 83.8140745,13.6054973 C82.9827307,13.7416495 82.1726366,13.9013743 81.3625435,14.0610992 C81.2005309,12.6236049 80.3001308,12.0999369 78.9083623,12.0999369 C77.6812778,12.0999369 76.849932,12.7388167 76.849932,13.4457725 C76.849932,14.3805391 77.7290805,14.6319029 79.1181897,14.768055 C81.7556462,15.0429817 84,15.6111728 84,18.3054763 C84,20.7222405 81.8486024,22 79.0464851,22 C76.0398389,22 74.3266965,20.4499264 74,18.3735524" id="path8220"></path>
            <path d="M85,11.8567967 L85,10.1064891 L87.0290641,10.1064891 L87.0290641,7 L89.5506649,7 L89.5506649,10.1138354 L92,10.1138354 L92,11.8567967 L89.5506649,11.8567967 L89.5506649,17.9767624 C89.5506649,18.8311033 89.8317332,19.0856967 90.6481769,19.0856967 C90.9961721,19.0856967 91.7671092,19.0440617 91.7671092,19.0440617 L91.7671092,20.9143244 C91.7671092,20.9143244 90.8650116,21 89.9709359,21 C87.7544916,21 87.026382,19.9106434 87.026382,17.8421055 L87.026382,11.8567782 L85,11.8567967 Z" id="path8222"></path>
            <path d="M99.7988424,14.985333 C99.7988424,13.3447416 99.4189931,11.9608808 97.6069917,11.9608808 C95.8848183,11.9608808 95.4151439,13.3447416 95.4151439,14.985333 L95.4151439,21 L93,21 L93,10.2127161 L95.2021128,10.2127161 L95.4254079,11.3838609 C95.7616229,10.7872872 97.1039372,10 98.4231567,10 C100.299326,10 101.195054,10.9780008 101.574913,11.6185796 C102.178057,10.660151 103.653832,10 104.973051,10 C108.052937,10 109,11.7897302 109,14.985333 L109,21 L106.597689,21 L106.597689,14.985333 C106.597689,13.3667442 106.128004,11.9388782 104.405838,11.9388782 C102.593837,11.9388782 102.213987,13.3227391 102.213987,14.985333 L102.213987,21 L99.7988424,21 L99.7988424,14.985333 Z" id="path8224"></path>
            <path d="M112.76651,14.1972513 C112.004385,14.0610992 111.196538,13.8778115 110.39884,13.7416495 C110.652888,11.1861206 112.685213,10 115.024943,10 C118.190302,10 119.828868,11.5972093 119.828868,14.7444921 L119.828868,18.7610782 C119.828868,19.4444711 119.960966,19.831987 120.425865,19.831987 C120.620513,19.8299378 120.813867,19.7990762 121,19.7403481 L121,21.7486362 C120.538938,21.8774849 120.062646,21.9391794 119.584988,21.9319239 C118.618261,21.9960689 117.767731,21.2794504 117.636484,20.2902015 C116.766466,21.3564132 115.489885,21.9803708 114.138334,22 C111.549655,22 110,20.5180024 110,18.3342842 C110,16.5328369 111.615704,14.8911243 114.572748,14.8911243 L117.451039,14.8911243 L117.451039,14.1972513 C117.451039,13.3070078 117.095378,12.1025495 115.037646,12.1025495 C113.665822,12.1025495 112.824945,12.8095152 112.779213,14.1972513 M117.451039,17.300021 L117.451039,16.7292173 L114.803925,16.7292173 C112.832559,16.7292173 112.436254,17.7556229 112.436254,18.3264266 C112.436254,19.1119385 112.944341,19.9236359 114.405075,19.9236359 C116.35358,19.9236359 117.438336,18.5542275 117.438336,17.3052561" id="path8226"></path>
            <path d="M68.000082,22 C65.5731066,22 63.3851572,20.5378815 62.4566399,18.2955464 C61.5281226,16.0532114 62.0419306,13.4723377 63.7584363,11.7565818 C65.4749421,10.0408259 68.0560398,9.52814582 70.2979686,10.457643 C72.5398974,11.3871403 74.0010573,13.5757287 74,16.0027041 C73.9971116,19.314746 71.3121246,21.9985602 68.000082,22 M68.000082,12.2871053 C66.4972608,12.2871053 65.1424164,13.1923809 64.567311,14.5808065 C63.9922056,15.9692322 64.3100965,17.5673797 65.3727516,18.6300349 C66.4354066,19.69269 68.033554,20.010581 69.4219795,19.4354755 C70.810405,18.8603701 71.7156805,17.5055255 71.7156805,16.0027041 C71.7142355,13.9512344 70.0515516,12.2885503 68.000082,12.2871053" id="path8228"></path>
            <path d="M135.883622,17.7565503 C136.588259,17.9607338 137.295354,18.188485 138,18.4188482 C137.508958,20.0837696 136.035843,22 133.089612,22 C130.143381,22 128,19.5575941 128,16 C128,12.4424059 129.964148,10 132.984039,10 C136.003922,10 137.860047,12.1439815 137.860047,15.6361265 C137.8661,16.0014295 137.852157,16.3667979 137.818289,16.730369 L130.386429,16.730369 C130.428186,18.4188482 131.518273,19.9240895 133.087134,19.9240895 C134.221438,19.9240895 135.333638,19.3534007 135.890963,17.7565503 M135.39993,14.8769658 C135.336087,13.1675409 134.567618,12.0706864 132.984021,12.0706864 C131.442154,12.0706864 130.565652,13.4397955 130.501819,14.8769658 L135.39993,14.8769658 Z" id="path8230"></path>
            <path d="M139,18.3735524 C139.833996,18.2138374 140.64144,18.0541125 141.451534,17.9179604 C141.613546,18.8291542 142.171321,19.9262485 144.043828,19.9262485 C144.460821,19.9262485 146.521914,19.7665335 146.521914,18.3054763 C146.521914,15.5457094 139.350598,18.3971153 139.350598,13.4457725 C139.350598,11.48462 141.339975,10 143.839312,10 C146.33865,10 148.466138,11.0290182 148.814085,13.6054973 C147.980079,13.7416495 147.169985,13.9013743 146.362552,14.0610992 C146.200539,12.6236049 145.300138,12.0999369 143.908368,12.0999369 C142.681281,12.0999369 141.849935,12.7388167 141.849935,13.4457725 C141.849935,14.3805391 142.729085,14.6319029 144.115544,14.768055 C146.755643,15.0429817 149,15.6137854 149,18.3054763 C149,20.7248531 146.84595,22 144.046479,22 C141.039841,22 139.326696,20.4499264 139,18.3735524" id="path8232"></path>
            <path d="M121,11.8567967 L121,10.1064891 L123.026737,10.1064891 L123.026737,7 L125.542781,7 L125.542781,10.1138354 L128,10.1138354 L128,11.8567967 L125.553473,11.8567967 L125.553473,17.9767624 C125.553473,18.8311033 125.834219,19.0856967 126.649728,19.0856967 C126.997323,19.0856967 127.767377,19.0440617 127.767377,19.0440617 L127.767377,20.9143244 C127.767377,20.9143244 126.866303,21 125.973263,21 C123.759359,21 123.032083,19.9106434 123.032083,17.8421055 L123.032083,11.8567782 L121,11.8567967 Z" id="path8234"></path>
        </g>
    </g>
</svg>