<?xml version="1.0" encoding="UTF-8"?>
<svg width="16px" height="13px" viewBox="0 0 16 13" version="1.1" xmlns="http://www.w3.org/2000/svg" xmlns:xlink="http://www.w3.org/1999/xlink">
    <title>icon-camera-black</title>
    <g id="Symbols" stroke="none" stroke-width="1" fill="none" fill-rule="evenodd">
        <g id="icon-camera-black" fill="#000000" fill-rule="nonzero">
            <path d="M13.9179688,13.0361328 C15.3466797,13.0361328 16.0644531,12.3251953 16.0644531,10.9169922 L16.0644531,3.75976562 C16.0644531,2.3515625 15.3466797,1.64746094 13.9179688,1.64746094 L12.3251953,1.64746094 C11.7919922,1.64746094 11.6210938,1.53808594 11.3203125,1.19628906 L10.7666016,0.581054688 C10.4248047,0.205078125 10.0761719,0 9.37207031,0 L6.64453125,0 C5.94042969,0 5.59179688,0.205078125 5.25,0.581054688 L4.703125,1.19628906 C4.40234375,1.53125 4.23144531,1.64746094 3.69824219,1.64746094 L2.14648438,1.64746094 C0.717773438,1.64746094 0,2.3515625 0,3.75976562 L0,10.9169922 C0,12.3251953 0.717773438,13.0361328 2.14648438,13.0361328 L13.9179688,13.0361328 Z M13.9042969,11.9355469 L2.16015625,11.9355469 C1.49023438,11.9355469 1.10058594,11.5732422 1.10058594,10.8623047 L1.10058594,3.82128906 C1.10058594,3.11035156 1.49023438,2.74804688 2.16015625,2.74804688 L3.97167969,2.74804688 C4.58691406,2.74804688 4.91503906,2.63183594 5.25683594,2.24902344 L5.79003906,1.64746094 C6.18652344,1.20996094 6.38476562,1.10058594 6.98632812,1.10058594 L9.03027344,1.10058594 C9.63867188,1.10058594 9.83691406,1.20996094 10.2265625,1.64746094 L10.7666016,2.24902344 C11.1015625,2.63183594 11.4365234,2.74804688 12.0517578,2.74804688 L13.9042969,2.74804688 C14.5810547,2.74804688 14.9638672,3.11035156 14.9638672,3.82128906 L14.9638672,10.8623047 C14.9638672,11.5732422 14.5810547,11.9355469 13.9042969,11.9355469 Z M8.03222656,10.8486328 C10.1035156,10.8486328 11.7646484,9.1875 11.7646484,7.109375 C11.7646484,5.03125 10.1035156,3.37011719 8.03222656,3.37011719 C5.96777344,3.37011719 4.30664062,5.03125 4.30664062,7.109375 C4.30664062,9.1875 5.96777344,10.8486328 8.03222656,10.8486328 Z M12.9472656,5.44140625 C13.4121094,5.44140625 13.7949219,5.06542969 13.7949219,4.60058594 C13.7949219,4.12890625 13.4121094,3.75292969 12.9472656,3.75292969 C12.4824219,3.75292969 12.0996094,4.12890625 12.0996094,4.60058594 C12.0996094,5.06542969 12.4824219,5.44140625 12.9472656,5.44140625 Z M8.03222656,9.80957031 C6.54882812,9.80957031 5.33886719,8.60644531 5.33886719,7.109375 C5.33886719,5.61230469 6.54199219,4.40917969 8.03222656,4.40917969 C9.52246094,4.40917969 10.7324219,5.61230469 10.7324219,7.109375 C10.7324219,8.60644531 9.52246094,9.80957031 8.03222656,9.80957031 Z" id="􀌞"></path>
        </g>
    </g>
</svg>