<svg xmlns="http://www.w3.org/2000/svg" viewBox="0 0 78.86 78.81"><defs><style>.cls-1{fill:#00a2d9;}</style></defs><g id="2"><g id="1-2" ><g id="Symbols"><g id="Regular-S"><path class="cls-1" d="M39.4,78.81a38,38,0,0,0,15.24-3.08,40,40,0,0,0,12.57-8.54,40.85,40.85,0,0,0,8.55-12.6,37.76,37.76,0,0,0,3.1-15.19,37.75,37.75,0,0,0-3.1-15.18,40.74,40.74,0,0,0-8.57-12.6,40.31,40.31,0,0,0-12.6-8.54A38,38,0,0,0,39.36,0,37.91,37.91,0,0,0,24.17,3.08a39.64,39.64,0,0,0-12.55,8.54A41.12,41.12,0,0,0,3.1,24.22,37.58,37.58,0,0,0,0,39.4,37.59,37.59,0,0,0,3.1,54.59a40.85,40.85,0,0,0,8.55,12.6,40,40,0,0,0,12.57,8.54A37.9,37.9,0,0,0,39.4,78.81Zm0-7.42a31.55,31.55,0,0,1-22.58-9.33A32.12,32.12,0,0,1,10,51.86,31.49,31.49,0,0,1,7.52,39.4,31.78,31.78,0,0,1,26.93,9.89,31.27,31.27,0,0,1,39.36,7.42,31.36,31.36,0,0,1,51.83,9.89,31.9,31.9,0,0,1,62,16.75,32.29,32.29,0,0,1,68.9,27,31.32,31.32,0,0,1,71.39,39.4a31.78,31.78,0,0,1-32,32Z"/><path class="cls-1" d="M32.81,60.55H48.34a3.1,3.1,0,0,0,2.22-.86,2.86,2.86,0,0,0,.9-2.17,2.89,2.89,0,0,0-.9-2.15,3.08,3.08,0,0,0-2.22-.88H44V36.23a4.4,4.4,0,0,0-.88-2.88,3,3,0,0,0-2.49-1.07H33.54a3.17,3.17,0,0,0-2.24.87,2.86,2.86,0,0,0-.93,2.15,2.91,2.91,0,0,0,.93,2.2,3.13,3.13,0,0,0,2.24.88h3.57V54.49h-4.3a3.14,3.14,0,0,0-2.24.88,2.85,2.85,0,0,0-.93,2.15,2.81,2.81,0,0,0,.93,2.17A3.17,3.17,0,0,0,32.81,60.55ZM39,26.32a5.18,5.18,0,0,0,3.86-1.61,5.68,5.68,0,0,0,0-7.82A5.18,5.18,0,0,0,39,15.28a5.25,5.25,0,0,0-3.88,1.61,5.6,5.6,0,0,0,0,7.82A5.25,5.25,0,0,0,39,26.32Z"/></g></g></g></g></svg>
