<?xml version="1.0" encoding="UTF-8"?>
<svg width="22px" height="21px" viewBox="0 0 22 21" version="1.1" xmlns="http://www.w3.org/2000/svg" xmlns:xlink="http://www.w3.org/1999/xlink">
    <title>􀌪</title>
    <g id="2.4-Notifications" stroke="none" stroke-width="1" fill="none" fill-rule="evenodd">
        <g id="Artboard" transform="translate(-92.000000, -103.000000)" fill="#D3D3D3" fill-rule="nonzero">
            <path d="M98.7565968,123.847656 C99.0625863,123.847656 99.3555551,123.776042 99.635503,123.632812 C99.9154509,123.489583 100.244227,123.255208 100.621831,122.929688 L103.746831,120.185547 L108.805425,120.185547 C109.742925,120.185547 110.548589,120.003255 111.222417,119.638672 C111.896245,119.274089 112.412196,118.75651 112.770269,118.085938 C113.128342,117.415365 113.307378,116.614583 113.307378,115.683594 L113.307378,108.359375 C113.307378,107.428385 113.128342,106.625977 112.770269,105.952148 C112.412196,105.27832 111.896245,104.759115 111.222417,104.394531 C110.548589,104.029948 109.742925,103.847656 108.805425,103.847656 L97.1940968,103.847656 C96.2565968,103.847656 95.4525603,104.029948 94.7819874,104.394531 C94.1114145,104.759115 93.5954639,105.27832 93.2341358,105.952148 C92.8728077,106.625977 92.6921436,107.428385 92.6921436,108.359375 L92.6921436,115.683594 C92.6921436,116.614583 92.8776905,117.416992 93.2487843,118.09082 C93.619878,118.764648 94.1325733,119.282227 94.7868702,119.643555 C95.4411671,120.004883 96.1914926,120.185547 97.0378468,120.185547 L97.3210499,120.185547 L97.3210499,122.265625 C97.3210499,122.753906 97.448003,123.139648 97.7019093,123.422852 C97.9558155,123.706055 98.307378,123.847656 98.7565968,123.847656 Z M99.323003,121.269531 L99.323003,118.701172 C99.323003,118.395182 99.2497608,118.177083 99.1032764,118.046875 C98.9567921,117.916667 98.7468311,117.851562 98.4733936,117.851562 L97.3308155,117.851562 C96.5560759,117.851562 95.9782764,117.657878 95.5974171,117.270508 C95.2165577,116.883138 95.026128,116.308594 95.026128,115.546875 L95.026128,108.496094 C95.026128,107.727865 95.2165577,107.150065 95.5974171,106.762695 C95.9782764,106.375326 96.5560759,106.181641 97.3308155,106.181641 L108.668706,106.181641 C109.436935,106.181641 110.013107,106.375326 110.397222,106.762695 C110.781336,107.150065 110.973394,107.727865 110.973394,108.496094 L110.973394,115.546875 C110.973394,116.308594 110.781336,116.883138 110.397222,117.270508 C110.013107,117.657878 109.436935,117.851562 108.668706,117.851562 L103.580816,117.851562 C103.261805,117.851562 103.011154,117.890625 102.828862,117.96875 C102.646571,118.046875 102.441493,118.19987 102.213628,118.427734 L99.323003,121.269531 Z" id="􀌪"></path>
        </g>
    </g>
</svg>