<?xml version="1.0" encoding="UTF-8"?>
<svg width="16px" height="16px" viewBox="0 0 16 16" version="1.1" xmlns="http://www.w3.org/2000/svg" xmlns:xlink="http://www.w3.org/1999/xlink">
    <title>􀖗</title>
    <g id="Muscle-Merch----Sprint-1.4" stroke="none" stroke-width="1" fill="none" fill-rule="evenodd">
        <g id="Muscle-Merch_VD_SPIKE---Schedule-Overview-Page-01-@2x" transform="translate(-53.000000, -297.000000)" fill="#000000" fill-rule="nonzero">
            <g id="Group-2" transform="translate(22.000000, 282.000000)">
                <g id="Group-10" transform="translate(31.000000, 15.000000)">
                    <path d="M8,16 C9.09739369,16 10.1289438,15.7901235 11.0946502,15.3703704 C12.0603567,14.9506173 12.9108368,14.3731139 13.6460905,13.6378601 C14.3813443,12.9026063 14.957476,12.0534979 15.3744856,11.090535 C15.7914952,10.127572 16,9.09739369 16,8 C16,6.90260631 15.7914952,5.87242798 15.3744856,4.90946502 C14.957476,3.94650206 14.3799726,3.09602195 13.6419753,2.35802469 C12.9039781,1.62002743 12.0521262,1.04252401 11.0864198,0.625514403 C10.1207133,0.208504801 9.08916324,0 7.99176955,0 C6.90534979,0 5.87928669,0.208504801 4.91358025,0.625514403 C3.9478738,1.04252401 3.09602195,1.62002743 2.35802469,2.35802469 C1.62002743,3.09602195 1.04252401,3.94650206 0.625514403,4.90946502 C0.208504801,5.87242798 0,6.90260631 0,8 C0,9.09739369 0.209876543,10.127572 0.62962963,11.090535 C1.04938272,12.0534979 1.62688615,12.9026063 2.36213992,13.6378601 C3.09739369,14.3731139 3.9478738,14.9506173 4.91358025,15.3703704 C5.87928669,15.7901235 6.90809328,16 8,16 Z M8,14.526749 C7.10013717,14.526749 6.25514403,14.3580247 5.46502058,14.0205761 C4.67489712,13.6831276 3.98216735,13.2167353 3.38683128,12.6213992 C2.7914952,12.0260631 2.32647462,11.3333333 1.99176955,10.5432099 C1.65706447,9.75308642 1.48971193,8.90534979 1.48971193,8 C1.48971193,7.10013717 1.65706447,6.25514403 1.99176955,5.46502058 C2.32647462,4.67489712 2.7914952,3.98079561 3.38683128,3.38271605 C3.98216735,2.78463649 4.67352538,2.31687243 5.46090535,1.97942387 C6.24828532,1.64197531 7.09190672,1.47325103 7.99176955,1.47325103 C8.90260631,1.47325103 9.75171468,1.64197531 10.5390947,1.97942387 C11.3264746,2.31687243 12.0192044,2.78463649 12.617284,3.38271605 C13.2153635,3.98079561 13.6831276,4.67489712 14.0205761,5.46502058 C14.3580247,6.25514403 14.526749,7.10013717 14.526749,8 C14.5322359,8.90534979 14.3648834,9.75308642 14.0246914,10.5432099 C13.6844993,11.3333333 13.218107,12.0260631 12.6255144,12.6213992 C12.0329218,13.2167353 11.3415638,13.6831276 10.5514403,14.0205761 C9.76131687,14.3580247 8.91083676,14.526749 8,14.526749 Z M8,12.4115226 C8.09876543,12.4115226 8.1824417,12.3786008 8.25102881,12.3127572 C8.31961591,12.2469136 8.35390947,12.1618656 8.35390947,12.0576132 L8.35390947,11.5144033 C8.9739369,11.4595336 9.49245542,11.2592593 9.90946502,10.9135802 C10.3264746,10.5679012 10.5349794,10.0987654 10.5349794,9.50617284 C10.5349794,8.97942387 10.3635117,8.5569273 10.0205761,8.23868313 C9.6776406,7.92043896 9.16872428,7.69821674 8.49382716,7.57201646 L8.35390947,7.5473251 L8.35390947,5.49794239 C8.61728395,5.5473251 8.83813443,5.64883402 9.01646091,5.80246914 C9.19478738,5.95610425 9.3223594,6.1563786 9.39917695,6.40329218 C9.49794239,6.6611797 9.67078189,6.79012346 9.91769547,6.79012346 C10.0603567,6.79012346 10.1783265,6.74485597 10.2716049,6.65432099 C10.3648834,6.56378601 10.4115226,6.44718793 10.4115226,6.30452675 C10.4115226,6.260631 10.4087791,6.218107 10.4032922,6.17695473 C10.3978052,6.13580247 10.3868313,6.09327846 10.3703704,6.04938272 C10.266118,5.63786008 10.0315501,5.29766804 9.66666667,5.02880658 C9.30178326,4.75994513 8.86419753,4.59533608 8.35390947,4.53497942 L8.35390947,4.00823045 C8.35390947,3.89849108 8.31961591,3.81069959 8.25102881,3.74485597 C8.1824417,3.67901235 8.09876543,3.64609053 8,3.64609053 C7.75857339,3.64609053 7.63786008,3.76680384 7.63786008,4.00823045 L7.63786008,4.53497942 C7.02880658,4.60082305 6.53223594,4.8079561 6.14814815,5.1563786 C5.76406036,5.5048011 5.57201646,5.9478738 5.57201646,6.48559671 C5.57201646,6.98491084 5.73799726,7.38683128 6.06995885,7.69135802 C6.40192044,7.99588477 6.89163237,8.22496571 7.53909465,8.37860082 L7.63786008,8.39506173 L7.63786008,10.5679012 C7.30315501,10.5185185 7.03840878,10.4087791 6.8436214,10.2386831 C6.64883402,10.0685871 6.521262,9.86282579 6.46090535,9.62139918 C6.41152263,9.48971193 6.34293553,9.38957476 6.25514403,9.32098765 C6.16735254,9.25240055 6.06310014,9.218107 5.94238683,9.218107 C5.79423868,9.218107 5.67352538,9.26474623 5.58024691,9.35802469 C5.48696845,9.45130316 5.44032922,9.57201646 5.44032922,9.72016461 C5.44032922,9.75857339 5.44444444,9.79835391 5.4526749,9.83950617 C5.46090535,9.88065844 5.47050754,9.92592593 5.48148148,9.97530864 C5.59670782,10.4032922 5.84910837,10.7530864 6.23868313,11.0246914 C6.62825789,11.2962963 7.09465021,11.4567901 7.63786008,11.5061728 L7.63786008,12.0576132 C7.63786008,12.2935528 7.75857339,12.4115226 8,12.4115226 Z M7.63786008,7.36625514 L7.58024691,7.34979424 C7.25102881,7.25102881 7.00960219,7.12620027 6.85596708,6.97530864 C6.70233196,6.82441701 6.6255144,6.63923182 6.6255144,6.41975309 C6.6255144,6.20027435 6.71604938,6.00548697 6.89711934,5.83539095 C7.0781893,5.66529492 7.32510288,5.55281207 7.63786008,5.49794239 L7.63786008,7.36625514 Z M8.35390947,10.5679012 L8.35390947,8.58436214 L8.51028807,8.61728395 C8.86694102,8.71604938 9.11659808,8.8436214 9.25925926,9 C9.40192044,9.1563786 9.47325103,9.34979424 9.47325103,9.58024691 C9.47325103,9.83813443 9.38134431,10.0562414 9.19753086,10.2345679 C9.01371742,10.4128944 8.73251029,10.5240055 8.35390947,10.5679012 Z" id="􀖗"></path>
                </g>
            </g>
        </g>
    </g>
</svg>