<?xml version="1.0" encoding="UTF-8"?>
<svg width="21px" height="21px" viewBox="0 0 21 21" version="1.1" xmlns="http://www.w3.org/2000/svg" xmlns:xlink="http://www.w3.org/1999/xlink">
    <title>Path Copy@3x</title>
    <g id="12.1-Space-Review-Updated-Headers" stroke="none" stroke-width="1" fill="none" fill-rule="evenodd">
        <g id="05-Space-Review---No-Form" transform="translate(-42.000000, -237.000000)" fill="#000000" fill-rule="nonzero">
            <g id="Group-3-Copy" transform="translate(22.000000, 217.000000)">
                <path d="M40.6042838,27.486506 C40.7100573,28.0172881 40.8456374,28.5443806 40.9128999,29.0801701 C40.9791072,29.6048906 40.9936148,30.1380446 40.9994179,30.6680361 C41.0139255,31.9638929 40.7570092,33.2141562 40.2576842,34.4051216 C38.9791697,37.4540879 36.7597718,39.4989431 33.6145257,40.5307266 C32.8416666,40.784258 32.0440128,40.9210385 31.2310601,40.9750655 C29.1345811,41.114745 27.1728908,40.66698 25.3388673,39.6467925 C25.2805731,39.6143763 25.195374,39.6030438 25.1296942,39.6159576 C23.7179735,39.8979521 22.3070442,40.1849539 20.8958511,40.4709016 C20.7468186,40.5009458 20.597786,40.5307266 20.4302893,40.5641969 C20.5070476,40.1762569 20.5787943,39.8094005 20.6526511,39.4428077 C20.8942684,38.2426182 21.1377322,37.0426922 21.3751292,35.8417121 C21.3877904,35.7774068 21.3685348,35.6941262 21.3358268,35.6353554 C20.725189,34.5429563 20.2976107,33.3828258 20.1229921,32.1449491 C19.6661348,28.9070202 20.4772411,26.0225067 22.6364984,23.5504431 C24.1054581,21.8687546 25.9516152,20.7863703 28.1237975,20.2682384 C29.0768145,20.040798 30.0459217,19.9646331 31.0250523,20.0147069 C33.4277734,20.1375195 35.5374411,20.9943082 37.3635514,22.5500216 C38.3492764,23.3899435 39.1442924,24.387993 39.7483358,25.5049019 C36.6613839,28.598144 33.5834003,31.682162 30.5125386,34.7590642 C28.9359589,33.1835848 27.3609619,31.6099503 25.7978348,30.0479118 C26.6107875,29.2361894 27.4356101,28.4123439 28.2680821,27.5811191 C28.9968908,28.3111422 29.7441637,29.0593499 30.4806219,29.7970158 C32.015789,28.2629132 33.5430428,26.736717 35.0721431,25.208676 C34.1750463,24.4356949 33.1334011,23.9101837 31.9567035,23.6569158 C31.194923,23.49299 30.4247017,23.4560936 29.6523702,23.5546598 C28.2591138,23.73229 27.0201654,24.2720327 25.9547805,25.1883829 C24.8026139,26.1793167 24.0453176,27.4166663 23.6897497,28.8962148 C23.5119657,29.6365161 23.4499787,30.3876229 23.5388707,31.1424193 C23.8696438,33.9499773 25.3597055,35.9036454 27.9507615,37.0086948 C28.9198687,37.4219353 29.9488527,37.5473833 31.0042141,37.4762258 C34.0054393,37.2740858 36.6268295,35.1006201 37.3292607,32.0616685 C37.4371444,31.5954553 37.4975488,31.1221262 37.5025605,30.6422085 C37.503088,30.5839648 37.529993,30.5109625 37.5703505,30.4703764 C38.5465796,29.4891938 39.5265016,28.5114373 40.5056322,27.5334172 C40.5209311,27.5181316 40.5380764,27.5049543 40.5544304,27.4909863 L40.6045476,27.4867696 L40.6042838,27.486506 Z" id="Path-Copy"></path>
            </g>
        </g>
    </g>
</svg>