<?xml version="1.0" encoding="UTF-8"?>
<svg width="18px" height="19px" viewBox="0 0 18 19" version="1.1" xmlns="http://www.w3.org/2000/svg" xmlns:xlink="http://www.w3.org/1999/xlink">
    <title>icon_call</title>
    <g id="Page-1" stroke="none" stroke-width="1" fill="none" fill-rule="evenodd">
        <g id="Rockstar-Execution_VD_Today's-Visit-Schedule---List-View" transform="translate(-368.000000, -266.000000)" fill="#00A2D9">
            <g id="Store-Tile-" transform="translate(22.000000, 240.000000)">
                <path d="M363.596473,40.8084461 L360.816654,37.9102023 C360.262965,37.3353084 359.346046,37.3527752 358.773069,37.9503112 L357.372584,39.4099725 C357.284103,39.3591355 357.19252,39.3060344 357.096231,39.2496987 C356.211839,38.7388496 355.001399,38.0386694 353.727662,36.7098471 C352.45015,35.3782216 351.777884,34.1144146 351.286355,33.1918565 C351.234487,33.0941181 351.184791,32.9998838 351.135715,32.9103935 L352.075646,31.9319849 L352.537752,31.4496541 C353.111608,30.8512555 353.127432,29.8956507 352.575036,29.3190856 L349.795217,26.4205184 C349.242822,25.8447619 348.325489,25.8622287 347.751632,26.4606272 L346.968184,27.2820506 L346.989593,27.3042075 C346.726892,27.6536507 346.507372,28.0566802 346.344011,28.4913009 C346.193424,28.9050046 346.099668,29.2997859 346.056799,29.6953759 C345.689741,32.8676431 347.080297,35.7668572 350.854088,39.7010314 C356.070612,45.1388033 360.274445,44.7280107 360.455802,44.7079563 C360.850784,44.6587367 361.229321,44.5603513 361.614013,44.4046059 C362.027301,44.2362996 362.413647,44.007776 362.748642,43.7345074 L362.765759,43.7503568 L363.559447,42.9401467 C364.132114,42.341856 364.14861,41.3859277 363.596473,40.8084461 Z" id="icon_call"></path>
            </g>
        </g>
    </g>
</svg>