<?xml version="1.0" encoding="UTF-8"?>
<svg width="32px" height="33px" viewBox="0 0 32 33" version="1.1" xmlns="http://www.w3.org/2000/svg" xmlns:xlink="http://www.w3.org/1999/xlink">
    <title>Shape</title>
    <g id="PI8---8.2--(4)-Add-Cart-Summary-icons" stroke="none" stroke-width="1" fill="none" fill-rule="evenodd">
        <g id="4478533-01-Copilot" transform="translate(-309.000000, -55.000000)" fill="#00A2D9" fill-rule="nonzero" stroke="#00A2D9" stroke-width="0.607142857">
            <g id="Group-12" transform="translate(310.000000, 51.000000)">
                <path d="M8.55004354,25.2159712 L26.3376505,25.2159712 C28.3545966,25.2159712 30,23.606802 30,21.6342721 L30,14.3151478 C30,14.3086592 30,14.295682 30,14.2891935 C30,14.2697277 30,14.2567505 30,14.2372848 C30,14.2243076 30,14.2113304 29.9933653,14.1983533 C29.9933653,14.1853761 29.9867306,14.1659103 29.9867306,14.1529332 C29.9867306,14.139956 29.9800959,14.1269788 29.9800959,14.1140017 C29.9734612,14.1010245 29.9734612,14.0880473 29.9668265,14.0685816 C29.9601919,14.0556044 29.9601919,14.0426272 29.9535572,14.02965 C29.9469225,14.0166729 29.9469225,14.0036957 29.9402878,13.9907185 C29.9336531,13.9777414 29.9270184,13.9647642 29.9203837,13.9452984 C29.913749,13.9323213 29.9071143,13.9193441 29.9004796,13.9128555 C29.8938449,13.8998783 29.8872103,13.8869012 29.8805756,13.873924 C29.8739409,13.8609468 29.8673062,13.8544582 29.8606715,13.8414811 C29.8540368,13.8285039 29.8407674,13.8155267 29.8341327,13.8025496 C29.827498,13.7895724 29.8208633,13.7830838 29.807594,13.7701066 C29.8009593,13.7571295 29.7876899,13.7506409 29.7810552,13.7376637 C29.7744205,13.7246865 29.7611511,13.7181979 29.7545164,13.7052208 C29.7478817,13.6922436 29.7346124,13.685755 29.7279777,13.6792664 C29.7147083,13.6662893 29.7080736,13.6598007 29.6948042,13.6468235 C29.6815348,13.6403349 29.6749001,13.6273578 29.6616308,13.6208692 C29.6483614,13.6143806 29.635092,13.6014034 29.6218226,13.5949148 C29.6085532,13.5884262 29.6019185,13.5819377 29.5886491,13.5754491 C29.5753798,13.5689605 29.5621104,13.5624719 29.548841,13.5494947 C29.5355716,13.5430061 29.5223022,13.5365176 29.5090329,13.530029 C29.4957635,13.5235404 29.4824941,13.5170518 29.4692247,13.5105632 C29.4559553,13.5040746 29.4426859,13.497586 29.4294166,13.4910975 C29.4161472,13.4846089 29.4028778,13.4846089 29.3896084,13.4781203 C29.376339,13.4716317 29.356435,13.4651431 29.3431656,13.4651431 C29.3298962,13.4651431 29.3166268,13.4586545 29.3099921,13.4586545 C29.290088,13.452166 29.2768187,13.452166 29.2569146,13.452166 C29.2502799,13.452166 29.2436452,13.4456774 29.2303758,13.4456774 L6.68569533,10.4025308 L6.68569533,7.32694139 C6.68569533,7.29449847 6.68569533,7.26205554 6.67906064,7.2361012 C6.67906064,7.22961261 6.67906064,7.22312403 6.67242595,7.21014686 C6.67242595,7.1906811 6.66579126,7.17121534 6.66579126,7.15174959 C6.65915656,7.13228383 6.65915656,7.11930666 6.65252187,7.0998409 C6.65252187,7.08686373 6.64588718,7.08037515 6.64588718,7.06739798 C6.63925249,7.04793222 6.6326178,7.02846647 6.62598311,7.00900071 C6.62598311,7.00251212 6.61934842,6.98953495 6.61934842,6.98304637 C6.61271373,6.96358061 6.60607904,6.95060344 6.59280965,6.93113769 C6.58617496,6.9246491 6.58617496,6.91167193 6.57954027,6.90518334 C6.57290558,6.89220617 6.56627089,6.879229 6.55300151,6.86625183 C6.54636682,6.85327466 6.53973212,6.84678608 6.53309743,6.83380891 C6.52646274,6.82083174 6.51982805,6.81434315 6.51319336,6.80136598 C6.50655867,6.78838881 6.49328929,6.77541164 6.4866546,6.76243447 C6.4800199,6.75594588 6.47338521,6.7494573 6.46675052,6.74296871 C6.45348114,6.72999154 6.44021176,6.71701437 6.42694237,6.7040372 C6.42030768,6.69754861 6.41367299,6.69106003 6.4070383,6.68457144 C6.39376892,6.67159427 6.38049954,6.6586171 6.36059546,6.64563993 C6.35396077,6.63915135 6.34069139,6.63266276 6.3340567,6.62617418 C6.32078732,6.613197 6.30751793,6.60670842 6.29424855,6.59373125 C6.27434448,6.58075408 6.25444041,6.56777691 6.24117102,6.56128832 C6.23453633,6.55479974 6.22790164,6.55479974 6.22126695,6.54831115 C6.19472818,6.53533398 6.16155473,6.52235681 6.13501596,6.50937964 L1.24524859,4.49791818 C0.787454905,4.30974921 0.263314305,4.51738394 0.0709082616,4.96509633 C-0.121497782,5.41280872 0.090812335,5.92540696 0.548606024,6.11357593 L4.88769403,7.90442549 L4.88769403,11.8754397 L4.88769403,12.5048325 L4.88769403,17.33234 L4.88769403,21.6472492 L4.88769403,27.0976609 C4.88769403,28.9144648 6.28097917,30.4198166 8.07898047,30.6469171 C7.7538806,31.1789811 7.56147456,31.8018853 7.56147456,32.463721 C7.56147456,34.4167852 9.18697389,36 11.1773812,36 C13.1677886,36 14.7932879,34.4102966 14.7932879,32.463721 C14.7932879,31.8148625 14.6141512,31.1984468 14.2956861,30.67936 L22.3502011,30.67936 C22.0317359,31.2049354 21.8525993,31.8148625 21.8525993,32.463721 C21.8525993,34.4167852 23.4780986,36 25.468506,36 C27.4589133,36 29.0844126,34.4102966 29.0844126,32.463721 C29.0844126,30.5171454 27.4589133,28.927442 25.468506,28.927442 L8.55004354,28.927442 C7.51503172,28.927442 6.67906064,28.1033916 6.67906064,27.0976609 L6.67906064,24.7228387 C7.22310531,25.0342908 7.86667035,25.2159712 8.55004354,25.2159712 Z M13.008556,32.4572324 C13.008556,33.4434974 12.1858543,34.2415934 11.1840159,34.2415934 C10.1821776,34.2415934 9.35947586,33.4370088 9.35947586,32.4572324 C9.35947586,31.477456 10.1821776,30.6728714 11.1840159,30.6728714 C12.1858543,30.6728714 13.008556,31.4709674 13.008556,32.4572324 Z M27.2996807,32.4572324 C27.2996807,33.4434974 26.476979,34.2415934 25.4751406,34.2415934 C24.4733023,34.2415934 23.6506006,33.4370088 23.6506006,32.4572324 C23.6506006,31.477456 24.4733023,30.6728714 25.4751406,30.6728714 C26.476979,30.6728714 27.2996807,31.4709674 27.2996807,32.4572324 Z M26.3376505,23.4640531 L8.55004354,23.4640531 C7.51503172,23.4640531 6.67906064,22.6400028 6.67906064,21.6342721 L6.67906064,17.3193628 L6.67906064,12.4918553 L6.67906064,12.1674261 L28.2086334,15.0678237 L28.2086334,21.6277835 C28.2086334,22.6464914 27.3660276,23.4640531 26.3376505,23.4640531 Z" id="Shape"></path>
            </g>
        </g>
    </g>
</svg>