<?xml version="1.0" encoding="UTF-8"?>
<svg width="16px" height="16px" viewBox="0 0 16 16" version="1.1" xmlns="http://www.w3.org/2000/svg" xmlns:xlink="http://www.w3.org/1999/xlink">
    <title>Path@3x</title>
    <g id="12.1-Space-Review-Updated-Headers" stroke="none" stroke-width="1" fill="none" fill-rule="evenodd">
        <g id="08-Space-Review---No-Form" transform="translate(-22.000000, -1630.000000)" fill="#00A2D9" fill-rule="nonzero">
            <g id="Group-11" transform="translate(0.000000, 1430.000000)">
                <g id="Group-5-Copy-2" transform="translate(22.000000, 200.000000)">
                    <path d="M14.7981221,6.79812207 L9.20187793,6.79812207 L9.20187793,1.20187793 C9.20187793,0.54084507 8.66103286,0 8,0 C7.33896714,0 6.79812207,0.54084507 6.79812207,1.20187793 L6.79812207,6.79812207 L1.20187793,6.79812207 C0.54084507,6.79812207 0,7.24882629 0,8 C0,8.75117371 0.563380282,9.20187793 1.20187793,9.20187793 L6.79812207,9.20187793 L6.79812207,14.7981221 C6.79812207,15.5117371 7.32394366,16 8,16 C8.67605634,16 9.20187793,15.4591549 9.20187793,14.7981221 L9.20187793,9.20187793 L14.7981221,9.20187793 C15.4591549,9.20187793 16,8.66103286 16,8 C16,7.33896714 15.4591549,6.79812207 14.7981221,6.79812207 Z" id="Path"></path>
                </g>
            </g>
        </g>
    </g>
</svg>