<?xml version="1.0" encoding="UTF-8"?>
<svg width="22.5px" height="22.5px" viewBox="0 0 22.5 22.5" version="1.1" xmlns="http://www.w3.org/2000/svg" xmlns:xlink="http://www.w3.org/1999/xlink">
    <title>icon-meeting SVG</title>
    <g id="Symbols" stroke="none" stroke-width="1" fill="none" fill-rule="evenodd">
        <g id="icon-meeting-SVG" fill="#000000" fill-rule="nonzero">
            <path d="M0,1.5 L0,22.5 L12,22.5 L12,1.5 L0,1.5 Z M3.75,19.5 L2.25,19.5 L2.25,18 L3.75,18 L3.75,19.5 Z M3.75,16.5 L2.25,16.5 L2.25,15 L3.75,15 L3.75,16.5 Z M3.75,13.5 L2.25,13.5 L2.25,12 L3.75,12 L3.75,13.5 Z M6.75,19.5 L5.25,19.5 L5.25,18 L6.75,18 L6.75,19.5 Z M5.25,16.5 L5.25,15 L6.74925,15 L6.74925,16.5 L5.25,16.5 Z M6.75,13.5 L5.25,13.5 L5.25,12 L6.75,12 L6.75,13.5 Z M9.75,19.5 L8.25,19.5 L8.25,18 L9.75,18 L9.75,19.5 Z M9.75,16.5 L8.25,16.5 L8.25,15 L9.75,15 L9.75,16.5 Z M9.75,13.5 L8.25,13.5 L8.25,12 L9.75,12 L9.75,13.5 Z M9.75,9 L2.25,9 L2.25,4.5 L9.75,4.5 L9.75,9 Z" id="Shape"></path>
            <path d="M18.90375,0 L17.7945,1.15125 C19.7235,3.16425 20.9175,5.93775 20.9175,9 C20.9175,12.063 19.7235,14.83575 17.7945,16.85025 L18.90375,18 C21.126,15.69675 22.5,12.5145 22.5,9 C22.5,5.4855 21.126,2.30325 18.90375,0 Z M16.755,2.2755 L15.6705,3.4005 C17.0445,4.839 17.895,6.816 17.895,9 C17.895,11.184 17.04375,13.161 15.66975,14.5995 L16.75425,15.7245 C18.4065,13.998 19.4295,11.6235 19.4295,9 C19.4295,6.3765 18.40725,4.00125 16.755,2.2755 Z M14.5845,4.52625 L13.5,5.652 C14.319,6.51225 14.826,7.69575 14.826,9 C14.826,10.30425 14.319,11.487 13.5,12.34875 L14.5845,13.47375 C15.68175,12.32325 16.35975,10.7445 16.35975,8.99925 C16.35975,7.254 15.68175,5.67525 14.5845,4.52625 Z" id="Shape"></path>
        </g>
    </g>
</svg>