<?xml version="1.0" encoding="UTF-8"?>
<svg width="23.9511719px" height="19.5px" viewBox="0 0 23.9511719 19.5" version="1.1" xmlns="http://www.w3.org/2000/svg" xmlns:xlink="http://www.w3.org/1999/xlink">
    <title>icon-personal-time SVG</title>
    <g id="Symbols" stroke="none" stroke-width="1" fill="none" fill-rule="evenodd">
        <g id="icon-personal-time-SVG" fill="#000000" fill-rule="nonzero">
            <path d="M14.2058303,19.5 C19.5536563,19.5 23.9511719,15.1024845 23.9511719,9.75465839 C23.9511719,4.39751553 19.5536563,0 14.1965135,0 C9.33315945,0 5.25241411,3.64285714 4.56297312,8.32919255 C7.67477436,8.17080745 10.4511719,10.3602484 11.0753955,13.378882 C11.988439,13.0062112 13.0505508,12.7826087 14.2058303,12.7826087 C16.5629731,12.7826087 18.5008613,13.6490683 19.7865756,15.1863354 C18.4449607,16.6583851 16.1996191,17.5062112 14.1965135,17.5062112 C13.0691843,17.5062112 11.8859545,17.2360248 10.8238427,16.742236 C10.6002402,17.3757764 10.2741532,17.9534161 9.86421535,18.4751553 C11.1685632,19.1273292 12.6499296,19.5 14.2058303,19.5 Z M14.1965135,11.1335404 C12.3145259,11.1335404 10.8983768,9.51242236 10.8983768,7.5 C10.8983768,5.59937888 12.351793,3.94099379 14.1965135,3.94099379 C16.0505508,3.94099379 17.5039669,5.59937888 17.5039669,7.5 C17.5039669,9.51242236 16.0785011,11.1335404 14.1965135,11.1335404 Z M4.92732421,19.4144531 C7.62805569,19.4144531 9.85,17.1971572 9.85,14.4917773 C9.85,11.7863974 7.62805569,9.56445312 4.92267579,9.56445312 C2.21729589,9.56445312 0,11.7863974 0,14.4917773 C0,17.1971572 2.22194431,19.4144531 4.92732421,19.4144531 Z M4.92267579,15.2215791 L2.74256725,15.2215791 C2.48225578,15.2215791 2.28237376,15.0170487 2.28237376,14.7567372 C2.28237376,14.5010742 2.48225578,14.2965437 2.74256725,14.2965437 L4.4624823,14.2965437 L4.4624823,11.8933111 C4.4624823,11.6329996 4.66701274,11.4331176 4.92267579,11.4331176 C5.18298726,11.4331176 5.38286928,11.6329996 5.38286928,11.8933111 L5.38286928,14.7567372 C5.38286928,15.0170487 5.18298726,15.2215791 4.92267579,15.2215791 Z" id="􀉲"></path>
        </g>
    </g>
</svg>