<?xml version="1.0" encoding="UTF-8"?>
<svg width="20px" height="20px" viewBox="0 0 20 20" version="1.1" xmlns="http://www.w3.org/2000/svg" xmlns:xlink="http://www.w3.org/1999/xlink">
    <title>icon-merch-route</title>
    <g id="11.2-Route-Operation-Center-Development-Overview" stroke="none" stroke-width="1" fill="none" fill-rule="evenodd">
        <g id="07-PSR-My-Route-Past" transform="translate(-371, -578)">
            <g id="Group-49" transform="translate(17, 397)">
                <g id="Store-Tile-" transform="translate(5, 5)">
                    <g id="Group-9-Copy" transform="translate(1, 166)">
                        <g id="icon-merch-route" transform="translate(348, 10)">
                            <g id="task-copy-6" fill="#000000">
                                <rect id="Rectangle" x="0" y="0" width="20" height="20" rx="4"></rect>
                            </g>
                            <g id="Group-28" transform="translate(4.5, 4.5)">
                                <path d="M2.6423223,1.33333333 L2.6423223,1.71071642 C3.49491981,2.37523076 3.92121856,2.96142794 3.92121856,3.46930795 L3.92121856,6.52636795 C3.99358281,6.84438959 3.94744079,7.13123147 3.78279249,7.38689357 C3.53582004,7.77038673 3.78279249,8.10700927 3.78279249,8.57575674 C3.78279249,9.04450421 3.78009987,8.92875864 3.65644563,9.18528547 C3.53279139,9.44181229 3.85571323,9.28434708 3.92121856,9.78720427 C3.98672389,10.2900615 4.05964463,10.5891517 3.92121856,11.2178373 C3.78279249,11.8465228 3.20332363,12.3042333 2.76250889,11.7537091 C2.6534321,11.6174854 2.36018504,12 2.23153951,11.956333 C2.2275373,11.9570565 2.18713272,11.957468 2.12853753,11.9576659 L1.80353748,11.9574459 C1.69525181,11.9571132 1.60750209,11.9566315 1.60175311,11.956333 C1.56408607,11.9543767 1.53052301,11.9266083 1.50106394,11.8730277 C1.39551177,11.7906487 1.27121219,11.6860218 1.21026646,11.7414903 C0.634124537,12.2658541 0.211132362,11.8465228 0.0765779747,11.2178373 C-0.0579764126,10.5891517 0.0129047862,10.2900615 0.0765779747,9.78720427 C0.140251163,9.28434708 0.454141095,9.44181229 0.333945384,9.18528547 C0.213749672,8.92875864 0.194476064,8.97453166 0.167757984,8.58328994 C0.141039904,8.19204821 0.451197159,7.77038673 0.211132362,7.38689357 C0.0510891644,7.13123147 0.00623770195,6.84438959 0.0765779747,6.52636795 L0.0765779747,3.46930795 C0.0765779747,2.96142794 0.490953438,2.37523076 1.31970436,1.71071642 L1.31970436,1.33333333 L2.6423223,1.33333333 Z" id="Combined-Shape-Copy-2" stroke="#FFFFFF" stroke-width="0.5"></path>
                                <rect id="Rectangle-Copy-10" stroke="#FFFFFF" stroke-width="0.5" x="1.33333333" y="0" width="1.33333333" height="1"></rect>
                                <rect id="Rectangle-Copy-14" fill="#FFFFFF" x="0" y="4" width="4" height="2.66666667"></rect>
                            </g>
                            <g id="Group-28-Copy-2" transform="translate(11.5, 4.5)">
                                <g id="Group-36" fill="#000000" stroke="#FFFFFF" stroke-width="0.5">
                                    <path d="M2.6423223,1.33333333 L2.6423223,1.71071642 C3.49491981,2.37523076 3.92121856,2.96142794 3.92121856,3.46930795 L3.92121856,6.52636795 C3.99358281,6.84438959 3.94744079,7.13123147 3.78279249,7.38689357 C3.53582004,7.77038673 3.78279249,8.10700927 3.78279249,8.57575674 C3.78279249,9.04450421 3.78009987,8.92875864 3.65644563,9.18528547 C3.53279139,9.44181229 3.85571323,9.28434708 3.92121856,9.78720427 C3.98672389,10.2900615 4.05964463,10.5891517 3.92121856,11.2178373 C3.78279249,11.8465228 3.20332363,12.3042333 2.76250889,11.7537091 C2.6534321,11.6174854 2.36018504,12 2.23153951,11.956333 C2.2275373,11.9570565 2.18713272,11.957468 2.12853753,11.9576659 L1.80353748,11.9574459 C1.69525181,11.9571132 1.60750209,11.9566315 1.60175311,11.956333 C1.56408607,11.9543767 1.53052301,11.9266083 1.50106394,11.8730277 C1.39551177,11.7906487 1.27121219,11.6860218 1.21026646,11.7414903 C0.634124537,12.2658541 0.211132362,11.8465228 0.0765779747,11.2178373 C-0.0579764126,10.5891517 0.0129047862,10.2900615 0.0765779747,9.78720427 C0.140251163,9.28434708 0.454141095,9.44181229 0.333945384,9.18528547 C0.213749672,8.92875864 0.194476064,8.97453166 0.167757984,8.58328994 C0.141039904,8.19204821 0.451197159,7.77038673 0.211132362,7.38689357 C0.0510891644,7.13123147 0.00623770195,6.84438959 0.0765779747,6.52636795 L0.0765779747,3.46930795 C0.0765779747,2.96142794 0.490953438,2.37523076 1.31970436,1.71071642 L1.31970436,1.33333333 L2.6423223,1.33333333 Z" id="Combined-Shape-Copy-2"></path>
                                    <rect id="Rectangle-Copy-10" x="1.33333333" y="0" width="1.33333333" height="1"></rect>
                                </g>
                                <rect id="Rectangle-Copy-14" fill="#FFFFFF" x="0" y="4" width="4" height="2.66666667"></rect>
                            </g>
                            <g id="Group-28-Copy-3" transform="translate(8, 3.5)">
                                <g id="Group-36" fill="#000000" stroke="#FFFFFF" stroke-width="0.5">
                                    <path d="M2.97261259,1.5 L2.97261259,1.92455597 C3.93178478,2.67213461 4.41137088,3.33160643 4.41137088,3.90297144 L4.41137088,7.34216394 C4.49278067,7.69993829 4.44087089,8.0226354 4.25564155,8.31025527 C3.97779754,8.74168507 4.25564155,9.12038543 4.25564155,9.64772633 C4.25564155,10.1750672 4.25261235,10.0448535 4.11350133,10.3334461 C3.97439032,10.6220388 4.33767739,10.4448905 4.41137088,11.0106048 C4.48506438,11.5763192 4.56710021,11.9127957 4.41137088,12.6200669 C4.25564155,13.3273382 3.60373908,13.8422624 3.1078225,13.2229227 C2.98511111,13.0696711 2.65520817,13.5 2.51048195,13.4508746 C2.50647974,13.4515981 2.47011986,13.4520443 2.41579187,13.4522908 L2.09859592,13.4523151 C2.06066801,13.4522263 2.02364416,13.4521168 1.98932306,13.4519962 L1.83021905,13.4512177 C1.81390374,13.4510917 1.80388857,13.4509741 1.80197225,13.4508746 C1.75918563,13.4486524 1.72110603,13.4168253 1.68773345,13.3553932 C1.56937492,13.2639957 1.42997247,13.146903 1.36154977,13.2091766 C0.713390104,13.7990859 0.237523907,13.3273382 0.0861502216,12.6200669 C-0.0652234642,11.9127957 0.0145178845,11.5763192 0.0861502216,11.0106048 C0.157782559,10.4448905 0.510908732,10.6220388 0.375688557,10.3334461 C0.240468381,10.0448535 0.218785572,10.0963481 0.188727732,9.65620118 C0.158669892,9.21605424 0.507596803,8.74168507 0.237523907,8.31025527 C0.0574753099,8.0226354 0.00701741469,7.69993829 0.0861502216,7.34216394 L0.0861502216,3.90297144 C0.0861502216,3.33160643 0.552322617,2.67213461 1.48466741,1.92455597 L1.48466741,1.5 L2.97261259,1.5 Z" id="Combined-Shape-Copy-2"></path>
                                    <rect id="Rectangle-Copy-10" x="1.5" y="0" width="1.5" height="1"></rect>
                                </g>
                                <rect id="Rectangle-Copy-14" fill="#FFFFFF" x="0" y="4.5" width="4.5" height="3"></rect>
                            </g>
                        </g>
                    </g>
                </g>
            </g>
        </g>
    </g>
</svg>