<?xml version="1.0" encoding="UTF-8"?>
<svg width="36px" height="36px" viewBox="0 0 36 36" version="1.1" xmlns="http://www.w3.org/2000/svg" xmlns:xlink="http://www.w3.org/1999/xlink">
    <title>ios-add-circle-outline SVG</title>
    <g id="Symbols" stroke="none" stroke-width="1" fill="none" fill-rule="evenodd">
        <g id="ios-add-circle-outline-SVG" fill="#000000" fill-rule="nonzero">
            <path d="M25.8317308,16.6153846 L19.3846154,16.6153846 L19.3846154,10.1682692 C19.3846154,9.40673077 18.7615385,8.78365385 18,8.78365385 C17.2384615,8.78365385 16.6153846,9.40673077 16.6153846,10.1682692 L16.6153846,16.6153846 L10.1682692,16.6153846 C9.40673077,16.6153846 8.78365385,17.1346154 8.78365385,18 C8.78365385,18.8653846 9.43269231,19.3846154 10.1682692,19.3846154 L16.6153846,19.3846154 L16.6153846,25.8317308 C16.6153846,26.6538462 17.2211538,27.2163462 18,27.2163462 C18.7788462,27.2163462 19.3846154,26.5932692 19.3846154,25.8317308 L19.3846154,19.3846154 L25.8317308,19.3846154 C26.5932692,19.3846154 27.2163462,18.7615385 27.2163462,18 C27.2163462,17.2384615 26.5932692,16.6153846 25.8317308,16.6153846 Z" id="Path" transform="translate(18.000000, 18.000000) rotate(45.000000) translate(-18.000000, -18.000000) "></path>
            <path d="M18,2.42307692 C22.1625,2.42307692 26.0740385,4.04134615 29.0163462,6.98365385 C31.9586538,9.92596154 33.5769231,13.8375 33.5769231,18 C33.5769231,22.1625 31.9586538,26.0740385 29.0163462,29.0163462 C26.0740385,31.9586538 22.1625,33.5769231 18,33.5769231 C13.8375,33.5769231 9.92596154,31.9586538 6.98365385,29.0163462 C4.04134615,26.0740385 2.42307692,22.1625 2.42307692,18 C2.42307692,13.8375 4.04134615,9.92596154 6.98365385,6.98365385 C9.92596154,4.04134615 13.8375,2.42307692 18,2.42307692 M18,0 C8.05673077,0 0,8.05673077 0,18 C0,27.9432692 8.05673077,36 18,36 C27.9432692,36 36,27.9432692 36,18 C36,8.05673077 27.9432692,0 18,0 Z" id="Shape"></path>
        </g>
    </g>
</svg>