<?xml version="1.0" encoding="UTF-8"?>
<svg width="20px" height="26px" viewBox="0 0 20 26" version="1.1" xmlns="http://www.w3.org/2000/svg" xmlns:xlink="http://www.w3.org/1999/xlink">
    <title>ios-doc SVG</title>
    <g id="Symbols" stroke="none" stroke-width="1" fill="none" fill-rule="evenodd">
        <g id="ios-doc-SVG" fill="#000000" fill-rule="nonzero">
            <path d="M16.313912,25.4934602 C18.7752675,25.4934602 20,24.2449465 20,21.7717004 L20,10.9750297 L11.391201,10.9750297 C9.86920333,10.9750297 9.14387634,10.2497027 9.14387634,8.72770511 L9.14387634,-1.99484873e-12 L3.68608799,-1.99484873e-12 C1.23662307,-1.99484873e-12 0,1.26040428 0,3.73365042 L0,21.7717004 C0,24.2568371 1.22473246,25.4934602 3.68608799,25.4934602 L16.313912,25.4934602 Z M19.8573127,9.34601665 C19.7859691,8.85850178 19.4411415,8.38287753 18.8703924,7.80023781 L12.3186683,1.12960761 C11.7598098,0.558858502 11.2722949,0.214030916 10.7728894,0.130796671 L10.7728894,8.7039239 C10.7728894,9.13198573 10.9869203,9.34601665 11.4268728,9.34601665 L19.8573127,9.34601665 Z M14.5897741,16.1236623 L5.42211653,16.1236623 C4.93460166,16.1236623 4.57788347,15.7788347 4.57788347,15.3151011 C4.57788347,14.8513674 4.93460166,14.5065398 5.42211653,14.5065398 L14.5897741,14.5065398 C15.0653983,14.5065398 15.4340071,14.8513674 15.4340071,15.3151011 C15.4340071,15.7788347 15.0653983,16.1236623 14.5897741,16.1236623 Z M14.5897741,20.6539834 L5.42211653,20.6539834 C4.93460166,20.6539834 4.57788347,20.3091558 4.57788347,19.8454221 C4.57788347,19.3816885 4.93460166,19.0368609 5.42211653,19.0368609 L14.5897741,19.0368609 C15.0653983,19.0368609 15.4340071,19.3816885 15.4340071,19.8454221 C15.4340071,20.3091558 15.0653983,20.6539834 14.5897741,20.6539834 Z" id="􀉀"></path>
        </g>
    </g>
</svg>