<?xml version="1.0" encoding="UTF-8"?>
<svg width="29px" height="27px" viewBox="0 0 29 27" version="1.1" xmlns="http://www.w3.org/2000/svg" xmlns:xlink="http://www.w3.org/1999/xlink">
    <title>􀝒 copy 2</title>
    <g id="3.1-KPI" stroke="none" stroke-width="1" fill="none" fill-rule="evenodd">
        <path d="M26.6967773,26.0253906 C27.9296875,26.0253906 28.7109375,25.1586914 28.7109375,23.8037109 L28.7109375,8.22753906 C28.7109375,6.87255859 27.9296875,6.00585938 26.6967773,6.00585938 L19.4335938,6.00585938 L19.4335938,2.22167969 C19.4335938,0.866699219 18.6523438,0 17.4194336,0 L2.02636719,0 C0.78125,0 0,0.866699219 0,2.22167969 L0,23.8037109 C0,25.1586914 0.78125,26.0253906 2.02636719,26.0253906 L26.6967773,26.0253906 Z M5.46875,24.0600586 L2.67333984,24.0600586 C2.18505859,24.0600586 1.96533203,23.828125 1.96533203,23.3520508 L1.96533203,2.67333984 C1.96533203,2.18505859 2.18505859,1.96533203 2.67333984,1.96533203 L16.7724609,1.96533203 C17.2485352,1.96533203 17.4682617,2.18505859 17.4682617,2.67333984 L17.4682617,23.3520508 C17.4682617,23.828125 17.2485352,24.0600586 16.7724609,24.0600586 L13.9648438,24.0600586 L13.9648438,20.4589844 C13.9648438,19.4091797 13.5009766,18.9208984 12.5,18.9208984 L6.93359375,18.9208984 C5.93261719,18.9208984 5.46875,19.4091797 5.46875,20.4589844 L5.46875,24.0600586 Z M8.04443359,7.29980469 C8.33740234,7.29980469 8.54492188,7.10449219 8.54492188,6.79931641 L8.54492188,4.4921875 C8.54492188,4.19921875 8.33740234,3.99169922 8.04443359,3.99169922 L5.6640625,3.99169922 C5.37109375,3.99169922 5.18798828,4.19921875 5.18798828,4.4921875 L5.18798828,6.79931641 C5.18798828,7.10449219 5.37109375,7.29980469 5.6640625,7.29980469 L8.04443359,7.29980469 Z M13.7573242,7.29980469 C14.050293,7.29980469 14.2578125,7.10449219 14.2578125,6.79931641 L14.2578125,4.4921875 C14.2578125,4.19921875 14.050293,3.99169922 13.7573242,3.99169922 L11.3891602,3.99169922 C11.0839844,3.99169922 10.9008789,4.19921875 10.9008789,4.4921875 L10.9008789,6.79931641 C10.9008789,7.10449219 11.0839844,7.29980469 11.3891602,7.29980469 L13.7573242,7.29980469 Z M26.0498047,24.0600586 L19.4213867,24.0600586 C19.4335938,23.9746094 19.4335938,23.8891602 19.4335938,23.8037109 L19.4335938,7.97119141 L26.0498047,7.97119141 C26.5258789,7.97119141 26.7456055,8.203125 26.7456055,8.67919922 L26.7456055,23.3520508 C26.7456055,23.828125 26.5258789,24.0600586 26.0498047,24.0600586 Z M8.04443359,12.1337891 C8.33740234,12.1337891 8.54492188,11.9384766 8.54492188,11.6333008 L8.54492188,9.32617188 C8.54492188,9.03320312 8.33740234,8.82568359 8.04443359,8.82568359 L5.6640625,8.82568359 C5.37109375,8.82568359 5.18798828,9.03320312 5.18798828,9.32617188 L5.18798828,11.6333008 C5.18798828,11.9384766 5.37109375,12.1337891 5.6640625,12.1337891 L8.04443359,12.1337891 Z M13.7573242,12.1337891 C14.050293,12.1337891 14.2578125,11.9384766 14.2578125,11.6333008 L14.2578125,9.32617188 C14.2578125,9.03320312 14.050293,8.82568359 13.7573242,8.82568359 L11.3891602,8.82568359 C11.0839844,8.82568359 10.9008789,9.03320312 10.9008789,9.32617188 L10.9008789,11.6333008 C10.9008789,11.9384766 11.0839844,12.1337891 11.3891602,12.1337891 L13.7573242,12.1337891 Z M24.0722656,12.7197266 C24.3164062,12.7197266 24.4873047,12.5488281 24.4873047,12.3046875 L24.4873047,10.4003906 C24.4873047,10.15625 24.3164062,9.98535156 24.0722656,9.98535156 L22.1069336,9.98535156 C21.8505859,9.98535156 21.7041016,10.15625 21.7041016,10.4003906 L21.7041016,12.3046875 C21.7041016,12.5488281 21.8505859,12.7197266 22.1069336,12.7197266 L24.0722656,12.7197266 Z M8.04443359,16.9677734 C8.33740234,16.9677734 8.54492188,16.7602539 8.54492188,16.4672852 L8.54492188,14.1601562 C8.54492188,13.8549805 8.33740234,13.659668 8.04443359,13.659668 L5.6640625,13.659668 C5.37109375,13.659668 5.18798828,13.8549805 5.18798828,14.1601562 L5.18798828,16.4672852 C5.18798828,16.7602539 5.37109375,16.9677734 5.6640625,16.9677734 L8.04443359,16.9677734 Z M13.7573242,16.9677734 C14.050293,16.9677734 14.2578125,16.7602539 14.2578125,16.4672852 L14.2578125,14.1601562 C14.2578125,13.8549805 14.050293,13.659668 13.7573242,13.659668 L11.3891602,13.659668 C11.0839844,13.659668 10.9008789,13.8549805 10.9008789,14.1601562 L10.9008789,16.4672852 C10.9008789,16.7602539 11.0839844,16.9677734 11.3891602,16.9677734 L13.7573242,16.9677734 Z M24.0722656,17.3828125 C24.3164062,17.3828125 24.4873047,17.2119141 24.4873047,16.9677734 L24.4873047,15.0634766 C24.4873047,14.8193359 24.3164062,14.6484375 24.0722656,14.6484375 L22.1069336,14.6484375 C21.8505859,14.6484375 21.7041016,14.8193359 21.7041016,15.0634766 L21.7041016,16.9677734 C21.7041016,17.2119141 21.8505859,17.3828125 22.1069336,17.3828125 L24.0722656,17.3828125 Z M24.0722656,22.0458984 C24.3164062,22.0458984 24.4873047,21.875 24.4873047,21.6308594 L24.4873047,19.7265625 C24.4873047,19.4824219 24.3164062,19.3115234 24.0722656,19.3115234 L22.1069336,19.3115234 C21.8505859,19.3115234 21.7041016,19.4824219 21.7041016,19.7265625 L21.7041016,21.6308594 C21.7041016,21.875 21.8505859,22.0458984 22.1069336,22.0458984 L24.0722656,22.0458984 Z M12.3657227,24.0600586 L7.06787109,24.0600586 L7.06787109,20.9106445 C7.06787109,20.6542969 7.20214844,20.5200195 7.45849609,20.5200195 L11.9750977,20.5200195 C12.2436523,20.5200195 12.3657227,20.6542969 12.3657227,20.9106445 L12.3657227,24.0600586 Z" id="􀝒-copy-2" fill="#565656" fill-rule="nonzero"></path>
    </g>
</svg>