<?xml version="1.0" encoding="UTF-8"?>
<svg width="30px" height="25px" viewBox="0 0 30 25" version="1.1" xmlns="http://www.w3.org/2000/svg" xmlns:xlink="http://www.w3.org/1999/xlink">
    <title>map-zoom-in</title>
    <g id="Symbols" stroke="none" stroke-width="1" fill="none" fill-rule="evenodd">
        <g id="map-zoom-in" fill-rule="nonzero">
            <g fill="#FFFFFF" id="Rectangle" stroke="#F2F4F7">
                <rect x="0.5" y="0.5" width="29" height="24"></rect>
            </g>
            <path d="M15.2150147,19.3670708 C15.9162377,19.3670708 16.5033082,18.7618834 16.5033082,18.1163503 L16.5033082,13.6379641 L20.9471055,13.6379641 C21.6238673,13.6379641 22.2109378,13.0569843 22.2109378,12.3630362 C22.2109378,11.6690881 21.6238673,11.0881082 20.9471055,11.0881082 L16.5033082,11.0881082 L16.5033082,6.60972206 C16.5033082,5.93998142 15.9162377,5.36707076 15.2150147,5.36707076 C14.5137916,5.36707076 13.9267211,5.93998142 13.9267211,6.60972206 L13.9267211,11.0881082 L9.47477007,11.0881082 C8.8306233,11.0881082 8.21093781,11.6690881 8.21093781,12.3630362 C8.21093781,13.0569843 8.8306233,13.6379641 9.47477007,13.6379641 L13.9267211,13.6379641 L13.9267211,18.1163503 C13.9267211,18.7618834 14.5137916,19.3670708 15.2150147,19.3670708 Z" id="􀅼" fill="#000000"></path>
        </g>
    </g>
</svg>