<?xml version="1.0" encoding="UTF-8"?>
<svg width="19px" height="12px" viewBox="0 0 19 12" version="1.1" xmlns="http://www.w3.org/2000/svg" xmlns:xlink="http://www.w3.org/1999/xlink">
    <title>􀉬</title>
    <g id="Symbols" stroke="none" stroke-width="1" fill="none" fill-rule="evenodd">
        <g id="􀉬" fill="#565656" fill-rule="nonzero">
            <path d="M12.9558265,5.84392015 C13.459868,5.84392015 13.9137502,5.71324864 14.3174728,5.45190563 C14.7211954,5.19056261 15.0405033,4.83726558 15.2753965,4.39201452 C15.5102897,3.94676346 15.6277363,3.44585602 15.6277363,2.8892922 C15.6277363,2.36660617 15.5090663,1.88626739 15.2717263,1.44827586 C15.0343863,1.01028433 14.7126316,0.659407139 14.3064622,0.395644283 C13.9002927,0.131881428 13.4500808,0 12.9558265,0 C12.4566785,0 12.0040197,0.131881428 11.5978503,0.395644283 C11.1916809,0.659407139 10.8687028,1.01028433 10.628916,1.44827586 C10.3891292,1.88626739 10.2716826,2.36660617 10.2765762,2.8892922 C10.2765762,3.44585602 10.3940228,3.94676346 10.628916,4.39201452 C10.8638091,4.83726558 11.1843405,5.19056261 11.5905099,5.45190563 C11.9966793,5.71324864 12.4517849,5.84392015 12.9558265,5.84392015 Z M4.99882029,5.99637024 C5.44413859,5.99637024 5.84296762,5.88263763 6.19530738,5.65517241 C6.54764714,5.4277072 6.82535937,5.12038717 7.02844409,4.73321234 C7.23152882,4.34603751 7.33307118,3.91046582 7.33307118,3.42649728 C7.33307118,2.96672716 7.22908201,2.54688445 7.02110368,2.16696915 C6.81312536,1.78705384 6.53296631,1.48215366 6.18062656,1.2522686 C5.8282868,1.02238355 5.43435138,0.907441016 4.99882029,0.907441016 C4.56818281,0.907441016 4.17547079,1.02117362 3.82068423,1.24863884 C3.46589767,1.47610405 3.18451523,1.78100423 2.9765369,2.16333938 C2.76855857,2.54567453 2.66946301,2.96672716 2.67925023,3.42649728 C2.67925023,3.91046582 2.78079259,4.34603751 2.98387731,4.73321234 C3.18696203,5.12038717 3.46467427,5.4277072 3.81701403,5.65517241 C4.16935378,5.88263763 4.5632892,5.99637024 4.99882029,5.99637024 Z M6.99541224,12 C6.80945515,11.8886872 6.69934898,11.6890502 6.66509372,11.4010889 C6.63083847,11.1131276 6.66998733,10.7816092 6.78254031,10.4065336 C6.89509328,10.031458 7.07860357,9.64670296 7.33307118,9.2522686 C7.58753878,8.85783424 7.90807008,8.49606776 8.29466509,8.16696915 C7.91296369,7.84271022 7.45051776,7.57410768 6.9073273,7.36116152 C6.36413685,7.14821537 5.72307423,7.04174229 4.98413947,7.04174229 C4.21584306,7.04174229 3.52462096,7.16273442 2.91047319,7.40471869 C2.29632542,7.64670296 1.7727094,7.96854204 1.33962511,8.37023593 C0.906540831,8.77192982 0.574998908,9.21718088 0.344999345,9.70598911 C0.114999782,10.1947973 0,10.6787659 0,11.1578947 C0,11.4627949 0.0795211255,11.6793708 0.238563377,11.8076225 C0.397605628,11.9358742 0.626381789,12 0.92489186,12 L6.99541224,12 Z M17.6096474,12 C17.9521999,12 18.214008,11.9419238 18.3950714,11.8257713 C18.5761349,11.7096189 18.6666667,11.5063521 18.6666667,11.215971 C18.6666667,10.7803993 18.5357627,10.3218391 18.2739546,9.84029038 C18.0121466,9.35874168 17.6316686,8.90865094 17.1325206,8.49001815 C16.6333727,8.07138536 16.0302355,7.73018754 15.3231092,7.46642468 C14.6159829,7.20266183 13.821995,7.0707804 12.9411456,7.0707804 C12.0554026,7.0707804 11.2601914,7.20266183 10.5555119,7.46642468 C9.85083235,7.73018754 9.2476952,8.07138536 8.74610041,8.49001815 C8.24450561,8.90865094 7.86280421,9.35874168 7.6009962,9.84029038 C7.33918819,10.3218391 7.20828418,10.7803993 7.20828418,11.215971 C7.20828418,11.5063521 7.30003932,11.7096189 7.48354961,11.8257713 C7.6670599,11.9419238 7.92764451,12 8.26530345,12 L17.6096474,12 Z"></path>
        </g>
    </g>
</svg>