<?xml version="1.0" encoding="UTF-8"?>
<svg width="18px" height="12px" viewBox="0 0 18 12" version="1.1" xmlns="http://www.w3.org/2000/svg" xmlns:xlink="http://www.w3.org/1999/xlink">
    <title>􀍊</title>
    <g id="Symbols" stroke="none" stroke-width="1" fill="none" fill-rule="evenodd">
        <g id="􀍊" fill="#565656" fill-rule="nonzero">
            <path d="M9.88944724,12 C10.7286432,12 11.3743719,11.7788945 11.8266332,11.3366834 C12.2788945,10.8944724 12.5050251,10.2713568 12.5050251,9.46733668 L12.5050251,2.54020101 C12.5050251,1.73115578 12.2864322,1.10552764 11.8492462,0.663316583 C11.4120603,0.221105528 10.7713568,0 9.92713568,0 L2.61557789,0 C1.78643216,0 1.14321608,0.221105528 0.685929648,0.663316583 C0.228643216,1.10552764 0,1.73366834 0,2.54773869 L0,9.57286432 C0,10.3768844 0.224874372,10.9824121 0.674623116,11.3894472 C1.12437186,11.7964824 1.77135678,12 2.61557789,12 L9.88944724,12 Z M16.9447236,10.9748744 C17.2512563,10.9748744 17.5037688,10.8743719 17.7022613,10.6733668 C17.9007538,10.4723618 18,10.2035176 18,9.86683417 L18,2.22361809 C18,1.88693467 17.9007538,1.61934673 17.7022613,1.42085427 C17.5037688,1.22236181 17.2512563,1.12311558 16.9447236,1.12311558 C16.7638191,1.12311558 16.5866834,1.16959799 16.4133166,1.26256281 C16.2399497,1.35552764 16.0603015,1.47738693 15.8743719,1.6281407 L13.6507538,3.52763819 L13.6507538,8.56281407 L15.8743719,10.4623116 C16.0552764,10.6130653 16.2349246,10.7361809 16.4133166,10.8316583 C16.5917085,10.9271357 16.7688442,10.9748744 16.9447236,10.9748744 Z"></path>
        </g>
    </g>
</svg>