<?xml version="1.0" encoding="UTF-8"?>
<svg width="30px" height="30px" viewBox="0 0 30 30" version="1.1" xmlns="http://www.w3.org/2000/svg" xmlns:xlink="http://www.w3.org/1999/xlink">
    <title>Group 18</title>
    <defs>
        <rect id="path-1" x="0" y="0" width="30" height="30" rx="8"></rect>
    </defs>
    <g id="Group-18" stroke="none" stroke-width="1" fill="none" fill-rule="evenodd">
        <g id="Group">
            <g id="Group-10-Copy">
                <mask id="mask-2" fill="white">
                    <use xlink:href="#path-1"></use>
                </mask>
                <use id="Icon-Background-Copy" fill="#FFC409" xlink:href="#path-1"></use>
            </g>
            <path d="M20.9833417,23 C21.9646643,23 22.7127713,22.7331487 23.2276628,22.199446 C23.7425543,21.6657433 24,20.8965836 24,19.8919668 L24,9.10803324 C24,8.10341644 23.7425543,7.33425669 23.2276628,6.80055402 C22.7127713,6.26685134 21.9646643,6 20.9833417,6 L9.01665825,6 C8.04139324,6 7.29480061,6.26528163 6.77688036,6.79584488 C6.25896012,7.32640813 6,8.09713758 6,9.10803324 L6,19.8919668 C6,20.8965836 6.25896012,21.6657433 6.77688036,22.199446 C7.29480061,22.7331487 8.04139324,23 9.01665825,23 L20.9833417,23 Z M20.8288743,20.7490305 L9.16203937,20.7490305 C8.83493185,20.7490305 8.58808682,20.6642659 8.42150429,20.4947368 C8.25492176,20.3252078 8.17163049,20.0614958 8.17163049,19.7036011 L8.17163049,11.7734072 C8.17163049,11.4155125 8.25492176,11.1518006 8.42150429,10.9822715 C8.58808682,10.8127424 8.83493185,10.7279778 9.16203937,10.7279778 L20.8288743,10.7279778 C21.1559818,10.7279778 21.4058556,10.8127424 21.5784957,10.9822715 C21.7511358,11.1518006 21.8374558,11.4155125 21.8374558,11.7734072 L21.8374558,19.7036011 C21.8374558,20.0614958 21.7511358,20.3252078 21.5784957,20.4947368 C21.4058556,20.6642659 21.1559818,20.7490305 20.8288743,20.7490305 Z M13.8869258,13.6288089 C14.044422,13.6288089 14.1534578,13.5989843 14.2140333,13.5393352 C14.2746088,13.4796861 14.3048965,13.3682364 14.3048965,13.2049861 L14.3048965,12.6775623 C14.3048965,12.5143121 14.2746088,12.4028624 14.2140333,12.3432133 C14.1534578,12.2835642 14.044422,12.2537396 13.8869258,12.2537396 L13.3780919,12.2537396 C13.2205957,12.2537396 13.1115598,12.2835642 13.0509844,12.3432133 C12.9904089,12.4028624 12.9601212,12.5143121 12.9601212,12.6775623 L12.9601212,13.2049861 C12.9601212,13.3682364 12.9904089,13.4796861 13.0509844,13.5393352 C13.1115598,13.5989843 13.2205957,13.6288089 13.3780919,13.6288089 L13.8869258,13.6288089 Z M16.6219081,13.6288089 C16.7794043,13.6288089 16.8899546,13.5989843 16.9535588,13.5393352 C17.017163,13.4796861 17.0489652,13.3682364 17.0489652,13.2049861 L17.0489652,12.6775623 C17.0489652,12.5143121 17.017163,12.4028624 16.9535588,12.3432133 C16.8899546,12.2835642 16.7794043,12.2537396 16.6219081,12.2537396 L16.1130742,12.2537396 C15.9616355,12.2537396 15.8541141,12.2835642 15.7905098,12.3432133 C15.7269056,12.4028624 15.6951035,12.5143121 15.6951035,12.6775623 L15.6951035,13.2049861 C15.6951035,13.3682364 15.7269056,13.4796861 15.7905098,13.5393352 C15.8541141,13.5989843 15.9616355,13.6288089 16.1130742,13.6288089 L16.6219081,13.6288089 Z M19.3659768,13.6288089 C19.5174154,13.6288089 19.6249369,13.5989843 19.6885411,13.5393352 C19.7521454,13.4796861 19.7839475,13.3682364 19.7839475,13.2049861 L19.7839475,12.6775623 C19.7839475,12.5143121 19.7521454,12.4028624 19.6885411,12.3432133 C19.6249369,12.2835642 19.5174154,12.2537396 19.3659768,12.2537396 L18.8571429,12.2537396 C18.6996466,12.2537396 18.5906108,12.2835642 18.5300353,12.3432133 C18.4694599,12.4028624 18.4391721,12.5143121 18.4391721,12.6775623 L18.4391721,13.2049861 C18.4391721,13.3682364 18.4694599,13.4796861 18.5300353,13.5393352 C18.5906108,13.5989843 18.6996466,13.6288089 18.8571429,13.6288089 L19.3659768,13.6288089 Z M11.1428571,16.4260388 C11.3003534,16.4260388 11.4109036,16.3962142 11.4745078,16.3365651 C11.5381121,16.276916 11.5699142,16.1623269 11.5699142,15.9927978 L11.5699142,15.4747922 C11.5699142,15.3178209 11.5381121,15.2079409 11.4745078,15.1451524 C11.4109036,15.0823638 11.3003534,15.0509695 11.1428571,15.0509695 L10.6431095,15.0509695 C10.4856133,15.0509695 10.3750631,15.0823638 10.3114589,15.1451524 C10.2478546,15.2079409 10.2160525,15.3178209 10.2160525,15.4747922 L10.2160525,15.9927978 C10.2160525,16.1623269 10.2478546,16.276916 10.3114589,16.3365651 C10.3750631,16.3962142 10.4856133,16.4260388 10.6431095,16.4260388 L11.1428571,16.4260388 Z M13.8869258,16.4260388 C14.044422,16.4260388 14.1534578,16.3962142 14.2140333,16.3365651 C14.2746088,16.276916 14.3048965,16.1623269 14.3048965,15.9927978 L14.3048965,15.4747922 C14.3048965,15.3178209 14.2746088,15.2079409 14.2140333,15.1451524 C14.1534578,15.0823638 14.044422,15.0509695 13.8869258,15.0509695 L13.3780919,15.0509695 C13.2205957,15.0509695 13.1115598,15.0823638 13.0509844,15.1451524 C12.9904089,15.2079409 12.9601212,15.3178209 12.9601212,15.4747922 L12.9601212,15.9927978 C12.9601212,16.1623269 12.9904089,16.276916 13.0509844,16.3365651 C13.1115598,16.3962142 13.2205957,16.4260388 13.3780919,16.4260388 L13.8869258,16.4260388 Z M16.6219081,16.4260388 C16.7794043,16.4260388 16.8899546,16.3962142 16.9535588,16.3365651 C17.017163,16.276916 17.0489652,16.1623269 17.0489652,15.9927978 L17.0489652,15.4747922 C17.0489652,15.3178209 17.017163,15.2079409 16.9535588,15.1451524 C16.8899546,15.0823638 16.7794043,15.0509695 16.6219081,15.0509695 L16.1130742,15.0509695 C15.9616355,15.0509695 15.8541141,15.0823638 15.7905098,15.1451524 C15.7269056,15.2079409 15.6951035,15.3178209 15.6951035,15.4747922 L15.6951035,15.9927978 C15.6951035,16.1623269 15.7269056,16.276916 15.7905098,16.3365651 C15.8541141,16.3962142 15.9616355,16.4260388 16.1130742,16.4260388 L16.6219081,16.4260388 Z M19.3659768,16.4260388 C19.5174154,16.4260388 19.6249369,16.3962142 19.6885411,16.3365651 C19.7521454,16.276916 19.7839475,16.1623269 19.7839475,15.9927978 L19.7839475,15.4747922 C19.7839475,15.3178209 19.7521454,15.2079409 19.6885411,15.1451524 C19.6249369,15.0823638 19.5174154,15.0509695 19.3659768,15.0509695 L18.8571429,15.0509695 C18.6996466,15.0509695 18.5906108,15.0823638 18.5300353,15.1451524 C18.4694599,15.2079409 18.4391721,15.3178209 18.4391721,15.4747922 L18.4391721,15.9927978 C18.4391721,16.1623269 18.4694599,16.276916 18.5300353,16.3365651 C18.5906108,16.3962142 18.6996466,16.4260388 18.8571429,16.4260388 L19.3659768,16.4260388 Z M11.1428571,19.2232687 C11.3003534,19.2232687 11.4109036,19.1934441 11.4745078,19.133795 C11.5381121,19.0741459 11.5699142,18.9626962 11.5699142,18.799446 L11.5699142,18.2720222 C11.5699142,18.1087719 11.5381121,17.9973223 11.4745078,17.9376731 C11.4109036,17.878024 11.3003534,17.8481994 11.1428571,17.8481994 L10.6431095,17.8481994 C10.4856133,17.8481994 10.3750631,17.878024 10.3114589,17.9376731 C10.2478546,17.9973223 10.2160525,18.1087719 10.2160525,18.2720222 L10.2160525,18.799446 C10.2160525,18.9626962 10.2478546,19.0741459 10.3114589,19.133795 C10.3750631,19.1934441 10.4856133,19.2232687 10.6431095,19.2232687 L11.1428571,19.2232687 Z M13.8869258,19.2232687 C14.044422,19.2232687 14.1534578,19.1934441 14.2140333,19.133795 C14.2746088,19.0741459 14.3048965,18.9626962 14.3048965,18.799446 L14.3048965,18.2720222 C14.3048965,18.1087719 14.2746088,17.9973223 14.2140333,17.9376731 C14.1534578,17.878024 14.044422,17.8481994 13.8869258,17.8481994 L13.3780919,17.8481994 C13.2205957,17.8481994 13.1115598,17.878024 13.0509844,17.9376731 C12.9904089,17.9973223 12.9601212,18.1087719 12.9601212,18.2720222 L12.9601212,18.799446 C12.9601212,18.9626962 12.9904089,19.0741459 13.0509844,19.133795 C13.1115598,19.1934441 13.2205957,19.2232687 13.3780919,19.2232687 L13.8869258,19.2232687 Z M16.6219081,19.2232687 C16.7794043,19.2232687 16.8899546,19.1934441 16.9535588,19.133795 C17.017163,19.0741459 17.0489652,18.9626962 17.0489652,18.799446 L17.0489652,18.2720222 C17.0489652,18.1087719 17.017163,17.9973223 16.9535588,17.9376731 C16.8899546,17.878024 16.7794043,17.8481994 16.6219081,17.8481994 L16.1130742,17.8481994 C15.9616355,17.8481994 15.8541141,17.878024 15.7905098,17.9376731 C15.7269056,17.9973223 15.6951035,18.1087719 15.6951035,18.2720222 L15.6951035,18.799446 C15.6951035,18.9626962 15.7269056,19.0741459 15.7905098,19.133795 C15.8541141,19.1934441 15.9616355,19.2232687 16.1130742,19.2232687 L16.6219081,19.2232687 Z" id="􀉉" fill="#FFFFFF" fill-rule="nonzero"></path>
        </g>
    </g>
</svg>