<?xml version="1.0" encoding="UTF-8"?>
<svg width="40px" height="40px" viewBox="0 0 40 40" version="1.1" xmlns="http://www.w3.org/2000/svg" xmlns:xlink="http://www.w3.org/1999/xlink">
    <title>merch visit</title>
    <g id="merch-visit" stroke="none" stroke-width="1" fill="none" fill-rule="evenodd">
        <g id="task-copy-6" fill="#4656DF">
            <rect id="Rectangle" x="0" y="0" width="40" height="40" rx="10"></rect>
        </g>
        <g id="Group-28" transform="translate(9.000000, 9.000000)">
            <path d="M5.2846446,2.66666667 L5.2846446,3.42143284 C6.98983961,4.75046153 7.84243712,5.92285588 7.84243712,6.93861589 L7.84243712,13.0527359 L7.84243712,13.0527359 C7.98716563,13.6887792 7.89488158,14.2624629 7.56558498,14.7737871 C7.07164008,15.5407735 7.56558498,16.2140185 7.56558498,17.1515135 C7.56558498,18.0890084 7.56019974,17.8575173 7.31289126,18.3705709 C7.06558278,18.8836246 7.71142646,18.5686942 7.84243712,19.5744085 C7.97344778,20.5801229 8.11928927,21.1783034 7.84243712,22.4356745 C7.56558498,23.6930456 6.40664725,24.6084665 5.52501777,23.5074181 C5.3068642,23.2349708 4.72037008,24 4.46307902,23.9126659 C4.45815323,23.9135564 4.4256564,23.9142106 4.37407688,23.9146743 L3.62381323,23.9149425 C3.39961142,23.914276 3.21529901,23.9132784 3.20350621,23.9126659 C3.12730738,23.9087085 3.05950604,23.8519348 3.00010219,23.7423448 C2.78974037,23.5802188 2.54210959,23.37233 2.42053292,23.4829806 C1.26824907,24.5317082 0.422264724,23.6930456 0.153155949,22.4356745 C-0.115952825,21.1783034 0.0258095724,20.5801229 0.153155949,19.5744085 C0.280502327,18.5686942 0.908282191,18.8836246 0.667890768,18.3705709 C0.427499345,17.8575173 0.388952128,17.9490633 0.335515968,17.1665799 C0.282079808,16.3840964 0.902394317,15.5407735 0.422264724,14.7737871 C0.102178329,14.2624629 0.0124754039,13.6887792 0.153155949,13.0527359 L0.153155949,13.0527359 L0.153155949,6.93861589 C0.153155949,5.92285588 0.981906875,4.75046153 2.63940873,3.42143284 L2.63940873,3.42143284 L2.63940873,2.66666667 L5.2846446,2.66666667 Z" id="Combined-Shape-Copy-2" stroke="#FFFFFF"></path>
            <rect id="Rectangle-Copy-10" stroke="#FFFFFF" x="2.66666667" y="0" width="2.66666667" height="1.77777778"></rect>
            <rect id="Rectangle-Copy-14" fill="#FFFFFF" x="0" y="8" width="8" height="5.33333333" rx="1"></rect>
        </g>
        <g id="Group-28-Copy-2" transform="translate(23.000000, 9.000000)">
            <g id="Group-36" fill="#4656DF" stroke="#FFFFFF">
                <path d="M5.2846446,2.66666667 L5.2846446,3.42143284 C6.98983961,4.75046153 7.84243712,5.92285588 7.84243712,6.93861589 L7.84243712,13.0527359 L7.84243712,13.0527359 C7.98716563,13.6887792 7.89488158,14.2624629 7.56558498,14.7737871 C7.07164008,15.5407735 7.56558498,16.2140185 7.56558498,17.1515135 C7.56558498,18.0890084 7.56019974,17.8575173 7.31289126,18.3705709 C7.06558278,18.8836246 7.71142646,18.5686942 7.84243712,19.5744085 C7.97344778,20.5801229 8.11928927,21.1783034 7.84243712,22.4356745 C7.56558498,23.6930456 6.40664725,24.6084665 5.52501777,23.5074181 C5.3068642,23.2349708 4.72037008,24 4.46307902,23.9126659 C4.45815323,23.9135564 4.4256564,23.9142106 4.37407688,23.9146743 L3.62381323,23.9149425 C3.39961142,23.914276 3.21529901,23.9132784 3.20350621,23.9126659 C3.12730738,23.9087085 3.05950604,23.8519348 3.00010219,23.7423448 C2.78974037,23.5802188 2.54210959,23.37233 2.42053292,23.4829806 C1.26824907,24.5317082 0.422264724,23.6930456 0.153155949,22.4356745 C-0.115952825,21.1783034 0.0258095724,20.5801229 0.153155949,19.5744085 C0.280502327,18.5686942 0.908282191,18.8836246 0.667890768,18.3705709 C0.427499345,17.8575173 0.388952128,17.9490633 0.335515968,17.1665799 C0.282079808,16.3840964 0.902394317,15.5407735 0.422264724,14.7737871 C0.102178329,14.2624629 0.0124754039,13.6887792 0.153155949,13.0527359 L0.153155949,13.0527359 L0.153155949,6.93861589 C0.153155949,5.92285588 0.981906875,4.75046153 2.63940873,3.42143284 L2.63940873,3.42143284 L2.63940873,2.66666667 L5.2846446,2.66666667 Z" id="Combined-Shape-Copy-2"></path>
                <rect id="Rectangle-Copy-10" x="2.66666667" y="0" width="2.66666667" height="1.77777778"></rect>
            </g>
            <rect id="Rectangle-Copy-14" fill="#FFFFFF" x="0" y="8" width="8" height="5.33333333" rx="1"></rect>
        </g>
        <g id="Group-28-Copy-3" transform="translate(16.000000, 7.000000)">
            <g id="Group-36" fill="#4656DF" stroke="#FFFFFF">
                <path d="M5.94522517,3 L5.94522517,3.84911194 C7.86356957,5.34426922 8.82274176,6.66321287 8.82274176,7.80594288 L8.82274176,14.6843279 L8.82274176,14.6843279 C8.98556133,15.3998766 8.88174178,16.0452708 8.5112831,16.6205105 C7.95559509,17.4833701 8.5112831,18.2407709 8.5112831,19.2954527 C8.5112831,20.3501345 8.5052247,20.0897069 8.22700267,20.6668923 C7.94878063,21.2440776 8.67535477,20.8897809 8.82274176,22.0212096 C8.97012875,23.1526383 9.13420042,23.8255913 8.82274176,25.2401338 C8.5112831,26.6546763 7.20747816,27.6845248 6.21564499,26.4458454 C5.97022222,26.1393421 5.31041634,27 5.02096389,26.9017492 C5.00295398,26.905005 4.65732261,26.9054529 4.31188198,26.9048628 L4.02348248,26.9041442 C3.79593144,26.9034024 3.61626375,26.902389 3.60394449,26.9017492 C3.51829974,26.8973012 3.44208477,26.8335442 3.3752996,26.7104783 C3.1378777,26.5272593 2.85973082,26.2940009 2.72309953,26.4183531 C1.42678021,27.5981717 0.475047815,26.6546763 0.172300443,25.2401338 C-0.130446928,23.8255913 0.0290357689,23.1526383 0.172300443,22.0212096 C0.315565117,20.8897809 1.02181746,21.2440776 0.751377114,20.6668923 C0.480936763,20.0897069 0.437571144,20.1926962 0.377455464,19.3124024 C0.317339784,18.4321085 1.01519361,17.4833701 0.475047815,16.6205105 C0.11495062,16.0452708 0.0140348294,15.3998766 0.172300443,14.6843279 L0.172300443,14.6843279 L0.172300443,7.80594288 C0.172300443,6.66321287 1.10464523,5.34426922 2.96933482,3.84911194 L2.96933482,3.84911194 L2.96933482,3 L5.94522517,3 Z" id="Combined-Shape-Copy-2"></path>
                <rect id="Rectangle-Copy-10" x="3" y="0" width="3" height="2"></rect>
            </g>
            <rect id="Rectangle-Copy-14" fill="#FFFFFF" x="0" y="9" width="9" height="6" rx="1"></rect>
        </g>
    </g>
</svg>