<?xml version="1.0" encoding="UTF-8"?>
<svg width="17px" height="17px" viewBox="0 0 17 17" version="1.1" xmlns="http://www.w3.org/2000/svg" xmlns:xlink="http://www.w3.org/1999/xlink">
    <title>move_up_black_24dp 2</title>
    <g id="5.2--Equipment-request-install---move/repair/pickup/exchange" stroke="none" stroke-width="1" fill="none" fill-rule="evenodd">
        <g id="5.2.2---16---Service-Request---Exchange---Multple-Assets" transform="translate(-121.000000, -596.000000)">
            <g id="Group-3" transform="translate(107.000000, 561.000000)">
                <g id="Group-8" transform="translate(0.000000, 23.000000)">
                    <g id="move_up_black_24dp" transform="translate(14.000000, 12.000000)">
                        <rect id="Rectangle" x="0" y="0" width="17" height="17"></rect>
                        <g id="Group" transform="translate(0.708333, 2.125000)" fill="#00A2D9" fill-rule="nonzero">
                            <path d="M1.41666667,7.08333333 C1.41666667,5.34791667 2.66333333,3.91708333 4.30666667,3.60541667 L3.25125,4.66791667 L4.25,5.66666667 L7.08333333,2.82625 L4.25,0 L3.25125,0.99875 L4.37041667,2.11791667 L4.37041667,2.16041667 C1.9125,2.45083333 0,4.5475 0,7.08333333 C0,9.82458333 2.21708333,12.0416667 4.95833333,12.0416667 L7.08333333,12.0416667 L7.08333333,10.625 L4.95833333,10.625 C3.00333333,10.625 1.41666667,9.03833333 1.41666667,7.08333333 Z" id="Path"></path>
                            <path d="M8.5,7.08333333 L8.5,12.0416667 L14.875,12.0416667 L14.875,7.08333333 L8.5,7.08333333 Z M13.4583333,10.625 L9.91666667,10.625 L9.91666667,8.5 L13.4583333,8.5 L13.4583333,10.625 Z" id="Shape"></path>
                            <rect id="Rectangle" x="8.5" y="0.708333333" width="6.375" height="4.95833333"></rect>
                        </g>
                    </g>
                </g>
            </g>
        </g>
    </g>
</svg>