<?xml version="1.0" encoding="UTF-8"?>
<svg width="162px" height="121px" viewBox="0 0 162 121" version="1.1" xmlns="http://www.w3.org/2000/svg" xmlns:xlink="http://www.w3.org/1999/xlink">
    <title>no results icon</title>
    <defs>
        <polygon id="path-1" points="0 0.783003859 65.1590536 0.783003859 65.1590536 112.013136 0 112.013136"></polygon>
        <polygon id="path-3" points="0.81524254 0.847762788 119.847325 0.847762788 119.847325 120.614525 0.81524254 120.614525"></polygon>
    </defs>
    <g id="3.1-KPI" stroke="none" stroke-width="1" fill="none" fill-rule="evenodd">
        <g id="2.3.3-Notifications-placeholder" transform="translate(-142.000000, -438.000000)">
            <g id="no-results-icon" transform="translate(142.000000, 438.000000)">
                <g id="Group-47">
                    <path d="M58.0892363,113.688944 L7.86233206,113.688944 C5.02394127,113.688944 2.7223743,111.373145 2.7223743,108.515105 L2.7223743,13.1331388 C2.7223743,10.275099 5.02394127,7.95930007 7.86233206,7.95930007 L58.0892363,7.95930007 C60.9286694,7.95930007 63.2302364,10.275099 63.2302364,13.1331388 L63.2302364,108.515105 C63.2302364,111.373145 60.9286694,113.688944 58.0892363,113.688944" id="Fill-1" fill="#FFFFFF"></path>
                    <path d="M65.157903,99.6854927 L65.157903,97.5385542 C65.157903,96.5295875 64.2708407,95.5478901 63.2295067,95.5992824 C62.1881728,95.6506747 61.3021529,96.4530235 61.3021529,97.5385542 L61.3021529,105.815857" id="Fill-3" fill="#28BEF0"></path>
                    <g id="Group-7" transform="translate(0.000000, 5.244110)">
                        <mask id="mask-2" fill="white">
                            <use xlink:href="#path-1"></use>
                        </mask>
                        <g id="Clip-6"></g>
                        <path d="M61.3018402,92.2659164 L61.3018402,104.021113 L61.3018402,104.241366 L61.3018402,104.253951 C61.3018402,104.435398 61.2893317,104.615795 61.2768231,104.797241 C61.2768231,104.719628 61.353959,104.435398 61.2768231,104.809827 C61.2121958,105.094058 61.13506,105.365703 61.0579241,105.650982 C60.9036524,106.168051 61.160077,105.455901 61.0318647,105.741181 C60.9422203,105.922627 60.8515336,106.090439 60.7493807,106.271885 C60.6847534,106.374669 60.6211684,106.464868 60.570092,106.556116 C60.3001165,106.995572 60.814008,106.322228 60.4668967,106.697707 C60.2740571,106.904325 60.0812175,107.099405 59.8758693,107.292389 C59.6184024,107.538862 59.7987335,107.357416 59.8758693,107.306023 C59.7341061,107.408808 59.592343,107.499007 59.4516222,107.590254 C59.3484269,107.655281 59.2587825,107.706673 59.1555873,107.758066 C59.0534344,107.809458 58.9502391,107.861899 58.8480863,107.913291 C59.0534344,107.836727 59.0398835,107.823093 58.8345354,107.913291 C58.5895769,107.990904 58.3456609,108.068517 58.0892363,108.119909 C57.986041,108.147179 57.6139127,108.17235 57.9995919,108.147179 C57.8453202,108.158716 57.703557,108.17235 57.5492853,108.17235 L57.4200307,108.17235 L56.3411711,108.17235 L41.7666651,108.17235 L21.1130202,108.17235 L8.15836694,108.17235 L7.78519621,108.17235 L7.73307739,108.17235 C7.55378866,108.17235 7.37449993,108.158716 7.19416882,108.147179 C7.63092451,108.17235 7.07742267,108.119909 7.01383772,108.107323 C6.8470575,108.068517 6.68027729,108.02971 6.51245469,107.977269 C6.46137825,107.965732 5.94644434,107.758066 6.33316596,107.926926 C6.2299707,107.874485 6.12677545,107.836727 6.02462256,107.770651 C5.77966412,107.641646 5.53574806,107.48747 5.30434051,107.319658 C5.61288391,107.538862 5.02185652,107.05955 4.93221215,106.956766 C4.81650838,106.840346 4.70080461,106.710292 4.59865172,106.581287 C4.80399986,106.840346 4.57154994,106.529895 4.50796498,106.426062 C4.35369328,106.193223 4.22548099,105.935213 4.10977722,105.676154 C4.2515404,106.00024 4.13479425,105.728595 4.10977722,105.662519 C4.0576584,105.494708 4.00658196,105.340531 3.96801403,105.172719 C3.942997,105.055251 3.91693759,104.938832 3.89087819,104.834999 C3.77517441,104.305344 3.87836967,105.197891 3.87836967,104.65565 C3.87836967,104.538182 3.86481878,104.409177 3.86481878,104.292758 C3.85231026,103.749468 3.86481878,103.193592 3.86481878,102.637717 L3.86481878,91.7362614 L3.86481878,73.8003571 L3.86481878,52.7599398 L3.86481878,32.3792315 L3.86481878,16.4214054 L3.86481878,8.80486034 L3.86481878,8.62341414 L3.86481878,8.42938207 C3.86481878,8.3779898 3.92944611,7.79589361 3.86481878,8.23535001 C3.87836967,8.1199796 3.90442908,8.00251154 3.92944611,7.8860923 C3.96801403,7.71828079 4.00658196,7.55046927 4.0576584,7.38160894 C4.08371781,7.29141025 4.27655743,6.8257333 4.10977722,7.20121156 C4.22548099,6.94215254 4.3662018,6.6967282 4.50796498,6.45130386 C4.49545647,6.46388973 4.81650838,6.01184746 4.64868579,6.23105125 C4.48190557,6.45130386 4.8290169,6.0233845 4.81650838,6.03701919 C5.009348,5.83040126 5.21469614,5.6363692 5.42108666,5.454923 C5.15111119,5.67412679 5.36896784,5.49477824 5.4325528,5.454923 C5.6264348,5.33850376 5.80572353,5.20949866 6.01211405,5.10566529 C6.11530931,5.05427301 6.21746219,5.00288074 6.32065745,4.95043964 C5.92142731,5.13188584 6.44886974,4.91268205 6.49994618,4.89904736 C6.76992165,4.80884868 7.05240564,4.74382171 7.34844052,4.70606412 C6.94921038,4.77004226 7.618416,4.70606412 7.73307739,4.70606412 C8.77441136,4.69242944 9.81574533,4.70606412 10.8560369,4.70606412 L28.0406534,4.70606412 L48.2064661,4.70606412 L55.0298617,4.70606412 L56.8936306,4.70606412 L57.3439372,4.70606412 L57.4335816,4.70606412 L57.4471324,4.70606412 C57.1000211,4.70606412 58.1403127,4.71760117 57.8057099,4.71760117 C58.2560165,4.71760117 57.5878532,4.63998834 57.986041,4.73123585 C58.2695674,4.79626281 58.5395429,4.87387564 58.8220268,4.95043964 C59.3234099,5.09307943 58.5395429,4.77004226 58.9888071,5.01651542 C59.0920023,5.06685888 59.1951976,5.11929998 59.2837996,5.17069225 C59.4255627,5.24830508 59.5673259,5.35213845 59.7090891,5.44233714 C59.7726741,5.48114355 59.9905307,5.66258975 59.7205553,5.44233714 C59.9780222,5.66258975 60.2094298,5.8943794 60.4408373,6.15343843 C60.8014995,6.54150255 60.3251335,5.97304105 60.5044223,6.23105125 C60.5826005,6.34747049 60.6597363,6.46388973 60.7368722,6.58030896 C60.814008,6.6967282 60.8786354,6.8257333 60.9422203,6.9547384 C60.9932968,7.04598591 61.1225514,7.39524362 60.9932968,7.03235123 C61.096492,7.30399611 61.1736279,7.575641 61.2372128,7.85987175 C61.2632722,7.97733981 61.2893317,8.09271023 61.3018402,8.20912946 C61.2372128,7.76967306 61.3018402,8.49440904 61.3018402,8.58460772 C61.3153911,9.19292446 61.3018402,9.81382706 61.3018402,10.4347297 L61.3018402,20.1719927 L61.3018402,93.487794 C61.3018402,94.4967607 62.1889024,95.4795069 63.2302364,95.4281146 C64.2715704,95.3767224 65.1575903,94.5743736 65.1575903,93.487794 L65.1575903,10.0456167 C65.1575903,9.08909109 65.1836497,8.14515132 65.0158271,7.1886257 C64.5405035,4.35680641 62.3681912,2.01478698 59.6819873,1.17468059 C58.2820759,0.69641778 56.7393589,0.800251154 55.2862863,0.800251154 L38.8740707,0.800251154 L18.1568409,0.800251154 C14.6742615,0.800251154 11.2031482,0.761444741 7.72161125,0.800251154 C3.4405716,0.85164343 0.0226195667,4.36834345 0.00906867421,8.66222055 L0.00906867421,10.9906053 L0.00906867421,23.1328171 L0.00906867421,41.9360972 L0.00906867421,63.4285567 L0.00906867421,83.6917969 L0.00906867421,98.6028987 L0.00906867421,102.8307 C0.00906867421,103.54285 -0.0294992506,104.266537 0.047636599,104.965053 C0.394747922,107.990904 2.29812713,110.499686 5.15111119,111.560045 C6.08820752,111.909303 7.07742267,112.013136 8.06872258,112.013136 L12.6176529,112.013136 L31.3554101,112.013136 L50.9041361,112.013136 L56.4829343,112.013136 L57.4335816,112.013136 C60.0040816,111.97433 62.3181571,110.732525 63.7962468,108.636978 C65.0043609,106.930545 65.1575903,105.004908 65.1575903,103.012146 L65.1575903,88.9411508" id="Fill-5" fill="#28BEF0" mask="url(#mask-2)"></path>
                    </g>
                    <path d="M46.3554142,7.98321321 C46.3554142,9.13481972 46.3804313,10.2979633 46.3554142,11.4495698 C46.3554142,11.5911607 46.3418633,11.7463864 46.3293548,11.8890262 C46.3804313,11.5009621 46.3293548,11.8114134 46.3168463,11.8890262 C46.2647275,12.0442518 46.2261596,12.2120633 46.1750831,12.3798749 C46.0729302,12.7291326 46.1365152,12.4585365 46.1750831,12.3798749 C46.0468708,12.626348 45.9176162,12.8717724 45.7508359,13.1046108 C45.969735,12.7941595 45.7508359,13.092025 45.6862086,13.1570519 C45.5454878,13.286057 45.4172755,13.427648 45.2619614,13.5566531 C45.5579963,13.2986429 45.0055369,13.6992929 44.9023416,13.7769057 C44.8252058,13.828298 44.4780944,13.9709378 44.8387566,13.828298 C44.7355614,13.8671044 44.6334085,13.9059108 44.5166624,13.945766 C44.3498821,13.9961095 44.1831019,14.0359647 44.0163217,14.0747711 C44.0924152,14.0611365 44.402001,14.0485506 44.0163217,14.0747711 C43.887067,14.087357 43.7713633,14.087357 43.643151,14.087357 C41.81795,14.1135776 39.992749,14.087357 38.1810989,14.087357 C32.6804789,14.087357 27.179859,14.0999429 21.6781966,14.087357 L21.4989079,14.087357 C21.3185768,14.087357 21.1392881,14.0747711 20.9714655,14.0611365 C21.421772,14.1261634 20.8693126,14.0233789 20.8046852,13.9961095 C20.637905,13.9573031 20.4836333,13.9059108 20.3293616,13.8419327 C20.6639644,13.9845725 20.393989,13.8671044 20.3293616,13.828298 C20.161539,13.7255134 19.9947588,13.6353147 19.8279786,13.5178467 C19.5830202,13.3500352 20.1240135,13.828298 19.7633513,13.4538685 L19.41624,13.1046108 C19.0576625,12.7427673 19.5329861,13.286057 19.352655,13.0395839 C19.2359088,12.8717724 19.1598154,12.7039608 19.0441116,12.5361493 C19.0055437,12.4711224 18.8887975,12.1994775 19.0305607,12.5361493 C18.9544672,12.3547031 18.9158993,12.1606711 18.851272,11.966639 C18.8252126,11.8764403 18.7605852,11.4883762 18.812704,11.8890262 C18.7866446,11.7086288 18.7866446,11.5397685 18.7866446,11.3593711 L18.7866446,11.1517043 L18.7866446,10.0399531 L18.7866446,7.97062735 C18.1445408,8.61670168 17.5013946,9.26382482 16.8592908,9.91094797 L27.4487921,9.91094797 L44.402001,9.91094797 L48.2702596,9.91094797 C49.2730256,9.91094797 50.2486899,9.01735166 50.1986558,7.97062735 C50.146537,6.92285421 49.3491191,6.03135555 48.2702596,6.03135555 L37.6797159,6.03135555 L20.7275494,6.03135555 L16.8592908,6.03135555 C15.8179568,6.03135555 14.9319369,6.92285421 14.9319369,7.97062735 C14.9319369,9.26382482 14.8412502,10.5958287 14.9569539,11.8764403 C15.2654973,15.0837379 17.7077851,17.527493 20.8693126,17.9019225 C21.5114164,17.9795353 22.180622,17.9407289 22.8362767,17.9407289 L26.7431033,17.9407289 C32.3583847,17.9407289 37.9882593,18.0183417 43.604583,17.9407289 C46.534703,17.9019225 49.2083983,15.9616018 49.9797568,13.0658044 C50.4165125,11.4621556 50.210122,9.61308254 50.210122,7.97062735 C50.210122,6.96166063 49.3241021,5.97891445 48.2827681,6.03135555 C47.2424765,6.09533369 46.3554142,6.89768249 46.3554142,7.98321321" id="Fill-8" fill="#28BEF0"></path>
                    <path d="M38.9203522,103.815229 C38.9203522,107.074968 36.2925215,109.717999 33.0528158,109.717999 C29.8131101,109.717999 27.1863217,107.074968 27.1863217,103.815229 C27.1863217,100.555491 29.8131101,97.9114104 33.0528158,97.9114104 C36.2925215,97.9114104 38.9203522,100.555491 38.9203522,103.815229" id="Fill-10" fill="#DEDEDE"></path>
                    <path d="M159.247587,60.7305671 C159.247587,93.1077009 133.162119,119.355519 100.983961,119.355519 C72.0371699,119.355519 48.0208189,98.114777 43.4885666,70.2790422 C42.983014,67.1724316 42.7203352,63.9819152 42.7203352,60.7305671 C42.7203352,56.9978098 43.0664041,53.3479094 43.7293555,49.8091841 C48.8161521,22.6509883 72.5156207,2.10561496 100.983961,2.10561496 C133.162119,2.10561496 159.247587,28.3534333 159.247587,60.7305671" id="Fill-12" fill="#FFFFFF"></path>
                    <g id="Group-16" transform="translate(40.652677, 0.000000)">
                        <mask id="mask-4" fill="white">
                            <use xlink:href="#path-3"></use>
                        </mask>
                        <g id="Clip-15"></g>
                        <path d="M60.3318047,3.36703313 C28.8958189,3.36703313 3.3200729,29.0998799 3.3200729,60.7302525 C3.3200729,92.3616739 28.8958189,118.095569 60.3318047,118.095569 C91.7677906,118.095569 117.342494,92.3616739 117.342494,60.7302525 C117.342494,29.0998799 91.7677906,3.36703313 60.3318047,3.36703313 M60.3318047,120.61484 C27.5146703,120.61484 0.81524254,93.751363 0.81524254,60.7302525 C0.81524254,27.7112396 27.5146703,0.847762788 60.3318047,0.847762788 C93.1478969,0.847762788 119.847325,27.7112396 119.847325,60.7302525 C119.847325,93.751363 93.1478969,120.61484 60.3318047,120.61484" id="Fill-14" fill="#28BEF0" mask="url(#mask-4)"></path>
                    </g>
                    <line x1="62.6923702" y1="62.1604261" x2="131.720617" y2="62.1604261" id="Stroke-21" stroke="#DEDEDE" stroke-width="2.835" stroke-linecap="round"></line>
                    <line x1="62.6923702" y1="69.6363241" x2="125.466358" y2="69.6363241" id="Stroke-23" stroke="#DEDEDE" stroke-width="2.835" stroke-linecap="round"></line>
                    <line x1="62.6923702" y1="77.112327" x2="123.381606" y2="77.112327" id="Stroke-25" stroke="#DEDEDE" stroke-width="2.835" stroke-linecap="round"></line>
                    <line x1="62.6923702" y1="84.5882251" x2="122.339229" y2="84.5882251" id="Stroke-27" stroke="#DEDEDE" stroke-width="2.835" stroke-linecap="round"></line>
                    <line x1="62.6923702" y1="93.5513526" x2="128.593488" y2="93.5513526" id="Stroke-29" stroke="#DEDEDE" stroke-width="2.835" stroke-linecap="round"></line>
                    <path d="M15.8454755,39.9456428 L8.90637621,39.9456428 C7.82647432,39.9456428 6.95192056,39.0646324 6.95192056,37.9791017 L6.95192056,26.8899071 C6.95192056,25.8033276 7.82647432,24.9233659 8.90637621,24.9233659 L15.8454755,24.9233659 C16.9253774,24.9233659 17.7999312,25.8033276 17.7999312,26.8899071 L17.7999312,37.9791017 C17.7999312,39.0646324 16.9253774,39.9456428 15.8454755,39.9456428" id="Fill-31" fill="#DEDEDE"></path>
                    <line x1="20.7520452" y1="27.2030854" x2="52.1567598" y2="27.2030854" id="Stroke-33" stroke="#28BEF0" stroke-width="2.826" stroke-linecap="round" stroke-linejoin="round"></line>
                    <line x1="20.7520452" y1="32.5219761" x2="49.0296307" y2="32.5219761" id="Stroke-35" stroke="#28BEF0" stroke-width="2.826" stroke-linecap="round" stroke-linejoin="round"></line>
                    <line x1="9.21658741" y1="55.8255415" x2="36.4507542" y2="55.8255415" id="Stroke-37" stroke="#DEDEDE" stroke-width="2.826" stroke-linecap="round" stroke-linejoin="round"></line>
                    <line x1="9.21658741" y1="47.4687379" x2="36.4507542" y2="47.4687379" id="Stroke-39" stroke="#DEDEDE" stroke-width="2.826" stroke-linecap="round" stroke-linejoin="round"></line>
                    <line x1="9.21658741" y1="63.9395428" x2="36.4507542" y2="63.9395428" id="Stroke-41" stroke="#DEDEDE" stroke-width="2.826" stroke-linecap="round" stroke-linejoin="round"></line>
                    <line x1="9.21658741" y1="72.0524953" x2="38.5355069" y2="72.0524953" id="Stroke-43" stroke="#DEDEDE" stroke-width="2.826" stroke-linecap="round" stroke-linejoin="round"></line>
                    <line x1="9.21658741" y1="80.1666015" x2="40.6202596" y2="80.1666015" id="Stroke-45" stroke="#DEDEDE" stroke-width="2.826" stroke-linecap="round" stroke-linejoin="round"></line>
                </g>
                <g id="Group-2" transform="translate(115.000000, 77.000000)">
                    <circle id="Oval" fill="#FFFFFF" cx="22.5" cy="23.5" r="16.5"></circle>
                    <path d="M22,44 C25.0160056,44 27.8482951,43.4258873 30.4968685,42.2776618 C33.1454419,41.1294363 35.4839944,39.5448852 37.5125261,37.5240084 C39.5410578,35.5031315 41.1294363,33.164579 42.2776618,30.5083507 C43.4258873,27.8521225 44,25.0160056 44,22 C44,18.9993041 43.4220598,16.170842 42.2661795,13.5146138 C41.1102992,10.8583855 39.5180932,8.51600557 37.4895616,6.4874739 C35.4610299,4.45894224 33.1224774,2.87056367 30.473904,1.7223382 C27.8253305,0.574112735 24.9930411,0 21.9770355,0 C18.9763396,0 16.1517049,0.574112735 13.5031315,1.7223382 C10.8545581,2.87056367 8.51600557,4.45894224 6.4874739,6.4874739 C4.45894224,8.51600557 2.87056367,10.8583855 1.7223382,13.5146138 C0.574112735,16.170842 0,18.9993041 0,22 C0,25.0160056 0.577940153,27.8521225 1.73382046,30.5083507 C2.88970077,33.164579 4.47807933,35.5031315 6.49895616,37.5240084 C8.51983299,39.5448852 10.8545581,41.1294363 13.5031315,42.2776618 C16.1517049,43.4258873 18.9839944,44 22,44 Z M32.4727432,34.2222222 C31.897359,34.2222222 31.3997294,33.9987195 30.9798545,33.5517141 L25.0316259,27.6558672 C24.3007325,28.1182866 23.5076353,28.4882221 22.6523345,28.7656737 C21.7970336,29.0431253 20.9028555,29.1818511 19.9698,29.1818511 C18.2591983,29.1818511 16.6924427,28.7618202 15.2695331,27.9217584 C13.8466235,27.0816965 12.711406,25.9603295 11.8638807,24.5576575 C11.0163553,23.1549854 10.5925926,21.5981735 10.5925926,19.8872219 C10.5925926,18.1916842 11.0163553,16.6387258 11.8638807,15.2283467 C12.711406,13.8179677 13.8466235,12.6927472 15.2695331,11.8526854 C16.6924427,11.0126235 18.2591983,10.5925926 19.9698,10.5925926 C21.6804017,10.5925926 23.2432696,11.00877 24.6584037,11.8411249 C26.0735378,12.6734797 27.2048676,13.7948467 28.052393,15.2052258 C28.8999183,16.6156048 29.323681,18.1762702 29.323681,19.8872219 C29.323681,20.8737165 29.1720595,21.8139692 28.8688165,22.70798 C28.5655735,23.6019908 28.1495862,24.4189317 27.6208548,25.1588026 L33.6390626,31.1471334 C33.8101227,31.3321012 33.950081,31.5324829 34.0589375,31.7482786 C34.167794,31.9640743 34.2222222,32.195284 34.2222222,32.4419077 C34.2222222,32.950569 34.0628252,33.3744534 33.7440313,33.7135609 C33.4252373,34.0526685 33.0014747,34.2222222 32.4727432,34.2222222 Z M19.578836,26.0740741 C20.7738977,26.0740741 21.8603175,25.7786612 22.8380952,25.1878354 C23.815873,24.5970097 24.5996473,23.8079463 25.189418,22.8206453 C25.7791887,21.8333444 26.0740741,20.7488681 26.0740741,19.5672166 C26.0740741,18.370017 25.7791887,17.2777667 25.189418,16.2904658 C24.5996473,15.3031648 23.815873,14.5141015 22.8380952,13.9232757 C21.8603175,13.3324499 20.7738977,13.037037 19.578836,13.037037 C18.3837743,13.037037 17.2895944,13.3363369 16.2962963,13.9349367 C15.3029982,14.5335365 14.5114638,15.3264869 13.9216931,16.3137878 C13.3319224,17.3010888 13.037037,18.3855651 13.037037,19.5672166 C13.037037,20.7488681 13.3319224,21.8333444 13.9216931,22.8206453 C14.5114638,23.8079463 15.3029982,24.5970097 16.2962963,25.1878354 C17.2895944,25.7786612 18.3837743,26.0740741 19.578836,26.0740741 Z" id="􀒓" fill="#FE5A17" fill-rule="nonzero"></path>
                </g>
                <path d="M88.6967773,54.0253906 C89.9296875,54.0253906 90.7109375,53.1586914 90.7109375,51.8037109 L90.7109375,36.2275391 C90.7109375,34.8725586 89.9296875,34.0058594 88.6967773,34.0058594 L81.4335938,34.0058594 L81.4335938,30.2216797 C81.4335938,28.8666992 80.6523438,28 79.4194336,28 L64.0263672,28 C62.78125,28 62,28.8666992 62,30.2216797 L62,51.8037109 C62,53.1586914 62.78125,54.0253906 64.0263672,54.0253906 L88.6967773,54.0253906 Z M67.46875,52.0600586 L64.6733398,52.0600586 C64.1850586,52.0600586 63.965332,51.828125 63.965332,51.3520508 L63.965332,30.6733398 C63.965332,30.1850586 64.1850586,29.965332 64.6733398,29.965332 L78.7724609,29.965332 C79.2485352,29.965332 79.4682617,30.1850586 79.4682617,30.6733398 L79.4682617,51.3520508 C79.4682617,51.828125 79.2485352,52.0600586 78.7724609,52.0600586 L75.9648438,52.0600586 L75.9648438,48.4589844 C75.9648438,47.4091797 75.5009766,46.9208984 74.5,46.9208984 L68.9335938,46.9208984 C67.9326172,46.9208984 67.46875,47.4091797 67.46875,48.4589844 L67.46875,52.0600586 Z M70.0444336,35.2998047 C70.3374023,35.2998047 70.5449219,35.1044922 70.5449219,34.7993164 L70.5449219,32.4921875 C70.5449219,32.1992188 70.3374023,31.9916992 70.0444336,31.9916992 L67.6640625,31.9916992 C67.3710938,31.9916992 67.1879883,32.1992188 67.1879883,32.4921875 L67.1879883,34.7993164 C67.1879883,35.1044922 67.3710938,35.2998047 67.6640625,35.2998047 L70.0444336,35.2998047 Z M75.7573242,35.2998047 C76.050293,35.2998047 76.2578125,35.1044922 76.2578125,34.7993164 L76.2578125,32.4921875 C76.2578125,32.1992188 76.050293,31.9916992 75.7573242,31.9916992 L73.3891602,31.9916992 C73.0839844,31.9916992 72.9008789,32.1992188 72.9008789,32.4921875 L72.9008789,34.7993164 C72.9008789,35.1044922 73.0839844,35.2998047 73.3891602,35.2998047 L75.7573242,35.2998047 Z M88.0498047,52.0600586 L81.4213867,52.0600586 C81.4335938,51.9746094 81.4335938,51.8891602 81.4335938,51.8037109 L81.4335938,35.9711914 L88.0498047,35.9711914 C88.5258789,35.9711914 88.7456055,36.203125 88.7456055,36.6791992 L88.7456055,51.3520508 C88.7456055,51.828125 88.5258789,52.0600586 88.0498047,52.0600586 Z M70.0444336,40.1337891 C70.3374023,40.1337891 70.5449219,39.9384766 70.5449219,39.6333008 L70.5449219,37.3261719 C70.5449219,37.0332031 70.3374023,36.8256836 70.0444336,36.8256836 L67.6640625,36.8256836 C67.3710938,36.8256836 67.1879883,37.0332031 67.1879883,37.3261719 L67.1879883,39.6333008 C67.1879883,39.9384766 67.3710938,40.1337891 67.6640625,40.1337891 L70.0444336,40.1337891 Z M75.7573242,40.1337891 C76.050293,40.1337891 76.2578125,39.9384766 76.2578125,39.6333008 L76.2578125,37.3261719 C76.2578125,37.0332031 76.050293,36.8256836 75.7573242,36.8256836 L73.3891602,36.8256836 C73.0839844,36.8256836 72.9008789,37.0332031 72.9008789,37.3261719 L72.9008789,39.6333008 C72.9008789,39.9384766 73.0839844,40.1337891 73.3891602,40.1337891 L75.7573242,40.1337891 Z M86.0722656,40.7197266 C86.3164062,40.7197266 86.4873047,40.5488281 86.4873047,40.3046875 L86.4873047,38.4003906 C86.4873047,38.15625 86.3164062,37.9853516 86.0722656,37.9853516 L84.1069336,37.9853516 C83.8505859,37.9853516 83.7041016,38.15625 83.7041016,38.4003906 L83.7041016,40.3046875 C83.7041016,40.5488281 83.8505859,40.7197266 84.1069336,40.7197266 L86.0722656,40.7197266 Z M70.0444336,44.9677734 C70.3374023,44.9677734 70.5449219,44.7602539 70.5449219,44.4672852 L70.5449219,42.1601562 C70.5449219,41.8549805 70.3374023,41.659668 70.0444336,41.659668 L67.6640625,41.659668 C67.3710938,41.659668 67.1879883,41.8549805 67.1879883,42.1601562 L67.1879883,44.4672852 C67.1879883,44.7602539 67.3710938,44.9677734 67.6640625,44.9677734 L70.0444336,44.9677734 Z M75.7573242,44.9677734 C76.050293,44.9677734 76.2578125,44.7602539 76.2578125,44.4672852 L76.2578125,42.1601562 C76.2578125,41.8549805 76.050293,41.659668 75.7573242,41.659668 L73.3891602,41.659668 C73.0839844,41.659668 72.9008789,41.8549805 72.9008789,42.1601562 L72.9008789,44.4672852 C72.9008789,44.7602539 73.0839844,44.9677734 73.3891602,44.9677734 L75.7573242,44.9677734 Z M86.0722656,45.3828125 C86.3164062,45.3828125 86.4873047,45.2119141 86.4873047,44.9677734 L86.4873047,43.0634766 C86.4873047,42.8193359 86.3164062,42.6484375 86.0722656,42.6484375 L84.1069336,42.6484375 C83.8505859,42.6484375 83.7041016,42.8193359 83.7041016,43.0634766 L83.7041016,44.9677734 C83.7041016,45.2119141 83.8505859,45.3828125 84.1069336,45.3828125 L86.0722656,45.3828125 Z M86.0722656,50.0458984 C86.3164062,50.0458984 86.4873047,49.875 86.4873047,49.6308594 L86.4873047,47.7265625 C86.4873047,47.4824219 86.3164062,47.3115234 86.0722656,47.3115234 L84.1069336,47.3115234 C83.8505859,47.3115234 83.7041016,47.4824219 83.7041016,47.7265625 L83.7041016,49.6308594 C83.7041016,49.875 83.8505859,50.0458984 84.1069336,50.0458984 L86.0722656,50.0458984 Z M74.3657227,52.0600586 L69.0678711,52.0600586 L69.0678711,48.9106445 C69.0678711,48.6542969 69.2021484,48.5200195 69.4584961,48.5200195 L73.9750977,48.5200195 C74.2436523,48.5200195 74.3657227,48.6542969 74.3657227,48.9106445 L74.3657227,52.0600586 Z" id="􀝒-copy-4" fill="#28BEF0" fill-rule="nonzero"></path>
                <g id="Group-104" transform="translate(19.944134, 34.189944)">
                    <line x1="74.631043" y1="1.23112924" x2="115.440379" y2="1.23112924" id="Stroke-54" stroke="#28BEF0" stroke-width="2.826" stroke-linecap="round" stroke-linejoin="round"></line>
                    <line x1="74.631043" y1="7.50216015" x2="115.440379" y2="7.50216015" id="Stroke-56" stroke="#28BEF0" stroke-width="2.826" stroke-linecap="round" stroke-linejoin="round"></line>
                    <polygon id="Fill-58" fill="#28BEF0" points="74.6585781 14.0979259 73.9524693 15.2054901 73.6927631 15.2054901 74.5302895 13.9170991 73.726139 12.6975944 73.9931461 12.6975944 74.6585781 13.7534939 75.3271391 12.6975944 75.5931033 12.6975944 74.7962537 13.9170991 75.6306511 15.2054901 75.3667729 15.2054901"></polygon>
                    <polygon id="Fill-60" fill="#28BEF0" points="76.7200613 14.0979259 76.0149955 15.2054901 75.7542463 15.2054901 76.5917727 13.9170991 75.7886652 12.6975944 76.0546293 12.6975944 76.7200613 13.7534939 77.3896653 12.6975944 77.6545864 12.6975944 76.8587799 13.9170991 77.6931773 15.2054901 77.4292991 15.2054901"></polygon>
                    <polygon id="Fill-62" fill="#28BEF0" points="79.7218061 14.0979259 79.0156973 15.2054901 78.7559911 15.2054901 79.5935175 13.9170991 78.789367 12.6975944 79.0563742 12.6975944 79.7218061 13.7534939 80.3903671 12.6975944 80.6563313 12.6975944 79.8594817 13.9170991 80.6938791 15.2054901 80.4300009 15.2054901"></polygon>
                    <polygon id="Fill-64" fill="#28BEF0" points="81.7843323 14.0979259 81.0782235 15.2054901 80.8185173 15.2054901 81.6560437 13.9170991 80.8518932 12.6975944 81.1189003 12.6975944 81.7843323 13.7534939 82.4528933 12.6975944 82.7188574 12.6975944 81.9220079 13.9170991 82.7564053 15.2054901 82.4925271 15.2054901"></polygon>
                    <polygon id="Fill-66" fill="#28BEF0" points="83.7215946 14.0979259 83.0154857 15.2054901 82.7557795 15.2054901 83.593306 13.9170991 82.7891554 12.6975944 83.0561626 12.6975944 83.7215946 13.7534939 84.3901555 12.6975944 84.6561197 12.6975944 83.8592702 13.9170991 84.6936676 15.2054901 84.4308324 15.2054901"></polygon>
                    <polygon id="Fill-68" fill="#28BEF0" points="85.7842251 14.0979259 85.0781162 15.2054901 84.81841 15.2054901 85.6559365 13.9170991 84.8517859 12.6975944 85.1187931 12.6975944 85.7842251 13.7534939 86.452786 12.6975944 86.7187502 12.6975944 85.9219006 13.9170991 86.7562981 15.2054901 86.4924199 15.2054901"></polygon>
                    <polygon id="Fill-70" fill="#28BEF0" points="88.7848226 14.0979259 88.0787137 15.2054901 87.8190075 15.2054901 88.656534 13.9170991 87.8523834 12.6975944 88.1193906 12.6975944 88.7848226 13.7534939 89.4533835 12.6975944 89.7193477 12.6975944 88.9235412 13.9170991 89.7568956 15.2054901 89.4940604 15.2054901"></polygon>
                    <polygon id="Fill-72" fill="#28BEF0" points="90.8474531 14.0979259 90.1413442 15.2054901 89.881638 15.2054901 90.7191645 13.9170991 89.9150139 12.6975944 90.1820211 12.6975944 90.8474531 13.7534939 91.516014 12.6975944 91.7819782 12.6975944 90.9851286 13.9170991 91.8195261 15.2054901 91.5566909 15.2054901"></polygon>
                    <polygon id="Fill-74" fill="#28BEF0" points="93.7125653 14.0979259 93.0064565 15.2054901 92.7467502 15.2054901 93.5842767 13.9170991 92.7801261 12.6975944 93.0471333 12.6975944 93.7125653 13.7534939 94.3811262 12.6975944 94.6470904 12.6975944 93.8502409 13.9170991 94.6846383 15.2054901 94.4207601 15.2054901"></polygon>
                    <polygon id="Fill-76" fill="#28BEF0" points="95.7741528 14.0979259 95.0690869 15.2054901 94.8083377 15.2054901 95.6469072 13.9170991 94.8427566 12.6975944 95.1097638 12.6975944 95.7741528 13.7534939 96.4437567 12.6975944 96.7086779 12.6975944 95.9128714 13.9170991 96.7472688 15.2054901 96.4833906 15.2054901"></polygon>
                    <polygon id="Fill-78" fill="#28BEF0" points="98.7757933 14.0979259 98.0696845 15.2054901 97.8099783 15.2054901 98.6475047 13.9170991 97.8433542 12.6975944 98.1103613 12.6975944 98.7757933 13.7534939 99.4443542 12.6975944 99.7103184 12.6975944 98.9134689 13.9170991 99.7478663 15.2054901 99.4839881 15.2054901"></polygon>
                    <polygon id="Fill-80" fill="#28BEF0" points="100.838424 14.0979259 100.132315 15.2054901 99.8726087 15.2054901 100.710135 13.9170991 99.9059846 12.6975944 100.172992 12.6975944 100.838424 13.7534939 101.506985 12.6975944 101.772949 12.6975944 100.976099 13.9170991 101.810497 15.2054901 101.546619 15.2054901"></polygon>
                    <polygon id="Fill-82" fill="#28BEF0" points="0.972418146 3.64559777 0.266309308 4.75316201 0.00660310256 4.75316201 0.844129539 3.46477095 0.0399790004 2.24526629 0.306986183 2.24526629 0.972418146 3.30116574 1.6409791 2.24526629 1.90694329 2.24526629 1.11009373 3.46477095 1.94449117 4.75316201 1.68061298 4.75316201"></polygon>
                    <polygon id="Fill-84" fill="#28BEF0" points="3.03400564 3.64559777 2.32893979 4.75316201 2.06819059 4.75316201 2.90571703 3.46477095 2.10260949 2.24526629 2.36857367 2.24526629 3.03400564 3.30116574 3.70360959 2.24526629 3.96853078 2.24526629 3.17272421 3.46477095 4.00712166 4.75316201 3.74324347 4.75316201"></polygon>
                    <polygon id="Fill-86" fill="#28BEF0" points="6.03564615 3.64559777 5.32953731 4.75316201 5.06983111 4.75316201 5.90735754 3.46477095 5.103207 2.24526629 5.37021419 2.24526629 6.03564615 3.30116574 6.7042071 2.24526629 6.97017129 2.24526629 6.17332173 3.46477095 7.00771917 4.75316201 6.74384098 4.75316201"></polygon>
                    <polygon id="Fill-88" fill="#28BEF0" points="8.09827664 3.64559777 7.3921678 4.75316201 7.13246159 4.75316201 7.96998803 3.46477095 7.16583749 2.24526629 7.43284467 2.24526629 8.09827664 3.30116574 8.76683759 2.24526629 9.03280178 2.24526629 8.23595221 3.46477095 9.07034966 4.75316201 8.80647147 4.75316201"></polygon>
                    <polygon id="Fill-90" fill="#28BEF0" points="10.0355389 3.64559777 9.32943007 4.75316201 9.06972386 4.75316201 9.9072503 3.46477095 9.10309976 2.24526629 9.37010694 2.24526629 10.0355389 3.30116574 10.7040999 2.24526629 10.970064 2.24526629 10.1732145 3.46477095 11.0076119 4.75316201 10.7447767 4.75316201"></polygon>
                    <polygon id="Fill-92" fill="#28BEF0" points="12.0980651 3.64559777 11.3919563 4.75316201 11.13225 4.75316201 11.9697765 3.46477095 11.1656259 2.24526629 11.4326331 2.24526629 12.0980651 3.30116574 12.766626 2.24526629 13.0325902 2.24526629 12.2357407 3.46477095 13.0701381 4.75316201 12.8062599 4.75316201"></polygon>
                    <polygon id="Fill-94" fill="#28BEF0" points="15.0987669 3.64559777 14.3926581 4.75316201 14.1329519 4.75316201 14.9704783 3.46477095 14.1663278 2.24526629 14.4333349 2.24526629 15.0987669 3.30116574 15.7673279 2.24526629 16.033292 2.24526629 15.2374855 3.46477095 16.0708399 4.75316201 15.8080047 4.75316201"></polygon>
                    <polygon id="Fill-96" fill="#28BEF0" points="17.1612931 3.64559777 16.4551843 4.75316201 16.1954781 4.75316201 17.0330045 3.46477095 16.228854 2.24526629 16.4958611 2.24526629 17.1612931 3.30116574 17.8298541 2.24526629 18.0958182 2.24526629 17.2989687 3.46477095 18.1333661 4.75316201 17.8705309 4.75316201"></polygon>
                    <polygon id="Fill-98" fill="#28BEF0" points="20.7089424 3.64559777 20.0028336 4.75316201 19.7431274 4.75316201 20.5806538 3.46477095 19.7765033 2.24526629 20.0435105 2.24526629 20.7089424 3.30116574 21.3775034 2.24526629 21.6434676 2.24526629 20.846618 3.46477095 21.6810155 4.75316201 21.4181803 4.75316201"></polygon>
                    <polygon id="Fill-100" fill="#28BEF0" points="22.7714686 3.64559777 22.0653598 4.75316201 21.8056536 4.75316201 22.64318 3.46477095 21.8390295 2.24526629 22.1060367 2.24526629 22.7714686 3.30116574 23.4400296 2.24526629 23.7059938 2.24526629 22.9091442 3.46477095 23.7435417 4.75316201 23.4807065 4.75316201"></polygon>
                    <polygon id="Fill-102" fill="#28BEF0" points="25.7721704 3.64559777 25.0660616 4.75316201 24.8063554 4.75316201 25.6438818 3.46477095 24.8397313 2.24526629 25.1067385 2.24526629 25.7721704 3.30116574 26.4407314 2.24526629 26.7066956 2.24526629 25.910889 3.46477095 26.7442435 4.75316201 26.4814083 4.75316201"></polygon>
                </g>
            </g>
        </g>
    </g>
</svg>