<?xml version="1.0" encoding="UTF-8"?>
<svg width="106px" height="142px" viewBox="0 0 106 142" version="1.1" xmlns="http://www.w3.org/2000/svg" xmlns:xlink="http://www.w3.org/1999/xlink">
    <title>Group 7</title>
    <defs>
        <polygon id="path-1" points="0 0 49.5671712 0 49.5671712 104.263449 0 104.263449"></polygon>
        <polygon id="path-3" points="0 0 52.3295133 0 52.3295133 19.5104498 0 19.5104498"></polygon>
        <polygon id="path-5" points="0 0 49.0860069 0 49.0860069 17.0429574 0 17.0429574"></polygon>
    </defs>
    <g id="12.1-My-Visit---Empty-State" stroke="none" stroke-width="1" fill="none" fill-rule="evenodd">
        <g id="02_PSR-My-Visit_Empty-State_Collapsed" transform="translate(-161.000000, -566.000000)">
            <g id="Group-8" transform="translate(22.000000, 566.000000)">
                <g id="Group-7" transform="translate(139.000000, 0.000000)">
                    <g id="Group-20">
                        <g id="Group-3" transform="translate(30.215543, 0.000000)">
                            <mask id="mask-2" fill="white">
                                <use xlink:href="#path-1"></use>
                            </mask>
                            <g id="Clip-2"></g>
                            <path d="M42.7844569,94 C42.126947,95.1590807 40.7330686,96 39.187867,96 L26.4330272,96 L23.1028514,96 L10.3480115,96 C8.81346647,96 7.44729514,95.1744029 6.78445694,94.0279405 C7.53681026,94.2983326 8.34884034,94.4227129 9.21521888,94.4227129 L40.319594,94.4227129 C41.2019574,94.4227129 42.0214471,94.2794051 42.7844569,94 Z M4.78445694,68 L18.7844569,68 L18.7844569,92 L8.81222441,92 C8.18545182,92 7.61272927,91.8852291 7.09093849,91.6310168 C6.91319701,91.5441341 6.73337668,91.4422346 6.57122656,91.3296089 C6.52653133,91.2985028 6.48495438,91.2620335 6.44129858,91.2287821 C6.37373602,91.1783687 6.31033117,91.1161564 6.24692631,91.0614525 C6.06086944,90.9016313 5.88208854,90.7182123 5.72721438,90.5251397 C5.70642591,90.5015419 5.684598,90.4790168 5.66173068,90.4586369 C5.65237586,90.4457654 5.63886335,90.4371844 5.62950854,90.4253855 C5.6191143,90.4135866 5.60768064,90.4028603 5.5972864,90.3921341 C5.08692928,89.6917095 4.78445694,88.8014302 4.78445694,87.844648 L4.78445694,68.0010726 L4.78445694,68 Z M4.78445694,66 L27.7844569,66 L27.7844569,54 L4.78445694,54 L4.78445694,66 Z M30.7844569,31 L40.7140596,31 L40.7473979,31 C40.9974351,31.0021557 41.2266358,31.0560483 41.4631294,31.1013182 C41.4850076,31.1056296 41.5079277,31.0970067 41.5287641,31.1013182 C41.570437,31.109941 41.617319,31.1250309 41.6589918,31.1347316 C41.6819119,31.1401209 41.7006647,31.1616779 41.7235848,31.168145 C41.9882075,31.2371276 42.2330356,31.3168887 42.4726546,31.4376082 C42.7018554,31.5507828 42.9206379,31.6887479 43.1237932,31.841803 C43.1550478,31.8655158 43.1915116,31.8849171 43.2217244,31.9097077 C43.2571463,31.9377319 43.2842337,31.980846 43.3186138,32.0099481 C43.4800962,32.1511468 43.6363694,32.2826448 43.7749317,32.4486341 C43.7957681,32.4723469 43.81973,32.4906704 43.8395247,32.515461 C43.855152,32.5348624 43.8572356,32.5639644 43.872863,32.5833657 C43.9030758,32.6189349 43.9353723,32.6523483 43.9697524,32.683606 C44.4812868,33.3874439 44.7844569,34.2486483 44.7844569,35.2100929 L44.7844569,87.8233205 C44.7844569,88.749196 44.5125415,89.6254903 44.0353871,90.316394 C43.9864215,90.367053 43.942665,90.4241792 43.9051594,90.484539 C43.8905739,90.5028625 43.8541102,90.4996289 43.8395247,90.5179524 C43.6842932,90.7119659 43.5050999,90.8962788 43.3186138,91.0568788 C43.2842337,91.0870587 43.2571463,91.129095 43.2217244,91.158197 C42.9925236,91.341432 42.7372773,91.4998763 42.4726546,91.6292186 C41.9486183,91.8846698 41.3756163,92 40.7473979,92 L30.7844569,92 L30.7844569,67.2093862 C30.8313389,67.0800438 30.8532172,66.9431565 30.8500917,66.8051914 L30.8500917,52.8599321 C30.8459244,52.7446019 30.8240462,52.6314274 30.7844569,52.5236421 L30.7844569,31 Z M8.81222441,31 L18.7844569,31 L18.7844569,52 L4.78445694,52 L4.78445694,35.2542399 C4.78445694,34.236969 5.10771776,33.3264354 5.66173068,32.5999689 C5.68355858,32.5781858 5.70538648,32.5553135 5.72617496,32.5313521 C5.74592401,32.5063015 5.77087018,32.4877859 5.79165866,32.4638245 C5.92990204,32.2960946 6.08581561,32.1632177 6.24588689,32.0205384 C6.31137059,31.9628131 6.3726966,31.9039988 6.44129858,31.8506302 C6.64294681,31.6959701 6.86122582,31.5565583 7.09093849,31.442197 C7.33000598,31.3202116 7.57323116,31.2396141 7.83828425,31.1699082 C7.862191,31.1633733 7.87882178,31.1415902 7.90272853,31.1361444 C7.94638433,31.1252528 7.98900071,31.1110938 8.03265651,31.1023806 C8.05240556,31.098024 8.07735173,31.1067372 8.09814021,31.1023806 C8.33305001,31.0566361 8.56276268,31.0021783 8.81222441,31 Z M10.3711728,28 L23.0909957,28 L26.4120289,28 L27.1431876,28 L39.1318518,28 C40.6908776,28 42.1393794,28.8355556 42.7844569,30 C42.5899772,29.928 42.3901839,29.8888889 42.1872023,29.8337778 C42.1627595,29.8266667 42.1436304,29.8115556 42.1202503,29.8053333 C41.9470252,29.76 41.7684865,29.7271111 41.588885,29.6942222 C41.1797337,29.6204444 40.7610178,29.5591111 40.3274237,29.5555556 C40.3157337,29.5555556 40.3051064,29.5555556 40.2934163,29.5555556 L40.2604717,29.5555556 L29.2346414,29.5555556 C29.1804422,29.5431111 29.1251802,29.5333333 29.0688555,29.528 L20.4671138,29.528 C20.3895344,29.5208889 20.3119551,29.5208889 20.2343758,29.528 C20.2014311,29.536 20.1674237,29.5448889 20.1344791,29.5555556 L9.2085455,29.5555556 C9.19791819,29.5555556 9.18729089,29.5555556 9.17560085,29.5555556 C8.32116543,29.5635556 7.52624292,29.7315556 6.78445694,30 C7.43272262,28.8426667 8.81746063,28 10.3711728,28 Z M32.443109,8.00052676 C32.4540169,8.00052676 32.4660155,8.00052676 32.4769233,8.00052676 C32.9459606,7.98446528 33.5186224,8.3378179 33.7040557,8.77040717 C33.8905798,9.20299643 33.73787,9.88507406 33.3975453,10.209516 L26.6815862,16.8696775 C26.4765187,17.059203 26.3521693,17.3290359 26.3412615,17.6052934 L26.3412615,25 L23.7844569,25 L23.7844569,16.6351798 C23.7833722,16.3118087 23.9295373,15.958456 24.158602,15.7314537 L31.5563014,8.4031346 C31.7777306,8.17720307 32.1278723,8.01016365 32.4420182,8.00159753 L32.443109,8.00052676 Z M32.0616277,6 C31.1923594,6.03315971 30.3563594,6.4203795 29.7467984,7.03650823 L22.4696277,14.3573156 C21.8300179,15.0012557 21.4619204,15.85699 21.4640667,16.7640685 L21.4640667,25.1203144 L10.2623106,25.1203144 C7.08035938,25.1203144 4.39099352,27.5998047 4.12484718,30.7692308 C4.11411548,30.7692308 4.1023106,30.7692308 4.09157889,30.7692308 L4.0583106,31.6720305 C3.2587984,32.7416984 2.78445694,34.0359967 2.78445694,35.458655 L2.78445694,87.6712864 C2.78445694,89.0939447 3.25772523,90.4246117 4.0583106,91.4825133 L4.09157889,92.3179239 C4.10338377,92.3179239 4.11411548,92.3179239 4.12592035,92.3179239 C4.39099352,95.48735 7.08035938,98 10.2623106,98 L23.1070911,98 L26.4607496,98 L39.3055301,98 C42.4874813,98 45.2111886,95.48735 45.4762618,92.3179239 L45.5438716,91.4482839 C46.3272862,90.39787 46.7844569,89.0768301 46.7844569,87.6712864 L46.7844569,35.458655 C46.7844569,34.0627383 46.3176277,32.7962515 45.5438716,31.7479769 L45.4762618,30.7788578 C45.2111886,27.6094317 42.4874813,25.1299414 39.3055301,25.1299414 L28.2722618,25.1299414 L28.2722618,18.2102595 L34.5771399,11.8928007 L34.5771399,11.859641 C35.5762618,10.8744768 35.8960667,9.37480234 35.3487496,8.08264348 C34.8025057,6.79155427 33.4996765,5.97539764 32.0959691,6.00962701 C32.0841643,6.00962701 32.0734325,6.00962701 32.0627008,6.00962701 L32.0616277,6 Z" id="Fill-1" fill="#28BEF0" mask="url(#mask-2)"></path>
                            <path d="M1.8135479,66.031333 C1.81341756,56.2178006 1.82175919,46.4043849 1.80310759,36.5909693 C1.80077477,35.3129376 2.10967588,34.1327133 2.73894786,32.9960238 C3.73772812,31.1918399 4.85029348,29.442162 5.88569874,27.6556022 C6.06087304,27.353193 6.21858205,27.0465822 6.30903663,26.7112593 C6.40926657,26.3394046 6.42490714,25.9766537 6.23135517,25.6297761 C5.97002744,25.1612812 6.06595622,24.6701436 6.14559275,24.1968633 C6.19694593,23.8917698 6.53100229,23.7466927 6.8502001,23.6501693 C7.68892528,23.3966638 8.56440578,23.3078435 9.43376039,23.1926456 C11.5405442,22.9134628 13.6637506,22.8125041 15.7883907,22.7216997 C20.5966907,22.5161642 25.4085098,22.5791904 30.2169401,22.6443175 C32.8381681,22.6797989 35.4625242,22.8226583 38.0774959,23.0585398 C39.5685629,23.1931125 41.0555894,23.3336376 42.5277574,23.5853923 C43.805852,23.8038832 44.2052077,24.3042414 43.8349174,25.4201556 C43.5905336,26.1570955 43.7332537,26.7807049 44.1041958,27.4320925 C44.7557555,28.5760184 45.5104127,29.6702236 46.1422914,30.8223195 C46.8621483,32.1346655 47.4597481,33.4908963 47.7606986,34.9358307 C47.8176564,35.2096446 47.7973236,35.4978145 47.7973236,35.7794483 C47.798627,54.2197528 47.7983663,72.6601739 47.798236,91.1004784 C47.798236,92.5302398 47.8115305,93.960118 47.7941955,95.389646 C47.7825954,96.3484615 47.2964346,97.1040759 46.4441543,97.6710784 C45.8221812,98.0848339 45.1429898,98.4083685 44.4232632,98.6665425 C44.1719715,98.7566467 43.9348867,98.8783806 43.6903725,98.9836578 C43.2429221,99.1762379 42.9306322,99.4651081 42.7306937,99.8865667 C42.2915849,100.811535 41.4462125,101.31376 40.3838272,101.522331 C39.0154083,101.790892 37.6231376,101.937136 36.2356893,102.104156 C34.3640353,102.32965 32.4794779,102.434927 30.5973968,102.560746 C30.1758836,102.588991 29.750721,102.580237 29.3272528,102.579887 C26.8183762,102.578136 24.3092389,102.590275 21.800623,102.564247 C20.2714973,102.548374 18.7451087,102.444497 17.2184595,102.355794 C15.7679276,102.271409 14.3172654,102.197645 12.8731201,102.045565 C11.3623721,101.886482 9.86244214,101.6883 8.41321367,101.244198 C7.9378709,101.098538 7.57305478,100.853669 7.27067056,100.511343 C7.23704335,100.473177 7.19611722,100.437813 7.17291705,100.394978 C6.60685902,99.345475 5.53222202,98.8305274 4.45549961,98.3169804 C3.89009327,98.0473683 3.32599031,97.7754218 2.76045363,97.5060431 C2.61590876,97.4371811 2.48661344,97.3523291 2.35992489,97.2588403 C1.95470397,96.959349 1.8025995,96.5967148 1.80310759,96.1136305 C1.81719736,86.0861591 1.81367823,76.0586877 1.8135479,66.031333" id="Fill-1" fill="#28BEF0" mask="url(#mask-2)"></path>
                        </g>
                        <path d="M87.3053183,27.4202549 C87.3053183,27.4202549 87.4781989,28.9961874 87.1384824,29.5126083 C86.798766,30.0290293 85.2694374,30.5163561 85.2694374,30.5163561 C85.2694374,30.5163561 86.8374525,30.3660364 87.3524675,30.7066802 C87.8662736,31.0461118 88.3571095,32.559007 88.3571095,32.559007 C88.3571095,32.559007 88.2265423,30.9721642 88.5662587,30.4557433 C88.9059752,29.9405346 90.3929903,29.4616936 90.3929903,29.4616936 C90.3929903,29.4616936 88.8007961,29.6265604 88.2857811,29.2871287 C87.7707661,28.9464849 87.3053183,27.4202549 87.3053183,27.4202549 Z M91.2223337,14.9037145 C91.2223337,14.9037145 91.757901,19.7951663 90.7036919,21.3977684 C89.6506917,22.9991583 84.9019149,24.5156902 84.9019149,24.5156902 C84.9019149,24.5156902 89.7679604,24.0465472 91.3661994,25.1036342 C92.9632295,26.159509 94.4865133,30.8533632 94.4865133,30.8533632 C94.4865133,30.8533632 94.0815132,25.9291804 95.1357224,24.3277905 C96.1887225,22.7251885 100.806932,21.2425997 100.806932,21.2425997 C100.806932,21.2425997 95.8610956,21.7529594 94.2640655,20.6970846 C92.6658265,19.6399976 91.2223337,14.9037145 91.2223337,14.9037145 Z M83.0703475,14.8261301 C83.0703475,14.8261301 83.2420192,16.4020625 82.9023027,16.9184835 C82.5637952,17.4336922 81.0332577,17.9222312 81.0332577,17.9222312 C81.0332577,17.9222312 82.6012728,17.7719115 83.1162878,18.1125554 C83.6313028,18.451987 84.1209298,19.9648821 84.1209298,19.9648821 C84.1209298,19.9648821 83.9915715,18.3780394 84.330079,17.8616184 C84.6697955,17.3464098 86.1580196,16.8675687 86.1580196,16.8675687 C86.1580196,16.8675687 84.5646164,17.0324355 84.0496014,16.6930039 C83.5357953,16.3523601 83.0703475,14.8261301 83.0703475,14.8261301 Z" id="Fill-4" fill="#FE5A17"></path>
                        <path d="M15.3180693,80.7769637 C15.3180693,80.7769637 15.0980394,85.6926607 13.8117109,87.1134245 C12.5241734,88.5341882 7.60009809,89.3003338 7.60009809,89.3003338 C7.60009809,89.3003338 12.480651,89.5864262 13.8975467,90.8774785 C15.3132335,92.1673186 16.0990545,97.0393744 16.0990545,97.0393744 C16.0990545,97.0393744 16.4544874,92.1115548 17.7408159,90.6907911 C19.0271445,89.2712397 23.8182347,88.5160043 23.8182347,88.5160043 C23.8182347,88.5160043 18.8530549,88.2590061 17.4361592,86.969166 C16.0192634,85.6793259 15.3180693,80.7769637 15.3180693,80.7769637 Z" id="Fill-6" fill="#FE5A17"></path>
                        <path d="M46.262176,49.6737547 C46.262176,57.9583152 39.5650192,64.6737547 31.3030132,64.6737547 C23.0424284,64.6737547 16.3452716,57.9583152 16.3452716,49.6737547 C16.3452716,41.3891941 23.0424284,34.6737547 31.3030132,34.6737547 C39.5650192,34.6737547 46.262176,41.3891941 46.262176,49.6737547" id="Fill-8" stroke="#000000" stroke-width="3" fill="#28BEF0"></path>
                        <path d="M29.8283146,55.4597301 L29.8283146,57.0708179 L32.7793748,57.0708179 L32.7793748,55.4597301 C34.4658675,55.0960533 35.6857035,53.6219504 35.7304349,51.8932737 C35.6566886,49.7839487 33.8976585,48.1316441 31.7952851,48.1946814 L30.8124043,48.1946814 C30.2780461,48.1946814 29.8283146,47.8552498 29.8283146,47.4539932 C29.8283146,47.0539488 30.2707923,46.7145172 30.8124043,46.7145172 L31.7952851,46.7145172 C32.3296434,46.7145172 32.7793748,47.0539488 32.7793748,47.4539932 L32.7793748,47.898891 L35.7304349,47.898891 L35.7304349,47.4539932 C35.6857035,45.7253165 34.4658675,44.2512135 32.7793748,43.8875368 L32.7793748,42.2764489 L29.8283146,42.2764489 L29.8283146,43.8875368 C28.1418219,44.2512135 26.9219859,45.7253165 26.8772545,47.4539932 C26.9510008,49.5633182 28.708822,51.216835 30.8124043,51.1525854 L31.7952851,51.1525854 C32.3296434,51.1525854 32.7793748,51.492017 32.7793748,51.8932737 C32.7793748,52.2933181 32.3368971,52.6327497 31.7952851,52.6327497 L30.8124043,52.6327497 C30.2780461,52.6327497 29.8283146,52.2933181 29.8283146,51.8932737 L29.8283146,51.4495881 L26.8772545,51.4495881 L26.8772545,51.8932737 C26.9219859,53.6219504 28.1418219,55.0960533 29.8283146,55.4597301" id="Fill-10" fill="#FFFFFF"></path>
                        <path d="M47.1123872,107.05988 C45.790999,107.05988 44.4696107,107.942402 44.4696107,109.709871 C44.4696107,121.781514 53.5597463,127.827033 53.5597463,127.827033 C54.0058509,128.12646 54.5232838,128.271931 55.0358809,128.271931 C55.5496869,128.271931 56.0671198,128.12646 56.5120154,127.827033 C56.5120154,127.827033 65.60336,121.781514 65.60336,109.709871 C65.60336,107.942402 64.2819717,107.05988 62.9593745,107.05988 C61.6379863,107.05988 60.316598,107.942402 60.316598,109.709871 C60.316598,116.955524 56.1311945,121.033552 55.0358809,122.137917 C53.9405673,121.033552 49.7551637,116.955524 49.7551637,109.709871 C49.7551637,107.942402 48.4337755,107.05988 47.1123872,107.05988" id="Fill-12" fill="#FE5A17"></path>
                        <g id="Group-16" transform="translate(0.000000, 121.816506)">
                            <mask id="mask-4" fill="white">
                                <use xlink:href="#path-3"></use>
                            </mask>
                            <g id="Clip-15"></g>
                            <path d="M11.1815075,17.6047838 L15.6546425,17.6047838 C15.6546425,14.0128701 18.5573444,11.1022441 22.1394792,11.1022441 L22.1394792,11.1022441 C22.9446435,11.0864847 23.743763,11.239229 24.4872706,11.5507787 L26.3877485,12.3351082 L27.2823755,10.4294421 C28.3450473,8.44376724 30.4026894,7.19635609 32.6501374,7.17817226 C35.7958394,7.17211098 38.3975114,9.63420237 38.5764368,12.7836428 L38.8000935,15.8106453 L41.5951984,14.8020486 L43.1607956,14.5777813 C45.7540049,14.5777813 47.8563784,16.685894 47.8563784,19.2861825 L47.8563784,19.5104498 L52.3295133,19.5104498 L52.3295133,19.174655 C52.3295133,14.0965157 48.2239008,9.98090751 43.1607956,9.98090751 L42.6010493,9.98090751 C41.2313028,5.63012168 37.1994366,2.67706671 32.6501374,2.69282604 C29.3883758,2.66615641 26.3115843,4.20814571 24.3760467,6.84116516 L22.1394792,6.61689785 C21.1517627,6.59386499 20.167673,6.74539696 19.2319415,7.06543247 C17.7691055,2.8637541 13.8303288,0.0367737226 9.39225356,0.00161830625 C5.423253,-0.0686925264 1.76858085,2.157009 -0.000120895539,5.71982861 L4.02570057,7.73823441 C5.04968579,5.71619184 7.13150697,4.45544588 9.39225356,4.48696452 C12.1365823,4.47726648 14.5145976,6.3938428 15.0948962,9.08383827 C12.6237913,11.2234696 11.196015,14.3304811 11.1815075,17.6047838" id="Fill-14" fill="#DEDEDE" mask="url(#mask-4)"></path>
                        </g>
                        <g id="Group-19" transform="translate(56.913993, 124.957043)">
                            <mask id="mask-6" fill="white">
                                <use xlink:href="#path-5"></use>
                            </mask>
                            <g id="Clip-18"></g>
                            <path d="M38.6877816,7.51268771 C41.8334835,7.50783869 44.4363645,9.96871783 44.6140809,13.1181582 L49.0860069,12.8938909 C48.7886039,7.35630672 44.2199615,3.02006796 38.6877816,3.02734149 C36.0909454,3.03097826 33.5847808,3.98866029 31.6431985,5.71854922 C29.4501534,2.13754578 25.5476454,-0.0311797289 21.356197,0.000338920212 C16.3088083,0.0221595234 11.7873151,3.13401999 9.95091185,7.84848255 C5.53097093,8.38187507 1.73243308,11.2488599 0,15.3608313 L4.13704536,17.0434423 C5.36050822,14.1073589 8.23177728,12.2029051 11.4052852,12.2223012 L13.4181959,12.2223012 L13.7530766,10.4281628 C14.4337185,6.20951279 18.3942563,3.34374024 22.6014211,4.02624022 C26.5051381,4.65903771 29.3002429,8.15033422 29.0717504,12.1095615 C29.0790041,12.8696458 28.9653623,13.6273056 28.7356608,14.3522346 L32.985139,15.809366 C33.3961838,14.6601475 33.5859898,13.4418305 33.5448853,12.2223012 C33.5630197,11.6586023 33.525542,11.0949034 33.4324525,10.5396903 C34.4794078,8.62311396 36.508035,7.45449943 38.6877816,7.51268771" id="Fill-17" fill="#DEDEDE" mask="url(#mask-6)"></path>
                        </g>
                    </g>
                    <g id="no-sign" transform="translate(58.000000, 67.000000)">
                        <circle id="Oval" fill="#FFFFFF" cx="19.452381" cy="18.547619" r="18.547619"></circle>
                        <g id="ô€¼" fill="#FE5A17" fill-rule="nonzero">
                            <path d="M30.2943901,32.4848173 L32.4652599,30.2943901 L7.76428204,5.57385486 L5.57385486,7.76428204 L30.2943901,32.4848173 Z M19.0097787,38 C21.6043918,38 24.049065,37.5012867 26.3437983,36.50386 C28.6385315,35.5064334 30.6594613,34.1341568 32.4065878,32.3870304 C34.1537142,30.6399039 35.5227312,28.6222337 36.5136387,26.3340196 C37.5045462,24.0458055 38,21.5978727 38,18.9902213 C38,16.3956082 37.5012867,13.950935 36.50386,11.6562017 C35.5064334,9.36146852 34.1341568,7.33727912 32.3870304,5.58363356 C30.6399039,3.82998799 28.6189741,2.46097101 26.3242409,1.4765826 C24.0295076,0.492194201 21.5848344,0 18.9902213,0 C16.3956082,0 13.9541945,0.492194201 11.6659804,1.4765826 C9.37776634,2.46097101 7.35683651,3.82998799 5.60319094,5.58363356 C3.84954538,7.33727912 2.47726883,9.36146852 1.4863613,11.6562017 C0.495453766,13.950935 0,16.3956082 0,18.9902213 C0,21.5978727 0.49871333,24.0458055 1.49613999,26.3340196 C2.49356665,28.6222337 3.8658432,30.6399039 5.61296963,32.3870304 C7.36009607,34.1341568 9.37776634,35.5064334 11.6659804,36.50386 C13.9541945,37.5012867 16.4021273,38 19.0097787,38 Z M19.0097787,34.5187854 C16.8584663,34.5187854 14.8440556,34.117859 12.9665466,33.3160062 C11.0890376,32.5141534 9.43969806,31.402642 8.01852805,29.981472 C6.59735804,28.5603019 5.48910619,26.9109624 4.69377252,25.0334534 C3.89843884,23.1559444 3.500772,21.1415337 3.500772,18.9902213 C3.500772,16.8389089 3.89843884,14.8244982 4.69377252,12.9469892 C5.48910619,11.0694802 6.59735804,9.42014068 8.01852805,7.99897066 C9.43969806,6.57780065 11.085778,5.46954881 12.9567679,4.67421513 C14.8277578,3.87888145 16.8389089,3.48121462 18.9902213,3.48121462 C21.1415337,3.48121462 23.1559444,3.87888145 25.0334534,4.67421513 C26.9109624,5.46954881 28.5603019,6.57780065 29.981472,7.99897066 C31.402642,9.42014068 32.5141534,11.0694802 33.3160062,12.9469892 C34.117859,14.8244982 34.5187854,16.8389089 34.5187854,18.9902213 C34.5318236,21.1415337 34.1374164,23.1559444 33.3355636,25.0334534 C32.5337108,26.9109624 31.4254589,28.5603019 30.010808,29.981472 C28.5961571,31.402642 26.9468176,32.5141534 25.0627895,33.3160062 C23.1787614,34.117859 21.1610911,34.5187854 19.0097787,34.5187854 Z" id="Shape"></path>
                        </g>
                    </g>
                </g>
            </g>
        </g>
    </g>
</svg>