<svg t="1648089701806" class="icon" viewBox="0 0 1024 1024" version="1.1" xmlns="http://www.w3.org/2000/svg" p-id="4676"
     width="90" height="90">
    <path d="M168.297 64.02h75.022v17.55h-75.022V64.02zM272.6 64.02h75.021v17.55H272.6V64.02zM376.903 64.02h75.022v17.55h-75.022V64.02zM481.207 64.02h75.021v17.55h-75.021V64.02zM585.51 64.02h75.02v17.55h-75.02V64.02zM689.813 64.02h75.021v17.55h-75.021V64.02zM794.115 64.02h75.022v17.55h-75.022V64.02zM899.647 64.02v17.55h42.199v40.275h17.552V64.02zM941.846 939.947h-57.47v17.55H959.398v-75.021h-17.552zM941.846 778.172h17.55v75.022h-17.55v-75.022zM941.846 673.87h17.55v75.021h-17.55V673.87zM941.846 569.566h17.55v75.022h-17.55v-75.022zM941.846 465.263h17.55v75.021h-17.55v-75.021zM941.846 360.96h17.55v75.022h-17.55V360.96zM941.846 256.656h17.55v75.022h-17.55v-75.022zM941.846 152.354h17.55v75.022h-17.55v-75.022zM780.072 939.947h75.022v17.55h-75.022v-17.55zM675.769 939.947h75.022v17.55h-75.022v-17.55zM571.466 939.947h75.022v17.55h-75.022v-17.55zM467.163 939.947h75.021v17.55h-75.021v-17.55zM362.86 939.947h75.022v17.55H362.86v-17.55zM258.557 939.947h75.021v17.55h-75.021v-17.55zM154.253 939.947h75.022v17.55h-75.022v-17.55zM63.993 64.02v75.02h17.551V81.57h57.472V64.02H81.544zM63.993 168.323h17.551v75.021h-17.55v-75.021zM63.993 272.626h17.551v75.022h-17.55v-75.022zM63.993 376.929h17.551v75.021h-17.55V376.93zM63.993 481.231h17.551v75.022h-17.55V481.23zM63.993 585.535h17.551v75.021h-17.55v-75.021zM63.993 689.838h17.551v75.022h-17.55v-75.022zM63.993 794.14h17.551v75.023h-17.55V794.14zM81.544 899.671h-17.55v57.826h59.75v-17.55h-42.2zM706.741 517.604h0.105V506.83h-0.001v-44.748H560.37V360.357c0-23.732-18.478-43.14-41.831-44.644v-0.104H463.018V462.082H361.295c-23.734 0-43.14 18.478-44.645 41.83h-0.105v55.524H463.02V661.158c0 23.733 18.478 43.14 41.831 44.644v0.104h55.523V559.434h101.725c23.732 0.001 43.14-18.478 44.643-41.83z"
          fill="#00A2D9" p-id="4677"></path>
</svg>
