<?xml version="1.0" encoding="UTF-8"?>
<svg width="14px" height="18px" viewBox="0 0 14 18" version="1.1" xmlns="http://www.w3.org/2000/svg" xmlns:xlink="http://www.w3.org/1999/xlink">
    <title>Group 15 Copy</title>
    <g id="5.2--Equipment-request-install---move/repair/pickup/exchange" stroke="none" stroke-width="1" fill="none" fill-rule="evenodd">
        <g id="5.2.2---02---Service-Request---Move" transform="translate(-145.000000, -595.000000)">
            <g id="Group-3" transform="translate(0.000000, 561.000000)">
                <g id="Group-8" transform="translate(22.000000, 23.000000)">
                    <g id="Group-7" transform="translate(109.000000, 0.000000)">
                        <g id="Group-15-Copy" transform="translate(14.000000, 11.000000)">
                            <path d="M12.6592083,0 C13.3837083,0 13.985125,0.6111 14,1.362 L14,1.362 L14,17.121 C14,17.6058 13.6164583,18 13.1454167,18 L13.1454167,18 L0.854583333,18 C0.38325,18 0,17.6058 0,17.1213 L0,17.1213 L0,1.3683 C0,0.6138 0.59675,0 1.33029167,0 L1.33029167,0 Z M13.1454167,17.4 C13.2950417,17.4 13.4166667,17.2749 13.4166667,17.121 L13.4166667,17.121 L13.4166667,1.3683 C13.4085,0.9474 13.0687083,0.6 12.6592083,0.6 L12.6592083,0.6 L1.33029167,0.6 C0.918166667,0.6 0.583333333,0.9444 0.583333333,1.3683 L0.583333333,1.3683 L0.583333333,17.121 C0.583333333,17.2749 0.704958333,17.4 0.854583333,17.4 L0.854583333,17.4 Z" id="Combined-Shape" fill="#FFFFFF" fill-rule="nonzero"></path>
                            <line x1="5.5" y1="8.5" x2="5.5" y2="9.5" id="Line-6-Copy-4" stroke="#FFFFFF" stroke-linecap="square"></line>
                            <line x1="8.5" y1="8.5" x2="8.5" y2="9.5" id="Line-6-Copy-5" stroke="#FFFFFF" stroke-linecap="square"></line>
                            <rect id="Rectangle-Copy-12" stroke="#FFFFFF" x="1" y="2" width="6" height="14"></rect>
                            <rect id="Rectangle-Copy-14" stroke="#FFFFFF" x="7" y="2" width="6" height="14"></rect>
                        </g>
                    </g>
                </g>
            </g>
        </g>
    </g>
</svg>
