<?xml version="1.0" encoding="UTF-8"?>
<svg width="36px" height="36px" viewBox="0 0 36 36" version="1.1" xmlns="http://www.w3.org/2000/svg" xmlns:xlink="http://www.w3.org/1999/xlink">
    <title>pin-delivery-gray</title>
    <g id="Symbols" stroke="none" stroke-width="1" fill="none" fill-rule="evenodd">
        <g id="pin-delivery-gray">
            <circle id="Oval" fill="#FFFFFF" fill-rule="nonzero" cx="17.7058824" cy="15.5294118" r="6"></circle>
            <g id="Group-3-Copy-5">
                <g id="icon_red_location-2">
                    <polygon id="Path" points="0 0 36 0 36 36 0 36"></polygon>
                    <path d="M18,3 C11.3736,3 6,8.49375 6,15.26875 C6,22.15 11.25,26.85375 18,33 C24.75,26.85375 30,22.15 30,15.26875 C30,8.49375 24.6264,3 18,3 Z M18,20.1153846 C15.5525538,20.1153846 13.5692308,18.0488462 13.5692308,15.5 C13.5692308,12.9511538 15.5525538,10.8846154 18,10.8846154 C20.4474462,10.8846154 22.4307692,12.9511538 22.4307692,15.5 C22.4307692,18.0488462 20.4474462,20.1153846 18,20.1153846 Z" id="icon_location" stroke="#FFFFFF" fill="#D3D3D3" fill-rule="nonzero"></path>
                    <circle id="Oval" fill="#D3D3D3" fill-rule="nonzero" cx="17.7058824" cy="15.5294118" r="6"></circle>
                </g>
                <g id="local_shipping-24px" transform="translate(11.000000, 9.000000)">
                    <path d="M6.6,0 L14,0 L14,0 L14,14 L0,14 L0,6.6 C-4.46393476e-16,2.95492065 2.95492065,6.69590214e-16 6.6,0 Z" id="Path"></path>
                    <g id="van" transform="translate(0.000000, 3.000000)" fill="#FFFFFF" fill-rule="nonzero">
                        <path d="M11.4333195,5.76923077 C10.5326883,5.76923077 9.8,6.49392568 9.8,7.38469766 C9.8,8.27530509 10.532716,9 11.4333195,9 C12.3340893,9 13.0666667,8.27530509 13.0666667,7.38469766 C13.0666667,6.49392568 12.3339507,5.76923077 11.4333195,5.76923077 Z M11.4333195,8.09398053 C11.0376539,8.09398053 10.7158811,7.77573015 10.7158811,7.38453311 C10.7158811,6.99319896 11.0376539,6.67494858 11.4333195,6.67494858 C11.828985,6.67494858 12.1507578,6.9933635 12.1507578,7.38453311 C12.1507856,7.77570273 11.828985,8.09398053 11.4333195,8.09398053 Z" id="Shape"></path>
                        <path d="M9.10966303,0 L0.457003638,0 C0.204594629,0 0,0.201872989 0,0.450951605 L0,7.39522954 C0,7.64428086 0.204594629,7.84615385 0.457003638,7.84615385 L1.88897235,7.84615385 L1.88897235,6.94430524 L0.914007275,6.94430524 L0.914007275,0.901875907 L8.65265939,0.901875907 L8.65265939,7.39522954 L9.56666667,7.39522954 L9.56666667,0.450951605 C9.56666667,0.201872989 9.36209971,0 9.10966303,0 Z" id="Path"></path>
                        <rect id="Rectangle" x="4.2" y="6.92307692" width="6.06666667" height="1"></rect>
                        <path d="M3.03333333,5.76923077 C2.13270976,5.76923077 1.4,6.49392568 1.4,7.38469766 C1.4,8.27530509 2.13270976,9 3.03333333,9 C3.9339569,9 4.66666667,8.27530509 4.66666667,7.38469766 C4.66666667,6.49392568 3.9339569,5.76923077 3.03333333,5.76923077 Z M3.03333333,8.09398053 C2.63767117,8.09398053 2.31590107,7.77573015 2.31590107,7.38453311 C2.31590107,6.99319896 2.63767117,6.67494858 3.03333333,6.67494858 C3.4289955,6.67494858 3.7507656,6.9933635 3.7507656,7.38453311 C3.7507656,7.77570273 3.42882913,8.09398053 3.03333333,8.09398053 Z" id="Shape"></path>
                        <path d="M13.557258,3.69230769 L9.1,3.69230769 L9.1,4.60523848 L13.1144624,4.60523848 L13.1144624,6.93322306 L12.4798253,6.93322306 L12.4798253,7.84615385 L13.5572312,7.84615385 C13.8017781,7.84615385 14,7.64196601 14,7.38968845 L14,4.14877309 C14,3.89666136 13.8018049,3.69230769 13.557258,3.69230769 Z" id="Path"></path>
                        <path d="M12.1159268,1.84867169 C12.0348936,1.7048545 11.8798663,1.61538462 11.7116268,1.61538462 L8.86666667,1.61538462 L8.86666667,2.51613724 L11.4388067,2.51613724 L12.491428,4.38461538 L13.3,3.95043691 L12.1159268,1.84867169 Z" id="Path"></path>
                    </g>
                </g>
            </g>
        </g>
    </g>
</svg>