<?xml version="1.0" encoding="UTF-8"?>
<svg width="10px" height="10px" viewBox="0 0 10 10" version="1.1" xmlns="http://www.w3.org/2000/svg" xmlns:xlink="http://www.w3.org/1999/xlink">
    <title>Exclamation_DAYS</title>
    <g id="Symbols" stroke="none" stroke-width="1" fill="none" fill-rule="evenodd">
        <g id="Exclamation_DAYS">
            <g id="Group-21">
                <circle id="Oval" fill="#FFFFFF" cx="5" cy="5" r="5"></circle>
                <path d="M5.0023596,10 C7.74421897,10 10,7.74893818 10,5.0023596 C10,2.25578103 7.74421897,0 4.9976404,0 C2.25106182,0 0,2.25578103 0,5.0023596 C0,7.74893818 2.25578103,10 5.0023596,10 Z M5.0023596,5.61585654 C4.6720151,5.61585654 4.48324681,5.43180746 4.46436999,5.10146295 L4.39358188,3.23265691 C4.37470505,2.88343558 4.62954224,2.64275602 4.9976404,2.64275602 C5.36573856,2.64275602 5.62057574,2.88815479 5.60169891,3.23737612 L5.5261916,5.09674375 C5.50731477,5.43652666 5.32326569,5.61585654 5.0023596,5.61585654 Z M5.0023596,7.4374705 C4.61066541,7.4374705 4.3416706,7.20622935 4.3416706,6.84756961 C4.3416706,6.49362907 4.6059462,6.26710713 5.0023596,6.26710713 C5.38461538,6.26710713 5.65361019,6.49362907 5.65361019,6.84756961 C5.65361019,7.21094856 5.38461538,7.4374705 5.0023596,7.4374705 Z" id="ô€Ÿ-copy" fill="#EB445A" fill-rule="nonzero"></path>
            </g>
            <circle id="Oval" stroke="#FFFFFF" stroke-width="0.6" cx="5" cy="5" r="4.7"></circle>
        </g>
    </g>
</svg>