<?xml version="1.0" encoding="UTF-8"?>
<svg width="15px" height="16px" viewBox="0 0 15 16" version="1.1" xmlns="http://www.w3.org/2000/svg" xmlns:xlink="http://www.w3.org/1999/xlink">
    <title>Group</title>
    <g id="5.2--Equipment-request-install---move/repair/pickup/exchange" stroke="none" stroke-width="1" fill="none" fill-rule="evenodd">
        <g id="5.2.2---02---Service-Request---Move" transform="translate(-259.000000, -596.000000)" fill="#00A2D9" fill-rule="nonzero">
            <g id="Group-3" transform="translate(0.000000, 561.000000)">
                <g id="Group-8" transform="translate(22.000000, 23.000000)">
                    <g id="Group-7" transform="translate(224.000000, 0.000000)">
                        <g id="Group-6" transform="translate(12.000000, 11.000000)">
                            <g id="Group" transform="translate(1.000000, 1.000000)">
                                <path d="M14.7802129,13.0803476 L10.7977458,9.04273301 L10.053851,9.04273301 L8.14527239,10.9777407 L8.14527239,11.7319367 L12.1277395,15.7695512 C12.420789,16.0666587 12.8941766,16.0666587 13.187226,15.7695512 L14.7802129,14.1545054 C15.0732624,13.8650161 15.0732624,13.3774551 14.7802129,13.0803476 Z M12.6537257,14.1621236 L9.46775204,10.9320319 L10.0012523,10.3911439 L13.187226,13.6212356 L12.6537257,14.1621236 Z" id="Shape"></path>
                                <path d="M11.5266124,7.0010713 L12.5860989,5.92691346 L14.1790858,7.54195929 C15.0582342,6.65063683 15.0582342,5.2031901 14.1790858,4.31186763 L11.5190983,1.61504583 L10.4596118,2.68920367 L10.4596118,0.54088799 L9.93362555,0 L7.27363807,2.69682181 L7.80713838,3.2377098 L9.93362555,3.2377098 L8.87413901,4.31186763 L9.67063244,5.11939055 L7.49906074,7.32103321 L4.39574202,4.1747411 L4.39574202,3.09296512 L2.12648716,0.792286633 L0,2.94822045 L2.27676894,5.25651708 L3.33625548,5.25651708 L6.4395742,8.40280919 L5.80087664,9.05035115 L4.20788979,9.05035115 L0.225422668,13.0879657 C-0.0676268003,13.3850732 -0.0676268003,13.8650161 0.225422668,14.1621236 L1.81840952,15.7771694 C2.11145899,16.0742769 2.58484659,16.0742769 2.87789606,15.7771694 L6.86036318,11.7395548 L6.86036318,10.124509 L10.730119,6.20116653 L11.5266124,7.0010713 Z M5.53036944,10.9244138 L2.34439574,14.1545054 L1.81089543,13.6136174 L4.99686913,10.3835258 L4.99686913,10.3835258 L5.53036944,10.9244138 L5.53036944,10.9244138 Z" id="Shape"></path>
                            </g>
                        </g>
                    </g>
                </g>
            </g>
        </g>
    </g>
</svg>