<?xml version="1.0" encoding="UTF-8"?>
<svg width="12px" height="13px" viewBox="0 0 12 13" version="1.1" xmlns="http://www.w3.org/2000/svg" xmlns:xlink="http://www.w3.org/1999/xlink">
    <title>Exclamation_DAYS Copy</title>
    <g id="4.3-Retouch-RNS-Cancel-Button-&amp;-Draft-Week-Day-Icon" stroke="none" stroke-width="1" fill="none" fill-rule="evenodd">
        <g id="01-Muscle-Merch_VD_Retouch-RNS-Cancel-Button-&amp;-Draft-Week-Day-Icon" transform="translate(-253.000000, -122.000000)">
            <g id="Group-11" transform="translate(-40.000000, 121.000000)">
                <g id="Group-21" transform="translate(293.000000, 1.500000)">
                    <circle id="Oval" fill="#000000" cx="6" cy="6" r="4.5"></circle>
                    <path d="M6.00283152,12 C9.29306277,12 12,9.29872581 12,6.00283152 C12,2.70693723 9.29306277,0 5.99716848,0 C2.70127419,0 0,2.70693723 0,6.00283152 C0,9.29872581 2.70693723,12 6.00283152,12 Z M6.00283152,6.73902784 C5.60641812,6.73902784 5.37989618,6.51816895 5.35724398,6.12175555 L5.27229825,3.8791883 C5.24964606,3.4601227 5.55545068,3.17130722 5.99716848,3.17130722 C6.43888627,3.17130722 6.74469089,3.46578575 6.7220387,3.88485134 L6.63142992,6.1160925 C6.60877773,6.523832 6.38791883,6.73902784 6.00283152,6.73902784 Z M6.00283152,8.92496461 C5.53279849,8.92496461 5.21000472,8.64747522 5.21000472,8.21708353 C5.21000472,7.79235488 5.52713544,7.52052855 6.00283152,7.52052855 C6.46153846,7.52052855 6.78433223,7.79235488 6.78433223,8.21708353 C6.78433223,8.65313827 6.46153846,8.92496461 6.00283152,8.92496461 Z" id="ô€Ÿ-copy" fill="#FFC409" fill-rule="nonzero"></path>
                </g>
            </g>
        </g>
    </g>
</svg>