<?xml version="1.0" encoding="UTF-8"?>
<svg width="24px" height="22px" viewBox="0 0 24 22" version="1.1" xmlns="http://www.w3.org/2000/svg" xmlns:xlink="http://www.w3.org/1999/xlink">
    <title>task</title>
    <g id="3.2-Task-/-Nav-bar-/-Profile-/-Sync" stroke="none" stroke-width="1" fill="none" fill-rule="evenodd">
        <g id="task" transform="translate(-8.000000, -9.000000)" fill="#FFFFFF" fill-rule="nonzero">
            <g transform="translate(8.000000, 9.000000)" id="Path">
                <path d="M11.04,1.08 L10.2,0.24 C9.96,-1.51267887e-15 9.6,-1.51267887e-15 9.36,0.24 L4.08,5.52 L1.96,3.4 C1.72,3.16 1.36,3.16 1.12,3.4 L0.28,4.24 C0.04,4.48 0.04,4.84 0.28,5.08 L3.24,8.04 C3.48,8.28 3.8,8.4 4.08,8.4 C4.4,8.4 4.68,8.28 4.92,8.04 L11.04,1.92 C11.24,1.72 11.24,1.32 11.04,1.08 Z"></path>
                <path d="M23.2,6.8 L12.8,6.8 C12.36,6.8 12,6.44 12,6 L12,4.4 C12,3.96 12.36,3.6 12.8,3.6 L23.2,3.6 C23.64,3.6 24,3.96 24,4.4 L24,6 C24,6.44 23.64,6.8 23.2,6.8 Z"></path>
                <path d="M23.2,14 L10.4,14 C9.96,14 9.6,13.64 9.6,13.2 L9.6,11.6 C9.6,11.16 9.96,10.8 10.4,10.8 L23.2,10.8 C23.64,10.8 24,11.16 24,11.6 L24,13.2 C24,13.64 23.64,14 23.2,14 Z"></path>
                <path d="M5.6,14 L4,14 C3.56,14 3.2,13.64 3.2,13.2 L3.2,11.6 C3.2,11.16 3.56,10.8 4,10.8 L5.6,10.8 C6.04,10.8 6.4,11.16 6.4,11.6 L6.4,13.2 C6.4,13.64 6.04,14 5.6,14 Z"></path>
                <path d="M5.6,21.2 L4,21.2 C3.56,21.2 3.2,20.84 3.2,20.4 L3.2,18.8 C3.2,18.36 3.56,18 4,18 L5.6,18 C6.04,18 6.4,18.36 6.4,18.8 L6.4,20.4 C6.4,20.84 6.04,21.2 5.6,21.2 Z"></path>
                <path d="M23.2,21.2 L10.4,21.2 C9.96,21.2 9.6,20.84 9.6,20.4 L9.6,18.8 C9.6,18.36 9.96,18 10.4,18 L23.2,18 C23.64,18 24,18.36 24,18.8 L24,20.4 C24,20.84 23.64,21.2 23.2,21.2 Z"></path>
            </g>
        </g>
    </g>
</svg>