<?xml version="1.0" encoding="UTF-8"?><svg version="1.1" width="82px" height="22px" viewBox="0 0 82.0 22.0" xmlns="http://www.w3.org/2000/svg" xmlns:xlink="http://www.w3.org/1999/xlink"><defs><clipPath id="i0"><path d="M493,0 L493,588 L0,588 L0,0 L493,0 Z"></path></clipPath><clipPath id="i1"><path d="M82,0 L82,2 C82,13.045695 73.045695,22 62,22 L0,22 L0,6 C-4.05812251e-16,2.6862915 2.6862915,6.08718376e-16 6,0 L82,0 Z"></path></clipPath><clipPath id="i2"><path d="M65,0 L65,13 L0,13 L0,0 L65,0 Z"></path></clipPath></defs><g transform="translate(-50.0 -343.0)"><g clip-path="url(#i0)"><g transform="translate(50.0 343.0)"><g clip-path="url(#i1)"><path d="M6,0 L82,0 L82,0 L82,2 C82,13.045695 73.045695,22 62,22 L0,22 L0,22 L0,6 C-4.05812251e-16,2.6862915 2.6862915,6.08718376e-16 6,0 Z" stroke="#2CD36E" stroke-width="4" fill="none" stroke-miterlimit="5"></path></g><g transform="translate(6.111111111111114 3.0)"><g clip-path="url(#i2)"><text transform="translate(0.32799999999999585 12.0)" font-family="Gotham-Bold, Gotham" font-size="12.0" font-weight="bold" fill="#2CD36E" text-anchor="center">NOUVEAU</text></g></g></g></g></g></svg>