<?xml version="1.0" encoding="UTF-8"?>
<svg width="18px" height="19px" viewBox="0 0 18 19" version="1.1" xmlns="http://www.w3.org/2000/svg" xmlns:xlink="http://www.w3.org/1999/xlink">
    <title>Shape</title>
    <g id="11.5-CDA-Year-and-Basic-Tier-Drop-Down" stroke="none" stroke-width="1" fill="none" fill-rule="evenodd">
        <g id="03-CDA-Year-and-Basic-Tier-Drop-Down---Start-New-CDA---Step-1" transform="translate(-145.000000, -621.000000)" fill="#000" fill-rule="nonzero">
            <g id="Group-4" transform="translate(0.000000, 620.030180)">
                <path d="M153.995646,19 C155.226415,19 156.384615,18.7662149 157.470247,18.2986447 C158.555878,17.8310745 159.513788,17.1819942 160.343977,16.3514037 C161.174165,15.5208132 161.824383,14.5624395 162.29463,13.4762827 C162.764877,12.3901258 163,11.231365 163,10 C163,8.76863504 162.764877,7.60987415 162.29463,6.52371733 C161.824383,5.4375605 161.174165,4.48063892 160.343977,3.65295257 C159.513788,2.82526621 158.555878,2.17618587 157.470247,1.70571152 C156.384615,1.23523717 155.223512,1 153.986938,1 C152.756168,1 151.599419,1.23523717 150.516691,1.70571152 C149.433962,2.17618587 148.478955,2.82526621 147.651669,3.65295257 C146.824383,4.48063892 146.175617,5.4375605 145.70537,6.52371733 C145.235123,7.60987415 145,8.76863504 145,10 C145,11.231365 145.235123,12.3901258 145.70537,13.4762827 C146.175617,14.5624395 146.824383,15.5208132 147.651669,16.3514037 C148.478955,17.1819942 149.435414,17.8310745 150.521045,18.2986447 C151.606676,18.7662149 152.764877,19 153.995646,19 Z M153.995646,17.2226525 C152.997097,17.2226525 152.060958,17.0367861 151.187228,16.6650532 C150.313498,16.2933204 149.54717,15.7763795 148.888244,15.1142304 C148.229318,14.4520813 147.714078,13.6853824 147.342525,12.8141336 C146.970972,11.9428848 146.785196,11.0048403 146.785196,10 C146.785196,9.00096805 146.970972,8.06437561 147.342525,7.19022265 C147.714078,6.3160697 148.227866,5.54791868 148.88389,4.8857696 C149.539913,4.22362052 150.30479,3.70667957 151.17852,3.33494676 C152.05225,2.96321394 152.988389,2.77734753 153.986938,2.77734753 C154.991292,2.77734753 155.928882,2.96321394 156.79971,3.33494676 C157.670537,3.70667957 158.438316,4.22362052 159.103048,4.8857696 C159.767779,5.54791868 160.285922,6.3160697 160.657475,7.19022265 C161.029028,8.06437561 161.214804,9.00096805 161.214804,10 C161.214804,11.0048403 161.029028,11.9428848 160.657475,12.8141336 C160.285922,13.6853824 159.770682,14.4520813 159.111756,15.1142304 C158.45283,15.7763795 157.686502,16.2933204 156.812772,16.6650532 C155.939042,17.0367861 155,17.2226525 153.995646,17.2226525 Z M152.46299,14.7308809 L155.998549,14.7308809 C156.190131,14.7308809 156.352685,14.6669894 156.486212,14.5392062 C156.619739,14.411423 156.686502,14.2516941 156.686502,14.0600194 C156.686502,13.8683446 156.619739,13.7086157 156.486212,13.5808325 C156.352685,13.4530494 156.190131,13.3891578 155.998549,13.3891578 L155.023222,13.3891578 L155.023222,9.25943853 C155.023222,8.99806389 154.959361,8.78896418 154.83164,8.6321394 C154.703919,8.47531462 154.518142,8.39690223 154.274311,8.39690223 L152.619739,8.39690223 C152.422351,8.39690223 152.256894,8.4607938 152.123367,8.58857696 C151.98984,8.71636012 151.923077,8.8731849 151.923077,9.05905131 C151.923077,9.25653437 151.98984,9.41916747 152.123367,9.54695063 C152.256894,9.67473379 152.422351,9.73862536 152.619739,9.73862536 L153.499274,9.73862536 L153.499274,13.3891578 L152.46299,13.3891578 C152.265602,13.3891578 152.100145,13.4530494 151.966618,13.5808325 C151.833091,13.7086157 151.766328,13.8683446 151.766328,14.0600194 C151.766328,14.2516941 151.833091,14.411423 151.966618,14.5392062 C152.100145,14.6669894 152.265602,14.7308809 152.46299,14.7308809 Z M153.943396,7.03775411 C154.280116,7.03775411 154.561684,6.92013553 154.788099,6.68489835 C155.014514,6.44966118 155.127721,6.16940949 155.127721,5.84414327 C155.127721,5.51306873 155.014514,5.23136496 154.788099,4.99903195 C154.561684,4.76669894 154.280116,4.65053243 153.943396,4.65053243 C153.618287,4.65053243 153.339623,4.76669894 153.107402,4.99903195 C152.875181,5.23136496 152.759071,5.51306873 152.759071,5.84414327 C152.759071,6.16940949 152.875181,6.44966118 153.107402,6.68489835 C153.339623,6.92013553 153.618287,7.03775411 153.943396,7.03775411 Z" id="Shape"></path>
            </g>
        </g>
    </g>
</svg>