<?xml version="1.0" encoding="UTF-8"?>
<svg width="18px" height="23px" viewBox="0 0 18 23" version="1.1" xmlns="http://www.w3.org/2000/svg" xmlns:xlink="http://www.w3.org/1999/xlink">
    <title>􀉀 copy 4</title>
    <g id="12.2-DESIGN:-Present-Screen-Modifications" stroke="none" stroke-width="1" fill="none" fill-rule="evenodd">
        <g id="01-Present-Screen-Modifications---Landing" transform="translate(-209.000000, -428.000000)" fill="#fff" fill-rule="nonzero">
            <path d="M223.682521,451 C225.897741,451 227,449.873601 227,447.642257 L227,437.901586 L219.252081,437.901586 C217.882283,437.901586 217.229489,437.247201 217.229489,435.874067 L217.229489,428 L212.317479,428 C210.112961,428 209,429.137127 209,431.36847 L209,447.642257 C209,449.884328 210.102259,451 212.317479,451 L223.682521,451 Z M226.871581,436.431903 C226.807372,435.992071 226.497027,435.562966 225.983353,435.037313 L220.086801,429.019123 C219.583829,428.504198 219.145065,428.193097 218.6956,428.118004 L218.6956,435.852612 C218.6956,436.238806 218.888228,436.431903 219.284185,436.431903 L226.871581,436.431903 Z M222.130797,442.546642 L213.879905,442.546642 C213.441141,442.546642 213.120095,442.235541 213.120095,441.817164 C213.120095,441.398787 213.441141,441.087687 213.879905,441.087687 L222.130797,441.087687 C222.558859,441.087687 222.890606,441.398787 222.890606,441.817164 C222.890606,442.235541 222.558859,442.546642 222.130797,442.546642 Z M222.130797,446.633862 L213.879905,446.633862 C213.441141,446.633862 213.120095,446.322761 213.120095,445.904384 C213.120095,445.486007 213.441141,445.174907 213.879905,445.174907 L222.130797,445.174907 C222.558859,445.174907 222.890606,445.486007 222.890606,445.904384 C222.890606,446.322761 222.558859,446.633862 222.130797,446.633862 Z" id="􀉀-copy-4"></path>
        </g>
    </g>
</svg>