<?xml version="1.0" encoding="UTF-8"?>
<svg width="26px" height="26px" viewBox="0 0 26 26" version="1.1" xmlns="http://www.w3.org/2000/svg" xmlns:xlink="http://www.w3.org/1999/xlink">
    <title>Exclamation - White</title>
    <g id="Symbols" stroke="none" stroke-width="1" fill="none" fill-rule="evenodd">
        <g id="Exclamation---White" fill="#FFFFFF" fill-rule="nonzero">
            <path d="M13.006135,26 C20.1349693,26 26,20.1472393 26,13.006135 C26,5.86503067 20.1349693,0 12.993865,0 C5.85276074,0 0,5.86503067 0,13.006135 C0,20.1472393 5.86503067,26 13.006135,26 Z M13.006135,14.601227 C12.1472393,14.601227 11.6564417,14.1226994 11.607362,13.2638037 L11.4233129,8.40490798 C11.3742331,7.49693252 12.0368098,6.87116564 12.993865,6.87116564 C13.9509202,6.87116564 14.6134969,7.50920245 14.5644172,8.41717791 L14.3680982,13.2515337 C14.3190184,14.1349693 13.8404908,14.601227 13.006135,14.601227 Z M13.006135,19.3374233 C11.9877301,19.3374233 11.2883436,18.7361963 11.2883436,17.803681 C11.2883436,16.8834356 11.9754601,16.2944785 13.006135,16.2944785 C14,16.2944785 14.6993865,16.8834356 14.6993865,17.803681 C14.6993865,18.7484663 14,19.3374233 13.006135,19.3374233 Z" id="ô€Ÿ-copy"></path>
        </g>
    </g>
</svg>