<?xml version="1.0" encoding="UTF-8"?>
<svg width="33px" height="24px" viewBox="0 0 33 24" version="1.1" xmlns="http://www.w3.org/2000/svg" xmlns:xlink="http://www.w3.org/1999/xlink">
    <title>icon-Delivery-Driver-ON</title>
    <g id="PI5---5.1-Persona-Switching" stroke="none" stroke-width="1" fill="none" fill-rule="evenodd">
        <g id="13-Persona-Switching---Icons" transform="translate(-1045.000000, -241.000000)" fill="#FFFFFF" fill-rule="nonzero">
            <g id="Group-13-Copy-28" transform="translate(1002.000000, 210.000000)">
                <g id="icon-Delivery-Driver-ON" transform="translate(43.000000, 31.000000)">
                    <path d="M29.1470456,5.99815698 L25.2940913,5.99815698 L25.2940913,0.99969283 C25.2940913,0.447577725 24.8628347,0 24.3308527,0 L3.13960363,0 C2.78494897,0 3.1060285,0.666461886 4.10284222,1.99938566 L23.3676141,1.99938566 L23.3676141,15.4852419 C22.1737306,15.8796672 21.2058924,16.7964712 20.7187079,17.9944709 L14.1494207,17.9944709 C13.4714607,16.3162565 11.8860883,15.2272336 10.1327158,15.2353187 C7.86292025,15.2872901 6.03975708,17.1941292 6.00722067,19.5501575 C5.97468426,21.9061858 7.74444303,23.8664693 10.0118711,23.9859315 C12.2792992,24.1053937 14.2312368,22.3411924 14.4287599,19.9938566 L20.4778983,19.9938566 C20.7107349,22.2716502 22.5620772,24 24.7691262,24 C26.9761752,24 28.8275176,22.2716502 29.0603542,19.9938566 L33,19.9938566 L33,9.9969283 C33,7.78846788 31.2749736,5.99815698 29.1470456,5.99815698 Z M10.1327158,21.9932423 C9.27997311,22.0506998 8.46721639,21.6111514 8.02405549,20.8528538 C7.58089459,20.0945561 7.58089459,19.1433874 8.02405549,18.3850898 C8.46721639,17.6267922 9.27997311,17.1872437 10.1327158,17.2447013 C10.9854585,17.1872437 11.7982152,17.6267922 12.2413761,18.3850898 C12.684537,19.1433874 12.684537,20.0945561 12.2413761,20.8528538 C11.7982152,21.6111514 10.9854585,22.0506998 10.1327158,21.9932423 L10.1327158,21.9932423 Z M24.7450453,21.9932423 C23.4946778,21.9277237 22.5261905,20.8332401 22.5695086,19.5346769 C22.6128266,18.2361137 23.6519281,17.2137651 24.9036677,17.2381501 C26.1554074,17.2625352 27.1568094,18.3246346 27.1531518,19.6239702 C27.1355134,20.2709889 26.8708208,20.8842063 26.4173515,21.3285871 C25.9638821,21.7729678 25.358823,22.0120703 24.7354129,21.9932423 L24.7450453,21.9932423 Z M31.0735228,11.5964368 L25.2940913,11.5964368 L25.2940913,7.99754264 L29.1470456,7.99754264 C30.2110096,7.99754264 31.0735228,9.07172918 31.0735228,10.3968054 L31.0735228,11.5964368 Z" id="Shape-Copy"></path>
                    <g id="Group" transform="translate(0.000000, 5.000000)">
                        <polygon id="Path" points="0 6 15 6 15 9 0 9"></polygon>
                        <polygon id="Path" points="0 0 12 0 12 3 0 3"></polygon>
                    </g>
                </g>
            </g>
        </g>
    </g>
</svg>