<?xml version="1.0" encoding="UTF-8"?>
<svg width="42px" height="24px" viewBox="0 0 42 24" version="1.1" xmlns="http://www.w3.org/2000/svg" xmlns:xlink="http://www.w3.org/1999/xlink">
    <title>icon-Delivery Manager-OFF</title>
    <g id="PI5---5.1-Persona-Switching" stroke="none" stroke-width="1" fill="none" fill-rule="evenodd">
        <g id="13-Persona-Switching---Icons" transform="translate(-909.000000, -100.000000)">
            <g id="Group-13-Copy-10" transform="translate(870.000000, 70.000000)">
                <g id="Group-53" transform="translate(39.000000, 30.000000)">
                    <g id="Group-30" transform="translate(25.020321, 4.042781)" fill="#000000">
                        <path d="M10.1452466,12.9372504 C11.2490062,12.9576502 12.1318386,13.8603407 12.1283422,14.9653291 C12.113428,15.5152733 11.8793503,16.0363178 11.4795771,16.4137138 C11.0815574,16.7902598 10.5502799,16.9934077 10.0023452,16.9789578 C8.9012156,16.9211585 8.04906754,15.9921182 8.08676545,14.8896799 C8.12534005,13.7855415 9.04148688,12.9168507 10.1452466,12.9372504 L10.1452466,12.9372504 Z M10.5112299,6.4684492 L13.7457328,6.4684492 C14.6388729,6.4684492 15.3625668,7.19298201 15.3625668,8.08601082 L15.3625668,8.89411765 L10.5112299,8.89411765 L10.5112299,6.4684492 Z M9.63639593,18.5967914 C11.385726,18.5967914 12.8848984,17.5390989 13.3426338,16.0653032 C13.4473098,15.7290112 13.7888372,15.492677 14.187138,15.492677 L16.1014658,15.492677 C16.5858137,15.492677 16.9796791,15.1486364 16.9796791,14.7255594 L16.9796791,7.7463385 C16.9796791,6.03465882 15.440588,4.64764813 13.5422278,4.64764813 L10.9829898,4.64764813 C10.4977547,4.64764813 10.1047764,4.30438235 10.1047764,3.88053048 L10.1047764,0.77486631 C10.1047764,0.346365241 9.71978185,0 9.24519179,0 L1.26409502,0 C0.895955067,0 0.558863062,0.19526631 0.435558354,0.498239037 C0.432897102,0.503663102 0.431122933,0.508312299 0.429348765,0.513736364 C0.224432309,1.01584973 0.6466844,1.54895775 1.25788543,1.54895775 L7.50739379,1.54895775 C7.99262886,1.54895775 8.38560718,1.89222353 8.38560718,2.3160754 L8.38560718,11.4897176 C8.38560718,11.7748684 8.20730325,12.0414225 7.91456545,12.1661759 C7.20401099,12.4675989 6.61409998,12.959639 6.22467,13.5748829 C6.07652694,13.8088925 5.78290206,13.9429444 5.476858,13.9429444 L0.161449329,13.9429444 C0.115320949,13.8429866 0.0558863062,13.7515524 0,13.6570187 C0.134836802,14.1041166 0.279431531,14.5434658 0.439106691,14.971192 C0.556201809,15.2850128 0.899503404,15.492677 1.27828837,15.492677 L5.08565386,15.492677 C5.48395468,15.492677 5.82459502,15.7290112 5.92927096,16.0653032 C6.38700642,17.5390989 7.88617876,18.5967914 9.63639593,18.5967914 L9.63639593,18.5967914 Z" id="Fill-4"></path>
                    </g>
                    <g id="Group-22-Copy">
                        <g id="Group-21">
                            <g id="Group-14" transform="translate(5.783153, 0.000000)" fill="#000000">
                                <ellipse id="Oval" cx="4.61847273" cy="4.63909091" rx="4.61847273" ry="4.63909091"></ellipse>
                            </g>
                            <path d="M18.9561497,12.1283422 L21.3818182,12.1283422 C24.2844142,12.1283422 26.6374332,14.4813612 26.6374332,17.3839572 L26.6374332,20.6395722 C26.6374332,21.7441417 25.7420027,22.6395722 24.6374332,22.6395722 L15.7005348,22.6395722 C14.5959653,22.6395722 13.7005348,21.7441417 13.7005348,20.6395722 L13.7005348,17.3839572 C13.7005348,14.4813612 16.0535537,12.1283422 18.9561497,12.1283422 Z" id="Rectangle" fill="#000000"></path>
                            <path d="M7.27700535,9.22259358 L12.8470588,9.22259358 C16.8660379,9.22259358 20.1240642,12.4806199 20.1240642,16.4995989 L20.1240642,21.7766043 C20.1240642,22.8811738 19.2286337,23.7766043 18.1240642,23.7766043 L2,23.7766043 C0.8954305,23.7766043 -3.0881846e-16,22.8811738 0,21.7766043 L0,16.4995989 C-4.92182986e-16,12.4806199 3.25802627,9.22259358 7.27700535,9.22259358 Z" id="Rectangle" fill="#FFFFFF"></path>
                            <path d="M7.71216578,10.3596257 L12.4118984,10.3596257 C15.802912,10.3596257 18.5518717,13.1085853 18.5518717,16.4995989 L18.5518717,20.6395722 C18.5518717,21.7441417 17.6564412,22.6395722 16.5518717,22.6395722 L3.57219251,22.6395722 C2.46762301,22.6395722 1.57219251,21.7441417 1.57219251,20.6395722 L1.57219251,16.4995989 C1.57219251,13.1085853 4.32115218,10.3596257 7.71216578,10.3596257 Z" id="Rectangle" fill="#000000"></path>
                        </g>
                        <g id="Group-14" transform="translate(16.934759, 4.042781)" fill="#000000">
                            <circle id="Oval" cx="3.63850267" cy="3.63850267" r="3.63850267"></circle>
                        </g>
                    </g>
                </g>
            </g>
        </g>
    </g>
</svg>