<?xml version="1.0" encoding="UTF-8"?>
<svg width="27px" height="27px" viewBox="0 0 27 27" version="1.1" xmlns="http://www.w3.org/2000/svg" xmlns:xlink="http://www.w3.org/1999/xlink">
    <title>icon-FSR-ON</title>
    <g id="PI5---5.1-Persona-Switching" stroke="none" stroke-width="1" fill="none" fill-rule="evenodd">
        <g id="13-Persona-Switching---Icons" transform="translate(-784.000000, -238.000000)" fill="#FFFFFF" fill-rule="nonzero">
            <g id="Group-13-Copy-27" transform="translate(738.000000, 210.000000)">
                <path d="M59.5,55 C66.8852941,55 73,48.8720588 73,41.5 C73,34.1147059 66.8720588,28 59.4867647,28 C52.1147059,28 46,34.1147059 46,41.5 C46,48.8720588 52.1279412,55 59.5,55 Z M55.4938228,50 C54.8937796,50 54.5062516,49.652819 54.5187525,49.0118694 L54.6687634,40.2789318 C54.6687634,40.0118694 54.5562553,39.7982196 54.331239,39.6913947 C53.3561687,39.2507418 52.943639,38.7833828 53.0061435,37.4080119 L53.2061579,32.6409496 C53.2186588,32.2937685 53.4061723,32.0934718 53.6936931,32.0934718 C53.9937147,32.0934718 54.1687273,32.3071217 54.1687273,32.6543027 L54.1062228,37.3145401 C54.1062228,37.5682493 54.2812354,37.7551929 54.5062516,37.7551929 C54.7687706,37.7551929 54.9312823,37.5682493 54.9312823,37.3278932 L55.0062877,32.5341246 C55.0062877,32.1869436 55.2063021,32 55.4938228,32 C55.7813436,32 55.9938589,32.1869436 55.9938589,32.5341246 L56.0438625,37.3278932 C56.0438625,37.5682493 56.2188751,37.7551929 56.4688931,37.7551929 C56.7189111,37.7551929 56.8939238,37.5682493 56.8939238,37.3145401 L56.8314193,32.6543027 C56.8314193,32.3071217 57.0064319,32.0934718 57.2939526,32.0934718 C57.5939742,32.0934718 57.7564859,32.2937685 57.7814877,32.6409496 L57.9940031,37.4080119 C58.0565076,38.7833828 57.6314769,39.2507418 56.6689075,39.6913947 C56.4438913,39.7982196 56.3438841,40.0118694 56.3438841,40.2789318 L56.4688931,49.0118694 C56.4938949,49.652819 56.106367,50 55.4938228,50 Z M63.0513834,50 C62.4940711,50 62.1146245,49.652819 62.1264822,48.9718101 L62.2806324,43.3902077 C62.2924901,43.0964392 62.173913,42.8827893 61.9249012,42.6958457 L61.5335968,42.3753709 C61.1897233,42.0949555 61,41.7210682 61,41.1735905 L61,40.652819 C61,37.5548961 61.7351779,34.2700297 62.8498024,32.5207715 C63.0632411,32.1602374 63.2529644,32 63.5019763,32 C63.7509881,32 64,32.1735905 64,32.574184 L64,49.0519288 C64,49.6795252 63.6442688,50 63.0513834,50 Z" id="icon-FSR-ON"></path>
            </g>
        </g>
    </g>
</svg>