<?xml version="1.0" encoding="UTF-8"?>
<svg width="30px" height="30px" viewBox="0 0 30 30" version="1.1" xmlns="http://www.w3.org/2000/svg" xmlns:xlink="http://www.w3.org/1999/xlink">
    <title>icon-Food-Service-Manager-OFF</title>
    <g id="PI5---5.1-Persona-Switching" stroke="none" stroke-width="1" fill="none" fill-rule="evenodd">
        <g id="13-Persona-Switching---Icons" transform="translate(-651.000000, -98.000000)">
            <g id="Group-13-Copy-7" transform="translate(606.000000, 70.000000)">
                <g id="icon-Food-Service-Manager-OFF" transform="translate(45.000000, 28.000000)">
                    <g id="Group-22-Copy">
                        <g id="Group-21">
                            <g id="Group-14" transform="translate(5.799279, 0.000000)" fill="#000000">
                                <ellipse id="Oval" cx="4.63135135" cy="4.65202703" rx="4.63135135" ry="4.65202703"></ellipse>
                            </g>
                            <path d="M19.8198198,11.3513514 L22.2522523,11.3513514 C25.1629422,11.3513514 27.5225225,13.7109317 27.5225225,16.6216216 L27.5225225,19.8918919 C27.5225225,20.9964614 26.627092,21.8918919 25.5225225,21.8918919 L16.5495495,21.8918919 C15.44498,21.8918919 14.5495495,20.9964614 14.5495495,19.8918919 L14.5495495,16.6216216 C14.5495495,13.7109317 16.9091299,11.3513514 19.8198198,11.3513514 Z" id="Rectangle" fill="#000000"></path>
                            <path d="M7.2972973,9.24831081 L12.8828829,9.24831081 C16.9130689,9.24831081 20.1801802,12.5154221 20.1801802,16.5456081 L20.1801802,21.8429054 C20.1801802,22.9474749 19.2847497,23.8429054 18.1801802,23.8429054 L2,23.8429054 C0.8954305,23.8429054 1.3527075e-16,22.9474749 0,21.8429054 L0,16.5456081 C-4.9355544e-16,12.5154221 3.26711129,9.24831081 7.2972973,9.24831081 Z" id="Rectangle" fill="#FFFFFF"></path>
                            <path d="M7.73367117,10.3885135 L12.446509,10.3885135 C15.8469785,10.3885135 18.6036036,13.1451387 18.6036036,16.5456081 L18.6036036,20.7027027 C18.6036036,21.8072722 17.7081731,22.7027027 16.6036036,22.7027027 L3.57657658,22.7027027 C2.47200708,22.7027027 1.57657658,21.8072722 1.57657658,20.7027027 L1.57657658,16.5456081 C1.57657658,13.1451387 4.33320172,10.3885135 7.73367117,10.3885135 Z" id="Rectangle" fill="#000000"></path>
                        </g>
                        <g id="Group-14" transform="translate(17.792793, 3.243243)" fill="#000000">
                            <circle id="Oval" cx="3.64864865" cy="3.64864865" r="3.64864865"></circle>
                        </g>
                    </g>
                    <g id="Group-38" transform="translate(16.216216, 15.405405)">
                        <circle id="Oval" fill="#FFFFFF" cx="6.89189189" cy="6.89189189" r="6.89189189"></circle>
                        <circle id="Oval" fill="#000000" cx="6.89189189" cy="6.89189189" r="5.63882064"></circle>
                        <g id="Group-31" transform="translate(5.012285, 3.132678)" fill="#FFFFFF">
                            <path d="M0.968854344,7.51842752 C1.20438763,7.51842752 1.35472802,7.36897865 1.34971667,7.10456912 L1.29459186,3.46031603 C1.29459186,3.34535536 1.33468263,3.25913486 1.42488687,3.2131506 C1.79572651,3.02921353 1.96611228,2.8337804 1.93604421,2.25897708 L1.85586266,0.270157564 C1.85085132,0.126456732 1.78069247,0.0402362329 1.6654315,0.0402362329 C1.55518188,0.0402362329 1.48502303,0.132204765 1.48502303,0.275905597 L1.51007976,2.21874084 C1.51007976,2.32795347 1.43992091,2.40267791 1.34971667,2.40267791 C1.24948974,2.40267791 1.17933089,2.32795347 1.17933089,2.22448888 L1.15928551,0.224173298 C1.15928551,0.0804724658 1.07910397,0 0.968854344,0 C0.853593376,0 0.778423179,0.0804724658 0.778423179,0.224173298 L0.748355101,2.22448888 C0.748355101,2.32795347 0.683207597,2.40267791 0.587992015,2.40267791 C0.497787779,2.40267791 0.427628929,2.32795347 0.427628929,2.21874084 L0.452685661,0.275905597 C0.452685661,0.132204765 0.382526811,0.0402362329 0.272277189,0.0402362329 C0.157016221,0.0402362329 0.081846025,0.126456732 0.0768346785,0.270157564 L0.00166448203,2.25897708 C-0.0183809037,2.8337804 0.141982182,3.02921353 0.517833165,3.2131506 C0.603026054,3.25913486 0.643116825,3.34535536 0.643116825,3.46031603 L0.587992015,7.10456912 C0.582980668,7.36897865 0.733321061,7.51842752 0.968854344,7.51842752 Z" id="Path"></path>
                            <path d="M3.92266175,7.51842752 C4.21357578,7.51842752 4.38574939,7.38047472 4.38574939,7.12181322 L4.38574939,0.241417397 C4.38574939,0.0747244325 4.26107194,0 4.14826855,0 C4.01765408,0 3.93453579,0.0689763993 3.82766941,0.218425264 C3.2874005,0.94842549 2.93117924,2.32220544 2.93117924,3.61551293 L2.93117924,3.83393819 C2.93117924,4.06385952 3.02023455,4.21905642 3.18647114,4.33401709 L3.38239283,4.46622185 C3.50113325,4.54669432 3.55456644,4.63291482 3.55456644,4.75937155 L3.47738517,7.08732502 C3.46551113,7.36897865 3.64955878,7.51842752 3.92266175,7.51842752 Z" id="Path"></path>
                        </g>
                    </g>
                </g>
            </g>
        </g>
    </g>
</svg>