<?xml version="1.0" encoding="UTF-8"?>
<svg width="36px" height="24px" viewBox="0 0 36 24" version="1.1" xmlns="http://www.w3.org/2000/svg" xmlns:xlink="http://www.w3.org/1999/xlink">
    <title>icon-Merch-Manager-ON</title>
    <g id="PI5---5.1-Persona-Switching" stroke="none" stroke-width="1" fill="none" fill-rule="evenodd">
        <g id="13-Persona-Switching---Icons" transform="translate(-120.000000, -240.000000)">
            <g id="Group-11-Copy-3" transform="translate(78.000000, 210.000000)">
                <g id="icon-Merch-Manager-ON" transform="translate(42.000000, 30.000000)">
                    <g id="Group-14-Copy" transform="translate(22.736842, 1.789474)" fill="#FFFFFF">
                        <ellipse id="Oval" cx="6.83618302" cy="4.1814882" rx="4.09208138" ry="4.1814882"></ellipse>
                        <path d="M5.73461239,9.37288048 L7.5285455,9.37288048 C10.6956845,9.37288048 13.2631579,11.9403539 13.2631579,15.1074929 L13.2631579,18.8421053 C13.2631579,19.9466748 12.3677274,20.8421053 11.2631579,20.8421053 L4,20.8421053 C1.790861,20.8421053 2.705415e-16,19.0512443 0,16.8421053 L0,15.1074929 C-3.8786266e-16,11.9403539 2.56747342,9.37288048 5.73461239,9.37288048 Z" id="Rectangle"></path>
                    </g>
                    <g id="Group-14-Copy-3" transform="translate(0.000000, 1.789474)" fill="#FFFFFF">
                        <ellipse id="Oval" cx="6.83618302" cy="4.1814882" rx="4.09208138" ry="4.1814882"></ellipse>
                        <path d="M5.73461239,9.37288048 L7.5285455,9.37288048 C10.6956845,9.37288048 13.2631579,11.9403539 13.2631579,15.1074929 L13.2631579,18.8421053 C13.2631579,19.9466748 12.3677274,20.8421053 11.2631579,20.8421053 L2,20.8421053 C0.8954305,20.8421053 1.11632554e-15,19.9466748 0,18.8421053 L0,15.1074929 C-3.8786266e-16,11.9403539 2.56747342,9.37288048 5.73461239,9.37288048 Z" id="Rectangle"></path>
                    </g>
                    <path d="M17.5263158,8.42105263 L19.4210526,8.42105263 C23.6067897,8.42105263 27,11.8142629 27,16 L27,21.5789474 C27,22.6835169 26.1045695,23.5789474 25,23.5789474 L11.9473684,23.5789474 C10.8427989,23.5789474 9.94736842,22.6835169 9.94736842,21.5789474 L9.94736842,16 C9.94736842,11.8142629 13.3405787,8.42105263 17.5263158,8.42105263 Z" id="Rectangle" fill="#00A2D9"></path>
                    <path d="M18,9.36842105 L18.9473684,9.36842105 C22.6098883,9.36842105 25.5789474,12.3374801 25.5789474,16 L25.5789474,20.6315789 C25.5789474,21.7361484 24.6835169,22.6315789 23.5789474,22.6315789 L13.3684211,22.6315789 C12.2638516,22.6315789 11.3684211,21.7361484 11.3684211,20.6315789 L11.3684211,16 C11.3684211,12.3374801 14.3374801,9.36842105 18,9.36842105 Z" id="Rectangle" fill="#FFFFFF"></path>
                    <g id="Group-14" transform="translate(13.799279, 0.000000)" fill="#FFFFFF">
                        <ellipse id="Oval" cx="4.63135135" cy="4.65202703" rx="4.63135135" ry="4.65202703"></ellipse>
                    </g>
                    <path d="M15.2972973,9.24831081 L20.8828829,9.24831081 C24.9130689,9.24831081 28.1801802,12.5154221 28.1801802,16.5456081 L28.1801802,21.8429054 C28.1801802,22.9474749 27.2847497,23.8429054 26.1801802,23.8429054 L10,23.8429054 C8.8954305,23.8429054 8,22.9474749 8,21.8429054 L8,16.5456081 C8,12.5154221 11.2671113,9.24831081 15.2972973,9.24831081 Z" id="Rectangle" fill="#00A2D9"></path>
                    <path d="M15.7336712,10.3885135 L20.446509,10.3885135 C23.8469785,10.3885135 26.6036036,13.1451387 26.6036036,16.5456081 L26.6036036,20.7027027 C26.6036036,21.8072722 25.7081731,22.7027027 24.6036036,22.7027027 L11.5765766,22.7027027 C10.4720071,22.7027027 9.57657658,21.8072722 9.57657658,20.7027027 L9.57657658,16.5456081 C9.57657658,13.1451387 12.3332017,10.3885135 15.7336712,10.3885135 Z" id="Rectangle" fill="#FFFFFF"></path>
                </g>
            </g>
        </g>
    </g>
</svg>