<?xml version="1.0" encoding="UTF-8"?>
<svg width="36px" height="24px" viewBox="0 0 36 24" version="1.1" xmlns="http://www.w3.org/2000/svg" xmlns:xlink="http://www.w3.org/1999/xlink">
    <title>icon-Merch-Manager-OFF</title>
    <g id="PI5---5.1-Persona-Switching" stroke="none" stroke-width="1" fill="none" fill-rule="evenodd">
        <g id="13-Persona-Switching---Icons" transform="translate(-120.000000, -100.000000)">
            <g id="Group-11" transform="translate(78.000000, 70.000000)">
                <g id="icon-Merch-Manager-OFF" transform="translate(42.000000, 30.000000)">
                    <g id="Group-14-Copy" transform="translate(22.736842, 1.789474)" fill="#000000">
                        <ellipse id="Oval" cx="6.83618302" cy="4.1814882" rx="4.09208138" ry="4.1814882"></ellipse>
                        <path d="M5.73461239,9.37288048 L7.5285455,9.37288048 C10.6956845,9.37288048 13.2631579,11.9403539 13.2631579,15.1074929 L13.2631579,18.8421053 C13.2631579,19.9466748 12.3677274,20.8421053 11.2631579,20.8421053 L4,20.8421053 C1.790861,20.8421053 2.705415e-16,19.0512443 0,16.8421053 L0,15.1074929 C-3.8786266e-16,11.9403539 2.56747342,9.37288048 5.73461239,9.37288048 Z" id="Rectangle"></path>
                    </g>
                    <g id="Group-14-Copy-3" transform="translate(0.000000, 1.789474)" fill="#000000">
                        <ellipse id="Oval" cx="6.83618302" cy="4.1814882" rx="4.09208138" ry="4.1814882"></ellipse>
                        <path d="M5.73461239,9.37288048 L7.5285455,9.37288048 C10.6956845,9.37288048 13.2631579,11.9403539 13.2631579,15.1074929 L13.2631579,18.8421053 C13.2631579,19.9466748 12.3677274,20.8421053 11.2631579,20.8421053 L2,20.8421053 C0.8954305,20.8421053 1.11632554e-15,19.9466748 0,18.8421053 L0,15.1074929 C-3.8786266e-16,11.9403539 2.56747342,9.37288048 5.73461239,9.37288048 Z" id="Rectangle"></path>
                    </g>
                    <path d="M17.5263158,8.42105263 L19.4210526,8.42105263 C23.6067897,8.42105263 27,11.8142629 27,16 L27,21.5789474 C27,22.6835169 26.1045695,23.5789474 25,23.5789474 L11.9473684,23.5789474 C10.8427989,23.5789474 9.94736842,22.6835169 9.94736842,21.5789474 L9.94736842,16 C9.94736842,11.8142629 13.3405787,8.42105263 17.5263158,8.42105263 Z" id="Rectangle" fill="#FFFFFF"></path>
                    <g id="Group-42" transform="translate(8.000000, 0.000000)">
                        <g id="Group-14" transform="translate(5.799279, 0.000000)" fill="#000000">
                            <ellipse id="Oval" cx="4.63135135" cy="4.65202703" rx="4.63135135" ry="4.65202703"></ellipse>
                        </g>
                        <path d="M7.2972973,9.24831081 L12.8828829,9.24831081 C16.9130689,9.24831081 20.1801802,12.5154221 20.1801802,16.5456081 L20.1801802,21.8429054 C20.1801802,22.9474749 19.2847497,23.8429054 18.1801802,23.8429054 L2,23.8429054 C0.8954305,23.8429054 1.3527075e-16,22.9474749 0,21.8429054 L0,16.5456081 C-4.9355544e-16,12.5154221 3.26711129,9.24831081 7.2972973,9.24831081 Z" id="Rectangle" fill="#FFFFFF"></path>
                        <path d="M7.73367117,10.3885135 L12.446509,10.3885135 C15.8469785,10.3885135 18.6036036,13.1451387 18.6036036,16.5456081 L18.6036036,20.7027027 C18.6036036,21.8072722 17.7081731,22.7027027 16.6036036,22.7027027 L3.57657658,22.7027027 C2.47200708,22.7027027 1.57657658,21.8072722 1.57657658,20.7027027 L1.57657658,16.5456081 C1.57657658,13.1451387 4.33320172,10.3885135 7.73367117,10.3885135 Z" id="Rectangle" fill="#000000"></path>
                    </g>
                </g>
            </g>
        </g>
    </g>
</svg>