<?xml version="1.0" encoding="UTF-8"?>
<svg width="26px" height="31px" viewBox="0 0 26 31" version="1.1" xmlns="http://www.w3.org/2000/svg" xmlns:xlink="http://www.w3.org/1999/xlink">
    <title>icon-Merch-OFF</title>
    <g id="PI5---5.1-Persona-Switching" stroke="none" stroke-width="1" fill="none" fill-rule="evenodd">
        <g id="13-Persona-Switching---Icons" transform="translate(-257.000000, -96.000000)">
            <g id="Group-12-Copy" transform="translate(210.000000, 70.000000)">
                <g id="icon-Merch-OFF" transform="translate(48.000000, 27.000000)">
                    <g id="Group-28-Copy-2" transform="translate(15.272727, 2.181818)">
                        <g id="Group-36" fill="#FFFFFF" stroke="#000000">
                            <path d="M5.76506683,2.90909091 L5.76506683,3.73247219 C7.62527958,5.18232167 8.55538595,6.46129732 8.55538595,7.56939916 L8.55538595,14.2393483 L8.55538595,14.2393483 C8.71327159,14.9332137 8.61259809,15.5590505 8.25336543,16.1168587 C7.71451645,16.9535711 8.25336543,17.6880202 8.25336543,18.710742 C8.25336543,19.7334637 8.24749062,19.4809279 7.97769956,20.0406228 C7.70790849,20.6003177 8.41246523,20.2567573 8.55538595,21.3539002 C8.69830667,22.4510432 8.85740647,23.1036037 8.55538595,24.4752813 C8.25336543,25.8469589 6.98906973,26.8455998 6.02729211,25.6444562 C5.7893064,25.3472408 5.14949463,26.1818182 4.86881347,26.0865447 C4.86075309,26.0880018 4.78501835,26.0888789 4.67286175,26.0893448 L4.10406546,26.0894148 C3.79662237,26.0887532 3.51017189,26.0873464 3.49473405,26.0865447 C3.41180375,26.0822376 3.33799126,26.0205838 3.27329659,25.9015831 C3.04290321,25.7234975 2.77309999,25.4971878 2.64058136,25.617797 C1.38354444,26.7618635 0.460652426,25.8469589 0.167079218,24.4752813 C-0.126493991,23.1036037 0.0281558971,22.4510432 0.167079218,21.3539002 C0.306002538,20.2567573 0.990853299,20.6003177 0.72860811,20.0406228 C0.466362921,19.4809279 0.424311413,19.5807964 0.36601742,18.727178 C0.347800547,18.4604223 0.401361089,18.1871851 0.467632726,17.9120333 L0.54947977,17.5812244 C0.67006159,17.0845093 0.755277404,16.5875094 0.460652426,16.1168587 C0.111467268,15.5590505 0.0136095315,14.9332137 0.167079218,14.2393483 L0.167079218,14.2393483 L0.167079218,7.56939916 C0.167079218,6.46129732 1.07117114,5.18232167 2.87935497,3.73247219 L2.87935497,3.73247219 L2.87935497,2.90909091 L5.76506683,2.90909091 Z" id="Combined-Shape-Copy-2"></path>
                            <rect id="Rectangle-Copy-10" x="2.90909091" y="0" width="2.90909091" height="1.93939394"></rect>
                        </g>
                        <rect id="Rectangle-Copy-14" fill="#000000" x="1.09090909" y="8.72727273" width="6.54545455" height="5.81818182"></rect>
                    </g>
                    <g id="Group-28-Copy-4" transform="translate(0.000000, 2.181818)">
                        <g id="Group-36" fill="#FFFFFF" stroke="#000000">
                            <path d="M5.76506683,2.90909091 L5.76506683,3.73247219 C7.62527958,5.18232167 8.55538595,6.46129732 8.55538595,7.56939916 L8.55538595,14.2393483 L8.55538595,14.2393483 C8.71327159,14.9332137 8.61259809,15.5590505 8.25336543,16.1168587 C7.71451645,16.9535711 8.25336543,17.6880202 8.25336543,18.710742 C8.25336543,19.7334637 8.24749062,19.4809279 7.97769956,20.0406228 C7.70790849,20.6003177 8.41246523,20.2567573 8.55538595,21.3539002 C8.69830667,22.4510432 8.85740647,23.1036037 8.55538595,24.4752813 C8.25336543,25.8469589 6.98906973,26.8455998 6.02729211,25.6444562 C5.7893064,25.3472408 5.14949463,26.1818182 4.86881347,26.0865447 C4.86075309,26.0880018 4.78501835,26.0888789 4.67286175,26.0893448 L4.10406546,26.0894148 C3.79662237,26.0887532 3.51017189,26.0873464 3.49473405,26.0865447 C3.41180375,26.0822376 3.33799126,26.0205838 3.27329659,25.9015831 C3.04290321,25.7234975 2.77309999,25.4971878 2.64058136,25.617797 C1.38354444,26.7618635 0.460652426,25.8469589 0.167079218,24.4752813 C-0.126493991,23.1036037 0.0281558971,22.4510432 0.167079218,21.3539002 C0.306002538,20.2567573 0.990853299,20.6003177 0.72860811,20.0406228 C0.466362921,19.4809279 0.424311413,19.5807964 0.36601742,18.727178 C0.347800547,18.4604223 0.401361089,18.1871851 0.467632726,17.9120333 L0.54947977,17.5812244 C0.67006159,17.0845093 0.755277404,16.5875094 0.460652426,16.1168587 C0.111467268,15.5590505 0.0136095315,14.9332137 0.167079218,14.2393483 L0.167079218,14.2393483 L0.167079218,7.56939916 C0.167079218,6.46129732 1.07117114,5.18232167 2.87935497,3.73247219 L2.87935497,3.73247219 L2.87935497,2.90909091 L5.76506683,2.90909091 Z" id="Combined-Shape-Copy-2"></path>
                            <rect id="Rectangle-Copy-10" x="2.90909091" y="0" width="2.90909091" height="1.93939394"></rect>
                        </g>
                        <polygon id="Rectangle-Copy-14" fill="#000000" points="1.09090909 8.72727273 7.63636364 8.72727273 7.63636364 14.5454545 1.09090909 14.5454545"></polygon>
                    </g>
                    <g id="Group-28-Copy-3" transform="translate(7.636364, 0.000000)">
                        <g id="Group-36" fill="#FFFFFF" stroke="#000000">
                            <path d="M6.48570019,3.27272727 L6.48570019,4.19903121 C8.57843953,5.83011188 9.6248092,7.26895949 9.6248092,8.51557405 L9.6248092,16.0192668 L9.6248092,16.0192668 C9.80243054,16.7998654 9.68917285,17.5039318 9.28503611,18.131466 C8.678831,19.0727674 9.28503611,19.8990227 9.28503611,21.0495847 C9.28503611,22.2001467 9.27842695,21.9160439 8.974912,22.5457007 C8.67139705,23.1753574 9.46402339,22.7888519 9.6248092,24.0231378 C9.785595,25.2574236 9.96458228,25.9915542 9.6248092,27.5346914 C9.28503611,29.0778287 7.86270344,30.2012998 6.78070363,28.8500132 C6.5129697,28.5156459 5.79318146,29.4545455 5.47741515,29.3473627 C5.46431704,29.3497306 5.29237215,29.350737 5.06753999,29.3509542 L4.77913693,29.3508725 C4.72909924,29.350808 4.67864141,29.350721 4.62861112,29.3506162 L4.34034122,29.3498099 C4.11569402,29.3490206 3.94411905,29.3480142 3.93157581,29.3473627 C3.83789475,29.3424974 3.75455596,29.272584 3.68155942,29.1376227 C3.42280703,28.9385498 3.11962473,28.6844389 2.97065403,28.8200216 C1.5564875,30.1070964 0.51823398,29.0778287 0.18796412,27.5346914 C-0.14230574,25.9915542 0.0316753843,25.2574236 0.18796412,24.0231378 C0.344252855,22.7888519 1.11470996,23.1753574 0.819684124,22.5457007 C0.524658287,21.9160439 0.477350339,22.0283959 0.411769597,21.0680753 C0.391275615,20.7679751 0.451531225,20.4605833 0.526086816,20.1510375 L0.618164741,19.7788774 C0.753819289,19.2200729 0.849687079,18.6609481 0.51823398,18.131466 C0.125400676,17.5039318 0.015310723,16.7998654 0.18796412,16.0192668 L0.18796412,16.0192668 L0.18796412,8.51557405 C0.18796412,7.26895949 1.20506753,5.83011188 3.23927435,4.19903121 L3.23927435,4.19903121 L3.23927435,3.27272727 L6.48570019,3.27272727 Z" id="Combined-Shape-Copy-2"></path>
                            <rect id="Rectangle-Copy-10" x="3.27272727" y="0" width="3.27272727" height="2.18181818"></rect>
                        </g>
                        <rect id="Rectangle-Copy-14" fill="#000000" x="1.09090909" y="9.81818182" width="7.63636364" height="6.54545455"></rect>
                    </g>
                </g>
            </g>
        </g>
    </g>
</svg>