<?xml version="1.0" encoding="UTF-8"?>
<svg width="24px" height="24px" viewBox="0 0 24 24" version="1.1" xmlns="http://www.w3.org/2000/svg" xmlns:xlink="http://www.w3.org/1999/xlink">
    <title>icon-Sales-Rep-ON</title>
    <g id="PI5---5.1-Persona-Switching" stroke="none" stroke-width="1" fill="none" fill-rule="evenodd">
        <g id="13-Persona-Switching---Icons" transform="translate(-522.000000, -242.000000)" fill="#FFFFFF" fill-rule="nonzero">
            <g id="Group-13-Copy-25" transform="translate(474.000000, 210.000000)">
                <path d="M67.5855956,56 C69.0216066,56 70.1163435,55.6232687 70.8698061,54.8698061 C71.6232687,54.1163435 72,53.0304709 72,51.6121884 L72,36.3878116 C72,34.9695291 71.6232687,33.8836565 70.8698061,33.1301939 C70.1163435,32.3767313 69.0216066,32 67.5855956,32 L52.4144044,32 C50.9872576,32 49.8947368,32.3745152 49.1368421,33.1235457 C48.3789474,33.8725762 48,34.9606648 48,36.3878116 L48,51.6121884 C48,53.0304709 48.3789474,54.1163435 49.1368421,54.8698061 C49.8947368,55.6232687 50.9872576,56 52.4144044,56 L67.5855956,56 Z M67.2531856,52.8221607 L52.7468144,52.8221607 C52.232687,52.8221607 51.8426593,52.6936288 51.5767313,52.4365651 C51.3108033,52.1795014 51.1778393,51.7761773 51.1778393,51.2265928 L51.1778393,36.7734072 C51.1778393,36.2238227 51.3108033,35.8204986 51.5767313,35.5634349 C51.8426593,35.3063712 52.232687,35.1778393 52.7468144,35.1778393 L67.2531856,35.1778393 C67.7584488,35.1778393 68.1484765,35.3063712 68.4232687,35.5634349 C68.6980609,35.8204986 68.8354571,36.2238227 68.8354571,36.7734072 L68.8354571,51.2265928 C68.8354571,51.7761773 68.6980609,52.1795014 68.4232687,52.4365651 C68.1484765,52.6936288 67.7584488,52.8221607 67.2531856,52.8221607 Z M60.0066482,50.8542936 C60.166205,50.8542936 60.2947368,50.8055402 60.3922438,50.7080332 C60.4897507,50.6105263 60.5385042,50.4775623 60.5385042,50.3091413 L60.5385042,49.5246537 C61.6288089,49.4360111 62.5218837,49.101385 63.2177285,48.5207756 C63.9135734,47.9401662 64.2614958,47.166759 64.2614958,46.200554 C64.2614958,45.3407202 63.9889197,44.6603878 63.4437673,44.1595568 C62.898615,43.6587258 62.0764543,43.2975069 60.9772853,43.0759003 L60.5385042,42.9961219 L60.5385042,40.3767313 C60.8753463,40.4387812 61.1590028,40.565097 61.3894737,40.7556787 C61.6199446,40.9462604 61.7927978,41.1922438 61.9080332,41.4936288 C62.1562327,41.9634349 62.5152355,42.198338 62.9850416,42.198338 C63.2952909,42.198338 63.5434903,42.1141274 63.7296399,41.9457064 C63.9157895,41.7772853 64.0088643,41.5512465 64.0088643,41.26759 C64.0088643,41.1878116 64.0022161,41.1058172 63.9889197,41.0216066 C63.9756233,40.9373961 63.9556787,40.8598338 63.9290859,40.7889197 C63.7518006,40.1772853 63.366205,39.6609418 62.7722992,39.2398892 C62.1783934,38.8188366 61.433795,38.5639889 60.5385042,38.4753463 L60.5385042,37.6642659 C60.5385042,37.4958449 60.4897507,37.3628809 60.3922438,37.265374 C60.2947368,37.167867 60.166205,37.1191136 60.0066482,37.1191136 C59.6520776,37.1191136 59.4747922,37.300831 59.4747922,37.6642659 L59.4747922,38.4753463 C58.4199446,38.5551247 57.5601108,38.8853186 56.8952909,39.465928 C56.2304709,40.0465374 55.8980609,40.7933518 55.8980609,41.7063712 C55.8980609,42.5396122 56.1684211,43.2044321 56.7091413,43.700831 C57.2498615,44.1972299 58.0432133,44.565097 59.0891967,44.8044321 L59.4747922,44.8842105 L59.4747922,47.6365651 C59.0404432,47.5745152 58.6969529,47.4393352 58.4443213,47.2310249 C58.1916898,47.0227147 58.0166205,46.767867 57.9191136,46.466482 C57.8127424,46.2271468 57.6731302,46.0454294 57.500277,45.9213296 C57.3274238,45.7972299 57.1168975,45.7351801 56.8686981,45.7351801 C56.5407202,45.7351801 56.2836565,45.8282548 56.0975069,46.0144044 C55.9113573,46.200554 55.8182825,46.4398892 55.8182825,46.73241 C55.8182825,46.8121884 55.8249307,46.8941828 55.8382271,46.9783934 C55.8515235,47.0626039 55.8759003,47.1490305 55.9113573,47.2376731 C56.0886427,47.8315789 56.4831025,48.3434903 57.0947368,48.7734072 C57.7063712,49.2033241 58.499723,49.4493075 59.4747922,49.5113573 L59.4747922,50.3091413 C59.4747922,50.6725762 59.6520776,50.8542936 60.0066482,50.8542936 Z M59.4747922,42.7301939 L59.3817175,42.7036011 C58.9562327,42.5883657 58.6415512,42.4354571 58.4376731,42.2448753 C58.233795,42.0542936 58.131856,41.8171745 58.131856,41.533518 C58.131856,41.232133 58.2515235,40.9750693 58.4908587,40.7623269 C58.7301939,40.5495845 59.0581717,40.4166205 59.4747922,40.3634349 L59.4747922,42.7301939 Z M60.5385042,47.6365651 L60.5385042,45.1501385 L60.7379501,45.1767313 C61.198892,45.300831 61.5290859,45.4603878 61.7285319,45.6554017 C61.9279778,45.8504155 62.0277008,46.098615 62.0277008,46.4 C62.0277008,46.7368421 61.901385,47.0138504 61.6487535,47.2310249 C61.3961219,47.4481994 61.0260388,47.5833795 60.5385042,47.6365651 Z" id="icon-Sales-Rep-ON"></path>
            </g>
        </g>
    </g>
</svg>