<?xml version="1.0" encoding="UTF-8"?>
<svg width="30px" height="30px" viewBox="0 0 30 30" version="1.1" xmlns="http://www.w3.org/2000/svg" xmlns:xlink="http://www.w3.org/1999/xlink">
    <title>icon-SDL-ON</title>
    <g id="PI5---5.1-Persona-Switching" stroke="none" stroke-width="1" fill="none" fill-rule="evenodd">
        <g id="13-Persona-Switching---Icons" transform="translate(-387.000000, -238.000000)">
            <g id="Group-20-Copy-5" transform="translate(342.000000, 210.000000)">
                <g id="icon-SDL-ON" transform="translate(45.000000, 28.000000)">
                    <g id="Group-55">
                        <g id="Group-22-Copy">
                            <g id="Group-21">
                                <g id="Group-14" transform="translate(5.799279, 0.000000)" fill="#FFFFFF">
                                    <ellipse id="Oval" cx="4.63135135" cy="4.65202703" rx="4.63135135" ry="4.65202703"></ellipse>
                                </g>
                                <path d="M19.8198198,11.3513514 L22.2522523,11.3513514 C25.1629422,11.3513514 27.5225225,13.7109317 27.5225225,16.6216216 L27.5225225,19.8918919 C27.5225225,20.9964614 26.627092,21.8918919 25.5225225,21.8918919 L16.5495495,21.8918919 C15.44498,21.8918919 14.5495495,20.9964614 14.5495495,19.8918919 L14.5495495,16.6216216 C14.5495495,13.7109317 16.9091299,11.3513514 19.8198198,11.3513514 Z" id="Rectangle" fill="#FFFFFF"></path>
                                <path d="M7.2972973,9.24831081 L12.8828829,9.24831081 C16.9130689,9.24831081 20.1801802,12.5154221 20.1801802,16.5456081 L20.1801802,21.8429054 C20.1801802,22.9474749 19.2847497,23.8429054 18.1801802,23.8429054 L2,23.8429054 C0.8954305,23.8429054 -3.0881846e-16,22.9474749 0,21.8429054 L0,16.5456081 C-4.9355544e-16,12.5154221 3.26711129,9.24831081 7.2972973,9.24831081 Z" id="Rectangle" fill="#00A2D9"></path>
                                <path d="M7.73367117,10.3885135 L12.446509,10.3885135 C15.8469785,10.3885135 18.6036036,13.1451387 18.6036036,16.5456081 L18.6036036,20.7027027 C18.6036036,21.8072722 17.7081731,22.7027027 16.6036036,22.7027027 L3.57657658,22.7027027 C2.47200708,22.7027027 1.57657658,21.8072722 1.57657658,20.7027027 L1.57657658,16.5456081 C1.57657658,13.1451387 4.33320172,10.3885135 7.73367117,10.3885135 Z" id="Rectangle" fill="#FFFFFF"></path>
                            </g>
                            <g id="Group-14" transform="translate(17.792793, 3.243243)" fill="#FFFFFF">
                                <circle id="Oval" cx="3.64864865" cy="3.64864865" r="3.64864865"></circle>
                            </g>
                        </g>
                        <g id="Group-38" transform="translate(16.216216, 15.405405)" fill="#00A2D9">
                            <circle id="Oval" cx="6.89189189" cy="6.89189189" r="6.89189189"></circle>
                        </g>
                    </g>
                    <g id="Group" transform="translate(17.723267, 16.982961)" fill="#FFFFFF" fill-rule="nonzero">
                        <path d="M5.27027027,0 C2.35985763,0 0,2.35985763 0,5.27027027 C0,8.18068292 2.35985763,10.5405405 5.27027027,10.5405405 C8.18068292,10.5405405 10.5405405,8.18068292 10.5405405,5.27027027 C10.5405405,2.35985763 8.18068292,0 5.27027027,0 Z M5.71236487,7.76983496 L5.71491415,8.15719164 C5.71491415,8.21095723 5.6690271,8.25616921 5.61294292,8.25616921 L5.25094507,8.25616921 C5.1948609,8.25616921 5.14897385,8.21217918 5.14897385,8.15841358 L5.14897385,7.77472274 C4.01709324,7.69407434 3.48429359,7.07576998 3.42693478,6.40370003 C3.42183621,6.3462686 3.46899791,6.29739078 3.528906,6.29739078 L4.11778983,6.29739078 C4.1675008,6.29739078 4.21083857,6.33160525 4.21848641,6.37803918 C4.28349307,6.76539586 4.59832923,7.05499691 5.16299489,7.12709169 L5.16299489,5.38337565 L4.84815873,5.30639309 C4.18152184,5.15364992 3.54675097,4.75529573 3.54675097,3.92926065 C3.54675097,3.03846248 4.2529017,2.55945989 5.15534705,2.47514566 L5.15534705,2.07190369 C5.15534705,2.01813809 5.2012341,1.97414806 5.25731827,1.97414806 L5.6154922,1.97414806 C5.67157638,1.97414806 5.71746343,2.01813809 5.71746343,2.07190369 L5.71746343,2.47147983 C6.59059205,2.55579406 7.24575717,3.04457221 7.32223559,3.80584417 C7.32860879,3.8632756 7.2814471,3.91337536 7.22026436,3.91337536 L6.64795086,3.91337536 C6.59696525,3.91337536 6.55362748,3.876717 6.54725428,3.82906113 C6.49626866,3.47225309 6.19800283,3.18143009 5.71236487,3.11788893 L5.71236487,4.75896156 L6.03612351,4.83105634 C6.86209043,5.0265676 7.42420682,5.40537066 7.42420682,6.25340075 C7.42420682,7.17352561 6.71040824,7.68674267 5.71236487,7.76983496 Z M4.56874266,3.96882794 C4.56874266,4.3197737 4.70775285,4.59196391 5.0070232,4.76052841 C5.04863772,4.78678026 5.09025223,4.8075054 5.13983549,4.82961222 L5.13983549,3.11633373 C4.81311726,3.18127251 4.56874266,3.46727948 4.56874266,3.96882794 Z M5.85052879,5.42889662 C5.80611046,5.42120801 5.76169213,5.41223797 5.71092832,5.40070505 L5.71092832,7.11398355 C6.3867215,7.06528902 6.85311398,6.76543325 6.85311398,6.26311076 C6.85311398,5.86971024 6.60088132,5.61342325 5.85052879,5.42889662 Z" id="Shape"></path>
                    </g>
                </g>
            </g>
        </g>
    </g>
</svg>